<?xml version="1.0" encoding="utf-8"?>
<!-- Generator: Adobe Illustrator 26.0.2, SVG Export Plug-In . SVG Version: 6.00 Build 0)  -->
<svg version="1.1" id="Layer_1" xmlns="http://www.w3.org/2000/svg" xmlns:xlink="http://www.w3.org/1999/xlink" x="0px" y="0px"
	 viewBox="0 0 140.5 140.5" style="enable-background:new 0 0 140.5 140.5;" xml:space="preserve">
<style type="text/css">
	.st0{fill:#FBCB11;}
	.st1{fill:#123466;}
</style>
<g id="g8567">
	<path id="path8573" class="st0" d="M30.8,140.4c0-0.1,0.3-1,0.6-2c0.5-1.9,1-3.6,2.5-8.8c0.5-1.6,1.1-4,1.5-5.3
		c0.4-1.3,1-3.4,1.3-4.6c1.2-4.3,1.8-6.2,2.6-9.3c0.5-1.7,1.1-4,1.4-5c0.3-1.1,0.9-3.2,1.4-4.8s1.1-3.7,1.3-4.8
		c0.7-2.3,1.6-5.7,2.7-9.4c1.6-5.7,2.3-8.1,2.4-8.3l0-0.2l-8.8,0l-8.8,0l0.4-1.5c0.2-0.8,0.8-2.7,1.3-4.3s1.3-4.2,1.8-6
		c1.2-4,2.4-8,3.6-11.7c1.3-4.2,2.4-8,3.4-11.3c0.5-1.6,1.3-4.1,1.7-5.7c0.5-1.6,1.3-4.3,1.8-6c0.5-1.7,1-3.4,1.2-3.8
		c0.1-0.4,0.2-0.7,0.3-0.8c0.1-0.1,2,0,15,0.2c3,0.1,7.3,0.1,9.7,0.2c2.3,0,4.2,0.1,4.2,0.1c0,0-0.6,1.5-2.4,5.5
		c-0.4,0.9-1.3,2.9-1.9,4.3c-1.4,3.1-2.9,6.4-4.3,9.6c-0.6,1.3-1.2,2.7-1.4,3.2c-0.2,0.5-0.7,1.6-1.1,2.5c-2.8,6.2-3.9,8.8-3.9,8.8
		c0,0,0.8,0.1,1.6,0.1c0.9,0,2.4,0.1,3.3,0.1c0.9,0,2.4,0.1,3.4,0.1c0.9,0,2.8,0.1,4.2,0.2c1.4,0.1,3.1,0.1,3.9,0.2
		c0.7,0,1.3,0.1,1.3,0.1c0,0-0.4,0.7-0.8,1.4c-2.5,4.1-11.5,19.2-15.7,26c-2.6,4.3-7.1,11.8-9.9,16.5c-2.8,4.7-7.4,12.4-10.2,17
		C36.7,130.9,31.1,140.1,30.8,140.4C30.8,140.6,30.8,140.6,30.8,140.4z M74.1,138.6c-0.4-0.1-1.1-0.9-1.7-1.8
		c-2.2-3.3-3.9-8.8-5.3-16.8c-0.3-1.6-0.8-4.9-0.9-6.3c-0.3-3-0.5-4.5-0.6-6c0-0.6-0.1-1.2-0.1-1.3c0-0.3-0.2-2.7-0.3-3.7
		c0-0.3-0.1-1.1-0.1-1.7c0-0.6-0.1-1.9-0.1-2.9l-0.1-1.8l4.4-7.4c2.4-4,5.3-8.8,6.3-10.5s4.5-7.5,7.6-12.7l5.7-9.6l-0.4,0
		c-0.2,0-1.7-0.1-3.2-0.2c-1.6-0.1-4-0.2-5.3-0.2c-4.9-0.2-7.7-0.3-8.9-0.4c-1.1,0-1.3-0.1-1.2-0.2c0-0.1,0.4-0.9,0.9-2
		c0.5-1,1.3-2.9,1.8-4.1c1.1-2.5,3.5-7.9,4.7-10.5c0.4-0.9,1.3-2.8,1.9-4.3c0.6-1.4,1.8-4,2.5-5.6c0.7-1.6,1.8-4,2.4-5.3
		c0.6-1.3,1-2.4,1-2.4c0,0-0.5-0.1-1.2-0.1c-1.2,0-9.6-0.2-9.6-0.2c0,0,0.5-1.5,1-2.6c2.6-6.6,5.6-11.7,9.1-15.7
		c1.1-1.2,1.8-1.9,2.2-2.2C86.9,0,86.9,0,87.3,0c0.2,0,0.5,0.1,0.6,0.2c0.2,0.2,1.6,1.5,2.4,2.5C94.8,8,98.9,16.2,101.9,26
		c1,3.4,2.1,7.3,2.8,10.5c0.2,0.8,0.4,1.6,0.4,1.8c0.2,0.7,0.8,3.8,1,5.3c0.8,4.3,1.6,10,2,13.7c0.1,1,0.2,2,0.2,2.3
		c0.2,1.7,0.4,3.5,0.5,5.1c0.1,1,0.2,2,0.2,2.1c0,0.4,0.3,4.3,0.4,6.9c0.2,4.4,0.3,7.1,0.3,13.4c0,7.6-0.1,11-0.6,17.3
		c-0.3,4.2-0.4,5-1,10.1c-0.8,7-2.3,13.6-3.9,17.9c-1.2,3.1-3,5.9-3.9,6.2C99.9,138.7,74.4,138.7,74.1,138.6L74.1,138.6z"/>
	<path id="path8571" class="st1" d="M74.1,138.6c-0.4-0.1-1.1-0.9-1.7-1.8c-2.2-3.3-3.9-8.8-5.3-16.8c-0.3-1.6-0.8-4.9-0.9-6.3
		c-0.3-3-0.5-4.5-0.6-6c0-0.6-0.1-1.2-0.1-1.3c0-0.3-0.2-2.7-0.3-3.7c0-0.3-0.1-1.1-0.1-1.7c0-0.6-0.1-1.9-0.1-2.9l-0.1-1.8l4.4-7.4
		c2.4-4,5.3-8.8,6.3-10.5s4.5-7.5,7.6-12.7l5.7-9.6l-0.4,0c-0.2,0-1.7-0.1-3.2-0.2c-1.6-0.1-4-0.2-5.3-0.2c-4.9-0.2-7.7-0.3-8.9-0.4
		c-1.1,0-1.3-0.1-1.2-0.2c0-0.1,0.4-0.9,0.9-2c0.5-1,1.3-2.9,1.8-4.1c1.1-2.5,3.5-7.9,4.7-10.5c0.4-0.9,1.3-2.8,1.9-4.3
		c0.6-1.4,1.8-4,2.5-5.6c0.7-1.6,1.8-4,2.4-5.3c0.6-1.3,1-2.4,1-2.4c0,0-0.5-0.1-1.2-0.1c-1.2,0-9.6-0.2-9.6-0.2c0,0,0.5-1.5,1-2.6
		c2.6-6.6,5.6-11.7,9.1-15.7c1.1-1.2,1.8-1.9,2.2-2.2C86.9,0,86.9,0,87.3,0c0.2,0,0.5,0.1,0.6,0.2c0.2,0.2,1.6,1.5,2.4,2.5
		C94.8,8,98.9,16.2,101.9,26c1,3.4,2.1,7.3,2.8,10.5c0.2,0.8,0.4,1.6,0.4,1.8c0.2,0.7,0.8,3.8,1,5.3c0.8,4.3,1.6,10,2,13.7
		c0.1,1,0.2,2,0.2,2.3c0.2,1.7,0.4,3.5,0.5,5.1c0.1,1,0.2,2,0.2,2.1c0,0.4,0.3,4.3,0.4,6.9c0.2,4.4,0.3,7.1,0.3,13.4
		c0,7.6-0.1,11-0.6,17.3c-0.3,4.2-0.4,5-1,10.1c-0.8,7-2.3,13.6-3.9,17.9c-1.2,3.1-3,5.9-3.9,6.2C99.9,138.7,74.4,138.7,74.1,138.6
		L74.1,138.6z"/>
</g>
</svg>
