<?xml version="1.0" encoding="utf-8"?>
<!-- Generator: Adobe Illustrator 26.0.2, SVG Export Plug-In . SVG Version: 6.00 Build 0)  -->
<svg version="1.1" id="Layer_1" xmlns="http://www.w3.org/2000/svg" xmlns:xlink="http://www.w3.org/1999/xlink" x="0px" y="0px"
	 viewBox="0 0 209.5 209.5" style="enable-background:new 0 0 209.5 209.5;" xml:space="preserve">
<style type="text/css">
	.st0{fill:#FBCB11;}
	.st1{fill:#123466;}
</style>
<g id="g8567">
	<path id="path8573" class="st0" d="M100.4,209.5c-0.1,0-0.8-0.1-1.6-0.1c-7.4-0.4-14.6-1.6-21.6-3.5c-16.4-4.5-31.3-12.8-43.8-24.3
		c-2.2-2-5.5-5.4-7.5-7.7c-6-6.8-11.2-14.7-15.2-22.9c-4.9-10.1-8.1-20.4-9.7-31.4c-0.5-3.5-0.6-5-0.9-9.5C0,108.7,0,107.5,0,103.9
		c0-4.2,0.1-4.8,0.3-8.1c0.2-2.4,0.6-5.6,1-7.9c2-12.4,6.2-24.2,12.5-35.3C20.3,41.4,29,31.2,39.2,23c11.4-9.2,25-16,39.3-19.7
		c1.8-0.5,5.8-1.3,7.1-1.6c0.2,0,0.8-0.1,1.2-0.2c3.4-0.6,6.2-0.9,11.4-1.3c2.1-0.2,10.4-0.2,12.4,0c4.3,0.3,4.7,0.4,7.6,0.7
		c1.7,0.2,4.5,0.7,5.9,0.9c2.4,0.5,6.5,1.4,7.6,1.7c0.2,0.1,0.7,0.2,1.1,0.3c5.1,1.4,9.9,3.2,15.5,5.6c3.4,1.5,8.2,4.1,11.8,6.4
		c8.5,5.4,16,11.6,22.6,19c10.1,11.3,17.8,25,22.2,39.4c1.4,4.7,2.6,10.1,3.2,14.1c0,0.2,0.1,0.7,0.2,1.2c0.3,1.8,0.6,4.4,0.7,6.5
		c0.3,3.3,0.3,3.9,0.3,8.6s0,5.3-0.3,8.6c-0.7,8.3-2.4,17-5,24.5c-3.5,10.3-8,19.2-14.3,28c-7.2,10.1-16.5,19.1-27,26.1
		c-5.7,3.8-11.5,6.9-17.8,9.5c-10,4.2-21.3,6.9-31.8,7.7c-4,0.3-4.7,0.3-8.7,0.3C102.4,209.5,100.5,209.5,100.4,209.5L100.4,209.5z
		 M110.3,205.2c5.6-0.4,9.4-0.8,14-1.7c13.2-2.6,25.3-7.6,36.4-15.1c8.5-5.7,16.1-12.7,22.6-20.7c6.2-7.8,11.3-16.4,15.1-25.9
		c4.1-10.2,6.4-20.8,7-32.2c0.1-2.1,0.1-7.8,0-9.8c-0.6-11.7-3-22.4-7.4-33.1c-0.3-0.8-0.9-2.2-1.7-3.9c-0.6-1.3-2.6-5.3-3.5-6.9
		c-3.5-6.3-7.7-12.2-12.4-17.6c-3-3.4-6.8-7.2-10.2-10.1C158.1,18,144.2,10.9,129,7.1c-4.3-1.1-9.3-2-13.5-2.4
		c-0.6-0.1-1.2-0.1-1.3-0.1c-0.4-0.1-4.5-0.3-6.6-0.4C102.8,4,96.3,4.3,90.9,5.1c-4.4,0.6-9.3,1.6-13.5,2.8
		c-14.7,4.2-28.3,11.6-39.5,21.6c-1.7,1.5-2.1,1.9-4.5,4.3C26.6,40.6,21.1,48,16.5,56.5C10.4,67.6,6.4,80,4.9,92.4
		c-0.8,7-1,12.5-0.5,19.4c0.1,1.2,0.2,2.2,0.2,2.3c0,0.1,0.1,0.7,0.1,1.3c0.5,4.8,1.5,10.4,2.8,15.1c0.1,0.4,0.2,0.8,0.2,0.9
		c0.9,3.5,2.8,9,4.6,13.2c0.9,2.1,1.1,2.6,2.2,4.8c4.2,8.5,9.3,15.9,15.7,23c1.5,1.6,5.6,5.7,7.1,7.1c7.3,6.5,14.3,11.2,22.7,15.4
		c2.2,1.1,2.7,1.3,5,2.3c2.6,1.1,5.3,2.2,8.2,3.1c1,0.3,3.6,1.1,4.1,1.3c0.1,0,0.3,0.1,0.5,0.1c7,1.9,14.8,3.2,21.9,3.5
		c0.9,0,1.9,0.1,2.2,0.1C103.2,205.4,108.7,205.3,110.3,205.2L110.3,205.2z M60.7,175.8c0-0.1,0.3-1,0.6-2c0.5-1.9,1-3.6,2.5-8.8
		c0.5-1.6,1.1-4,1.5-5.3c0.4-1.3,1-3.4,1.3-4.6c1.2-4.3,1.8-6.2,2.6-9.3c0.5-1.7,1.1-4,1.4-5c0.3-1.1,0.9-3.2,1.4-4.8
		c0.4-1.6,1.1-3.7,1.3-4.8c0.7-2.3,1.6-5.7,2.7-9.4c1.6-5.7,2.3-8.1,2.4-8.3l0-0.2l-8.8,0l-8.8,0l0.4-1.5c0.2-0.8,0.8-2.7,1.3-4.3
		s1.3-4.2,1.8-6c1.2-4,2.4-8,3.6-11.7c1.3-4.2,2.4-8,3.4-11.3c0.5-1.6,1.3-4.1,1.7-5.7s1.3-4.3,1.8-6s1-3.4,1.2-3.8
		c0.1-0.4,0.2-0.7,0.3-0.8c0.1-0.1,2,0,15,0.2c3,0.1,7.3,0.1,9.7,0.2c2.3,0,4.2,0.1,4.2,0.1c0,0-0.6,1.5-2.4,5.5
		c-0.4,0.9-1.3,2.9-1.9,4.3c-1.4,3.1-2.9,6.4-4.3,9.6c-0.6,1.3-1.2,2.7-1.4,3.2c-0.2,0.5-0.7,1.6-1.1,2.5c-2.8,6.2-3.9,8.8-3.9,8.8
		c0,0,0.8,0.1,1.6,0.1c0.9,0,2.4,0.1,3.3,0.1c0.9,0,2.4,0.1,3.4,0.1c0.9,0,2.8,0.1,4.2,0.2c1.4,0.1,3.1,0.1,3.9,0.2
		c0.7,0,1.3,0.1,1.3,0.1c0,0-0.4,0.7-0.8,1.4c-2.5,4.1-11.5,19.2-15.7,26c-2.6,4.3-7.1,11.8-9.9,16.5c-2.8,4.7-7.4,12.4-10.2,17
		C66.5,166.3,60.9,175.5,60.7,175.8C60.6,175.9,60.6,175.9,60.7,175.8z M103.9,174c-0.4-0.1-1.1-0.9-1.7-1.8
		c-2.2-3.3-3.9-8.8-5.3-16.8c-0.3-1.6-0.8-4.9-0.9-6.3c-0.3-3-0.5-4.5-0.6-6c0-0.6-0.1-1.2-0.1-1.3c0-0.3-0.2-2.7-0.3-3.7
		c0-0.3-0.1-1.1-0.1-1.7c0-0.6-0.1-1.9-0.1-2.9l-0.1-1.8l4.4-7.4c2.4-4,5.3-8.8,6.3-10.5c1-1.7,4.5-7.5,7.6-12.7l5.7-9.6l-0.4,0
		c-0.2,0-1.7-0.1-3.2-0.2c-1.6-0.1-4-0.2-5.3-0.2c-4.9-0.2-7.7-0.3-8.9-0.4c-1.1,0-1.3-0.1-1.2-0.2c0-0.1,0.4-0.9,0.9-2
		s1.3-2.9,1.8-4.1c1.1-2.5,3.5-7.9,4.7-10.5c0.4-0.9,1.3-2.8,1.9-4.3c0.6-1.4,1.8-4,2.5-5.6c0.7-1.6,1.8-4,2.4-5.3
		c0.6-1.3,1-2.4,1-2.4c0,0-0.5-0.1-1.2-0.1c-1.2,0-9.6-0.2-9.6-0.2c0,0,0.5-1.5,1-2.6c2.6-6.6,5.6-11.7,9.1-15.7
		c1.1-1.2,1.8-1.9,2.2-2.2c0.4-0.3,0.4-0.3,0.8-0.2c0.2,0,0.5,0.1,0.6,0.2c0.2,0.2,1.6,1.5,2.4,2.5c4.5,5.2,8.5,13.4,11.5,23.2
		c1,3.4,2.1,7.3,2.8,10.5c0.2,0.8,0.4,1.6,0.4,1.8c0.2,0.7,0.8,3.8,1,5.3c0.8,4.3,1.6,10,2,13.7c0.1,1,0.2,2,0.2,2.3
		c0.2,1.7,0.4,3.5,0.5,5.1c0.1,1,0.2,2,0.2,2.1c0,0.4,0.3,4.3,0.4,6.9c0.2,4.4,0.3,7.1,0.3,13.4c0,7.6-0.1,11-0.6,17.3
		c-0.3,4.2-0.4,5-1,10.1c-0.8,7-2.3,13.6-3.9,17.9c-1.2,3.1-3,5.9-3.9,6.2C129.8,174.1,104.3,174.1,103.9,174L103.9,174z"/>
	<path id="path8571" class="st1" d="M100.4,209.5c-0.1,0-0.8-0.1-1.6-0.1c-7.4-0.4-14.6-1.6-21.6-3.5c-16.4-4.5-31.3-12.8-43.8-24.3
		c-2.2-2-5.5-5.4-7.5-7.7c-6-6.8-11.2-14.7-15.2-22.9c-4.9-10.1-8.1-20.4-9.7-31.4c-0.5-3.5-0.6-5-0.9-9.5C0,108.7,0,107.5,0,103.9
		c0-4.2,0.1-4.8,0.3-8.1c0.2-2.4,0.6-5.6,1-7.9c2-12.4,6.2-24.2,12.5-35.3C20.3,41.4,29,31.2,39.2,23c11.4-9.2,25-16,39.3-19.7
		c1.8-0.5,5.8-1.3,7.1-1.6c0.2,0,0.8-0.1,1.2-0.2c3.4-0.6,6.2-0.9,11.4-1.3c2.1-0.2,10.4-0.2,12.4,0c4.3,0.3,4.7,0.4,7.6,0.7
		c1.7,0.2,4.5,0.7,5.9,0.9c2.4,0.5,6.5,1.4,7.6,1.7c0.2,0.1,0.7,0.2,1.1,0.3c5.1,1.4,9.9,3.2,15.5,5.6c3.4,1.5,8.2,4.1,11.8,6.4
		c8.5,5.4,16,11.6,22.6,19c10.1,11.3,17.8,25,22.2,39.4c1.4,4.7,2.6,10.1,3.2,14.1c0,0.2,0.1,0.7,0.2,1.2c0.3,1.8,0.6,4.4,0.7,6.5
		c0.3,3.3,0.3,3.9,0.3,8.6s0,5.3-0.3,8.6c-0.7,8.3-2.4,17-5,24.5c-3.5,10.3-8,19.2-14.3,28c-7.2,10.1-16.5,19.1-27,26.1
		c-5.7,3.8-11.5,6.9-17.8,9.5c-10,4.2-21.3,6.9-31.8,7.7c-4,0.3-4.7,0.3-8.7,0.3C102.4,209.5,100.5,209.5,100.4,209.5L100.4,209.5z
		 M110.3,205.2c5.6-0.4,9.4-0.8,14-1.7c13.2-2.6,25.3-7.6,36.4-15.1c8.5-5.7,16.1-12.7,22.6-20.7c6.2-7.8,11.3-16.4,15.1-25.9
		c4.1-10.2,6.4-20.8,7-32.2c0.1-2.1,0.1-7.8,0-9.8c-0.6-11.7-3-22.4-7.4-33.1c-0.3-0.8-0.9-2.2-1.7-3.9c-0.6-1.3-2.6-5.3-3.5-6.9
		c-3.5-6.3-7.7-12.2-12.4-17.6c-3-3.4-6.8-7.2-10.2-10.1C158.1,18,144.2,10.9,129,7.1c-4.3-1.1-9.3-2-13.5-2.4
		c-0.6-0.1-1.2-0.1-1.3-0.1c-0.4-0.1-4.5-0.3-6.6-0.4C102.8,4,96.3,4.3,90.9,5.1c-4.4,0.6-9.3,1.6-13.5,2.8
		c-14.7,4.2-28.3,11.6-39.5,21.6c-1.7,1.5-2.1,1.9-4.5,4.3C26.6,40.6,21.1,48,16.5,56.5C10.4,67.6,6.4,80,4.9,92.4
		c-0.8,7-1,12.5-0.5,19.4c0.1,1.2,0.2,2.2,0.2,2.3c0,0.1,0.1,0.7,0.1,1.3c0.5,4.8,1.5,10.4,2.8,15.1c0.1,0.4,0.2,0.8,0.2,0.9
		c0.9,3.5,2.8,9,4.6,13.2c0.9,2.1,1.1,2.6,2.2,4.8c4.2,8.5,9.3,15.9,15.7,23c1.5,1.6,5.6,5.7,7.1,7.1c7.3,6.5,14.3,11.2,22.7,15.4
		c2.2,1.1,2.7,1.3,5,2.3c2.6,1.1,5.3,2.2,8.2,3.1c1,0.3,3.6,1.1,4.1,1.3c0.1,0,0.3,0.1,0.5,0.1c7,1.9,14.8,3.2,21.9,3.5
		c0.9,0,1.9,0.1,2.2,0.1C103.2,205.4,108.7,205.3,110.3,205.2L110.3,205.2z M103.9,174c-0.4-0.1-1.1-0.9-1.7-1.8
		c-2.2-3.3-3.9-8.8-5.3-16.8c-0.3-1.6-0.8-4.9-0.9-6.3c-0.3-3-0.5-4.5-0.6-6c0-0.6-0.1-1.2-0.1-1.3c0-0.3-0.2-2.7-0.3-3.7
		c0-0.3-0.1-1.1-0.1-1.7c0-0.6-0.1-1.9-0.1-2.9l-0.1-1.8l4.4-7.4c2.4-4,5.3-8.8,6.3-10.5c1-1.7,4.5-7.5,7.6-12.7l5.7-9.6l-0.4,0
		c-0.2,0-1.7-0.1-3.2-0.2c-1.6-0.1-4-0.2-5.3-0.2c-4.9-0.2-7.7-0.3-8.9-0.4c-1.1,0-1.3-0.1-1.2-0.2c0-0.1,0.4-0.9,0.9-2
		s1.3-2.9,1.8-4.1c1.1-2.5,3.5-7.9,4.7-10.5c0.4-0.9,1.3-2.8,1.9-4.3c0.6-1.4,1.8-4,2.5-5.6c0.7-1.6,1.8-4,2.4-5.3
		c0.6-1.3,1-2.4,1-2.4c0,0-0.5-0.1-1.2-0.1c-1.2,0-9.6-0.2-9.6-0.2c0,0,0.5-1.5,1-2.6c2.6-6.6,5.6-11.7,9.1-15.7
		c1.1-1.2,1.8-1.9,2.2-2.2c0.4-0.3,0.4-0.3,0.8-0.2c0.2,0,0.5,0.1,0.6,0.2c0.2,0.2,1.6,1.5,2.4,2.5c4.5,5.2,8.5,13.4,11.5,23.2
		c1,3.4,2.1,7.3,2.8,10.5c0.2,0.8,0.4,1.6,0.4,1.8c0.2,0.7,0.8,3.8,1,5.3c0.8,4.3,1.6,10,2,13.7c0.1,1,0.2,2,0.2,2.3
		c0.2,1.7,0.4,3.5,0.5,5.1c0.1,1,0.2,2,0.2,2.1c0,0.4,0.3,4.3,0.4,6.9c0.2,4.4,0.3,7.1,0.3,13.4c0,7.6-0.1,11-0.6,17.3
		c-0.3,4.2-0.4,5-1,10.1c-0.8,7-2.3,13.6-3.9,17.9c-1.2,3.1-3,5.9-3.9,6.2C129.8,174.1,104.3,174.1,103.9,174L103.9,174z"/>
	<path id="path8569" d="M101.4,209.5c-1.2,0-3.6-0.2-4.9-0.3c-0.6-0.1-1.4-0.1-1.6-0.1c-0.6-0.1-2.2-0.2-2.9-0.3
		c-2.7-0.4-4.6-0.6-6.4-1c-0.4-0.1-0.9-0.2-1.1-0.2c-0.3-0.1-1.9-0.4-2.8-0.6c-5.9-1.3-11.9-3.3-17.8-5.8
		c-14.4-6.1-26.9-15.1-37.5-27c-3-3.4-6.1-7.4-8.8-11.4c-2.8-4.3-5.6-9.2-7.6-13.5c-2.6-5.7-4.6-11-6.1-16.5
		c-0.1-0.2-0.2-0.6-0.2-0.7c-0.6-2.1-1.4-5.8-2-8.9c-1.6-8.9-2-18.1-1.2-27.3c0.4-5.2,1.2-9.9,2.4-15.1c1.4-5.9,3.3-11.7,5.8-17.5
		c1.5-3.6,3.2-6.9,5.3-10.5c3.9-6.8,8.7-13.4,14.1-19.2C38.7,22,51.6,13.1,66.2,7.3c2.7-1.1,6.2-2.3,8.6-3c1.3-0.4,2.1-0.6,2.3-0.7
		c0.1,0,0.8-0.2,1.6-0.4C84.2,1.9,89.9,0.9,95,0.5c0.7-0.1,1.6-0.1,2.1-0.2c3.1-0.3,7.6-0.4,11.5-0.2c1.6,0.1,4.4,0.2,5.3,0.3
		c6.6,0.7,10.8,1.4,16.4,2.8c0.6,0.1,1,0.2,2.2,0.6c0.2,0.1,0.4,0.1,0.5,0.1c0.5,0.1,3.1,0.9,4.1,1.2c3.6,1.2,7.2,2.5,10.3,3.9
		c0.6,0.3,1.2,0.5,1.4,0.6c0.8,0.4,3.7,1.8,4.8,2.4c8.4,4.5,15.5,9.5,22.6,16c1.4,1.3,4.2,4.1,5.6,5.6c0.3,0.3,0.6,0.7,0.9,0.9
		c0.7,0.8,2.8,3.2,3.8,4.4c8,9.9,14.1,21.2,18,33.3c0.3,1.1,1.1,3.6,1.3,4.4c0.1,0.2,0.2,0.6,0.2,0.7c0.2,0.6,0.9,3.8,1.2,4.8
		c0.1,0.6,0.3,1.2,0.3,1.5c0.3,1.5,0.9,4.8,1.2,7.5c0.3,1.9,0.6,5.1,0.7,7.8c0.1,1.9,0.1,9.4,0,11.2c-0.3,4.4-0.7,7.8-1.3,11.6
		c-0.6,3.4-1.5,7.8-2.2,10.1c-0.1,0.2-0.1,0.5-0.2,0.7c-1.3,4.9-3.5,10.8-6.1,16.4c-2.4,5.2-5.8,11.1-9.3,16
		c-4.8,6.8-10.3,12.9-16.4,18.2c-10,8.7-21.2,15.4-33.6,19.9c-1.7,0.6-5.5,1.8-6.5,2.1c-0.1,0-0.8,0.2-1.6,0.4
		c-0.8,0.2-1.7,0.5-2,0.5s-0.9,0.2-1.2,0.3c-0.3,0.1-0.8,0.2-1.1,0.2s-0.7,0.2-1,0.2c-5.6,1.3-12,2.1-18.4,2.3
		C107,209.5,103.3,209.5,101.4,209.5L101.4,209.5z M108.5,205.3c2.8-0.1,4.9-0.3,8-0.6c7.1-0.8,14.8-2.6,22-5.1
		c1.1-0.4,1.3-0.5,3.2-1.2c4.4-1.7,9.5-4.2,13.9-6.7c5.8-3.4,11.2-7.3,16.2-11.8c1.7-1.5,2.5-2.3,4.4-4.1c1.3-1.3,2-2,3.6-3.8
		c0.2-0.2,0.7-0.8,1.2-1.3c7.8-9,13.8-19.1,18-30.4c1.1-2.9,2.3-6.6,2.9-8.9c0.8-3.1,1.1-4.4,1.6-6.6c0.9-4.5,1.3-7.1,1.7-12.3
		c0.2-2,0.2-4.1,0.2-7.7s-0.1-5.6-0.2-7.7c-0.4-4.1-0.7-7-1.2-9.8c-0.2-1.2-0.5-2.9-0.6-3.3c-0.5-2.4-0.8-3.5-1.4-5.7
		c-1.1-4.1-3.1-9.9-5-14.1c-0.3-0.8-0.7-1.5-0.8-1.7c-0.3-0.7-1.8-3.7-2.3-4.7c-4.1-7.7-8.9-14.6-14.7-20.9
		c-4.8-5.3-9.9-9.7-15.9-14.1c-4.7-3.4-10.9-7-15.9-9.3c-0.4-0.2-0.9-0.4-1.2-0.5c-6.3-2.9-14.5-5.5-21.3-6.8
		c-0.4-0.1-0.9-0.2-1.1-0.2c-0.7-0.1-2.7-0.5-4-0.7c-7.3-1.1-14.5-1.4-21.9-0.9c-1.8,0.1-4.3,0.4-5.1,0.5c-1.9,0.2-2.4,0.3-3.8,0.5
		c-2.3,0.4-3.5,0.6-6.5,1.2c-4.2,0.9-9.8,2.7-14.6,4.5c-4.6,1.8-9.8,4.3-13.7,6.6c-1.6,0.9-2.1,1.3-2.9,1.8
		c-11.8,7.4-22.1,17.4-30,29.1c-1.7,2.5-3.2,5-4.8,8c-0.6,1-2.5,4.9-3,6c-0.7,1.5-1.9,4.5-2.8,6.8c-0.5,1.2-1.6,4.5-2,5.9
		c-0.4,1.4-0.6,2.1-0.8,2.7c-3.5,12.8-4.4,25.3-2.9,38.5c0.2,2,0.8,5.6,1.1,7.2c0,0.2,0.1,0.7,0.2,1.1c0.3,1.7,0.7,3.4,1.2,5.1
		c0.2,0.7,0.3,1.3,0.4,1.5c0.2,0.9,1.1,3.9,1.5,5c1.1,3.1,2.4,6.8,3.5,9.1c1,2.3,1.4,3.1,2.2,4.6c2.9,5.9,6.2,11,10.2,16.2
		c1.5,2,3.5,4.4,4.8,5.8c0.2,0.2,0.7,0.8,1.2,1.3c2.1,2.3,5.6,5.7,8.4,8.1c6.9,5.9,14.9,11.1,22.9,14.7c2.7,1.2,2.7,1.2,5.1,2.2
		c3,1.2,7.6,2.8,10.5,3.5c0.2,0.1,0.6,0.2,0.7,0.2c0.7,0.2,2.8,0.7,5.3,1.3c0.3,0.1,1,0.2,1.6,0.3c2.2,0.4,2.2,0.4,4.3,0.7
		c2,0.3,4.1,0.6,7.2,0.8C100,205.4,105,205.5,108.5,205.3L108.5,205.3z"/>
</g>
</svg>
