<?xml version="1.0" encoding="UTF-8"?>
<svg id="Layer_1" data-name="Layer 1" xmlns="http://www.w3.org/2000/svg" viewBox="0 0 209.48 209.5">
  <defs>
    <style>
      .cls-1 {
        fill: #fff;
      }

      .cls-2 {
        fill: #fbcb11;
      }

      .cls-3 {
        fill: #123466;
      }
    </style>
  </defs>
  <circle class="cls-1" cx="104.99" cy="104.66" r="102.55"/>
  <g id="g8567">
    <path id="path8573" class="cls-2" d="M100.4,209.5c-.1,0-.8-.1-1.6-.1-7.4-.4-14.6-1.6-21.6-3.5-16.4-4.5-31.3-12.8-43.8-24.3-2.2-2-5.5-5.4-7.5-7.7-6-6.8-11.2-14.7-15.2-22.9-4.9-10.1-8.1-20.4-9.7-31.4-.5-3.5-.6-5-.9-9.5-.1-1.4-.1-2.6-.1-6.2,0-4.2,.1-4.8,.3-8.1,.2-2.4,.6-5.6,1-7.9,2-12.4,6.2-24.2,12.5-35.3,6.5-11.2,15.2-21.4,25.4-29.6C50.6,13.8,64.2,7,78.5,3.3c1.8-.5,5.8-1.3,7.1-1.6,.2,0,.8-.1,1.2-.2,3.4-.6,6.2-.9,11.4-1.3C100.3,0,108.6,0,110.6,.2c4.3,.3,4.7,.4,7.6,.7,1.7,.2,4.5,.7,5.9,.9,2.4,.5,6.5,1.4,7.6,1.7,.2,.1,.7,.2,1.1,.3,5.1,1.4,9.9,3.2,15.5,5.6,3.4,1.5,8.2,4.1,11.8,6.4,8.5,5.4,16,11.6,22.6,19,10.1,11.3,17.8,25,22.2,39.4,1.4,4.7,2.6,10.1,3.2,14.1,0,.2,.1,.7,.2,1.2,.3,1.8,.6,4.4,.7,6.5,.3,3.3,.3,3.9,.3,8.6s0,5.3-.3,8.6c-.7,8.3-2.4,17-5,24.5-3.5,10.3-8,19.2-14.3,28-7.2,10.1-16.5,19.1-27,26.1-5.7,3.8-11.5,6.9-17.8,9.5-10,4.2-21.3,6.9-31.8,7.7-4,.3-4.7,.3-8.7,.3-2,.2-3.9,.2-4,.2h0Zm9.9-4.3c5.6-.4,9.4-.8,14-1.7,13.2-2.6,25.3-7.6,36.4-15.1,8.5-5.7,16.1-12.7,22.6-20.7,6.2-7.8,11.3-16.4,15.1-25.9,4.1-10.2,6.4-20.8,7-32.2,.1-2.1,.1-7.8,0-9.8-.6-11.7-3-22.4-7.4-33.1-.3-.8-.9-2.2-1.7-3.9-.6-1.3-2.6-5.3-3.5-6.9-3.5-6.3-7.7-12.2-12.4-17.6-3-3.4-6.8-7.2-10.2-10.1-12.1-10.2-26-17.3-41.2-21.1-4.3-1.1-9.3-2-13.5-2.4-.6-.1-1.2-.1-1.3-.1-.4-.1-4.5-.3-6.6-.4-4.8-.2-11.3,.1-16.7,.9-4.4,.6-9.3,1.6-13.5,2.8-14.7,4.2-28.3,11.6-39.5,21.6-1.7,1.5-2.1,1.9-4.5,4.3-6.8,6.8-12.3,14.2-16.9,22.7-6.1,11.1-10.1,23.5-11.6,35.9-.8,7-1,12.5-.5,19.4,.1,1.2,.2,2.2,.2,2.3s.1,.7,.1,1.3c.5,4.8,1.5,10.4,2.8,15.1,.1,.4,.2,.8,.2,.9,.9,3.5,2.8,9,4.6,13.2,.9,2.1,1.1,2.6,2.2,4.8,4.2,8.5,9.3,15.9,15.7,23,1.5,1.6,5.6,5.7,7.1,7.1,7.3,6.5,14.3,11.2,22.7,15.4,2.2,1.1,2.7,1.3,5,2.3,2.6,1.1,5.3,2.2,8.2,3.1,1,.3,3.6,1.1,4.1,1.3,.1,0,.3,.1,.5,.1,7,1.9,14.8,3.2,21.9,3.5,.9,0,1.9,.1,2.2,.1,1.3,.1,6.8,0,8.4-.1h0Zm-49.6-29.4c0-.1,.3-1,.6-2,.5-1.9,1-3.6,2.5-8.8,.5-1.6,1.1-4,1.5-5.3s1-3.4,1.3-4.6c1.2-4.3,1.8-6.2,2.6-9.3,.5-1.7,1.1-4,1.4-5,.3-1.1,.9-3.2,1.4-4.8,.4-1.6,1.1-3.7,1.3-4.8,.7-2.3,1.6-5.7,2.7-9.4,1.6-5.7,2.3-8.1,2.4-8.3v-.2h-17.6l.4-1.5c.2-.8,.8-2.7,1.3-4.3s1.3-4.2,1.8-6c1.2-4,2.4-8,3.6-11.7,1.3-4.2,2.4-8,3.4-11.3,.5-1.6,1.3-4.1,1.7-5.7s1.3-4.3,1.8-6,1-3.4,1.2-3.8c.1-.4,.2-.7,.3-.8,.1-.1,2,0,15,.2,3,.1,7.3,.1,9.7,.2,2.3,0,4.2,.1,4.2,.1,0,0-.6,1.5-2.4,5.5-.4,.9-1.3,2.9-1.9,4.3-1.4,3.1-2.9,6.4-4.3,9.6-.6,1.3-1.2,2.7-1.4,3.2-.2,.5-.7,1.6-1.1,2.5-2.8,6.2-3.9,8.8-3.9,8.8,0,0,.8,.1,1.6,.1,.9,0,2.4,.1,3.3,.1s2.4,.1,3.4,.1c.9,0,2.8,.1,4.2,.2,1.4,.1,3.1,.1,3.9,.2,.7,0,1.3,.1,1.3,.1,0,0-.4,.7-.8,1.4-2.5,4.1-11.5,19.2-15.7,26-2.6,4.3-7.1,11.8-9.9,16.5s-7.4,12.4-10.2,17c-4.8,8-10.4,17.2-10.6,17.5q-.1,.1,0,0Zm43.2-1.8c-.4-.1-1.1-.9-1.7-1.8-2.2-3.3-3.9-8.8-5.3-16.8-.3-1.6-.8-4.9-.9-6.3-.3-3-.5-4.5-.6-6,0-.6-.1-1.2-.1-1.3,0-.3-.2-2.7-.3-3.7,0-.3-.1-1.1-.1-1.7s-.1-1.9-.1-2.9l-.1-1.8,4.4-7.4c2.4-4,5.3-8.8,6.3-10.5s4.5-7.5,7.6-12.7l5.7-9.6h-.4c-.2,0-1.7-.1-3.2-.2-1.6-.1-4-.2-5.3-.2-4.9-.2-7.7-.3-8.9-.4-1.1,0-1.3-.1-1.2-.2,0-.1,.4-.9,.9-2s1.3-2.9,1.8-4.1c1.1-2.5,3.5-7.9,4.7-10.5,.4-.9,1.3-2.8,1.9-4.3,.6-1.4,1.8-4,2.5-5.6s1.8-4,2.4-5.3,1-2.4,1-2.4c0,0-.5-.1-1.2-.1-1.2,0-9.6-.2-9.6-.2,0,0,.5-1.5,1-2.6,2.6-6.6,5.6-11.7,9.1-15.7,1.1-1.2,1.8-1.9,2.2-2.2q.4-.3,.8-.2c.2,0,.5,.1,.6,.2,.2,.2,1.6,1.5,2.4,2.5,4.5,5.2,8.5,13.4,11.5,23.2,1,3.4,2.1,7.3,2.8,10.5,.2,.8,.4,1.6,.4,1.8,.2,.7,.8,3.8,1,5.3,.8,4.3,1.6,10,2,13.7,.1,1,.2,2,.2,2.3,.2,1.7,.4,3.5,.5,5.1,.1,1,.2,2,.2,2.1,0,.4,.3,4.3,.4,6.9,.2,4.4,.3,7.1,.3,13.4,0,7.6-.1,11-.6,17.3-.3,4.2-.4,5-1,10.1-.8,7-2.3,13.6-3.9,17.9-1.2,3.1-3,5.9-3.9,6.2-.3,.3-25.8,.3-26.2,.2h0Z"/>
    <path id="path8571" class="cls-3" d="M100.4,209.5c-.1,0-.8-.1-1.6-.1-7.4-.4-14.6-1.6-21.6-3.5-16.4-4.5-31.3-12.8-43.8-24.3-2.2-2-5.5-5.4-7.5-7.7-6-6.8-11.2-14.7-15.2-22.9-4.9-10.1-8.1-20.4-9.7-31.4-.5-3.5-.6-5-.9-9.5-.1-1.4-.1-2.6-.1-6.2,0-4.2,.1-4.8,.3-8.1,.2-2.4,.6-5.6,1-7.9,2-12.4,6.2-24.2,12.5-35.3,6.5-11.2,15.2-21.4,25.4-29.6C50.6,13.8,64.2,7,78.5,3.3c1.8-.5,5.8-1.3,7.1-1.6,.2,0,.8-.1,1.2-.2,3.4-.6,6.2-.9,11.4-1.3C100.3,0,108.6,0,110.6,.2c4.3,.3,4.7,.4,7.6,.7,1.7,.2,4.5,.7,5.9,.9,2.4,.5,6.5,1.4,7.6,1.7,.2,.1,.7,.2,1.1,.3,5.1,1.4,9.9,3.2,15.5,5.6,3.4,1.5,8.2,4.1,11.8,6.4,8.5,5.4,16,11.6,22.6,19,10.1,11.3,17.8,25,22.2,39.4,1.4,4.7,2.6,10.1,3.2,14.1,0,.2,.1,.7,.2,1.2,.3,1.8,.6,4.4,.7,6.5,.3,3.3,.3,3.9,.3,8.6s0,5.3-.3,8.6c-.7,8.3-2.4,17-5,24.5-3.5,10.3-8,19.2-14.3,28-7.2,10.1-16.5,19.1-27,26.1-5.7,3.8-11.5,6.9-17.8,9.5-10,4.2-21.3,6.9-31.8,7.7-4,.3-4.7,.3-8.7,.3-2,.2-3.9,.2-4,.2h0Zm9.9-4.3c5.6-.4,9.4-.8,14-1.7,13.2-2.6,25.3-7.6,36.4-15.1,8.5-5.7,16.1-12.7,22.6-20.7,6.2-7.8,11.3-16.4,15.1-25.9,4.1-10.2,6.4-20.8,7-32.2,.1-2.1,.1-7.8,0-9.8-.6-11.7-3-22.4-7.4-33.1-.3-.8-.9-2.2-1.7-3.9-.6-1.3-2.6-5.3-3.5-6.9-3.5-6.3-7.7-12.2-12.4-17.6-3-3.4-6.8-7.2-10.2-10.1-12.1-10.2-26-17.3-41.2-21.1-4.3-1.1-9.3-2-13.5-2.4-.6-.1-1.2-.1-1.3-.1-.4-.1-4.5-.3-6.6-.4-4.8-.2-11.3,.1-16.7,.9-4.4,.6-9.3,1.6-13.5,2.8-14.7,4.2-28.3,11.6-39.5,21.6-1.7,1.5-2.1,1.9-4.5,4.3-6.8,6.8-12.3,14.2-16.9,22.7-6.1,11.1-10.1,23.5-11.6,35.9-.8,7-1,12.5-.5,19.4,.1,1.2,.2,2.2,.2,2.3s.1,.7,.1,1.3c.5,4.8,1.5,10.4,2.8,15.1,.1,.4,.2,.8,.2,.9,.9,3.5,2.8,9,4.6,13.2,.9,2.1,1.1,2.6,2.2,4.8,4.2,8.5,9.3,15.9,15.7,23,1.5,1.6,5.6,5.7,7.1,7.1,7.3,6.5,14.3,11.2,22.7,15.4,2.2,1.1,2.7,1.3,5,2.3,2.6,1.1,5.3,2.2,8.2,3.1,1,.3,3.6,1.1,4.1,1.3,.1,0,.3,.1,.5,.1,7,1.9,14.8,3.2,21.9,3.5,.9,0,1.9,.1,2.2,.1,1.3,.1,6.8,0,8.4-.1h0Zm-6.4-31.2c-.4-.1-1.1-.9-1.7-1.8-2.2-3.3-3.9-8.8-5.3-16.8-.3-1.6-.8-4.9-.9-6.3-.3-3-.5-4.5-.6-6,0-.6-.1-1.2-.1-1.3,0-.3-.2-2.7-.3-3.7,0-.3-.1-1.1-.1-1.7s-.1-1.9-.1-2.9l-.1-1.8,4.4-7.4c2.4-4,5.3-8.8,6.3-10.5s4.5-7.5,7.6-12.7l5.7-9.6h-.4c-.2,0-1.7-.1-3.2-.2-1.6-.1-4-.2-5.3-.2-4.9-.2-7.7-.3-8.9-.4-1.1,0-1.3-.1-1.2-.2,0-.1,.4-.9,.9-2s1.3-2.9,1.8-4.1c1.1-2.5,3.5-7.9,4.7-10.5,.4-.9,1.3-2.8,1.9-4.3,.6-1.4,1.8-4,2.5-5.6s1.8-4,2.4-5.3,1-2.4,1-2.4c0,0-.5-.1-1.2-.1-1.2,0-9.6-.2-9.6-.2,0,0,.5-1.5,1-2.6,2.6-6.6,5.6-11.7,9.1-15.7,1.1-1.2,1.8-1.9,2.2-2.2q.4-.3,.8-.2c.2,0,.5,.1,.6,.2,.2,.2,1.6,1.5,2.4,2.5,4.5,5.2,8.5,13.4,11.5,23.2,1,3.4,2.1,7.3,2.8,10.5,.2,.8,.4,1.6,.4,1.8,.2,.7,.8,3.8,1,5.3,.8,4.3,1.6,10,2,13.7,.1,1,.2,2,.2,2.3,.2,1.7,.4,3.5,.5,5.1,.1,1,.2,2,.2,2.1,0,.4,.3,4.3,.4,6.9,.2,4.4,.3,7.1,.3,13.4,0,7.6-.1,11-.6,17.3-.3,4.2-.4,5-1,10.1-.8,7-2.3,13.6-3.9,17.9-1.2,3.1-3,5.9-3.9,6.2-.3,.3-25.8,.3-26.2,.2h0Z"/>
    <path id="path8569" d="M101.4,209.5c-1.2,0-3.6-.2-4.9-.3-.6-.1-1.4-.1-1.6-.1-.6-.1-2.2-.2-2.9-.3-2.7-.4-4.6-.6-6.4-1-.4-.1-.9-.2-1.1-.2-.3-.1-1.9-.4-2.8-.6-5.9-1.3-11.9-3.3-17.8-5.8-14.4-6.1-26.9-15.1-37.5-27-3-3.4-6.1-7.4-8.8-11.4-2.8-4.3-5.6-9.2-7.6-13.5-2.6-5.7-4.6-11-6.1-16.5-.1-.2-.2-.6-.2-.7-.6-2.1-1.4-5.8-2-8.9C.1,114.3-.3,105.1,.5,95.9c.4-5.2,1.2-9.9,2.4-15.1,1.4-5.9,3.3-11.7,5.8-17.5,1.5-3.6,3.2-6.9,5.3-10.5,3.9-6.8,8.7-13.4,14.1-19.2,10.6-11.6,23.5-20.5,38.1-26.3,2.7-1.1,6.2-2.3,8.6-3,1.3-.4,2.1-.6,2.3-.7,.1,0,.8-.2,1.6-.4,5.5-1.3,11.2-2.3,16.3-2.7,.7-.1,1.6-.1,2.1-.2,3.1-.3,7.6-.4,11.5-.2,1.6,.1,4.4,.2,5.3,.3,6.6,.7,10.8,1.4,16.4,2.8,.6,.1,1,.2,2.2,.6,.2,.1,.4,.1,.5,.1,.5,.1,3.1,.9,4.1,1.2,3.6,1.2,7.2,2.5,10.3,3.9,.6,.3,1.2,.5,1.4,.6,.8,.4,3.7,1.8,4.8,2.4,8.4,4.5,15.5,9.5,22.6,16,1.4,1.3,4.2,4.1,5.6,5.6,.3,.3,.6,.7,.9,.9,.7,.8,2.8,3.2,3.8,4.4,8,9.9,14.1,21.2,18,33.3,.3,1.1,1.1,3.6,1.3,4.4,.1,.2,.2,.6,.2,.7,.2,.6,.9,3.8,1.2,4.8,.1,.6,.3,1.2,.3,1.5,.3,1.5,.9,4.8,1.2,7.5,.3,1.9,.6,5.1,.7,7.8,.1,1.9,.1,9.4,0,11.2-.3,4.4-.7,7.8-1.3,11.6-.6,3.4-1.5,7.8-2.2,10.1-.1,.2-.1,.5-.2,.7-1.3,4.9-3.5,10.8-6.1,16.4-2.4,5.2-5.8,11.1-9.3,16-4.8,6.8-10.3,12.9-16.4,18.2-10,8.7-21.2,15.4-33.6,19.9-1.7,.6-5.5,1.8-6.5,2.1-.1,0-.8,.2-1.6,.4s-1.7,.5-2,.5-.9,.2-1.2,.3-.8,.2-1.1,.2-.7,.2-1,.2c-5.6,1.3-12,2.1-18.4,2.3-1.5,.5-5.2,.5-7.1,.5h0Zm7.1-4.2c2.8-.1,4.9-.3,8-.6,7.1-.8,14.8-2.6,22-5.1,1.1-.4,1.3-.5,3.2-1.2,4.4-1.7,9.5-4.2,13.9-6.7,5.8-3.4,11.2-7.3,16.2-11.8,1.7-1.5,2.5-2.3,4.4-4.1,1.3-1.3,2-2,3.6-3.8,.2-.2,.7-.8,1.2-1.3,7.8-9,13.8-19.1,18-30.4,1.1-2.9,2.3-6.6,2.9-8.9,.8-3.1,1.1-4.4,1.6-6.6,.9-4.5,1.3-7.1,1.7-12.3,.2-2,.2-4.1,.2-7.7s-.1-5.6-.2-7.7c-.4-4.1-.7-7-1.2-9.8-.2-1.2-.5-2.9-.6-3.3-.5-2.4-.8-3.5-1.4-5.7-1.1-4.1-3.1-9.9-5-14.1-.3-.8-.7-1.5-.8-1.7-.3-.7-1.8-3.7-2.3-4.7-4.1-7.7-8.9-14.6-14.7-20.9-4.8-5.3-9.9-9.7-15.9-14.1-4.7-3.4-10.9-7-15.9-9.3-.4-.2-.9-.4-1.2-.5-6.3-2.9-14.5-5.5-21.3-6.8-.4-.1-.9-.2-1.1-.2-.7-.1-2.7-.5-4-.7-7.3-1.1-14.5-1.4-21.9-.9-1.8,.1-4.3,.4-5.1,.5-1.9,.2-2.4,.3-3.8,.5-2.3,.4-3.5,.6-6.5,1.2-4.2,.9-9.8,2.7-14.6,4.5-4.6,1.8-9.8,4.3-13.7,6.6-1.6,.9-2.1,1.3-2.9,1.8-11.8,7.4-22.1,17.4-30,29.1-1.7,2.5-3.2,5-4.8,8-.6,1-2.5,4.9-3,6-.7,1.5-1.9,4.5-2.8,6.8-.5,1.2-1.6,4.5-2,5.9s-.6,2.1-.8,2.7c-3.5,12.8-4.4,25.3-2.9,38.5,.2,2,.8,5.6,1.1,7.2,0,.2,.1,.7,.2,1.1,.3,1.7,.7,3.4,1.2,5.1,.2,.7,.3,1.3,.4,1.5,.2,.9,1.1,3.9,1.5,5,1.1,3.1,2.4,6.8,3.5,9.1,1,2.3,1.4,3.1,2.2,4.6,2.9,5.9,6.2,11,10.2,16.2,1.5,2,3.5,4.4,4.8,5.8,.2,.2,.7,.8,1.2,1.3,2.1,2.3,5.6,5.7,8.4,8.1,6.9,5.9,14.9,11.1,22.9,14.7q2.7,1.2,5.1,2.2c3,1.2,7.6,2.8,10.5,3.5,.2,.1,.6,.2,.7,.2,.7,.2,2.8,.7,5.3,1.3,.3,.1,1,.2,1.6,.3q2.2,.4,4.3,.7c2,.3,4.1,.6,7.2,.8,2.7,.2,7.7,.3,11.2,.1h0Z"/>
  </g>
</svg>