<?xml version="1.0" encoding="utf-8"?>
<!-- Generator: Adobe Illustrator 26.0.2, SVG Export Plug-In . SVG Version: 6.00 Build 0)  -->
<svg version="1.1" id="Layer_1" xmlns="http://www.w3.org/2000/svg" xmlns:xlink="http://www.w3.org/1999/xlink" x="0px" y="0px"
	 viewBox="0 0 1474.6 1537.7" style="enable-background:new 0 0 1474.6 1537.7;" xml:space="preserve">
<style type="text/css">
	.st0{fill:#FFFFFF;}
	.st1{fill:#010201;}
	.st2{fill:#2BC1CB;}
	.st3{fill:#209097;}
	.st4{fill:#FD7A1D;}
	.st5{fill:#99D225;}
</style>
<g>
	<path class="st0" d="M1474.6,395.5c0,380.7,0,761.5,0,1142.2c-394,0-788,0-1182,0c-0.5-0.1-0.6-0.5-0.5-0.9
		c2.8-0.5,5.7-0.9,8.5-1.5c15.5-3,31.1-5.7,46.8-8c12.8-1.9,25.6-3.6,38.5-5.2c13.2-1.6,26.3-3.2,39.5-4.4
		c13.4-1.3,26.8-2.2,40.1-3.3c20.1-1.7,40.2-2.6,60.3-3.4c18.7-0.7,37.4-1.3,56.1-1.2c18.2,0,36.5-0.1,54.7,0.5
		c23.8,0.8,47.6,1.7,71.4,2.3c26,0.7,52.1,1.2,78.2,1.7c28.8,0.5,57.5,0.8,86.3,1c40,0.3,79.9,0.5,119.9-1.6
		c11.2-0.6,22.3-1.3,33.5-2.2c13.2-1,26.4-2.2,39.6-3.4c9.9-0.9,19.7-2,29.6-3.1c2.2-0.2,4.3-0.8,6.4-1.2c-1-0.5-2-0.7-2.9-0.7
		c-7,0-14.1,0-21.1,0.1c-16.3,0.2-32.6,0.5-48.9,0.8c-2,0-3.4-0.3-4.2-2.3c-0.2-0.6-0.6-1.1-1-1.6c-13.7-22.9-27.5-45.7-41.2-68.6
		c-0.5-0.8-1-1.6-1.5-2.4c-0.6-1-0.8-2-0.3-3.2c0.3-0.7,0.5-1.5,0.7-2.3c8.2-25.7,16.4-51.4,24.6-77.1c0.8-2.6,1.8-5.1,2.8-7.6
		c1-2.4,2.7-3.7,5.5-3.9c6.7-0.4,13.4-1,20.1-1.5c11.5-0.8,23-1.4,34.5-2.2c1.8-0.1,3.5-0.4,5.2-0.6c1.8-0.2,2-0.4,1.9-2
		c-0.2-3.3-0.6-6.7-0.9-10c-2-18.1-4.1-36.2-6.2-54.3c-2.3-19.5-4.5-39.1-7-58.6c-0.3-2.1,0.2-3.3,2.1-4.2c0.7-0.3,1.4-0.8,2-1.3
		c20.1-12.2,40.1-24.5,60.2-36.6c14.4-8.7,28.7-17.4,43.5-25.4c4.9-2.7,9.9-5,15.4-6.5c7.1-2,13.1-5.8,17.8-11.5
		c5.7-7,7.7-15,5.9-23.8c-2.2-11.3-15.3-25.2-29.8-25c-2.4,0-4.8-0.2-7.2-0.2c-1.3,0-2.1-0.5-2.8-1.5c-0.3-0.5-0.7-1.1-1.1-1.6
		c-19.4-29-38.7-57.9-58.1-86.9c-1.2-1.8-1.9-3.6-2-5.8c-0.1-4-0.3-8-0.6-12c-0.4-5.9-1-11.8-3.8-17.2c-4.3-8.3-10.3-15-18.1-20
		c-5.9-3.7-12.3-6.1-19.3-6.6c-10.6-0.9-20.2,2.1-29,8c-1.1,0.7-2,1.5-3.1,2.3c-3.7,2.6-4.6,1.8-5.3-2.1c-1.6-9-2.6-18-3.7-27.1
		c-0.6-4.7-0.9-9.5-1.9-14.2c-0.7-0.1-1.2-0.3-1.6-0.3c-15.5-0.7-31-1.9-46.5-1.9c-0.6,0-1.3,0-1.9,0c-1.1,0-1.8-0.5-1.8-1.7
		c0-3-0.1-6.1,0-9.1c0.1-2.6,1-3.8,3.5-4.4c2.3-0.6,4.7-0.9,7.1-1.1c8.9-0.9,17.8-1.8,26.7-2.6c9.3-0.9,7.9-0.2,7.4-9.2
		c-0.5-8-1.6-15.9-2.4-23.9c-1.4-12.9-3.6-25.6-6.8-38.2c-4.2-16.6-9.8-32.8-17.7-48c-7.4-14.3-16.6-27.3-28.7-38.1
		c-15.9-14.2-34.5-22.3-55.6-24.5c-5.9-0.6-11.8-0.8-17.7-0.8c-2.2,0-3.4-0.8-4.4-2.8c-2.7-5.5-5.5-10.8-8.3-16.2
		c-4.9-9-10.4-17.6-16.1-26.1c-2.1-3-3.9-6.2-5.9-9.3c-0.8-1.3-1.1-2.6-0.5-4.1c0.8-2.1,1.3-4.3,1.9-6.4c1.2-3.9,1.7-7.8,1-11.8
		c-1.2-6.4-4.4-11.6-9.3-15.7c-4.7-3.9-10.2-5.9-16-7.3c-2.1-0.5-4.2-0.4-6.2,0.3c-3,1-6.1,2-8.8,3.7c-6.3,3.7-10.9,8.8-13.4,15.7
		c-1.4,4-1.9,8-1,12.3c3.7,16.8,21.7,26.6,37.9,20.6c1.6-0.6,3.2-1.4,4.9-2c2.7-1,2.9-1,4.3,1.2c6.1,9.2,12.3,18.3,17.7,27.9
		c2.7,4.9,5.5,9.8,7.6,14.9c0.6,1.5,1.1,3,1.6,4.5c0.3,0.9-0.1,1.6-1,1.9c-2.7,0.9-5.4,1.9-8.2,2.7c-18.3,4.7-33.6,14.5-46.4,28.3
		c-7.4,8-13.7,16.9-19,26.4c-12.4,22.3-19.7,46.4-24.1,71.4c-2,11.2-3.3,22.5-4.5,33.7c-0.3,2.9-0.3,5.7-0.5,8.6
		c-0.1,1.1,0.5,1.8,1.6,2c0.8,0.2,1.6,0.3,2.4,0.4c16,2.8,32.1,5.5,48.2,7.9c3,0.4,6,1,8.9,1.7c2.2,0.5,2.6,1.2,2.1,3.4
		c-0.5,2.2-1.2,4.3-1.6,6.5c-0.3,1.4-1.1,1.8-2.4,1.8c-1.1,0-2.2,0-3.4-0.1c-12.9-0.3-25.9-0.7-38.8-1c-3-0.1-6.1-0.4-9.1,0.1
		c-1.6,3-1.6,6.5-2,9.8c-1.2,9.4-2.1,18.7-3.2,28.1c-0.1,1.1,0,2.2-1.3,3.1c-2.8-0.3-5.8-0.6-8.8-0.9c-11.1-0.9-20.8,2.7-29.1,9.9
		c-6.3,5.4-11,12-14.3,19.6c-0.9,2.1-1.8,4.2-1.8,6.4c0,3.5-2,5.2-5,6.1c-1.4,0.4-2,0-2-1.6c-0.2-4.3-0.3-8.6-0.4-12.9
		c-0.3-23.7-0.6-47.3-0.9-71c-0.3-17.1-0.1-34.2-1-51.3c-0.8-14.4-1.7-28.7-2.6-43.1c-0.3-4.8-0.5-9.6-0.9-14.4
		c-0.8-10.8-1.6-21.7-2.5-32.5c-0.7-8.1-1.5-16.2-2.3-24.4c-1.1-10-2.2-20-3.4-30c-1.1-8.7-2.2-17.4-3.4-26.2
		c-1.4-10.1-2.8-20.3-4.3-30.4c-1.4-9.8-2.8-19.6-4.4-29.4c-2.2-12.8-4.7-25.5-7-38.2c-4.3-24.4-9.3-48.6-14.8-72.8
		c-8.9-39.3-19-78.2-30.3-116.9c-5.8-19.8-11.6-39.5-18.4-59c-3.6-10.4-8.9-19.8-16-28.2c-13.1-15.6-29.3-26.5-48.7-32.7
		c-12.3-3.9-24.9-5.5-37.8-3.9c-1.8,0.2-3.4,0.7-5,1.5c-2.4,1.2-4.9,2.4-7.5,3.2c-9.8,3.2-18.7,8.2-26.9,14.4
		c-14.9,11.3-26.9,25-34.3,42.4c-1.4,3.2-2.9,6.4-4.2,9.7c-12.9,31.1-23.8,63-33.6,95.3c-8.5,27.8-15.5,56-21.9,84.4
		c-4.8,21.4-9.1,42.8-12.9,64.4c-2.3,13.5-4.7,27.1-6.8,40.7c-2.2,14.2-4.3,28.4-6.3,42.7c-1.6,11.4-2.9,22.8-4.2,34.3
		c-1.5,13.5-3.1,27-4.4,40.5c-1.3,13.1-2.2,26.1-3.3,39.2c-1.5,18-2.5,36.1-3.4,54.1c-1.1,23.2-1.5,46.4-1.6,69.6
		c0,7-0.3,14.1-0.5,21.1c-0.1,3.4-0.9,6.6-2.5,9.7c-0.6,1.1-1.2,2.3-1.5,3.5c-1.5,5.4-2,10.7,2.5,15.2c1.2,1.2,1.6,2.7,1.8,4.4
		c0.4,4.5-0.7,8.4-3.2,12.2c-4,6-3.4,12.3,1.2,17.6c1.5,1.8,2.6,3.6,2.9,5.9c0.3,2.4,0.7,4.8,0.8,7.1c0.7,13.3,1.4,26.5,2.1,39.8
		c0.3,5.6,0.7,11.2,1.1,16.8c0.8,10.2,1.6,20.4,2.5,30.6c0.7,8.6,1.4,17.2,2.3,25.8c1.1,10.7,2.2,21.3,3.4,32
		c1.3,11.4,2.5,22.9,4.2,34.3c3.3,21.8,6.7,43.6,10.5,65.3c5.1,29.4,11.1,58.7,17.8,87.8c11.8,51.4,26.4,102,43.9,151.8
		c3.9,11.2,8.1,22.2,11.5,33.5c0.6,2,1.1,4,1.5,6c0.2,1.1-0.1,1.9-1.3,2.2c-2,0.5-4,1.1-6,1.6c-7,1.5-14.1,2.8-21.1,4.3
		c-25.2,5.3-50.2,11.3-75,17.7c-15,3.9-30,7.8-44.7,12.6c-1-0.2-1.7,0.4-2.5,0.8c-0.5,0.2-0.4,0.6-0.1,1c-95.6,0-191.2,0-286.9,0
		C0,1058.1,0,578.5,0,98.9c0.4-0.2,0.7-0.4,1.1-0.6c0.1,1,0.2,1.9,0.2,2.9c0.2,11,0.4,22.1,0.7,33.1c0.1,2.7,0.4,5.4,0.5,8.1
		c0.4,7.1,3.9,12.8,8.6,17.7c4.6,4.8,10.2,7.6,17,7.9c5.9,0.3,11.8,0.7,17.7,0.7c18.9,0.1,37.7,0.1,56.6,0.2c2.6,0,5.1,0.1,7.7,0
		c1.6,0,2-0.4,2-2c0-6.2,0-12.5,0-18.7c0-1.1-0.5-1.8-1.7-1.9c-1.3-0.1-2.6,0-3.8,0c-11.2,0-22.4,0.1-33.6,0
		c-9.4-0.1-18.9-0.2-28.3-0.4c-4.3-0.1-8.6-0.5-12.8-1.5c-5.1-1.2-5.7-2.1-5.9-7.1c0-1-0.1-1.9-0.1-2.9c-0.2-12-0.6-24-0.7-36
		c-0.1-17.8,0-35.5,0.1-53.3c0-4.3,0.3-8.6,0.7-12.9c0.4-4.2,2.5-6.3,6.5-7.1c0.6-0.1,1.3-0.1,1.9-0.2c4.3-0.6,8.6-0.7,12.9-0.8
		c14.2-0.2,28.5-0.4,42.7-0.6c6.6-0.1,13.1-0.1,19.7-0.3c2.2,0,2.4-0.3,2.4-2.5c0-5.8,0-11.5,0-17.3c0-0.5,0.1-1-0.1-1.4
		c-0.2-0.4-0.6-0.8-0.9-0.9c-0.9-0.2-1.9-0.2-2.9-0.2c-15.5,0-31,0-46.5,0c-11.2,0-22.4,0.2-33.6,0.9c-5,0.3-9.4,1.9-13.2,5
		c-2,1.6-3.8,3.4-5.6,5.2c-3.6,3.6-5.6,8.1-6.4,13.1c-0.6,3.5-0.9,7-1.1,10.5C1.6,38,1.3,40.4,1,42.8C1,43.4,0.8,44,0,44.2
		C0,29.4,0,14.7,0,0c146.1,0,292.3,0,438.4,0c0.4,0.3,0.7,0.6,1.1,0.9c-1.5,1.6-0.8,3.6-0.8,5.5c0,52.3,0,104.6,0,156.9
		c0,0.8,0,1.6,0,2.4c0.1,3.3,0.1,3.3,3.1,3.3c0.6,0,1.3,0,1.9,0c30.7,0,61.4,0,92.1,0c1.1,0,2.2,0,3.4,0c1.2,0,1.7-0.7,1.7-1.8
		c0-5.1,0-10.2,0-15.3c0-5.8,0.7-5.4-5.3-5.4c-22.4,0-44.7,0-67.1,0c-1.4,0-2.9,0-4.3-0.1c-0.6,0-1.2-0.4-1.2-1.2
		c0-1.3-0.1-2.6-0.1-3.8c0-15,0-30.1,0-45.1c0-5.6-0.7-5.1,5.2-5.1c22.4,0,44.7,0,67.1,0c1.3,0,2.6,0,3.8,0c1.5-0.1,1.9-0.5,1.9-2.1
		c0-6.1,0-12.2,0-18.2c0-2.2-0.2-2.3-2.6-2.4c-1.1,0-2.2,0-3.4,0c-22.2,0-44.4,0-66.6,0c-1.3,0-2.6,0-3.8,0c-0.9,0-1.5-0.4-1.6-1.4
		c0-0.8,0-1.6-0.1-2.4c0-12.3,0-24.6,0-36.9c0-4.2-0.1-4.2,4.2-4.2c22.7,0,45.4,0,68.1,0c1.3,0,2.6,0,3.8,0c1.5-0.1,1.9-0.5,1.9-2.1
		c0-6.2,0-12.5,0-18.7c0-0.7-0.3-1.2-0.8-1.7c0.4-0.3,0.7-0.6,1.1-0.9c74.2,0,148.4,0,222.6,0c0.6,0.1,0.9,0.4,1,1
		c-1.4,1.5-0.7,3.4-0.7,5c0,52.5,0,104.9,0,157.4c0,0.2,0,0.3,0,0.5c0,5.5-0.4,5,4.8,5c4.3,0,8.6,0.1,12.9,0c2,0,4.1,0.6,6.1-0.5
		c0.1-1.9,0.3-3.8,0.3-5.7c0-44.6,0-89.3,0-133.9c0-1.4,0-2.9,0.1-4.3c0-0.7,0.5-1.2,1.2-1.2c0.8,0,1.6-0.1,2.4,0
		c15,0.3,30,0.6,45.1,1c2.5,0.1,5.1,0.4,7.6,0.8c4.1,0.6,4.9,1.5,5.9,5.7c0.9,3.8,0.9,7.6,0.9,11.5c0.1,6.2,0,12.5-1,18.6
		c-1,5.8-2.8,5.4-6.5,6.2c-0.6,0.1-1.3,0.2-1.9,0.2c-6.1,0.3-12.1,0.7-18.2,0.9c-6.9,0.2-13.7,0.2-20.6,0.3c-1.1,0-2.2,0-3.4,0.1
		c-2.3,0.1-2.5,0.3-2.6,2.5c0,2.7,0.1,5.4,0,8.2c-0.1,4.2,1.1,7.9,3.3,11.3c0.9,1.4,1.7,2.7,2.6,4c16.2,23.6,32.4,47.2,48.6,70.7
		c0.5,0.8,1.1,1.6,1.6,2.4c0.7,1,1.6,1.4,2.8,1.4c6.6-0.1,13.1-0.1,19.7-0.2c1.4,0,2.9,0,4-1.1c0.1-0.9-0.3-1.5-0.8-2.2
		c-2-2.7-3.9-5.5-5.8-8.2c-7.9-10.9-15.1-22.2-23.8-32.5c-0.4-0.5-0.8-1-1.1-1.6c-2.5-4.9-5.8-9.2-8.9-13.7
		c-2.6-3.8-5.3-7.6-7.8-11.5c-4.1-6.4-3.8-6.9,3.6-7.1c4.5-0.1,9-0.1,13.4-0.8c9.8-1.5,17.2-6.3,22.1-15.1c2.8-5,4.3-10.3,4.3-16
		c0-8.3-0.1-16.6,0.1-25c0.1-6.9-1.8-13.2-5.2-19.2c-2.2-3.9-5.1-6.9-9.1-9c-3.4-1.7-6.9-3.4-10.3-5.1c-0.1-0.4,0.1-0.7,0.5-0.9
		c106.5,0,213,0,319.5,0c0.2,0.2,0.5,0.5,0.7,0.7c-1.4,1.3-0.8,3-0.8,4.5c0,22.4,0,44.8,0,67.2c0,14.6,0.1,29.1-0.8,43.6
		c-0.1,1.5,0.4,3.8-1.2,4.4c-2,0.7-2.9-1.6-3.8-2.9c-6.6-9.3-13.2-18.5-19.6-27.8c-15.9-23-31.6-46.1-47.4-69.2
		c-3.7-5.4-7.4-10.9-11.1-16.2c-2.6-3.7-1.5-3.3-6.1-3.3c-3.7,0-7.4,0-11,0c-6.2,0.1-5.4-0.8-5.4,5.2c0,52.5,0,104.9,0,157.4
		c0,1,0,1.9,0,2.9c0.1,2.4,0.2,2.5,2.4,2.5c3.8,0,7.7,0,11.5,0c2.7,0,5.4,0,8.2,0c1.6,0,1.9-0.4,1.9-2c0-1.3,0-2.6,0-3.8
		c0-20,0-40,0-60c0-13.1,0.1-26.2,0.2-39.3c0.1-4.5,0.5-8.9,0.8-13.4c0-0.7,0.2-1.3,0.9-1.4c0.4-0.1,0.9,0.3,1.2,0.6
		c2.6,2.6,4.7,5.7,6.8,8.7c21.7,31.2,43.4,62.5,65.1,93.7c3.3,4.7,6.8,9.3,9.9,14.2c1.5,2.3,3.3,3.1,5.9,3c3.3-0.2,6.7,0,10.1-0.1
		c6.3-0.1,5.5,0.8,5.5-5.7c0-52.3,0-104.6,0-156.9c0-1.3,0-2.6,0-3.8c0-0.7-0.3-1.2-0.8-1.7c0.3-0.3,0.6-0.5,0.8-0.8
		c93.4,0,186.8,0,280.1,0c0,111.7,0,223.3,0,335c-0.3,0.3-0.5,0.5-0.8,0.8c0-5.9-1.9-11.3-4.1-16.6c-3.3-8-8.7-14.1-16.4-18.1
		c-2.7-1.4-5.5-2.7-8.1-4.1c-1.7-1-3.5-1.3-5.5-1.3c-23-0.3-46-0.6-69-0.9c-0.8,0-1.6,0-2.4,0c-0.9,0-1.5,0.4-1.6,1.4
		c-0.1,1.1-0.1,2.2-0.1,3.4c0,7.2,0,14.4,0,21.6c0,6.2-0.5,5.3,5.4,5.3c13.9,0.1,27.8,0,41.7,0.2c8,0.1,16,0.6,23.7,2.9
		c2.1,0.6,2.4,0.8,2.5,2.9c0.3,5.7,0.7,11.5,0.8,17.2c0.3,10.1,0.4,20.1,0.6,30.2c0.1,3.8,0.2,7.7,0.3,11.5c0.1,1.4-0.3,2.5-1.2,3.5
		c-1.6,1.8-3.2,3.6-4.7,5.5c-1.1,1.4-2.4,1.8-4.1,1.8c-19.5-0.1-39-0.1-58.5-0.2c-3,0-6.1-0.4-9.1-0.7c-2.5-0.2-4.5-1.5-6-3.6
		c-2-2.8-3.3-5.8-3.4-9.3c-0.1-2.1-0.1-4.2-0.1-6.2c-0.4-46.1,0.3-92.1,0.8-138.2c0-0.6,0-1.3,0.1-1.9c0.1-0.6,0.2-1.3,0.6-1.7
		c2.4-2.6,4.7-5.1,8.7-5.5c4-0.4,8-0.6,12-0.7c26.5-0.3,53.1-0.6,79.6-0.9c1.1,0,2.2,0,3.4-0.1c1,0,1.4-0.6,1.4-1.5
		c0-0.6,0-1.3,0-1.9c-0.2-6.7-0.3-13.4-0.5-20.1c-0.1-2.2-0.1-4.5-0.2-6.7c-0.1-1.5-0.4-1.8-2.1-1.9c-0.8,0-1.6-0.1-2.4-0.1
		c-7.4-0.1-14.7-0.2-22.1-0.2c-20.6,0-41.2-0.7-61.8,0.9c-7.8,0.6-15.6,1.6-23.1,3.9c-9.9,2.9-17.2,8.9-21.7,18.3
		c-1.6,3.5-3,7.1-4.6,10.5c-1.3,2.8-1.7,5.7-1.7,8.8c0.1,46.7,0,93.4,0,140.1c0,4,0,8,0,12c0,1.3-0.1,2.6,0.5,3.8
		c2.1,5,3.8,10.2,6.6,14.9c6.7,11.4,16.8,17.5,29.8,19.3c4.9,0.6,9.9,0.7,14.8,0.9c17.7,0.6,35.5,0.4,53.2-0.2
		c4.8-0.2,9.6-0.6,14.3-1c2-0.2,4.1-0.8,6-1.4c10-3.4,17.4-9.9,22.5-19.1c4.8-8.7,4.8-8.7,5-17.6
		C1474,394.9,1474.3,395.2,1474.6,395.5z M986.3,360.6c-0.2-1.1,0.1-2,0.4-2.9c1.6-4.2,3-8.4,4.7-12.6
		c13.1-32.6,26.3-65.1,39.4-97.7c5.5-13.6,10.9-27.3,16.3-40.9c0.5-1.3,1-2.7,1.4-4.1c0.2-0.7-0.3-1.2-0.9-1.4
		c-0.8-0.2-1.6-0.3-2.4-0.4c-8.1-0.5-16.3-0.3-24.4,0.2c-1.3,0.1-2.5,0.5-3.8,0.6c-1.6,0.2-2.6,1-3.2,2.5c-1.2,2.8-2.5,5.5-3.7,8.3
		c-12.2,30-24.4,60.1-36.5,90.1c-7.8,19.4-15.8,38.7-23.3,58.2c-3.7,9.6-5.7,19.3-5,29.5c0,0.2,0,0.3,0,0.5c0.1,3.2,0.1,3.2,3.2,3.2
		c1.1,0,2.2,0,3.4,0c36.4,0,72.9,0,109.3,0c1.4,0,2.9,0,4.3,0.1c0.7,0,1.2,0.5,1.2,1.2c0.1,1.3,0.1,2.6,0.1,3.8
		c0,10.1,0,20.1,0,30.2c0,1.3,0,2.6,0,3.8c0,0.7,0.5,1.2,1.2,1.3c0.6,0.1,1.3,0.1,1.9,0.1c9,0,17.9,0,26.9,0c0.5,0,1,0,1.4,0
		c0.9-0.1,1.5-0.5,1.5-1.5c0-1.1,0-2.2,0-3.4c0-8.6,0-17.3,0-25.9c0-2.2,0-4.5,0-6.7c0-2.8,0.3-3,2.9-3.1c2.9,0,5.8,0,8.6,0
		c1.6,0,1.9-0.4,2-2c0-9.1,0-18.2,0-27.3c0-1.8-0.4-2.1-2.4-2.1c-2.6,0-5.1,0-7.7,0c-3.2,0-3.2-0.1-3.4-3.1
		c-0.1-1.1-0.1-2.2-0.1-3.4c-0.1-18.4-0.2-36.8-0.3-55.2c-0.1-31.7-0.2-63.3-0.4-95c0-1.1,0-2.2-0.1-3.4c0-0.7-0.5-1.2-1.2-1.2
		c-1.1-0.1-2.2-0.1-3.3-0.1c-7.2,0-14.4,0-21.6,0c-6.1,0-5.3-0.6-5.3,5.4c-0.3,39.7-0.5,79.3-0.7,119c-0.1,11.5-0.1,23-0.1,34.5
		c0,2-0.3,2.2-2.1,2.3c-0.8,0-1.6,0-2.4,0c-14.7,0-29.4,0-44.1,0c-8.5,0-16.9-0.2-25.4-0.4C990.5,361.8,988.3,361.8,986.3,360.6z
		 M829.9,433.9C829.9,433.9,829.9,433.9,829.9,433.9c6.7-0.1,13.4,0,20.1-0.1c10.4-0.1,20.8-0.1,31.2-0.9c3.2-0.3,6.4-0.8,9.3-2
		c14.1-6.1,22.8-16.6,25.1-32c0.4-2.4,0.5-4.8,0.5-7.2c0.2-7.4,0.5-14.7,0.6-22.1c0.2-9.1,0.3-18.2-0.3-27.3
		c-0.5-8.1-2.9-15.3-7.5-21.9c-1.7-2.3-3-4.9-4.5-7.3c-0.9-1.4-0.9-2.7,0-4c2-2.9,3.8-5.9,5.8-8.8c3.2-4.7,5.3-9.8,5.9-15.5
		c0.5-4.3,0.9-8.6,0.8-12.9c-0.2-9.8-0.6-19.5-0.7-29.3c0-8.1-2.7-15.4-7.1-22c-6.6-9.8-15.8-15.7-27.3-17.9
		c-3.6-0.7-7.3-0.9-11-1.1c-9.3-0.4-18.5-0.7-27.8-0.9c-20-0.3-40-0.5-60-0.2c-6.1,0.1-7,1-7,7c-0.1,7.2,0.1,14.4,0.1,21.6
		c0,4.2-0.2,4.1,4.3,4.1c16.1,0,32.3,0,48.4,0c13,0,25.9,0.4,38.8,0.9c2.9,0.1,5.7,0.5,8.5,1.4c3.5,1.2,5.6,3.5,6.5,7.1
		c0.5,2.3,0.9,4.7,1,7.1c0.4,9.9,0.3,19.8-0.2,29.7c-0.1,1.8-0.4,3.5-0.6,5.2c-0.4,4-2.8,6.4-6.5,7.5c-2.3,0.7-4.7,1.1-7,1.3
		c-6.2,0.6-12.4,0.9-18.7,1c-22.9,0-45.7,0.1-68.6,0.1c-1.3,0-2.6,0-3.8,0c-2,0.1-2.2,0.2-2.2,2.2c0,9,0,17.9,0,26.9
		c0,0.3,0,0.6,0,1c0.1,0.9,0.6,1.4,1.5,1.4c1,0,1.9,0,2.9,0c29.7,0.3,59.5,0.6,89.2,0.9c1.9,0,3.8,0.1,5.8,0.1
		c0.8,0,1.5,0.3,2.1,0.9c3.8,3.7,6.1,7.9,6.2,13.5c0.1,14.7,0.3,29.4-0.2,44.1c-0.1,2.2-0.5,4.4-0.8,6.7c-0.6,4.8-3.5,7.4-7.9,8.5
		c-0.9,0.2-1.9,0.4-2.8,0.5c-4,0.6-8,0.7-12,0.8c-26.1,0.8-52.1,0.7-78.2,0.6c-1.4,0-2.9,0-4.3,0c-0.9,0-1.5,0.4-1.5,1.4
		c0,9.6,0,19.2,0,28.8c0,0.9,0.6,1.4,1.5,1.4c1,0,1.9,0,2.9,0C797,434.3,813.4,434.1,829.9,433.9z M1253.2,234.1
		c-0.5,1.6-0.7,2.5-1.1,3.4c-3.1,8.2-6,16.5-9.3,24.7c-22.7,56.3-45.5,112.5-68.2,168.8c-0.4,0.9-1.4,1.9-0.6,3
		c0.9,0.5,1.9,0.3,2.8,0.3c8.8,0,17.6,0.1,26.4,0c6.6,0,5.1,0.9,7.5-4.9c15.2-37.6,30.4-75.2,45.6-112.8
		c11.9-29.3,23.7-58.6,35.6-87.9c0.9-2.3,1.4-4.5,1.3-7c-0.3-4.9-0.4-9.9-0.6-14.9c-0.1-1.7,0.3-3.9-0.6-5.1
		c-1.1-1.6-3.5-0.7-5.4-0.7c-46.7,0-93.4,0-140,0c-1.1,0-2.2,0-3.4,0c-2,0.1-2.3,0.3-2.3,2.2c-0.1,9.4-0.2,18.9-0.3,28.3
		c0,1.1,0.4,1.8,1.6,1.8c1.4,0,2.9,0,4.3,0c29.6,0.1,59.1,0.1,88.7,0.2C1241.1,233.6,1246.8,233.9,1253.2,234.1z M319.1,146.9
		c-0.6,0.9-0.4,1.9-0.4,2.8c0,5.1,0,10.2,0,15.4c0,0.8,0,1.6,0.1,2.4c0,0.7,0.4,1.2,1.2,1.3c1.1,0.1,2.2,0.1,3.3,0.1
		c10.4,0,20.8,0,31.2,0c11.5,0,23-0.1,34.5-0.9c2.7-0.2,5.4-0.5,8-1.4c6.4-2.4,11.3-6.5,14.6-12.5c3.2-6,6-12,4.8-19.1
		c-0.3-34.7-0.5-69.4-0.8-104.1c-0.1-8.7-0.1-8.6-4.5-16.1c-4.6-7.8-11.7-11.4-20.3-13c-4.7-0.9-9.5-0.8-14.3-0.9
		c-28.5-0.1-56.9-0.1-85.4-0.1c-6,0-5.2-0.7-5.2,5.4c0,52.5,0,104.9,0,157.4c0,1.1,0,2.2,0,3.4c0.1,1.6,0.4,1.9,2.1,1.9
		c6.6,0,13.1,0,19.7,0c2.1,0,2.2-0.2,2.3-2.2c0-1.3,0-2.6,0-3.8c0-30.2,0-60.5,0-90.7c0-14.7,0-29.4,0-44.1c0-1.3,0-2.6,0.2-3.8
		c0-0.4,0.5-0.9,0.9-0.9c1.1-0.1,2.2-0.1,3.3-0.1c19.8,0.3,39.6,0.6,59.4,0.9c4,0.1,8,0.4,11.9,0.9c4.1,0.4,5.1,1.6,5.6,5.7
		c0.1,0.5,0.1,1,0.1,1.4c0.2,5.1,0.6,10.2,0.7,15.3c0.1,22.4,0.2,44.8,0.2,67.2c0,7.7,0,15.4-0.7,23c-0.6,5.7-1.5,6.7-7.4,7.3
		c-0.6,0.1-1.3,0.1-1.9,0.1c-6.1,0.6-12.1,0.7-18.2,0.8c-13.4,0.2-26.8,0.3-40.3,0.5C322.2,146.4,320.6,146.2,319.1,146.9z
		 M1215.6,88.6c0,17.3,0,34.5,0.8,51.8c0.4,9.1,4.6,16.1,11.3,21.9c4.1,3.5,9,5.5,14.4,5.7c6.2,0.3,12.5,0.7,18.7,0.7
		c11.2,0.1,22.4,0.1,33.6,0.1c8,0,16,0,24,0c1.6,0,3.1,0,4.6-0.8c2.9-1.7,5.9-3.2,8.9-4.8c3.6-2,6.4-4.8,8.3-8.4
		c1.3-2.4,2.5-4.8,3.9-7.2c1.2-2.1,1.7-4.4,1.7-6.8c-0.1-22.7,0-45.4,0-68.1c0-4.7,0.2-4.5-4.4-4.5c-21.3,0-42.5,0-63.8,0
		c-0.8,0-1.6,0-2.4,0c-1,0-1.4,0.7-1.5,1.5c-0.1,1.8,0,3.5,0,5.3c0,4.5,0,9,0,13.4c0,2.1,0.3,2.4,2.6,2.4c1.1,0,2.2,0,3.4,0
		c12.3,0,24.6,0,36.9,0c1.3,0,2.6,0,3.8,0.1c0.7,0,1.2,0.5,1.2,1.2c0.1,1.1,0.1,2.2,0.1,3.4c0,9.4,0.1,18.9,0,28.3
		c0,4.5-0.3,8.9-0.5,13.4c-0.1,1.3-0.3,2.5-0.6,3.8c-0.4,1.7-1.5,2.7-3.2,3.2c-2,0.6-4.1,0.6-6.2,0.7c-14.2,0.8-28.4,0.7-42.7,0.6
		c-6.1,0-12.1-0.3-18.2-0.6c-1.4-0.1-2.9-0.2-4.3-0.5c-3.2-0.8-5.2-2.8-5.8-6.2c-0.7-4.1-0.7-8.3-0.7-12.4
		c-0.1-18.5-0.1-37.1-0.1-55.6c0-10.2,0.1-20.5,0.2-30.7c0-2.9,0.3-5.7,0.8-8.6c0.5-2.8,2.2-4.6,4.9-5.4c1.2-0.4,2.5-0.5,3.8-0.7
		c4.8-0.6,9.6-0.7,14.4-0.8c18.9-0.2,37.7-0.4,56.6-0.7c4.5-0.1,8.9-0.1,13.4-0.1c3.6,0,3.3-0.3,3.3-3.6c0-5.1,0-10.2,0-15.4
		c0-0.6,0-1.3,0-1.9c0-1.2-0.7-1.7-1.8-1.6c-0.8,0-1.6,0-2.4,0c-21.1,0-42.2,0-63.3,0.1c-8.9,0-17.9,0-26.8,1c-4.5,0.5-9,1-12.7,3.8
		c-6.1,4.7-10.8,10.4-12.3,18.3c-1.2,6.1-1.7,12.4-1.7,18.6C1215.6,57.9,1215.6,73.3,1215.6,88.6z M741.7,83.2c-0.1,0-0.2,0-0.3,0
		c-0.2-17.4-0.4-34.8-0.5-52.3c-0.1-9.3,0-9.3-5.1-16.9c-2.2-3.3-4.9-5.8-8.2-7.9C722,2.7,715.9,1.1,709.4,1
		c-23.8-0.2-47.6-0.6-71.4,0.8c-4.6,0.3-8.7,1.7-12.5,4.3c-4.3,3-7.6,6.8-10.1,11.4c-1.3,2.4-2.2,4.9-2.6,7.7
		c-0.5,3.7-0.7,7.3-0.8,11c-0.3,17.3-0.6,34.5-0.7,51.8c-0.1,17.1-0.2,34.2,0.8,51.3c0.6,10.5,5.6,18.5,13.9,24.6
		c2.6,1.9,5.5,3,8.8,3.5c5.2,0.7,10.5,0.8,15.8,1c21.4,0.9,42.8,1.1,64.2-0.3c10-0.6,17.5-5.4,22.3-14.3c1.1-2.1,2-4.4,3.1-6.5
		c1.2-2.3,1.6-4.7,1.6-7.4C741.6,121,741.7,102.1,741.7,83.2z M265,83.3c-0.1,0-0.2,0-0.4,0c0-3.2,0-6.4,0-9.6
		c-0.2-16-0.4-32-0.4-48c0-2.3-0.7-4.3-1.8-6.3c-3.8-7.6-9.5-13.2-17.4-16.3c-0.3-0.1-0.6-0.2-0.9-0.4c-2.4-1.6-4.9-2-7.7-1.9
		c-16.1,0.1-32.3,0-48.4,0.1c-9.1,0-18.2-0.1-27.3,0.9c-4.6,0.5-8.6,2.1-12.4,4.7c-5.2,3.6-8.5,8.5-11,14.2c-0.7,1.6-1,3.4-1.1,5.1
		c-0.5,4.6-0.7,9.2-0.7,13.9c0,28.1-0.1,56.3,0,84.4c0,5.9,0.2,11.8,0.5,17.7c0.4,5.9,2.6,10.8,6.1,15.3
		c5.2,6.7,11.8,10.5,20.4,10.9c7.8,0.4,15.6,0.7,23.5,0.7c17.1,0,34.2,0.1,51.3,0.1c1.6,0,3.1,0.1,4.7-0.7c3.2-1.8,6.5-3.3,9.8-5.1
		c3.3-1.8,5.9-4.4,7.6-7.7c1.2-2.3,2.3-4.6,3.6-6.8c1.7-2.8,2.2-5.8,2.2-9.1C264.9,120.7,265,102,265,83.3z M1368.1,84.7
		c0,26.4,0,52.8,0,79.2c0,5.6-0.7,5,5.2,5c30.5,0,61.1,0,91.6,0c1,0,1.9,0,2.9,0c2-0.1,2.2-0.2,2.2-2.2c0-5.4,0-10.9,0-16.3
		c0-4.4,0-4.1-4.3-4.1c-16.1,0-32.3,0-48.4-0.1c-6.9,0-13.7-0.1-20.6-0.2c-5.2-0.1-4.8,0.4-4.9-5.1c0-1.9-0.1-3.8-0.1-5.8
		c0.1-12.3,0.2-24.6,0.3-36.9c0-1.6,0-3.2,0.1-4.8c0.1-2,0.3-2.3,2.1-2.4c1.3,0,2.6,0,3.8,0c22.1,0,44.1,0,66.2,0c1.1,0,2.2,0,3.4,0
		c1.9-0.1,2.3-0.4,2.3-2.2c0-5.4,0-10.9,0-16.3c0-4.5-0.1-4.1-4.2-4.2c-23-0.2-46-0.5-69.1-0.7c-1.1,0-2.2,0-3.4-0.1
		c-0.9-0.1-1.4-0.6-1.4-1.5c0-0.3,0-0.6,0-1c0-12.8,0-25.6,0-38.4c0-0.3,0-0.6,0-1c0.1-0.9,0.5-1.5,1.5-1.5c1.3,0,2.6-0.1,3.8-0.1
		c20.5-0.2,40.9-0.4,61.4-0.6c3.4,0,6.7-0.1,10.1-0.2c0.7,0,1.2-0.4,1.2-1.2c0-6.6,0-13.1,0-19.7c0-0.9-0.4-1.5-1.4-1.5
		c-0.8,0-1.6,0-2.4,0c-31.3,0-62.7,0-94,0c-4.5,0-4.1-0.1-4.1,4.2C1368.1,31.6,1368.1,58.1,1368.1,84.7z M995.8,106.2
		c-0.7,0.1-1.5,0.3-2.3,0.4c-5.6,0.7-11.2,0.8-16.8,0.8c-6.4,0-12.8,0.1-19.2,0c-2.1,0-3.2,0.5-3.9,2.5c-1.3,3.8-2.8,7.5-4.2,11.2
		c-0.9,2.4-2,4.7-2.2,7.2c2.4,1.8,5.2,1.1,7.8,1.2c15.5,0.2,31,0.2,46.5,0.3c5.5,0,4.6-0.9,6.8,4.6c4.4,10.8,8.7,21.6,13,32.5
		c0.5,1.4,1.2,2,2.8,2c5.4-0.1,10.9-0.1,16.3-0.2c1.7,0,3.5-0.2,5.2-1c-0.2-2.5-1.4-4.6-2.3-6.8c-20.7-52.1-41.4-104.2-62.2-156.2
		c-0.3-0.7-0.6-1.5-0.9-2.2c-0.5-1.2-1.3-1.6-2.6-1.6c-4.8,0-9.6,0-14.4,0c-4,0-3.5-0.5-5.1,3.5c-0.2,0.4-0.4,0.9-0.6,1.3
		c-11.7,29.4-23.3,58.8-35,88.2c-9.4,23.6-18.8,47.2-28.1,70.8c-0.5,1.3-1.4,2.5-1,4c8.1,0,16,0,24.1,0c0.8-2,1.6-4,2.3-5.9
		c11.5-29.6,23-59.2,34.6-88.8c4.1-10.6,8.5-21,12.8-31.5c0.5-1.2,0.8-3.1,2.6-2.9c1.4,0.2,1.6,1.8,2.1,3c2.3,5.6,4.6,11.2,6.8,16.9
		c5.3,13.7,10.5,27.4,15.7,41.2C995.2,102.3,996.4,104,995.8,106.2z"/>
	<path class="st1" d="M0,44.2c0.8-0.2,1-0.7,1-1.4c0.3-2.4,0.6-4.8,0.7-7.2c0.2-3.5,0.5-7,1.1-10.5c0.9-5,2.8-9.5,6.4-13.1
		c1.8-1.8,3.6-3.6,5.6-5.2c3.8-3.1,8.2-4.7,13.2-5c11.2-0.7,22.4-0.9,33.6-0.9c15.5-0.1,31,0,46.5,0c1,0,1.9,0,2.9,0.2
		c0.4,0.1,0.8,0.5,0.9,0.9c0.2,0.4,0.1,0.9,0.1,1.4c0,5.8,0,11.5,0,17.3c0,2.3-0.2,2.5-2.4,2.5c-6.6,0.1-13.1,0.2-19.7,0.3
		c-14.2,0.2-28.5,0.4-42.7,0.6c-4.3,0.1-8.6,0.2-12.9,0.8c-0.6,0.1-1.3,0.1-1.9,0.2c-4.1,0.8-6.1,2.9-6.5,7.1
		c-0.4,4.3-0.7,8.6-0.7,12.9c-0.1,17.8-0.2,35.5-0.1,53.3c0.1,12,0.5,24,0.7,36c0,1,0,1.9,0.1,2.9c0.2,5,0.8,5.9,5.9,7.1
		c4.2,1,8.5,1.4,12.8,1.5c9.4,0.2,18.9,0.4,28.3,0.4c11.2,0.1,22.4,0,33.6,0c1.3,0,2.6,0,3.8,0c1.2,0,1.7,0.7,1.7,1.9
		c0,6.2,0,12.5,0,18.7c0,1.6-0.4,2-2,2c-2.6,0-5.1,0-7.7,0c-18.9-0.1-37.7,0-56.6-0.2c-5.9,0-11.8-0.5-17.7-0.7
		c-6.7-0.3-12.4-3.1-17-7.9c-4.7-5-8.3-10.6-8.6-17.7c-0.1-2.7-0.4-5.4-0.5-8.1c-0.3-11-0.5-22.1-0.7-33.1c0-1-0.1-1.9-0.2-2.9
		c0.1-0.4,0.4-0.9,0.4-1.3C1.3,90.4,1.2,83.8,1,77.3c0-0.7-0.4-1.2-1-1.5C0,65.3,0,54.7,0,44.2z"/>
	<path class="st2" d="M541.1,0c-0.4,0.3-0.7,0.6-1.1,0.9c-0.9,0.1-1.9,0.1-2.8,0.1c-31.6,0-63.2,0-94.8,0c-1,0-1.9-0.1-2.9-0.2
		c-0.4-0.3-0.7-0.6-1.1-0.9C472.7,0,506.9,0,541.1,0z"/>
	<path class="st3" d="M851,0c-0.4,0.2-0.6,0.5-0.5,0.9c-1.3,0.1-2.5,0.2-3.8,0.2c-26.2,0-52.4,0-78.6,0c-1.1,0-2.2-0.1-3.3-0.2
		c-0.1-0.6-0.5-0.9-1-1C792.8,0,821.9,0,851,0z"/>
	<path class="st2" d="M1474.6,395.5c-0.3-0.3-0.6-0.5-0.8-0.8c-0.1-0.8-0.2-1.6-0.2-2.4c0.1-11.5,0.1-23,0.2-34.5c0-7.3,0-14.7,0-22
		c0.3-0.3,0.5-0.5,0.8-0.8C1474.6,355.1,1474.6,375.3,1474.6,395.5z"/>
	<path class="st2" d="M1194.4,0c-0.3,0.3-0.6,0.5-0.8,0.8c-7.5,0.3-15,0.4-22.4-0.1c-0.2-0.2-0.5-0.5-0.7-0.7
		C1178.4,0,1186.4,0,1194.4,0z"/>
	<path class="st3" d="M0,75.8c0.6,0.3,1,0.8,1,1.5c0.2,6.5,0.3,13.1,0.5,19.6c0,0.4-0.3,0.9-0.4,1.3c-0.4,0.2-0.7,0.4-1.1,0.6
		C0,91.2,0,83.5,0,75.8z"/>
	<path class="st3" d="M286.9,1537.7c-0.3-0.4-0.4-0.7,0.1-1c0.8-0.4,1.5-1,2.5-0.8c0.7,1,1.8,0.4,2.7,0.8c-0.1,0.5,0,0.8,0.5,0.9
		C290.7,1537.7,288.8,1537.7,286.9,1537.7z"/>
	<path class="st1" d="M292.1,1536.8c-0.9-0.4-2,0.2-2.7-0.8c14.7-4.8,29.7-8.8,44.7-12.6c24.9-6.4,49.9-12.4,75-17.7
		c7-1.5,14.1-2.9,21.1-4.3c2-0.4,4-1,6-1.6c1.1-0.3,1.5-1.1,1.3-2.2c-0.5-2-0.9-4-1.5-6c-3.4-11.3-7.6-22.4-11.5-33.5
		c-17.4-49.8-32-100.4-43.9-151.8c-6.7-29.1-12.7-58.4-17.8-87.8c-3.8-21.7-7.2-43.5-10.5-65.3c-1.7-11.4-2.9-22.8-4.2-34.3
		c-1.2-10.6-2.4-21.3-3.4-32c-0.9-8.6-1.6-17.2-2.3-25.8c-0.9-10.2-1.7-20.4-2.5-30.6c-0.4-5.6-0.8-11.2-1.1-16.8
		c-0.7-13.3-1.4-26.5-2.1-39.8c-0.1-2.4-0.5-4.8-0.8-7.1c-0.3-2.3-1.3-4.2-2.9-5.9c-4.7-5.3-5.2-11.6-1.2-17.6
		c2.5-3.8,3.7-7.7,3.2-12.2c-0.2-1.6-0.6-3.2-1.8-4.4c-4.4-4.5-4-9.8-2.5-15.2c0.3-1.2,0.9-2.4,1.5-3.5c1.6-3,2.4-6.2,2.5-9.7
		c0.2-7,0.5-14.1,0.5-21.1c0-23.2,0.5-46.4,1.6-69.6c0.9-18,1.8-36.1,3.4-54.1c1.1-13.1,2-26.1,3.3-39.2c1.3-13.5,2.8-27,4.4-40.5
		c1.3-11.4,2.6-22.9,4.2-34.3c2-14.2,4.1-28.5,6.3-42.7c2.1-13.6,4.5-27.1,6.8-40.7c3.7-21.6,8.1-43,12.9-64.4
		c6.3-28.4,13.4-56.6,21.9-84.4c9.8-32.3,20.6-64.1,33.6-95.3c1.3-3.2,2.8-6.4,4.2-9.7c7.4-17.4,19.3-31.1,34.3-42.4
		c8.2-6.2,17.1-11.2,26.9-14.4c2.6-0.8,5.1-2,7.5-3.2c1.6-0.8,3.2-1.3,5-1.5c12.9-1.6,25.5,0,37.8,3.9c19.4,6.2,35.6,17.1,48.7,32.7
		c7.1,8.4,12.4,17.8,16,28.2c6.8,19.5,12.6,39.2,18.4,59c11.3,38.6,21.3,77.6,30.3,116.9c5.5,24.1,10.5,48.4,14.8,72.8
		c2.3,12.7,4.8,25.4,7,38.2c1.7,9.8,3,19.6,4.4,29.4c1.5,10.1,2.9,20.2,4.3,30.4c1.2,8.7,2.3,17.4,3.4,26.2c1.2,10,2.4,20,3.4,30
		c0.9,8.1,1.6,16.2,2.3,24.4c0.9,10.8,1.7,21.7,2.5,32.5c0.4,4.8,0.6,9.6,0.9,14.4c0.9,14.4,1.9,28.7,2.6,43.1
		c0.9,17.1,0.7,34.2,1,51.3c0.4,23.7,0.6,47.3,0.9,71c0.1,4.3,0.2,8.6,0.4,12.9c0.1,1.6,0.7,2.1,2,1.6c3-0.9,5-2.6,5-6.1
		c0-2.3,0.9-4.4,1.8-6.4c3.3-7.6,8-14.2,14.3-19.6c8.4-7.2,18-10.8,29.1-9.9c3,0.2,6,0.6,8.8,0.9c1.3-0.9,1.2-2.1,1.3-3.1
		c1.1-9.4,2-18.8,3.2-28.1c0.4-3.3,0.3-6.7,2-9.8c3-0.5,6.1-0.2,9.1-0.1c12.9,0.3,25.9,0.6,38.8,1c1.1,0,2.2,0,3.4,0.1
		c1.3,0,2.1-0.4,2.4-1.8c0.5-2.2,1.2-4.3,1.6-6.5c0.5-2.3,0.1-3-2.1-3.4c-3-0.7-5.9-1.2-8.9-1.7c-16.1-2.4-32.2-5-48.2-7.9
		c-0.8-0.1-1.6-0.2-2.4-0.4c-1.1-0.2-1.7-0.9-1.6-2c0.1-2.9,0.2-5.8,0.5-8.6c1.2-11.3,2.5-22.6,4.5-33.7c4.4-25,11.7-49.1,24.1-71.4
		c5.3-9.5,11.5-18.4,19-26.4c12.8-13.8,28.1-23.5,46.4-28.3c2.8-0.7,5.5-1.7,8.2-2.7c0.9-0.3,1.2-1.1,1-1.9c-0.5-1.5-1-3-1.6-4.5
		c-2.2-5.2-4.9-10.1-7.6-14.9c-5.4-9.6-11.6-18.8-17.7-27.9c-1.5-2.2-1.6-2.2-4.3-1.2c-1.6,0.6-3.2,1.4-4.9,2
		c-16.2,6.1-34.3-3.7-37.9-20.6c-0.9-4.2-0.4-8.3,1-12.3c2.4-6.9,7.1-12,13.4-15.7c2.8-1.6,5.8-2.7,8.8-3.7c2-0.6,4.1-0.8,6.2-0.3
		c5.8,1.4,11.3,3.5,16,7.3c5,4.1,8.2,9.3,9.3,15.7c0.8,4,0.2,8-1,11.8c-0.6,2.1-1.2,4.3-1.9,6.4c-0.6,1.5-0.3,2.8,0.5,4.1
		c2,3.1,3.8,6.3,5.9,9.3c5.7,8.5,11.3,17.1,16.1,26.1c2.9,5.3,5.7,10.7,8.3,16.2c1,2,2.1,2.8,4.4,2.8c5.9,0,11.8,0.2,17.7,0.8
		c21.2,2.2,39.7,10.3,55.6,24.5c12.1,10.8,21.3,23.8,28.7,38.1c7.9,15.3,13.4,31.4,17.7,48c3.2,12.6,5.5,25.3,6.8,38.2
		c0.8,7.9,2,15.9,2.4,23.9c0.5,9,1.9,8.3-7.4,9.2c-8.9,0.9-17.8,1.7-26.7,2.6c-2.4,0.2-4.8,0.6-7.1,1.1c-2.5,0.6-3.4,1.9-3.5,4.4
		c-0.1,3,0,6.1,0,9.1c0,1.2,0.6,1.7,1.8,1.7c0.6,0,1.3,0,1.9,0c15.5,0,31,1.2,46.5,1.9c0.5,0,0.9,0.2,1.6,0.3
		c1,4.6,1.3,9.4,1.9,14.2c1.2,9,2.2,18.1,3.7,27.1c0.7,3.9,1.6,4.6,5.3,2.1c1.1-0.7,2-1.5,3.1-2.3c8.8-5.9,18.3-8.9,29-8
		c7,0.6,13.4,2.9,19.3,6.6c7.9,5,13.8,11.8,18.1,20c2.8,5.4,3.4,11.3,3.8,17.2c0.3,4,0.4,8,0.6,12c0.1,2.2,0.8,4,2,5.8
		c19.4,28.9,38.8,57.9,58.1,86.9c0.4,0.5,0.7,1.1,1.1,1.6c0.6,1,1.5,1.5,2.8,1.5c2.4,0,4.8,0.2,7.2,0.2c14.5-0.2,27.6,13.7,29.8,25
		c1.7,8.8-0.2,16.8-5.9,23.8c-4.7,5.8-10.7,9.6-17.8,11.5c-5.5,1.5-10.5,3.9-15.4,6.5c-14.8,8-29.1,16.7-43.5,25.4
		c-20.1,12.1-40.1,24.4-60.2,36.6c-0.7,0.4-1.3,0.9-2,1.3c-1.8,0.9-2.3,2.1-2.1,4.2c2.4,19.5,4.7,39,7,58.6
		c2.1,18.1,4.1,36.2,6.2,54.3c0.4,3.3,0.7,6.7,0.9,10c0.1,1.6-0.1,1.8-1.9,2c-1.7,0.2-3.5,0.5-5.2,0.6c-11.5,0.7-23,1.4-34.5,2.2
		c-6.7,0.4-13.4,1.1-20.1,1.5c-2.8,0.2-4.5,1.5-5.5,3.9c-1,2.5-2,5-2.8,7.6c-8.2,25.7-16.4,51.4-24.6,77.1c-0.2,0.8-0.4,1.6-0.7,2.3
		c-0.5,1.2-0.3,2.2,0.3,3.2c0.5,0.8,1,1.6,1.5,2.4c13.7,22.9,27.5,45.7,41.2,68.6c0.3,0.5,0.7,1.1,1,1.6c0.8,1.9,2.2,2.3,4.2,2.3
		c16.3-0.3,32.6-0.6,48.9-0.8c7-0.1,14.1-0.1,21.1-0.1c0.9,0,1.9,0.2,2.9,0.7c-2.1,0.4-4.3,1-6.4,1.2c-9.8,1.1-19.7,2.2-29.6,3.1
		c-13.2,1.2-26.4,2.4-39.6,3.4c-11.2,0.9-22.3,1.6-33.5,2.2c-39.9,2.1-79.9,1.9-119.9,1.6c-28.8-0.2-57.5-0.5-86.3-1
		c-26.1-0.4-52.1-1-78.2-1.7c-23.8-0.6-47.6-1.6-71.4-2.3c-18.2-0.6-36.4-0.5-54.7-0.5c-18.7,0-37.4,0.5-56.1,1.2
		c-20.1,0.8-40.2,1.7-60.3,3.4c-13.4,1.1-26.8,2-40.1,3.3c-13.2,1.3-26.4,2.8-39.5,4.4c-12.8,1.6-25.7,3.3-38.5,5.2
		c-15.6,2.3-31.2,5-46.8,8C297.8,1535.8,294.9,1536.3,292.1,1536.8z M645.9,884.5c-0.3-27-0.9-50.7-1.9-74.3
		c-0.5-11-0.8-22.1-1.4-33.1c-0.3-6.5-0.7-13.1-1.2-19.6c-0.8-11.2-1.7-22.3-2.5-33.5c-0.7-8.8-1.4-17.5-2.2-26.3
		c-1.1-11.1-2.2-22.3-3.4-33.4c-1.3-12.4-2.6-24.8-4.2-37.2c-2.3-17.4-4.8-34.8-7.2-52.2c-2.9-20.4-6.3-40.7-10-61
		c-5-27.5-10.6-54.9-17-82.1c-9.4-40.2-20.3-79.9-33.6-118.9c-4.2-12.4-8.8-24.7-13.4-36.9c-1.7-4.6-4.8-7.4-9.3-8.9
		c-1.2-0.4-2.4-0.8-3.7-1c-11.1-2.3-21.6,0.1-31.7,4.7c-2,0.9-3.5,2.3-4.4,4.3c-0.7,1.4-1.3,2.9-1.9,4.4
		c-3.8,9.7-7.3,19.4-10.6,29.3c-21.4,64.1-37.4,129.5-49.6,195.9c-4,21.8-8,43.7-11.1,65.7c-0.5,3.3-1,6.6-1.2,10
		c-0.1,1.5-1.1,3.5,0.6,4.3c1.6,0.7,2.8-1.1,4.1-1.9c1.2-0.8,2.2-1.8,3.3-2.7c16.4-13.8,35.3-22.4,56.1-26.9
		c14.5-3.1,29.2-3.3,43.9-2.6c3.7,0.2,7.3,0.7,10.9,1.3c14.5,2.8,28.5,7.2,42.3,12.1c1.6,0.6,3.2,1.4,4.8,2.1c1.9,0.8,3,2.3,3.4,4.3
		c0.4,2.2,0.8,4.4,1,6.6c0.4,6.2,0.8,12.4,1,18.7c0.1,2.6,0.9,4.6,2.5,6.5c2.7,3.2,5.2,6.5,7.8,9.7c4.5,5.7,8.5,11.6,11.9,18
		c4,7.5,7.1,15.4,8.6,23.8c2.2,12.4,2.2,24.8,0.6,37.3c-2.9,21.5-10.6,41.1-23.9,58.3c-5.2,6.7-8.3,13.9-9.2,22.2
		c-0.1,0.6-0.1,1.3-0.2,1.9c-0.7,3.8-1.5,7.5-2.2,11.3c-0.3,1.7-1.4,2.8-3.1,3.2c-1.7,0.4-3.4,0.9-5.1,1.2
		c-8.6,1.6-17.3,3.3-25.9,4.7c-7.7,1.2-15.5,2.3-23.3,3c-14.2,1.2-28.4,0.8-42.6-0.6c-12-1.2-23.6-4.1-34.6-9
		c-15.1-6.6-28.5-15.8-39.4-28.3c-3-3.5-6.1-7-7.9-11.4c-0.3-0.9-0.8-2.1-1.9-2c-1.7,0.2-0.9,1.8-1,2.7c-0.3,1.9-0.6,3.8-0.7,5.7
		c-0.6,9.6-1.4,19.1-1.8,28.7c-0.8,18.7-1.5,37.4-2,56.1c-0.4,13.9-0.6,27.8-0.9,41.7c-0.1,7.5-0.1,15-0.3,22.6
		c-0.1,2.2,0.5,3.5,2.7,4.4c3.4,1.4,6.7,3,10,4.6c6.8,3.2,13.1,7.3,18.8,12.2c3.9,3.4,7.7,6.9,9.9,11.6c1.4,2.8,3.4,4.6,6.2,5.6
		c4.6,1.8,9.2,3.6,13.9,5.1c26.6,8.7,53.1,17.3,79.7,26c18.4,6,36.8,11.9,55.1,17.9c1.9,0.6,3.6,0.7,5.4-0.3
		c2.8-1.5,5.8-2.8,8.8-3.8c3.8-1.3,7.8-1.9,11.8-1c3.7,0.9,7.3,2.2,10.7,4.1c2.2,1.3,4.3,2.7,5.9,4.8c0.7,1,1.4,2.4,3,1.8
		c1.2-0.5,0.9-1.9,1.1-3c1.1-6.5,1.1-13.1,1.4-19.6c0.5-11.7,0.7-23.3,0.9-35C646.6,919.2,646.3,900.2,645.9,884.5z M642.5,1032.8
		c-2.2,2.2-3.6,3.6-5,5.1c-4.6,4.7-10.2,7.1-16.8,6.8c-1.1-0.1-2.2-0.1-3.4-0.2c-7.2-0.8-13.7-3.2-18.7-8.6c-1.6-1.7-3.4-2.9-5.4-4
		c-4.6-2.5-9.4-4.8-14.3-6.8c-19.9-8.3-39.8-16.7-59.7-25c-18.9-7.9-37.8-15.7-56.7-23.5c-3.5-1.5-7.2-2.6-10.8-3.9
		c-2.4-0.8-4.7-0.5-6.8,1.2c-2.3,1.8-4.7,3.3-7,5.1c-7.7,5.9-16.2,10.2-25.3,13.4c-1.7,0.6-3.3,1.3-4.9,1.9c-3.6,1.3-5.3,3.5-5,7.6
		c0.7,8.6,0.8,17.2,1.4,25.9c0.7,12,1.6,23.9,2.5,35.9c0.7,9.9,1.3,19.8,2.3,29.6c1.6,16.9,3.4,33.7,5.3,50.5
		c1.9,15.9,3.9,31.7,6.1,47.5c2.7,18.5,5.8,36.9,9.2,55.3c5.2,28,11.2,55.8,18.4,83.3c7.7,29.4,16.7,58.4,27.8,86.7
		c7.2,18.3,15.4,36.2,25.1,53.3c1.5,2.6,3.2,5.2,4.7,7.8c1.6,3,3.9,4.4,7.4,4.2c2.7-0.2,5.4-0.1,8.1-0.2c6.2-0.2,12.5-0.7,18.7-0.6
		c2.9,0,4.2-1,5.3-3.5c1.4-3.2,3.1-6.3,4.8-9.4c12.1-23.1,22.1-47.2,30.7-71.8c16.5-47.3,28.1-95.9,37.3-145.2
		c2.6-13.8,5-27.7,7-41.6c2.1-14.7,4.3-29.4,6.3-44.1c1.6-12.4,2.9-24.8,4.2-37.2c1.6-15.3,3.1-30.5,4.4-45.8
		c1.1-13.4,1.9-26.8,2.8-40.2C642.7,1039.6,642.5,1036.7,642.5,1032.8z M620.9,1474.8c1.8,0.8,3.2,0.6,4.6,0.5
		c4.1-0.2,8.3-0.6,12.4-0.8c25.6-1.5,51.1-1.5,76.7,0.1c8,0.5,15.9,1.3,23.8,2.6c5.4,0.8,10.8,1.1,16.2,1c5.1,0,3.8,0.6,6.9-3.1
		c6.3-7.4,12.6-14.9,18.8-22.4c4.8-5.8,9.4-11.7,14.2-17.5c1.4-1.7,2-3.5,1.6-5.7c-0.1-0.8-0.2-1.6-0.3-2.4
		c-2.1-13.6-4.2-27.2-6.3-40.8c-2.7-17.2-5.4-34.4-8.6-51.5c-1.4-7.5-0.3-5.9-7.2-7.2c-11.9-2.2-23.9-4-35.9-6.1
		c-3.1-0.5-6.3-1.2-9.4-1.8c-1.4-0.3-2.3-1.2-2.3-2.7c0-2.6,0.1-5.1,0.4-7.7c0.4-4.6,1-9.2,1.5-13.8c1.1-9.7,2.3-19.4,3.4-29.1
		c1.1-9.4,2.2-18.7,3.3-28.1c1.1-9.4,2.1-18.7,3.2-28.1c1.2-10,2.4-20,3.6-30c1.1-8.9,2.1-17.8,3.2-26.7c1.2-9.7,2.4-19.4,3.5-29
		c1.1-9,2.1-18.1,3.2-27.1c1.2-9.8,2.3-19.7,3.5-29.5c1.1-9.8,2.3-19.7,3.4-29.5c0.8-7.2,1.6-14.3,2.3-21.5c0.2-1.9,0.3-3.8,0.2-5.7
		c0-2.6-0.7-3.3-3.3-3.9c-0.6-0.1-1.3-0.1-1.9-0.3c-3.8-0.7-7.6-1.2-11.3-2.3c-5.2-1.6-10.3-1.9-15.6-0.6c-1.4,0.3-2.8,0.6-4.2,0.9
		c-4.7,1-9.4,2-14,3.2c-3.5,0.9-3.3,0.4-3.6,4.5c-0.1,2.2-0.2,4.5-0.4,6.7c-1.1,14-2.2,28.1-3.4,42.1c-1,11.9-2.1,23.9-3.3,35.8
		c-1.4,13.4-2.8,26.7-4.4,40c-1.6,13.7-3.1,27.3-5.2,40.9c-2.7,17.7-5.7,35.3-8.7,53c-3.6,21.1-7.6,42.1-12.2,63.1
		c-5.2,23.9-10.6,47.7-16.7,71.4c-8,30.6-16.9,60.9-26.8,91C624.1,1462.5,622.2,1468.4,620.9,1474.8z M457.9,687.5
		c-5.6-8.3-10.9-16.2-14.8-25.1c-2.7-6.2-4.6-12.6-3.8-19.5c0.1-0.9,0-1.9-0.2-2.9c-0.1-0.4-0.5-0.9-0.9-1c-0.4-0.1-1,0.1-1.3,0.5
		c-0.7,0.8-1.4,1.8-1.9,2.7c-1.2,2.4-2.3,4.9-3.3,7.4c-3.1,8.3-4.4,17-4.8,25.8c-0.5,11.9,0.6,23.6,3,35.3
		c2.2,10.5,5.4,20.7,10.4,30.3c7,13.4,17.1,23.8,30.7,30.6c21.4,10.7,43.9,14,67.5,10.1c13.6-2.2,26.1-7.4,37.8-14.4
		c16.3-9.6,28.4-23.1,36.4-40.2c4.7-10.1,7.8-20.6,9.8-31.5c1.7-9.6,2-19.4,1.8-29.1c-0.2-11.9-2.9-23.1-8.4-33.6
		c-7.6-14.6-17.8-27.2-30.2-38.1c-6-5.3-12.5-9.9-19.7-13.6c-5.9-3-12-5.2-18.7-5.7c-10.7-0.9-21.4-0.9-32,0.5
		c-6,0.8-11.8,2.8-17.4,5c-2.1,0.8-2.3,1.4-1.9,3.7c0.4,2.2,0.8,4.4,1.3,6.6c2.2,9.4,2.8,18.9,2.5,28.6c-0.3,9.8-2.8,18.8-8.2,27.1
		C482.3,661.8,470.8,674.8,457.9,687.5z M684.2,896c-0.4-17.9-0.4-31.7-0.8-45.4c-0.6-21.1-0.7-42.2-2.2-63.3
		c-0.5-6.7-0.8-13.4-1.3-20.1c-0.3-4.3-0.7-8.6-1.1-12.9c-0.5-6-1.1-12.1-1.6-18.1c-0.4-4.5-0.8-8.9-1.2-13.4
		c-0.9-8.4-1.7-16.8-2.7-25.3c-0.7-6.7-1.4-13.3-2.2-20c-0.8-6.5-1.6-13-2.5-19.5c-1.1-8.1-2.2-16.2-3.3-24.2
		c-1.4-9.3-2.8-18.6-4.3-27.9c-1.5-9.5-3-18.9-4.5-28.4c-1.7-11.1-4-22-6.2-33c-3.3-16.1-6.3-32.3-9.9-48.4
		c-6.6-30.3-14.1-60.4-22.3-90.3c-5.8-21.3-11.9-42.4-18.4-63.5c-3.1-10.2-6.1-20.5-9.9-30.6c-2.4-6.5-5.2-12.8-9.9-17.9
		c-6.1-6.6-12.6-12.8-19.9-18c-1.6-1.1-3.3-2-4.9-2.9c-0.4-0.2-0.9-0.3-1.3,0.2c-0.2,0.2-0.3,0.6-0.2,0.9c1.3,3.9,2.5,7.9,4,11.8
		c13.5,36.3,24.6,73.3,34.3,110.8c5.8,22.6,11.1,45.3,15.9,68.1c2.9,13.8,5.5,27.6,8,41.4c2.2,11.6,4.3,23.3,6.2,34.9
		c1.5,9.1,2.9,18.3,4.3,27.5c1.2,7.7,2.3,15.5,3.4,23.2c0.8,5.9,1.6,11.7,2.3,17.6c0.7,5.9,1.5,11.7,2.2,17.6
		c0.9,7.5,1.8,14.9,2.6,22.4c0.8,6.7,1.4,13.3,2.1,20c0.9,8.4,1.7,16.8,2.5,25.3c0.5,5.1,0.8,10.2,1.2,15.3
		c0.8,10,1.7,20.1,2.5,30.1c0.7,9.1,1.3,18.2,1.8,27.3c0.7,12.6,1.4,25.2,2,37.8c0.3,7.2,0.5,14.4,0.8,21.6
		c0.6,12.6,0.9,25.3,1.1,37.9c0.6,39.8,0.1,79.7,0.1,119.5c0,2.2,0.1,4.5,0.2,6.7c0,0.6,0.6,0.8,1,0.7c0.6-0.1,1.2-0.4,1.8-0.7
		c9.1-4.8,18.1-9.6,27.1-14.3c1.1-0.6,1.5-1.4,1.7-2.6c0.9-5.2,1.1-10.5,1.1-15.8C684.2,936,684.2,913.9,684.2,896z M361.4,857.4
		c-0.7,7.3-0.4,14.7-0.6,22.1c-0.1,6.1-0.2,12.2-0.2,18.2c0,2.2,0.3,2.4,2.5,2.7c7.8,0.9,15.5,1.8,23.3,2.7c1.9,0.2,3.8,0.3,5.7,0.3
		c2.5,0.1,2.8-0.3,3-2.6c0.1-1,0-1.9,0.1-2.9c0.4-17.9,0.9-35.8,1.3-53.7c0-0.6,0-1.3,0.1-1.9c0.5-10.9,1-21.7,1.5-32.6
		c0.5-11,0.9-22,1.3-33.1c0-0.5,0-1,0.1-1.4c0.8-12.1,1.4-24.3,1.6-36.4c0.1-5.5-0.9-10.8-2.6-16c-3.1-9.4-5.5-19.1-5.9-29
		c-0.5-10.1-0.4-20.1,0-30.2c0.1-1.4,0.2-2.9,0.4-4.3c1-8.2,2.7-16.4,2.4-24.8c0-1.1,0.2-2.2,0.3-3.3c2-12.9,7.5-24,16.5-33.4
		c2.2-2.3,3.6-4.8,4.3-7.9c0.6-3.1,1.3-6.2,1.8-9.4c1.7-11,3.2-22.1,5.1-33.2c3.1-18.9,6.4-37.8,10.1-56.6
		c4.4-22.4,9.1-44.8,14.3-67c5.1-21.9,10.6-43.8,16.8-65.4c6.9-24.1,14.3-48.1,23.3-71.5c0.9-2.2,1.6-4.5,2.3-6.8
		c0.3-0.9,0.7-2-0.4-2.6c-0.7-0.4-1.5,0.2-2.2,0.6c-0.5,0.4-1,0.8-1.5,1.2c-6.1,5.5-12,11.1-16.9,17.6c-1.6,2-3,4.2-4.2,6.4
		c-3.1,5.6-5.9,11.3-8.4,17.3c-6.6,15.9-12.6,32.1-18.3,48.4c-9.3,26.9-17.4,54.2-24.6,81.7c-6.4,24.4-12.1,49-17.2,73.7
		c-3,14.7-5.6,29.5-8.3,44.3c-2.8,14.9-5.1,29.9-7.3,44.9c-1.2,8.2-2.4,16.4-3.5,24.7c-0.8,5.7-1.5,11.4-2.1,17.1
		c-0.8,6.8-1.5,13.7-2.3,20.5c-0.8,7.5-1.7,14.9-2.5,22.4c-0.8,7.9-1.5,15.9-2.2,23.9c-1.2,12.7-2.4,25.4-3.4,38.2
		c-0.8,10.8-1.4,21.7-1.9,32.5c-0.5,10.1-0.8,20.1-1,30.2C361.6,834.4,361.5,845.9,361.4,857.4z M475.8,1482.7
		c6.5,0.3,14.2-0.5,21.8-0.8c1.9-0.1,2.2-0.6,1.3-2.5c-0.5-1-1-2-1.5-3c-3.1-6-6.1-11.9-9.2-17.9c-10.3-20.4-19.1-41.5-26.6-63.1
		c-11-31.4-19.7-63.4-27.1-95.9c-7.5-32.9-13.5-66-18.4-99.4c-2.6-17.7-5-35.4-7.2-53.2c-1.6-13.3-2.8-26.7-4.2-40
		c-0.4-4-0.8-8-1.1-11.9c-0.5-5.9-1.1-11.8-1.6-17.7c-0.5-6.2-0.7-12.4-1.2-18.7c-0.8-9.7-1.3-19.5-1.7-29.2
		c-0.3-7.7-0.7-15.3-1.1-23c-0.1-2.5-0.6-5.1-0.9-7.6c-0.1-1.1-0.8-1.7-1.9-1.8c-3.2-0.2-6.4-0.5-9.6-0.7
		c-6.5-0.4-13.1-0.1-19.6-0.8c-0.5-0.1-1,0-1.4,0c-0.9,0.1-1.5,0.6-1.6,1.5c-0.1,1.1-0.1,2.3,0,3.3c0.6,3.8,0.5,7.7,0.8,11.5
		c0.3,5.7,0.7,11.5,1.2,17.2c0.8,9.9,1.7,19.7,2.5,29.6c0.7,8.8,1.4,17.5,2.3,26.3c1,10.3,2.3,20.6,3.5,31
		c1.3,11.4,2.6,22.9,4.2,34.2c1.9,13.6,4.1,27.2,6.3,40.7c2.6,15.8,5.2,31.5,8.2,47.2c4.9,25.6,10.5,51,16.4,76.4
		c5.6,24.5,12.6,48.5,19.8,72.6c7.7,26,16.3,51.8,25.1,77.5c1.6,4.7,3.7,9.2,5.2,13.9c1.1,3.4,3.1,4.4,6.4,4.1
		C467.9,1482.5,471.3,1482.7,475.8,1482.7z M681.4,1025.2c0,0-0.1,0-0.1,0c0-2.2,0-4.5,0-6.7c0-1.4-0.8-2-2.2-1.8
		c-3,0.5-6,1.1-8.9,1.7c-6.1,1.3-12.2,2.7-18.2,4.1c-1.4,0.3-2.3,0.9-2.4,2.5c-0.2,2.9-0.5,5.7-0.7,8.6c-0.5,6.7-0.7,13.4-1.3,20.1
		c-0.5,4.8-0.6,9.6-1,14.4c-0.5,6.4-1.1,12.7-1.6,19.1c-0.4,5.6-0.7,11.2-1.3,16.7c-1.1,11.3-2.2,22.6-3.5,33.8
		c-1.3,12.1-2.6,24.2-4.2,36.2c-1.9,14.6-4.2,29.1-6.4,43.6c-2.5,17.2-5.7,34.4-9.1,51.4c-4.6,23.2-9.9,46.2-15.9,69.1
		c-7.5,28.6-16.7,56.7-27.1,84.4c-4.5,11.9-10.2,23.4-15.5,35.1c-3.1,6.7-6.2,13.3-10.3,19.5c-1.9,2.9-1.1,4.1,2.2,4
		c1.3,0,2.6-0.1,3.8-0.2c10.3-1.2,20.7-2,31-2.7c4.2-0.3,4.2-0.3,5.6-4.5c7.6-23.1,15.5-46,22.2-69.4c6.4-22.3,12.5-44.6,18-67.1
		c5.1-21.1,9.7-42.4,14-63.6c2.5-12.5,4.8-25.1,7.1-37.7c2.2-11.9,4.3-23.9,6.3-35.9c1.7-10.6,3.4-21.1,4.8-31.7
		c1.6-11.6,2.9-23.1,4.2-34.7c1.5-12.9,3.1-25.7,4.4-38.6c1.2-11.4,2.2-22.9,3.2-34.4c0.4-4.3,0.7-8.6,1.1-12.9
		C680.1,1040.1,680.7,1032.6,681.4,1025.2z M1148.1,1090.4c-0.1-3.8-1.3-6.9-3.3-9.6c-2.5-3.4-5.3-6.4-8.3-9.3
		c-8.5-8.3-17-16.5-25.5-24.7c-10.7-10.3-21.4-20.7-32-31.1c-1.6-1.6-3.2-2.5-5.5-2.3c-1.1,0.1-2.2,0-3.4,0c-8.8,0-17.5-0.7-26-3.5
		c-5.4-1.8-5.8-1.5-5.2,4.3c1,10.7,2.1,21.3,3.3,32c1.1,9.5,2.3,19,3.4,28.6c1.1,9.4,2.1,18.7,3.3,28.1c1.4,12.1,2.9,24.1,4.4,36.2
		c1.3,10.1,2.6,20.3,3.9,30.4c0.2,1.6,0.7,3.1,1.2,4.6c0.3,0.8,1.2,1.2,2,0.7c2.3-1.5,4.6-3,6.7-4.6c17.3-12.6,34.3-25.7,51.2-38.8
		c8.2-6.3,16.5-12.7,24.7-19c1.6-1.2,2.6-2.6,2.8-4.7c0.4-4.5,1.1-8.9,1.7-13.3C1147.8,1092.9,1147.9,1091.5,1148.1,1090.4z
		 M868.8,1336.4c-0.9,1.4-1.2,2.8-1.6,4.2c-4,14.8-8.1,29.6-12.1,44.4c-3.2,12-6.2,24.1-9.4,36.2c-0.7,2.5-0.5,4.7,0.5,7
		c1,2.3,1.9,4.7,3,7.1c8,17,16.1,34,24.2,51.1c0.3,0.7,0.8,1.4,1.1,2.1c1.8,3.9,5,5.8,9.2,5.8c3.8,0,7.7-0.2,11.5-0.3
		c1.1,0,1.8-0.6,2.2-1.5c0.3-0.6,0.6-1.1,0.9-1.7c12.2-21.7,24.4-43.4,36.7-65.1c1.3-2.3,1.5-4.2,0.7-6.7
		c-5.2-15.9-10.2-31.9-15.3-47.9c-3.2-10.2-6.5-20.4-9.7-30.6c-0.5-1.6-1.2-2.4-2.9-2.5c-4.5-0.4-8.9-0.9-13.4-1.3
		C885.9,1335.8,877.3,1335.8,868.8,1336.4z M495.8,620c-0.3-4-0.4-7.6-0.8-11.3c-0.9-9.1-2.5-18-5.4-26.7c-0.3-1.1-0.8-2.1-1.3-3.1
		c-0.4-0.8-1.3-1-2-0.5c-0.8,0.5-1.6,1.1-2.2,1.8c-1.7,1.9-3.4,3.8-5,5.8c-7,8.9-14,17.9-21.3,26.5c-5,5.8-9,12.4-12.1,19.5
		c-1.6,3.7-2.2,7.6-1.9,11.7c0.1,1.3,0.2,2.6,0.3,3.8c1.1,8.8,3.4,17.2,7.5,25.1c0.8,1.5,1.8,3,2.9,4.4c1.9,2.4,3.2,2.5,5.6,0.4
		c1.6-1.4,3-2.9,4.4-4.4c3.7-3.7,7.2-7.7,11.4-11c0.5-0.4,1-0.9,1.2-1.4c1.9-4.8,5.2-8.7,8.2-12.9c2.5-3.5,4.9-7.1,7.1-10.8
		c1.3-2.3,2.1-4.7,2.5-7.2C495.3,626.4,495.5,623.1,495.8,620z M400.3,640.3c0.7-0.1,1.4-0.1,2-0.3c2.4-0.9,4.9-1.5,7.4-1.9
		c5.8-0.9,11.7-1.8,17.5-2.7c2.5-0.4,5-0.8,7.5-1.3c3.9-0.7,6.7-2.9,8-6.7c0.2-0.5,0.3-0.9,0.5-1.3c5.3-11,11.4-21.4,20.5-29.8
		c0.8-0.8,1.6-1.6,2.3-2.4c4.1-4.7,8-9.6,11.6-14.6c0.7-0.9,1.2-1.9,1.7-2.9c0.3-0.7,0-1.3-0.8-1.4c-1.4-0.1-2.9-0.2-4.3,0
		c-4.3,0.6-8.5,1.1-12.8,2c-14.2,2.8-27,8.7-38.3,17.7c-1.4,1.1-2.7,2.3-4.5,2.5c-0.7,0.1-1.1,0.5-1.4,1.2
		c-1.9,4.1-4.5,7.7-7.1,11.3c-1.6,2.2-3.1,4.5-4.5,6.8c-4.2,6.7-5.8,14.1-5.8,21.9C399.9,638.9,400.1,639.5,400.3,640.3z"/>
	<path class="st1" d="M1473.7,335.8c0,7.3,0,14.7,0,22c0,11.5-0.1,23-0.2,34.5c0,0.8,0.1,1.6,0.2,2.4c-0.2,8.9-0.2,8.9-5,17.6
		c-5.1,9.2-12.5,15.7-22.5,19.1c-2,0.7-4,1.2-6,1.4c-4.8,0.5-9.6,0.9-14.3,1c-17.7,0.6-35.5,0.8-53.2,0.2c-5-0.2-9.9-0.3-14.8-0.9
		c-13-1.7-23.1-7.8-29.8-19.3c-2.8-4.7-4.5-9.9-6.6-14.9c-0.5-1.2-0.5-2.5-0.5-3.8c0-4,0-8,0-12c0-46.7,0-93.4,0-140.1
		c0-3.1,0.4-6,1.7-8.8c1.6-3.5,2.9-7.1,4.6-10.5c4.5-9.3,11.8-15.3,21.7-18.3c7.5-2.3,15.3-3.3,23.1-3.9c20.6-1.6,41.2-0.9,61.8-0.9
		c7.4,0,14.7,0.1,22.1,0.2c0.8,0,1.6,0,2.4,0.1c1.6,0.1,2,0.4,2.1,1.9c0.1,2.2,0.2,4.5,0.2,6.7c0.2,6.7,0.4,13.4,0.5,20.1
		c0,0.6,0,1.3,0,1.9c0,0.9-0.5,1.5-1.4,1.5c-1.1,0-2.2,0.1-3.4,0.1c-26.5,0.3-53.1,0.6-79.6,0.9c-4,0-8,0.2-12,0.7
		c-3.9,0.4-6.3,2.9-8.7,5.5c-0.4,0.4-0.5,1.1-0.6,1.7c-0.1,0.6-0.1,1.3-0.1,1.9c-0.5,46.1-1.3,92.1-0.8,138.2c0,2.1,0.1,4.2,0.1,6.2
		c0.1,3.5,1.5,6.5,3.4,9.3c1.5,2.1,3.4,3.3,6,3.6c3,0.3,6.1,0.7,9.1,0.7c19.5,0.1,39,0.1,58.5,0.2c1.7,0,3-0.4,4.1-1.8
		c1.5-1.9,3.1-3.7,4.7-5.5c0.9-1,1.2-2.1,1.2-3.5c-0.2-3.8-0.3-7.7-0.3-11.5c-0.2-10.1-0.3-20.1-0.6-30.2
		c-0.2-5.8-0.5-11.5-0.8-17.2c-0.1-2.1-0.5-2.3-2.5-2.9c-7.7-2.3-15.7-2.8-23.7-2.9c-13.9-0.2-27.8-0.1-41.7-0.2
		c-5.9,0-5.4,0.9-5.4-5.3c0-7.2,0-14.4,0-21.6c0-1.1,0-2.2,0.1-3.4c0-1,0.7-1.4,1.6-1.4c0.8,0,1.6,0,2.4,0c23,0.3,46,0.6,69,0.9
		c2,0,3.8,0.4,5.5,1.3c2.7,1.5,5.4,2.7,8.1,4.1c7.6,4.1,13.1,10.1,16.4,18.1C1471.8,324.4,1473.7,329.9,1473.7,335.8z"/>
	<path class="st1" d="M986.3,360.6c2,1.2,4.2,1.2,6.4,1.2c8.5,0.2,16.9,0.4,25.4,0.4c14.7,0.1,29.4,0,44.1,0c0.8,0,1.6,0,2.4,0
		c1.9-0.1,2.1-0.3,2.1-2.3c0.1-11.5,0.1-23,0.1-34.5c0.2-39.7,0.4-79.3,0.7-119c0-6-0.8-5.4,5.3-5.4c7.2,0,14.4,0,21.6,0
		c1.1,0,2.2,0,3.3,0.1c0.7,0.1,1.2,0.5,1.2,1.2c0.1,1.1,0.1,2.2,0.1,3.4c0.1,31.7,0.2,63.3,0.4,95c0.1,18.4,0.2,36.8,0.3,55.2
		c0,1.1,0,2.2,0.1,3.4c0.1,3,0.1,3,3.4,3.1c2.6,0,5.1,0,7.7,0c2,0,2.4,0.4,2.4,2.1c0,9.1,0,18.2,0,27.3c0,1.6-0.4,2-2,2
		c-2.9,0-5.8,0-8.6,0c-2.7,0-2.9,0.3-2.9,3.1c0,2.2,0,4.5,0,6.7c0,8.6,0,17.3,0,25.9c0,1.1,0,2.2,0,3.4c0,0.9-0.6,1.4-1.5,1.5
		c-0.5,0-1,0-1.4,0c-9,0-17.9,0-26.9,0c-0.6,0-1.3,0-1.9-0.1c-0.7-0.1-1.2-0.5-1.2-1.3c-0.1-1.3,0-2.6,0-3.8c0-10.1,0-20.1,0-30.2
		c0-1.3,0-2.6-0.1-3.8c0-0.7-0.5-1.2-1.2-1.2c-1.4-0.1-2.9-0.1-4.3-0.1c-36.4,0-72.9,0-109.3,0c-1.1,0-2.2,0-3.4,0
		c-3.1-0.1-3.1-0.1-3.2-3.2c0-0.2,0-0.3,0-0.5c-0.6-10.2,1.3-19.9,5-29.5c7.5-19.5,15.5-38.9,23.3-58.2c12.1-30,24.3-60.1,36.5-90.1
		c1.1-2.8,2.5-5.5,3.7-8.3c0.6-1.5,1.6-2.3,3.2-2.5c1.3-0.1,2.5-0.5,3.8-0.6c8.1-0.5,16.3-0.7,24.4-0.2c0.8,0.1,1.6,0.2,2.4,0.4
		c0.6,0.2,1.1,0.7,0.9,1.4c-0.4,1.4-0.8,2.7-1.4,4.1c-5.4,13.6-10.8,27.3-16.3,40.9c-13.1,32.6-26.3,65.1-39.4,97.7
		c-1.7,4.1-3.1,8.4-4.7,12.6C986.4,358.6,986.1,359.5,986.3,360.6z"/>
	<path class="st1" d="M829.9,433.9c-16.5,0.2-32.9,0.4-49.4,0.5c-1,0-1.9,0-2.9,0c-0.9,0-1.5-0.5-1.5-1.4c0-9.6,0-19.2,0-28.8
		c0-1,0.6-1.4,1.5-1.4c1.4,0,2.9,0,4.3,0c26.1,0,52.1,0.1,78.2-0.6c4-0.1,8-0.2,12-0.8c0.9-0.1,1.9-0.3,2.8-0.5
		c4.4-1.1,7.3-3.8,7.9-8.5c0.3-2.2,0.7-4.4,0.8-6.7c0.5-14.7,0.3-29.4,0.2-44.1c0-5.6-2.4-9.8-6.2-13.5c-0.6-0.6-1.3-0.9-2.1-0.9
		c-1.9,0-3.8-0.1-5.8-0.1c-29.7-0.3-59.5-0.6-89.2-0.9c-1,0-1.9,0-2.9,0c-0.9,0-1.5-0.5-1.5-1.4c0-0.3,0-0.6,0-1c0-9,0-17.9,0-26.9
		c0-2,0.2-2.1,2.2-2.2c1.3,0,2.6,0,3.8,0c22.9,0,45.7-0.1,68.6-0.1c6.2,0,12.5-0.3,18.7-1c2.4-0.2,4.8-0.6,7-1.3
		c3.6-1.1,6.1-3.5,6.5-7.5c0.2-1.7,0.5-3.5,0.6-5.2c0.5-9.9,0.5-19.8,0.2-29.7c-0.1-2.4-0.4-4.8-1-7.1c-0.8-3.6-3-5.9-6.5-7.1
		c-2.8-1-5.6-1.3-8.5-1.4c-12.9-0.5-25.9-0.9-38.8-0.9c-16.1,0-32.3,0-48.4,0c-4.4,0-4.2,0.1-4.3-4.1c0-7.2-0.2-14.4-0.1-21.6
		c0-6,0.9-6.9,7-7c20-0.4,40-0.1,60,0.2c9.3,0.1,18.5,0.5,27.8,0.9c3.7,0.2,7.4,0.4,11,1.1c11.5,2.2,20.7,8.1,27.3,17.9
		c4.4,6.6,7.1,13.9,7.1,22c0.1,9.8,0.4,19.5,0.7,29.3c0.1,4.3-0.3,8.6-0.8,12.9c-0.6,5.7-2.7,10.8-5.9,15.5c-2,2.9-3.9,5.9-5.8,8.8
		c-0.9,1.4-0.9,2.6,0,4c1.5,2.4,2.9,5,4.5,7.3c4.6,6.6,7,13.8,7.5,21.9c0.6,9.1,0.5,18.2,0.3,27.3c-0.1,7.4-0.4,14.7-0.6,22.1
		c-0.1,2.4-0.2,4.8-0.5,7.2c-2.3,15.4-11,25.8-25.1,32c-2.9,1.3-6.1,1.8-9.3,2c-10.4,0.8-20.8,0.8-31.2,0.9
		C843.3,433.9,836.6,433.9,829.9,433.9C829.9,433.9,829.9,433.9,829.9,433.9z"/>
	<path class="st1" d="M1253.2,234.1c-6.4-0.2-12.1-0.5-17.9-0.6c-29.6-0.1-59.1-0.2-88.7-0.2c-1.4,0-2.9,0-4.3,0
		c-1.2,0-1.7-0.7-1.6-1.8c0.1-9.4,0.2-18.9,0.3-28.3c0-1.9,0.4-2.1,2.3-2.2c1.1,0,2.2,0,3.4,0c46.7,0,93.4,0,140,0
		c1.8,0,4.2-0.9,5.4,0.7c0.9,1.2,0.5,3.4,0.6,5.1c0.2,5,0.3,9.9,0.6,14.9c0.1,2.5-0.4,4.7-1.3,7c-11.9,29.3-23.8,58.6-35.6,87.9
		c-15.2,37.6-30.4,75.2-45.6,112.8c-2.4,5.9-1,4.9-7.5,4.9c-8.8,0.1-17.6,0-26.4,0c-0.9,0-1.9,0.2-2.8-0.3c-0.7-1.2,0.2-2.1,0.6-3
		c22.7-56.3,45.5-112.5,68.2-168.8c3.3-8.1,6.2-16.4,9.3-24.7C1252.5,236.6,1252.7,235.7,1253.2,234.1z"/>
	<path class="st1" d="M319.1,146.9c1.4-0.8,3.1-0.5,4.6-0.6c13.4-0.2,26.8-0.4,40.3-0.5c6.1-0.1,12.1-0.2,18.2-0.8
		c0.6-0.1,1.3-0.1,1.9-0.1c5.9-0.6,6.8-1.6,7.4-7.3c0.8-7.7,0.7-15.3,0.7-23c0-22.4-0.1-44.8-0.2-67.2c0-5.1-0.4-10.2-0.7-15.3
		c0-0.5,0-1-0.1-1.4c-0.5-4.2-1.5-5.3-5.6-5.7c-4-0.4-8-0.8-11.9-0.9c-19.8-0.4-39.6-0.6-59.4-0.9c-1.1,0-2.2,0-3.3,0.1
		c-0.3,0-0.9,0.6-0.9,0.9c-0.1,1.3-0.2,2.5-0.2,3.8c0,14.7,0,29.4,0,44.1c0,30.2,0,60.5,0,90.7c0,1.3,0,2.6,0,3.8
		c-0.1,2-0.2,2.2-2.3,2.2c-6.6,0-13.1,0-19.7,0c-1.7,0-2-0.3-2.1-1.9c0-1.1,0-2.2,0-3.4c0-52.5,0-104.9,0-157.4
		c0-6.2-0.8-5.4,5.2-5.4c28.5,0,56.9,0,85.4,0.1c4.8,0,9.6,0,14.3,0.9c8.5,1.6,15.6,5.2,20.3,13c4.4,7.5,4.5,7.4,4.5,16.1
		c0.2,34.7,0.5,69.4,0.8,104.1c1.2,7.1-1.6,13.1-4.8,19.1c-3.3,6.1-8.2,10.1-14.6,12.5c-2.6,1-5.3,1.2-8,1.4
		c-11.5,0.8-23,0.8-34.5,0.9c-10.4,0-20.8,0-31.2,0c-1.1,0-2.2,0-3.3-0.1c-0.7-0.1-1.1-0.5-1.2-1.3c0-0.8-0.1-1.6-0.1-2.4
		c0-5.1,0-10.2,0-15.4C318.8,148.8,318.5,147.9,319.1,146.9z"/>
	<path class="st1" d="M1215.6,88.6c0-15.4,0-30.7,0-46.1c0-6.2,0.6-12.4,1.7-18.6c1.5-7.8,6.2-13.6,12.3-18.3
		c3.7-2.8,8.2-3.3,12.7-3.8c8.9-1,17.9-1,26.8-1c21.1-0.1,42.2,0,63.3-0.1c0.8,0,1.6,0,2.4,0c1.1,0,1.8,0.4,1.8,1.6
		c0,0.6,0,1.3,0,1.9c0,5.1,0,10.2,0,15.4c0,3.3,0.3,3.6-3.3,3.6c-4.5,0-8.9,0.1-13.4,0.1c-18.9,0.2-37.7,0.4-56.6,0.7
		c-4.8,0.1-9.6,0.2-14.4,0.8c-1.3,0.1-2.5,0.3-3.8,0.7c-2.6,0.8-4.3,2.5-4.9,5.4c-0.5,2.8-0.8,5.7-0.8,8.6
		c-0.1,10.2-0.2,20.5-0.2,30.7c0,18.5,0.1,37.1,0.1,55.6c0,4.2,0.1,8.3,0.7,12.4c0.6,3.5,2.6,5.4,5.8,6.2c1.4,0.4,2.8,0.5,4.3,0.5
		c6.1,0.2,12.1,0.5,18.2,0.6c14.2,0.1,28.4,0.2,42.7-0.6c2.1-0.1,4.1-0.2,6.2-0.7c1.7-0.5,2.8-1.5,3.2-3.2c0.3-1.2,0.5-2.5,0.6-3.8
		c0.2-4.5,0.5-8.9,0.5-13.4c0.1-9.4,0-18.9,0-28.3c0-1.1,0-2.2-0.1-3.4c0-0.7-0.5-1.2-1.2-1.2c-1.3-0.1-2.6-0.1-3.8-0.1
		c-12.3,0-24.6,0-36.9,0c-1.1,0-2.2,0-3.4,0c-2.2-0.1-2.5-0.3-2.6-2.4c0-4.5,0-9,0-13.4c0-1.8,0-3.5,0-5.3c0-0.9,0.5-1.5,1.5-1.5
		c0.8,0,1.6,0,2.4,0c21.3,0,42.5,0,63.8,0c4.6,0,4.4-0.2,4.4,4.5c0,22.7,0,45.4,0,68.1c0,2.5-0.5,4.7-1.7,6.8
		c-1.4,2.3-2.5,4.8-3.9,7.2c-2,3.6-4.7,6.4-8.3,8.4c-2.9,1.6-6,3.1-8.9,4.8c-1.5,0.9-3,0.8-4.6,0.8c-8,0-16,0-24,0
		c-11.2,0-22.4,0-33.6-0.1c-6.2-0.1-12.5-0.5-18.7-0.7c-5.5-0.2-10.3-2.2-14.4-5.7c-6.7-5.7-10.9-12.7-11.3-21.9
		C1215.7,123.2,1215.6,105.9,1215.6,88.6z"/>
	<path class="st1" d="M1171.2,0.7c7.5,0.5,15,0.3,22.4,0.1c0.5,0.4,0.8,1,0.7,1.7c0,1.3,0,2.6,0,3.8c0,52.3,0,104.6,0,156.9
		c0,6.5,0.8,5.6-5.5,5.7c-3.4,0-6.7-0.1-10.1,0.1c-2.7,0.2-4.4-0.6-5.9-3c-3.1-4.8-6.6-9.4-9.9-14.2c-21.7-31.2-43.4-62.5-65.1-93.7
		c-2.1-3-4.2-6-6.8-8.7c-0.3-0.3-0.9-0.6-1.2-0.6c-0.7,0.1-0.9,0.8-0.9,1.4c-0.3,4.5-0.7,8.9-0.8,13.4c-0.2,13.1-0.2,26.2-0.2,39.3
		c0,20,0,40,0,60c0,1.3,0,2.6,0,3.8c-0.1,1.6-0.4,2-1.9,2c-2.7,0-5.4,0-8.2,0c-3.8,0-7.7,0-11.5,0c-2.2,0-2.3-0.2-2.4-2.5
		c0-1,0-1.9,0-2.9c0-52.5,0-104.9,0-157.4c0-6.1-0.8-5.2,5.4-5.2c3.7,0,7.4,0,11,0c4.6,0,3.5-0.4,6.1,3.3
		c3.7,5.4,7.4,10.8,11.1,16.2c15.8,23.1,31.6,46.2,47.4,69.2c6.4,9.3,13,18.6,19.6,27.8c1,1.4,1.9,3.6,3.8,2.9
		c1.6-0.6,1.1-2.8,1.2-4.4c0.9-14.5,0.8-29.1,0.8-43.6c0-22.4,0-44.8,0-67.2C1170.4,3.7,1169.7,2,1171.2,0.7z"/>
	<path class="st1" d="M741.7,83.2c0,18.9,0,37.7,0,56.6c0,2.6-0.4,5-1.6,7.4c-1.1,2.1-2,4.4-3.1,6.5c-4.7,9-12.2,13.7-22.3,14.3
		c-21.4,1.4-42.8,1.2-64.2,0.3c-5.3-0.2-10.5-0.3-15.8-1c-3.3-0.4-6.2-1.6-8.8-3.5c-8.3-6.1-13.3-14.1-13.9-24.6
		c-1-17.1-0.9-34.2-0.8-51.3c0.1-17.3,0.5-34.5,0.7-51.8c0.1-3.7,0.3-7.3,0.8-11c0.4-2.7,1.3-5.3,2.6-7.7c2.5-4.5,5.8-8.4,10.1-11.4
		c3.7-2.6,7.8-4.1,12.5-4.3c23.8-1.4,47.6-1,71.4-0.8c6.5,0.1,12.6,1.7,18.2,5.1c3.3,2.1,6.1,4.6,8.2,7.9c5,7.6,5,7.6,5.1,16.9
		c0.1,17.4,0.3,34.8,0.5,52.3C741.5,83.2,741.6,83.2,741.7,83.2z M635.2,91.7c-0.1,9.7,0.1,26.5,0.7,43.2c0.1,1.4,0.2,2.9,0.2,4.3
		c0,2.2,1.2,3.6,3.1,4.4c1.6,0.6,3.4,1.1,5.1,1.3c4,0.4,8,0.9,11.9,0.9c14.2,0.1,28.4,0,42.6-0.2c4.1,0,8.3-0.4,12.4-0.9
		c3.8-0.5,4.9-1.7,5.5-5.5c0.6-3.8,0.8-7.6,0.8-11.5c0-22.2,0-44.4,0-66.6c0-9.7-0.1-19.5-0.9-29.2c-0.5-5.7-1.3-6.5-6.9-7.1
		c-2.4-0.2-4.8-0.5-7.2-0.6c-17.1-0.4-34.2-0.6-51.3-0.3c-3.4,0.1-6.7,0.3-10,1.2c-3.9,1-5.1,2.6-5.4,6.8c-0.1,1.6-0.1,3.2-0.2,4.8
		C635.1,52.7,635.3,68.6,635.2,91.7z"/>
	<path class="st1" d="M265,83.3c0,18.7-0.1,37.4,0,56.1c0,3.3-0.4,6.3-2.2,9.1c-1.3,2.2-2.4,4.5-3.6,6.8c-1.8,3.3-4.3,5.9-7.6,7.7
		c-3.2,1.8-6.6,3.3-9.8,5.1c-1.5,0.8-3.1,0.7-4.7,0.7c-17.1,0-34.2-0.1-51.3-0.1c-7.8,0-15.7-0.4-23.5-0.7
		c-8.6-0.4-15.2-4.2-20.4-10.9c-3.5-4.5-5.8-9.4-6.1-15.3c-0.4-5.9-0.5-11.8-0.5-17.7c0-28.1,0-56.3,0-84.4c0-4.6,0.2-9.3,0.7-13.9
		c0.2-1.8,0.4-3.5,1.1-5.1c2.5-5.7,5.9-10.6,11-14.2c3.7-2.6,7.8-4.2,12.4-4.7c9.1-1,18.2-0.8,27.3-0.9c16.1-0.1,32.3,0,48.4-0.1
		c2.8,0,5.4,0.4,7.7,1.9c0.3,0.2,0.6,0.3,0.9,0.4c7.9,3.2,13.6,8.7,17.4,16.3c1,2.1,1.7,4,1.8,6.3c0.1,16,0.3,32,0.4,48
		c0,3.2,0,6.4,0,9.6C264.7,83.3,264.8,83.3,265,83.3z M158.5,85.3c0,0-0.1,0-0.1,0c0,2.6,0,5.1,0,7.7c0.2,13.6-0.2,27.2,0.7,40.8
		c0.1,1.6,0.2,3.2,0.4,4.8c0.3,2.4,1.7,4.1,3.8,5.2c1.3,0.7,2.6,1.1,4.1,1.3c3.2,0.5,6.3,0.8,9.6,0.8c10.7,0,21.4,0,32.1,0
		c7.4,0,14.7-0.1,22-0.7c1.4-0.1,2.9-0.2,4.3-0.5c2.6-0.5,4.2-1.9,4.6-4.7c0.5-3.3,0.7-6.7,0.7-10c0.3-29.1,0.2-58.2-0.2-87.3
		c-0.1-4-0.4-8-0.8-12c-0.4-4-1.4-5.1-5.3-5.5c-3.6-0.4-7.3-0.8-11-0.9c-8.8-0.2-17.6-0.4-26.4-0.4c-8.6,0-17.3,0.1-25.9,0.2
		c-2.2,0-4.4,0.3-6.6,0.9c-2.3,0.6-3.7,2-4.3,4.1c-0.6,2-1,4.1-1.1,6.1c-0.4,5.3-0.7,10.5-0.7,15.8
		C158.5,62.3,158.5,73.8,158.5,85.3z"/>
	<path class="st1" d="M764.7,1c1.1,0.1,2.2,0.2,3.3,0.2c26.2,0,52.4,0,78.6,0c1.3,0,2.5-0.1,3.8-0.2c3.4,1.7,6.9,3.4,10.3,5.1
		c4,2,6.9,5.1,9.1,9c3.4,6,5.3,12.3,5.2,19.2c-0.1,8.3-0.1,16.6-0.1,25c0,5.7-1.6,11-4.3,16c-4.8,8.8-12.3,13.6-22.1,15.1
		c-4.4,0.7-8.9,0.7-13.4,0.8c-7.5,0.2-7.7,0.7-3.6,7.1c2.5,3.9,5.2,7.7,7.8,11.5c3.1,4.5,6.4,8.8,8.9,13.7c0.3,0.6,0.7,1.1,1.1,1.6
		c8.7,10.3,15.9,21.6,23.8,32.5c2,2.7,3.9,5.5,5.8,8.2c0.5,0.7,1,1.3,0.8,2.2c-1.2,1-2.6,1-4,1.1c-6.6,0.1-13.1,0.1-19.7,0.2
		c-1.2,0-2.2-0.4-2.8-1.4c-0.5-0.8-1.1-1.6-1.6-2.4c-16.2-23.6-32.4-47.2-48.6-70.7c-0.9-1.3-1.8-2.7-2.6-4
		c-2.2-3.5-3.4-7.2-3.3-11.3c0.1-2.7,0-5.4,0-8.2c0-2.1,0.3-2.3,2.6-2.5c1.1-0.1,2.2-0.1,3.4-0.1c6.9-0.1,13.7-0.1,20.6-0.3
		c6.1-0.2,12.1-0.6,18.2-0.9c0.6,0,1.3,0,1.9-0.2c3.7-0.9,5.5-0.5,6.5-6.2c1-6.2,1.2-12.4,1-18.6c-0.1-3.8-0.1-7.7-0.9-11.5
		c-1-4.2-1.8-5.1-5.9-5.7c-2.5-0.4-5.1-0.7-7.6-0.8c-15-0.4-30-0.7-45.1-1c-0.8,0-1.6,0-2.4,0c-0.7,0-1.2,0.5-1.2,1.2
		c-0.1,1.4-0.1,2.9-0.1,4.3c0,44.6,0,89.3,0,133.9c0,1.9-0.2,3.8-0.3,5.7c-1.9,1.1-4,0.5-6.1,0.5c-4.3,0.1-8.6,0-12.9,0
		c-5.2,0-4.8,0.4-4.8-5c0-0.2,0-0.3,0-0.5c0-52.5,0-104.9,0-157.4C764,4.3,763.3,2.5,764.7,1z"/>
	<path class="st1" d="M439.5,0.9c1,0.1,1.9,0.2,2.9,0.2c31.6,0,63.2,0,94.8,0c1,0,1.9-0.1,2.8-0.1c0.5,0.4,0.8,1,0.8,1.6
		c0,6.2,0,12.5,0,18.7c0,1.6-0.5,2-1.9,2.1c-1.3,0.1-2.6,0-3.8,0c-22.7,0-45.4,0-68.1,0c-4.4,0-4.2,0-4.2,4.2c0,12.3,0,24.6,0,36.9
		c0,0.8,0,1.6,0.1,2.4c0,1,0.7,1.4,1.6,1.4c1.3,0.1,2.6,0,3.8,0c22.2,0,44.4,0,66.6,0c1.1,0,2.2,0,3.4,0c2.4,0.1,2.6,0.2,2.6,2.4
		c0,6.1,0,12.2,0,18.2c0,1.6-0.4,2-1.9,2.1c-1.3,0.1-2.6,0-3.8,0c-22.4,0-44.7,0-67.1,0c-5.9,0-5.1-0.5-5.2,5.1c0,15,0,30.1,0,45.1
		c0,1.3,0,2.6,0.1,3.8c0,0.8,0.6,1.2,1.2,1.2c1.4,0.1,2.9,0.1,4.3,0.1c22.4,0,44.7,0,67.1,0c6.1,0,5.3-0.4,5.3,5.4
		c0,5.1,0,10.2,0,15.3c0,1.1-0.5,1.8-1.7,1.8c-1.1,0-2.2,0-3.4,0c-30.7,0-61.4,0-92.1,0c-0.6,0-1.3,0-1.9,0c-3-0.1-3-0.1-3.1-3.3
		c0-0.8,0-1.6,0-2.4c0-52.3,0-104.6,0-156.9C438.7,4.5,438,2.5,439.5,0.9z"/>
	<path class="st1" d="M1368.1,84.7c0-26.6,0-53.1,0-79.7c0-4.3-0.4-4.2,4.1-4.2c31.3,0,62.7,0,94,0c0.8,0,1.6,0,2.4,0
		c1,0,1.4,0.6,1.4,1.5c0,6.6,0,13.1,0,19.7c0,0.7-0.5,1.2-1.2,1.2c-3.4,0.1-6.7,0.2-10.1,0.2c-20.5,0.2-40.9,0.4-61.4,0.6
		c-1.3,0-2.6,0-3.8,0.1c-1,0-1.4,0.6-1.5,1.5c0,0.3,0,0.6,0,1c0,12.8,0,25.6,0,38.4c0,0.3,0,0.6,0,1c0,0.9,0.5,1.5,1.4,1.5
		c1.1,0.1,2.2,0.1,3.4,0.1c23,0.2,46,0.5,69.1,0.7c4.1,0,4.2-0.3,4.2,4.2c0,5.4,0,10.9,0,16.3c0,1.8-0.4,2.1-2.3,2.2
		c-1.1,0-2.2,0-3.4,0c-22.1,0-44.1,0-66.2,0c-1.3,0-2.6,0-3.8,0c-1.8,0.1-2.1,0.4-2.1,2.4c-0.1,1.6-0.1,3.2-0.1,4.8
		c-0.1,12.3-0.2,24.6-0.3,36.9c0,1.9,0,3.8,0.1,5.8c0.1,5.5-0.3,5,4.9,5.1c6.9,0.1,13.7,0.2,20.6,0.2c16.1,0.1,32.3,0.1,48.4,0.1
		c4.2,0,4.3-0.2,4.3,4.1c0,5.4,0,10.9,0,16.3c0,2-0.2,2.1-2.2,2.2c-1,0-1.9,0-2.9,0c-30.5,0-61.1,0-91.6,0c-5.8,0-5.2,0.6-5.2-5
		C1368.1,137.5,1368.1,111.1,1368.1,84.7z"/>
	<path class="st1" d="M995.8,106.2c0.7-2.2-0.5-3.9-1.2-5.6c-5.2-13.8-10.4-27.5-15.7-41.2c-2.2-5.7-4.5-11.3-6.8-16.9
		c-0.5-1.2-0.7-2.8-2.1-3c-1.8-0.2-2.1,1.7-2.6,2.9c-4.3,10.5-8.6,21-12.8,31.5c-11.6,29.6-23,59.2-34.6,88.8
		c-0.7,1.9-1.5,3.9-2.3,5.9c-8.1,0-16,0-24.1,0c-0.5-1.5,0.5-2.8,1-4c9.3-23.6,18.7-47.2,28.1-70.8c11.7-29.4,23.3-58.8,35-88.2
		c0.2-0.4,0.4-0.9,0.6-1.3c1.6-4,1.1-3.5,5.1-3.5c4.8,0,9.6,0,14.4,0c1.3,0,2.2,0.4,2.6,1.6c0.3,0.7,0.6,1.5,0.9,2.2
		c20.7,52.1,41.5,104.1,62.2,156.2c0.9,2.2,2,4.3,2.3,6.8c-1.7,0.9-3.4,1-5.2,1c-5.4,0.1-10.9,0.1-16.3,0.2c-1.5,0-2.2-0.6-2.8-2
		c-4.3-10.8-8.7-21.6-13-32.5c-2.2-5.5-1.3-4.6-6.8-4.6c-15.5-0.1-31-0.1-46.5-0.3c-2.6,0-5.4,0.7-7.8-1.2c0.3-2.6,1.4-4.9,2.2-7.2
		c1.4-3.7,2.9-7.4,4.2-11.2c0.7-2,1.8-2.6,3.9-2.5c6.4,0.1,12.8,0.1,19.2,0c5.6,0,11.2,0,16.8-0.8
		C994.3,106.5,995,106.4,995.8,106.2z"/>
	<path class="st2" d="M645.9,884.5c0.4,15.7,0.7,34.7,0.4,53.7c-0.2,11.7-0.4,23.4-0.9,35c-0.3,6.5-0.3,13.1-1.4,19.6
		c-0.2,1.1,0.1,2.5-1.1,3c-1.5,0.6-2.3-0.8-3-1.8c-1.6-2.1-3.6-3.6-5.9-4.8c-3.4-1.9-6.9-3.2-10.7-4.1c-4-1-8-0.3-11.8,1
		c-3,1-6,2.3-8.8,3.8c-1.9,1-3.5,1-5.4,0.3c-18.4-6-36.8-11.9-55.1-17.9c-26.6-8.6-53.2-17.3-79.7-26c-4.7-1.5-9.3-3.4-13.9-5.1
		c-2.8-1.1-4.8-2.8-6.2-5.6c-2.3-4.7-6-8.2-9.9-11.6c-5.7-4.9-12-9-18.8-12.2c-3.3-1.6-6.6-3.2-10-4.6c-2.2-0.9-2.7-2.2-2.7-4.4
		c0.2-7.5,0.2-15,0.3-22.6c0.3-13.9,0.4-27.8,0.9-41.7c0.6-18.7,1.2-37.4,2-56.1c0.4-9.6,1.2-19.2,1.8-28.7c0.1-1.9,0.4-3.8,0.7-5.7
		c0.2-1-0.6-2.5,1-2.7c1-0.1,1.5,1.1,1.9,2c1.7,4.4,4.8,7.9,7.9,11.4c10.9,12.5,24.3,21.7,39.4,28.3c11.1,4.8,22.6,7.7,34.6,9
		c14.2,1.5,28.4,1.8,42.6,0.6c7.8-0.6,15.6-1.7,23.3-3c8.7-1.4,17.3-3.1,25.9-4.7c1.7-0.3,3.4-0.8,5.1-1.2c1.7-0.4,2.8-1.5,3.1-3.2
		c0.8-3.8,1.5-7.5,2.2-11.3c0.1-0.6,0.2-1.3,0.2-1.9c0.9-8.3,4-15.6,9.2-22.2c13.3-17.2,21.1-36.8,23.9-58.3
		c1.6-12.4,1.6-24.9-0.6-37.3c-1.5-8.4-4.5-16.3-8.6-23.8c-3.4-6.4-7.5-12.3-11.9-18c-2.6-3.3-5.1-6.6-7.8-9.7
		c-1.6-1.9-2.5-3.9-2.5-6.5c-0.2-6.2-0.6-12.5-1-18.7c-0.2-2.2-0.6-4.4-1-6.6c-0.4-2-1.5-3.5-3.4-4.3c-1.6-0.7-3.2-1.5-4.8-2.1
		c-13.8-5-27.9-9.4-42.3-12.1c-3.6-0.7-7.3-1.2-10.9-1.3c-14.7-0.7-29.5-0.5-43.9,2.6c-20.8,4.4-39.7,13.1-56.1,26.9
		c-1.1,0.9-2.2,1.9-3.3,2.7c-1.3,0.9-2.5,2.7-4.1,1.9c-1.7-0.8-0.7-2.9-0.6-4.3c0.3-3.3,0.8-6.7,1.2-10c3.1-22,7.1-43.9,11.1-65.7
		c12.2-66.4,28.2-131.8,49.6-195.9c3.3-9.9,6.8-19.6,10.6-29.3c0.6-1.5,1.3-2.9,1.9-4.4c0.9-2,2.4-3.4,4.4-4.3
		c10.1-4.6,20.6-6.9,31.7-4.7c1.2,0.3,2.5,0.6,3.7,1c4.5,1.5,7.6,4.3,9.3,8.9c4.6,12.3,9.2,24.5,13.4,36.9
		c13.3,39,24.2,78.8,33.6,118.9c6.4,27.2,12,54.6,17,82.1c3.7,20.3,7.1,40.6,10,61c2.4,17.4,5,34.8,7.2,52.2
		c1.6,12.4,2.9,24.8,4.2,37.2c1.2,11.1,2.4,22.3,3.4,33.4c0.8,8.8,1.5,17.5,2.2,26.3c0.9,11.2,1.7,22.3,2.5,33.5
		c0.5,6.5,0.9,13.1,1.2,19.6c0.5,11,0.9,22.1,1.4,33.1C645,833.8,645.6,857.5,645.9,884.5z"/>
	<path class="st2" d="M642.5,1032.8c0,3.9,0.2,6.8,0,9.6c-0.9,13.4-1.7,26.8-2.8,40.2c-1.3,15.3-2.8,30.6-4.4,45.8
		c-1.3,12.4-2.6,24.8-4.2,37.2c-1.9,14.7-4.1,29.4-6.3,44.1c-2,13.9-4.4,27.8-7,41.6c-9.2,49.2-20.8,97.8-37.3,145.2
		c-8.6,24.6-18.6,48.7-30.7,71.8c-1.6,3.1-3.4,6.2-4.8,9.4c-1.1,2.5-2.4,3.6-5.3,3.5c-6.2-0.1-12.5,0.4-18.7,0.6
		c-2.7,0.1-5.4,0-8.1,0.2c-3.5,0.3-5.8-1.2-7.4-4.2c-1.5-2.7-3.2-5.2-4.7-7.8c-9.7-17.2-17.8-35-25.1-53.3
		c-11.2-28.3-20.1-57.3-27.8-86.7c-7.2-27.5-13.2-55.3-18.4-83.3c-3.4-18.4-6.5-36.8-9.2-55.3c-2.3-15.8-4.3-31.7-6.1-47.5
		c-2-16.8-3.7-33.7-5.3-50.5c-1-9.9-1.6-19.8-2.3-29.6c-0.9-12-1.7-23.9-2.5-35.9c-0.5-8.6-0.7-17.3-1.4-25.9
		c-0.3-4.1,1.4-6.3,5-7.6c1.7-0.6,3.3-1.3,4.9-1.9c9.1-3.3,17.6-7.6,25.3-13.4c2.3-1.7,4.7-3.3,7-5.1c2.1-1.7,4.3-2,6.8-1.2
		c3.6,1.2,7.3,2.4,10.8,3.9c18.9,7.8,37.8,15.6,56.7,23.5c19.9,8.3,39.8,16.6,59.7,25c4.9,2,9.6,4.3,14.3,6.8c2,1.1,3.8,2.3,5.4,4
		c5,5.4,11.5,7.9,18.7,8.6c1.1,0.1,2.2,0.1,3.4,0.2c6.6,0.3,12.2-2,16.8-6.8C638.9,1036.4,640.4,1035,642.5,1032.8z"/>
	<path class="st0" d="M620.9,1474.8c1.3-6.4,3.3-12.3,5.2-18.2c9.9-30.1,18.8-60.4,26.8-91c6.2-23.7,11.5-47.5,16.7-71.4
		c4.5-20.9,8.5-42,12.2-63.1c3-17.6,6.1-35.3,8.7-53c2-13.6,3.6-27.3,5.2-40.9c1.6-13.3,3-26.7,4.4-40c1.2-11.9,2.2-23.9,3.3-35.8
		c1.2-14,2.3-28.1,3.4-42.1c0.2-2.2,0.3-4.5,0.4-6.7c0.2-4.1,0-3.5,3.6-4.5c4.6-1.2,9.3-2.1,14-3.2c1.4-0.3,2.8-0.6,4.2-0.9
		c5.3-1.3,10.4-1,15.6,0.6c3.6,1.1,7.5,1.6,11.3,2.3c0.6,0.1,1.3,0.1,1.9,0.3c2.5,0.6,3.2,1.3,3.3,3.9c0,1.9,0,3.8-0.2,5.7
		c-0.7,7.2-1.5,14.3-2.3,21.5c-1.1,9.9-2.2,19.7-3.4,29.5c-1.1,9.8-2.3,19.7-3.5,29.5c-1.1,9-2.1,18.1-3.2,27.1
		c-1.2,9.7-2.4,19.4-3.5,29c-1.1,8.9-2.1,17.8-3.2,26.7c-1.2,10-2.4,20-3.6,30c-1.1,9.4-2.2,18.7-3.2,28.1
		c-1.1,9.4-2.2,18.7-3.3,28.1c-1.1,9.7-2.3,19.4-3.4,29.1c-0.5,4.6-1.1,9.2-1.5,13.8c-0.2,2.5-0.3,5.1-0.4,7.7
		c0,1.4,0.9,2.4,2.3,2.7c3.1,0.6,6.3,1.3,9.4,1.8c12,2,24,3.9,35.9,6.1c6.9,1.3,5.8-0.3,7.2,7.2c3.2,17.1,5.9,34.3,8.6,51.5
		c2.1,13.6,4.2,27.2,6.3,40.8c0.1,0.8,0.1,1.6,0.3,2.4c0.4,2.2-0.2,4-1.6,5.7c-4.8,5.8-9.4,11.7-14.2,17.5
		c-6.2,7.5-12.5,15-18.8,22.4c-3.1,3.6-1.8,3.1-6.9,3.1c-5.4,0-10.8-0.2-16.2-1c-7.9-1.2-15.9-2.1-23.8-2.6
		c-25.6-1.6-51.1-1.6-76.7-0.1c-4.1,0.2-8.3,0.6-12.4,0.8C624.1,1475.4,622.6,1475.5,620.9,1474.8z"/>
	<path class="st4" d="M457.9,687.5c13-12.7,24.4-25.7,33.9-40.4c5.4-8.3,7.9-17.3,8.2-27.1c0.3-9.6-0.4-19.2-2.5-28.6
		c-0.5-2.2-0.9-4.4-1.3-6.6c-0.4-2.3-0.2-2.9,1.9-3.7c5.6-2.3,11.4-4.3,17.4-5c10.6-1.4,21.3-1.3,32-0.5c6.7,0.5,12.8,2.7,18.7,5.7
		c7.2,3.6,13.6,8.3,19.7,13.6c12.4,10.9,22.6,23.4,30.2,38.1c5.5,10.6,8.2,21.7,8.4,33.6c0.1,9.8-0.1,19.5-1.8,29.1
		c-2,10.9-5.1,21.4-9.8,31.5c-8,17.2-20.2,30.6-36.4,40.2c-11.8,7-24.2,12.2-37.8,14.4c-23.6,3.9-46.1,0.6-67.5-10.1
		c-13.6-6.8-23.7-17.2-30.7-30.6c-5-9.6-8.2-19.8-10.4-30.3c-2.4-11.6-3.5-23.4-3-35.3c0.4-8.8,1.7-17.5,4.8-25.8
		c0.9-2.5,2.1-5,3.3-7.4c0.5-1,1.2-1.9,1.9-2.7c0.3-0.3,0.9-0.5,1.3-0.5c0.4,0.1,0.8,0.6,0.9,1c0.2,0.9,0.3,1.9,0.2,2.9
		c-0.8,6.9,1.1,13.3,3.8,19.5C446.9,671.3,452.3,679.2,457.9,687.5z M583.1,756.2c-3.4,0.2-6.3,1.4-9.2,2.7
		c-9.9,4.2-19.9,7.9-30.3,10.4c-12.5,2.9-25,3.3-37.5,0.6c-7.8-1.7-15.4-4.3-22.8-7.2c-4.3-1.7-8.7-3.2-13-4.8
		c-0.9-0.3-1.9-0.4-2.8-0.6c-0.3,0-0.7,0.1-0.8,0.3c-0.1,0.2-0.1,0.7,0,0.9c0.8,1.6,2.2,2.7,3.5,3.9c7.8,6.7,16.7,11.2,26.8,13.1
		c9,1.7,18.1,2.1,27.2,1.9c9.6-0.2,19.1-1.8,28.2-5c10.5-3.6,20-9.1,29.4-15C582.2,757.1,582.6,756.6,583.1,756.2z M524.7,604.7
		c1.8-1.4,2.2-2.8,2.9-4.1c1.9-3.5,3.7-7.1,5.6-10.6c2.3-4.3,5.8-6.6,10.8-6.8c2.7-0.1,5.4-0.3,8.1-0.5c1.4-0.1,2.8-0.3,4.3-0.5
		c0.2,0,0.5-0.4,0.5-0.6c0-0.2-0.1-0.6-0.3-0.7c-1.8-0.8-3.7-1.1-5.6-1.1c-2.1-0.1-4.2,0-6.2-0.2c-2.2-0.1-4.5-0.3-6.1-2.1
		c-0.5-0.5-1.1-0.7-1.7-0.3c-2.6,2.2-5.8,2.5-9,2.6c-0.6,0-1.3,0.2-1.6,0.8c-0.4,0.7,0.1,1.2,0.5,1.7c0.6,0.6,1.2,1.1,1.8,1.6
		c1.2,1,1.2,2.2,0.7,3.5c-0.4,0.9-0.8,1.7-1.2,2.6C526.2,594.4,525,599,524.7,604.7z"/>
	<path class="st3" d="M684.2,896c0,17.9,0,40,0,62.1c0,5.3-0.2,10.5-1.1,15.8c-0.2,1.2-0.6,2-1.7,2.6c-9.1,4.7-18.1,9.5-27.1,14.3
		c-0.6,0.3-1.2,0.6-1.8,0.7c-0.4,0.1-1-0.1-1-0.7c-0.1-2.2-0.2-4.5-0.2-6.7c0-39.8,0.5-79.7-0.1-119.5c-0.2-12.6-0.5-25.3-1.1-37.9
		c-0.3-7.2-0.5-14.4-0.8-21.6c-0.6-12.6-1.2-25.2-2-37.8c-0.5-9.1-1.1-18.2-1.8-27.3c-0.8-10-1.7-20.1-2.5-30.1
		c-0.4-5.1-0.8-10.2-1.2-15.3c-0.8-8.4-1.7-16.9-2.5-25.3c-0.7-6.7-1.4-13.4-2.1-20c-0.8-7.5-1.7-14.9-2.6-22.4
		c-0.7-5.9-1.4-11.7-2.2-17.6c-0.7-5.9-1.5-11.7-2.3-17.6c-1.1-7.7-2.3-15.5-3.4-23.2c-1.4-9.2-2.7-18.3-4.3-27.5
		c-2-11.7-4-23.3-6.2-34.9c-2.6-13.8-5.2-27.6-8-41.4c-4.8-22.8-10-45.5-15.9-68.1c-9.7-37.5-20.8-74.5-34.3-110.8
		c-1.4-3.9-2.7-7.9-4-11.8c-0.1-0.3,0-0.6,0.2-0.9c0.3-0.5,0.8-0.4,1.3-0.2c1.7,0.9,3.4,1.8,4.9,2.9c7.3,5.2,13.8,11.4,19.9,18
		c4.7,5.2,7.5,11.5,9.9,17.9c3.7,10,6.7,20.3,9.9,30.6c6.4,21.1,12.5,42.3,18.4,63.5c8.2,29.9,15.7,60,22.3,90.3
		c3.5,16.1,6.6,32.2,9.9,48.4c2.2,11,4.5,21.9,6.2,33c1.5,9.5,3,18.9,4.5,28.4c1.5,9.3,2.9,18.6,4.3,27.9c1.2,8.1,2.3,16.1,3.3,24.2
		c0.9,6.5,1.7,13,2.5,19.5c0.8,6.7,1.5,13.3,2.2,20c0.9,8.4,1.8,16.8,2.7,25.3c0.5,4.5,0.8,8.9,1.2,13.4c0.5,6,1.1,12.1,1.6,18.1
		c0.4,4.3,0.8,8.6,1.1,12.9c0.5,6.7,0.8,13.4,1.3,20.1c1.5,21.1,1.5,42.2,2.2,63.3C683.8,864.4,683.8,878.1,684.2,896z"/>
	<path class="st3" d="M361.4,857.4c0.2-11.5,0.2-23,0.5-34.5c0.2-10.1,0.5-20.1,1-30.2c0.5-10.9,1.1-21.7,1.9-32.5
		c1-12.7,2.2-25.5,3.4-38.2c0.7-8,1.4-15.9,2.2-23.9c0.8-7.5,1.7-14.9,2.5-22.4c0.8-6.8,1.5-13.7,2.3-20.5
		c0.7-5.7,1.4-11.4,2.1-17.1c1.1-8.2,2.3-16.4,3.5-24.7c2.2-15,4.5-30,7.3-44.9c2.8-14.8,5.3-29.5,8.3-44.3
		c5-24.7,10.7-49.3,17.2-73.7c7.3-27.5,15.3-54.8,24.6-81.7c5.7-16.3,11.7-32.5,18.3-48.4c2.5-5.9,5.3-11.7,8.4-17.3
		c1.2-2.2,2.7-4.4,4.2-6.4c5-6.5,10.9-12.1,16.9-17.6c0.5-0.4,1-0.8,1.5-1.2c0.6-0.5,1.4-1.1,2.2-0.6c1,0.6,0.6,1.7,0.4,2.6
		c-0.7,2.3-1.4,4.6-2.3,6.8c-9,23.5-16.5,47.4-23.3,71.5c-6.2,21.7-11.7,43.5-16.8,65.4c-5.2,22.2-9.9,44.6-14.3,67
		c-3.7,18.8-7,37.7-10.1,56.6c-1.8,11-3.3,22.1-5.1,33.2c-0.5,3.2-1.2,6.3-1.8,9.4c-0.6,3.1-2.1,5.6-4.3,7.9
		c-9,9.4-14.5,20.5-16.5,33.4c-0.2,1.1-0.4,2.2-0.3,3.3c0.3,8.4-1.4,16.5-2.4,24.8c-0.2,1.4-0.4,2.9-0.4,4.3
		c-0.4,10.1-0.4,20.2,0,30.2c0.5,10,2.8,19.6,5.9,29c1.7,5.2,2.7,10.5,2.6,16c-0.2,12.1-0.9,24.3-1.6,36.4c0,0.5-0.1,1-0.1,1.4
		c-0.4,11-0.8,22-1.3,33.1c-0.5,10.9-1,21.7-1.5,32.6c0,0.6,0,1.3-0.1,1.9c-0.4,17.9-0.9,35.8-1.3,53.7c0,1,0,1.9-0.1,2.9
		c-0.1,2.3-0.5,2.6-3,2.6c-1.9,0-3.8-0.1-5.7-0.3c-7.8-0.9-15.5-1.8-23.3-2.7c-2.2-0.3-2.5-0.5-2.5-2.7c0-6.1,0.1-12.2,0.2-18.2
		C360.9,872.1,360.7,864.8,361.4,857.4z"/>
	<path class="st3" d="M475.8,1482.7c-4.5,0-7.9-0.2-11.2,0.1c-3.4,0.3-5.3-0.8-6.4-4.1c-1.5-4.7-3.6-9.2-5.2-13.9
		c-8.8-25.7-17.4-51.5-25.1-77.5c-7.1-24-14.1-48.1-19.8-72.6c-5.8-25.4-11.5-50.8-16.4-76.4c-3-15.7-5.6-31.4-8.2-47.2
		c-2.2-13.6-4.4-27.1-6.3-40.7c-1.6-11.4-2.9-22.8-4.2-34.2c-1.2-10.3-2.4-20.6-3.5-31c-0.9-8.7-1.5-17.5-2.3-26.3
		c-0.8-9.9-1.7-19.7-2.5-29.6c-0.5-5.7-0.8-11.5-1.2-17.2c-0.2-3.8-0.2-7.7-0.8-11.5c-0.2-1.1-0.1-2.2,0-3.3
		c0.1-0.9,0.7-1.4,1.6-1.5c0.5-0.1,1-0.1,1.4,0c6.5,0.8,13.1,0.5,19.6,0.8c3.2,0.2,6.4,0.4,9.6,0.7c1.1,0.1,1.8,0.7,1.9,1.8
		c0.3,2.5,0.8,5.1,0.9,7.6c0.4,7.7,0.8,15.3,1.1,23c0.4,9.7,0.9,19.5,1.7,29.2c0.5,6.2,0.8,12.4,1.2,18.7c0.5,5.9,1,11.8,1.6,17.7
		c0.4,4,0.7,8,1.1,11.9c1.4,13.3,2.6,26.7,4.2,40c2.2,17.8,4.5,35.5,7.2,53.2c4.9,33.4,11,66.5,18.4,99.4
		c7.4,32.4,16.1,64.5,27.1,95.9c7.6,21.6,16.3,42.7,26.6,63.1c3,6,6.1,12,9.2,17.9c0.5,1,1,2,1.5,3c0.8,1.8,0.6,2.4-1.3,2.5
		C490,1482.3,482.3,1483.1,475.8,1482.7z"/>
	<path class="st3" d="M681.4,1025.2c-0.6,7.5-1.2,15-1.8,22.5c-0.4,4.3-0.7,8.6-1.1,12.9c-1,11.5-2,22.9-3.2,34.4
		c-1.3,12.9-2.9,25.7-4.4,38.6c-1.4,11.6-2.7,23.2-4.2,34.7c-1.4,10.6-3.1,21.2-4.8,31.7c-2,12-4.1,23.9-6.3,35.9
		c-2.3,12.6-4.6,25.1-7.1,37.7c-4.3,21.3-8.9,42.5-14,63.6c-5.4,22.5-11.6,44.8-18,67.1c-6.7,23.4-14.6,46.3-22.2,69.4
		c-1.4,4.2-1.4,4.2-5.6,4.5c-10.4,0.7-20.7,1.5-31,2.7c-1.3,0.1-2.6,0.2-3.8,0.2c-3.4,0-4.1-1.1-2.2-4c4.1-6.2,7.2-12.8,10.3-19.5
		c5.3-11.6,11-23.1,15.5-35.1c10.4-27.7,19.6-55.7,27.1-84.4c6-22.9,11.2-45.9,15.9-69.1c3.4-17.1,6.6-34.2,9.1-51.4
		c2.2-14.5,4.4-29.1,6.4-43.6c1.6-12,2.9-24.1,4.2-36.2c1.2-11.3,2.4-22.6,3.5-33.8c0.5-5.6,0.8-11.2,1.3-16.7
		c0.5-6.4,1-12.7,1.6-19.1c0.4-4.8,0.5-9.6,1-14.4c0.7-6.7,0.9-13.4,1.3-20.1c0.2-2.9,0.5-5.7,0.7-8.6c0.1-1.6,1-2.2,2.4-2.5
		c6.1-1.3,12.1-2.7,18.2-4.1c3-0.6,5.9-1.2,8.9-1.7c1.4-0.2,2.2,0.4,2.2,1.8c0.1,2.2,0,4.5,0,6.7
		C681.3,1025.1,681.3,1025.2,681.4,1025.2z"/>
	<path class="st0" d="M1148.1,1090.4c-0.1,1.1-0.3,2.6-0.5,4c-0.6,4.4-1.3,8.9-1.7,13.3c-0.2,2.1-1.2,3.5-2.8,4.7
		c-8.3,6.3-16.5,12.7-24.7,19c-17,13-33.9,26.2-51.2,38.8c-2.2,1.6-4.5,3.1-6.7,4.6c-0.8,0.5-1.7,0.1-2-0.7c-0.5-1.5-1-3.1-1.2-4.6
		c-1.4-10.1-2.7-20.3-3.9-30.4c-1.5-12.1-3-24.1-4.4-36.2c-1.1-9.4-2.2-18.7-3.3-28.1c-1.1-9.5-2.3-19-3.4-28.6
		c-1.2-10.6-2.3-21.3-3.3-32c-0.5-5.8-0.2-6.1,5.2-4.3c8.5,2.9,17.2,3.5,26,3.5c1.1,0,2.2,0.1,3.4,0c2.3-0.2,3.9,0.7,5.5,2.3
		c10.6,10.4,21.3,20.7,32,31.1c8.5,8.2,17,16.5,25.5,24.7c3,2.9,5.8,5.9,8.3,9.3C1146.8,1083.5,1148,1086.6,1148.1,1090.4z"/>
	<path class="st0" d="M868.8,1336.4c8.5-0.6,17.1-0.6,25.7,0.1c4.5,0.3,8.9,0.9,13.4,1.3c1.7,0.1,2.4,0.9,2.9,2.5
		c3.2,10.2,6.5,20.4,9.7,30.6c5.1,16,10.1,32,15.3,47.9c0.8,2.5,0.6,4.4-0.7,6.7c-12.3,21.7-24.5,43.4-36.7,65.1
		c-0.3,0.6-0.6,1.1-0.9,1.7c-0.5,0.9-1.2,1.5-2.2,1.5c-3.8,0.1-7.7,0.3-11.5,0.3c-4.2,0-7.3-2-9.2-5.8c-0.3-0.7-0.8-1.4-1.1-2.1
		c-8.1-17-16.2-34-24.2-51.1c-1.1-2.3-2-4.7-3-7.1c-1-2.3-1.1-4.5-0.5-7c3.2-12,6.2-24.1,9.4-36.2c3.9-14.8,8-29.6,12.1-44.4
		C867.6,1339.2,867.8,1337.8,868.8,1336.4z"/>
	<path class="st5" d="M495.8,620c-0.3,3-0.5,6.4-0.9,9.7c-0.4,2.5-1.2,4.9-2.5,7.2c-2.1,3.8-4.5,7.3-7.1,10.8c-3,4.1-6.3,8-8.2,12.9
		c-0.2,0.6-0.7,1.1-1.2,1.4c-4.2,3.2-7.7,7.2-11.4,11c-1.5,1.5-2.9,3-4.4,4.4c-2.4,2.1-3.7,2-5.6-0.4c-1.1-1.4-2-2.9-2.9-4.4
		c-4.1-7.9-6.4-16.3-7.5-25.1c-0.2-1.3-0.2-2.5-0.3-3.8c-0.4-4.1,0.2-7.9,1.9-11.7c3.1-7.1,7.1-13.6,12.1-19.5
		c7.4-8.6,14.3-17.6,21.3-26.5c1.6-2,3.3-3.9,5-5.8c0.6-0.7,1.4-1.3,2.2-1.8c0.8-0.5,1.6-0.3,2,0.5c0.5,1,0.9,2,1.3,3.1
		c2.8,8.7,4.5,17.6,5.4,26.7C495.4,612.4,495.5,616.1,495.8,620z"/>
	<path class="st5" d="M400.3,640.3c-0.1-0.7-0.4-1.4-0.4-2c0.1-7.8,1.6-15.2,5.8-21.9c1.4-2.3,2.9-4.6,4.5-6.8
		c2.6-3.6,5.3-7.2,7.1-11.3c0.3-0.6,0.7-1.1,1.4-1.2c1.9-0.2,3.2-1.4,4.5-2.5c11.3-9,24.1-14.9,38.3-17.7c4.2-0.8,8.5-1.4,12.8-2
		c1.4-0.2,2.9-0.1,4.3,0c0.8,0.1,1.1,0.7,0.8,1.4c-0.5,1-1.1,2-1.7,2.9c-3.7,5-7.5,9.9-11.6,14.6c-0.7,0.8-1.5,1.7-2.3,2.4
		c-9.1,8.4-15.2,18.8-20.5,29.8c-0.2,0.4-0.4,0.9-0.5,1.3c-1.3,3.8-4.1,6-8,6.7c-2.5,0.5-5,0.9-7.5,1.3c-5.8,0.9-11.7,1.8-17.5,2.7
		c-2.5,0.4-5,1-7.4,1.9C401.7,640.2,401,640.2,400.3,640.3z"/>
	<path class="st0" d="M635.2,91.7c0.1-23.1-0.1-39.1,0.6-55c0.1-1.6,0.1-3.2,0.2-4.8c0.2-4.1,1.4-5.7,5.4-6.8
		c3.3-0.9,6.6-1.1,10-1.2c17.1-0.4,34.2-0.1,51.3,0.3c2.4,0.1,4.8,0.4,7.2,0.6c5.6,0.6,6.5,1.4,6.9,7.1c0.8,9.7,0.9,19.5,0.9,29.2
		c0,22.2,0,44.4,0,66.6c0,3.8-0.2,7.7-0.8,11.5c-0.6,3.8-1.6,5-5.5,5.5c-4.1,0.5-8.3,0.8-12.4,0.9c-14.2,0.2-28.4,0.2-42.6,0.2
		c-4,0-8-0.5-11.9-0.9c-1.7-0.2-3.5-0.7-5.1-1.3c-1.9-0.7-3.1-2.1-3.1-4.4c0-1.4-0.1-2.9-0.2-4.3
		C635.3,118.2,635.2,101.4,635.2,91.7z"/>
	<path class="st0" d="M158.5,85.3c0-11.5-0.1-23,0-34.5c0-5.3,0.4-10.5,0.7-15.8c0.1-2.1,0.6-4.1,1.1-6.1c0.6-2.1,2-3.5,4.3-4.1
		c2.2-0.6,4.4-0.9,6.6-0.9c8.6-0.1,17.3-0.3,25.9-0.2c8.8,0,17.6,0.2,26.4,0.4c3.7,0.1,7.3,0.4,11,0.9c3.9,0.5,4.9,1.6,5.3,5.5
		c0.4,4,0.7,8,0.8,12c0.4,29.1,0.5,58.2,0.2,87.3c0,3.4-0.2,6.7-0.7,10c-0.5,2.8-2.1,4.2-4.6,4.7c-1.4,0.3-2.9,0.4-4.3,0.5
		c-7.3,0.6-14.7,0.7-22,0.7c-10.7,0-21.4,0-32.1,0c-3.2,0-6.4-0.3-9.6-0.8c-1.5-0.2-2.8-0.6-4.1-1.3c-2.1-1.1-3.5-2.8-3.8-5.2
		c-0.2-1.6-0.3-3.2-0.4-4.8c-0.9-13.6-0.5-27.2-0.7-40.8c0-2.6,0-5.1,0-7.7C158.5,85.3,158.5,85.3,158.5,85.3z"/>
	<path class="st1" d="M583.1,756.2c-0.5,0.4-0.9,0.9-1.4,1.2c-9.3,5.9-18.9,11.4-29.4,15c-9.1,3.1-18.6,4.7-28.2,5
		c-9.1,0.2-18.2-0.2-27.2-1.9c-10.1-1.9-19-6.4-26.8-13.1c-1.3-1.1-2.7-2.3-3.5-3.9c-0.1-0.3-0.2-0.7,0-0.9c0.1-0.2,0.5-0.4,0.8-0.3
		c0.9,0.1,1.9,0.3,2.8,0.6c4.4,1.5,8.7,3.1,13,4.8c7.4,2.9,15,5.5,22.8,7.2c12.6,2.7,25,2.3,37.5-0.6c10.5-2.4,20.5-6.2,30.3-10.4
		C576.8,757.7,579.7,756.5,583.1,756.2z"/>
	<path class="st1" d="M524.7,604.7c0.3-5.7,1.5-10.3,3.4-14.7c0.4-0.9,0.8-1.7,1.2-2.6c0.5-1.3,0.5-2.5-0.7-3.5
		c-0.6-0.5-1.2-1-1.8-1.6c-0.4-0.4-0.9-0.9-0.5-1.7c0.3-0.6,1-0.8,1.6-0.8c3.2,0,6.4-0.4,9-2.6c0.6-0.5,1.2-0.3,1.7,0.3
		c1.6,1.8,3.9,2,6.1,2.1c2.1,0.1,4.1,0.1,6.2,0.2c1.9,0.1,3.8,0.3,5.6,1.1c0.2,0.1,0.4,0.5,0.3,0.7c0,0.2-0.3,0.6-0.5,0.6
		c-1.4,0.2-2.8,0.4-4.3,0.5c-2.7,0.2-5.4,0.4-8.1,0.5c-4.9,0.2-8.5,2.5-10.8,6.8c-1.9,3.5-3.7,7.1-5.6,10.6
		C527,601.9,526.6,603.3,524.7,604.7z"/>
</g>
</svg>
