<?xml version="1.0" encoding="utf-8"?>
<!-- Generator: Adobe Illustrator 26.0.2, SVG Export Plug-In . SVG Version: 6.00 Build 0)  -->
<svg version="1.1" id="Layer_1" xmlns="http://www.w3.org/2000/svg" xmlns:xlink="http://www.w3.org/1999/xlink" x="0px" y="0px"
	 viewBox="0 0 554.6 411.8" style="enable-background:new 0 0 554.6 411.8;" xml:space="preserve">
<style type="text/css">
	.st0{fill:#FEFEFE;}
	.st1{fill:#17478E;}
	.st2{fill:#19488E;}
	.st3{fill:#FDFDFE;}
	.st4{fill:#B0B2B2;}
	.st5{fill:#E91D2D;}
</style>
<g>
	<path class="st0" d="M277.4,411.8c-92.1,0-184.1,0-276.2,0c-0.9,0-1.2-0.2-1.2-1.2c0-136.5,0-273,0-409.5C0,0.2,0.2,0,1.2,0
		c184.1,0,368.2,0,552.3,0c0.9,0,1.2,0.2,1.2,1.2c0,136.5,0,273,0,409.5c0,0.9-0.2,1.2-1.2,1.2C461.5,411.8,369.4,411.8,277.4,411.8
		z M378.8,276.6L378.8,276.6c-0.3,1-0.4,1.9-0.1,2.9c0.2,0.7-0.2,1-0.8,1.2c-0.3,0.1-0.7,0.1-1.1,0.2c-1.7,0.3-2.5,1.3-2.4,3
		c0.1,0.8-0.1,1.5-0.7,2c-0.4,0.4-0.7,0.9-1.1,1.3c-2.5,2.6-2.8,5.2-1,9.2c1.2,2.7,2.7,5.4,4.8,7.8c-2.5,0.5-4.5,1.5-6.2,3
		c-2.8,2.3-5.4,4.9-7.7,7.7c-7,8.4-13,17.5-18.5,26.9c-8.3,14.4-14.9,29.6-21.1,45c-1.6,4.1-3.5,8.1-4.8,12.2
		c-0.5,1.7-0.5,3.2,0.7,4.6c0.3,0.4,0.2,0.7,0.3,1.1c0.1,1.7,1,3,2.5,3.6c1.5,0.6,3.2,0.2,4.3-1.1c0.6-0.6,1-1.3,1.5-2
		c0.2-0.3,0.4-0.6,0.9-0.6c1.7,0,2.9-0.9,4-2.1c5.8-5.9,11.8-11.5,17.7-17.2c4-3.8,8.2-7.4,12-11.3c7-7,12.8-15,18.6-23
		c5-6.9,9.2-14.1,12.1-22.1c1.6-4.4,2.8-8.9,1.2-13.7c0.1-0.1,0.1-0.1,0.2-0.2c0.4,0.1,0.8,0.1,1.2,0.2c4.2,0.8,8.2,0.7,12-1.5
		c1.1-0.6,1.9-1.4,2.3-2.6c0.5-1.5,1.1-3,1.7-4.5c0.1-0.3,0.1-0.7,0.5-0.9c2.1-0.9,2.2-2.5,1.7-4.4c-0.3-1.2,0.2-2.3,1.3-3
		c1-0.7,1.7-1.6,1.7-2.9c0-0.9-0.3-1.6-0.6-2.4c-0.2-0.7-0.2-1.3,0.5-1.7c2.6-1.3,3.2-2.5,2.1-5.2c-0.7-1.7-0.8-3.3-0.3-5
		c0.1-0.4-0.2-1.2,0.8-1c0.7,0.1,1.1,0.3,1.1,1.1c-0.1,3.9,0.1,7.8-0.1,11.7c-0.1,2.9,0.9,5,3,6.9c6.1,5.4,11.6,11.5,17.1,17.5
		c7.5,8.2,15.2,16.2,22.5,24.5c0.9,1,1.9,1.9,3.2,2.5c2.1,1,4.1,0.6,5.6-1.2c2-2.4,4-4.7,5.8-7.2c3.5-4.9,6.6-10.1,7-16.2
		c0.2-3-0.1-6-1.6-8.8c-4.8-8.9-9.7-17.7-14.8-26.4c-3.1-5.2-5.9-10.6-9.4-15.6c-2.7-3.8-5.5-7.5-8.2-11.4c-1.2-1.8-1.9-3.9-2.9-5.9
		c1.7-0.4,3.3-0.3,4.8-0.9c3-1.1,4.4-3.2,4.5-6.4c0.1-2.8-1-5.2-2.6-7.4c-0.4-0.6-0.4-1,0-1.5c1-1.3,1.9-2.6,2.8-3.9
		c0.3-0.4,0.5-0.7,1.1-0.6c0.9,0.2,1.9,0.3,2.9,0.3c3.3,0.2,6.6,0.5,9.7-1.3c2.9-1.7,4-4.4,3.1-7.7c-0.6-2.3-2.1-4.2-3.6-6
		c-1.4-1.6-1.4-1.6-0.1-3.3c0.3-0.4,0.6-0.6,1.1-0.6c0.9,0,1.8,0,2.6,0c3.1-0.2,6.2-0.6,8.8-2.6c2.1-1.6,3-3.7,2.5-6.4
		c-0.5-2.8-2.1-5-4-6.9c-0.7-0.7-0.7-1.1-0.2-1.9c5.9-9.4,11.4-19.1,16.5-28.9c4.9-9.3,9.7-18.7,12.8-28.8c0.2-0.8,0.5-0.8,1.1-0.4
		c1.3,0.8,2.6,1.5,4,2.2c9.5,5.2,17.6,12.2,25.3,19.6c2,1.9,4.5,1.8,6.2-0.4c0.9-1.2,1.1-2.5,1.4-3.9c1.8-7.3,3.6-14.6,3.2-22.2
		c-0.1-2.7,0-5.5-1.3-8c-3-5.6-6.8-10.7-11.6-14.9c-6.2-5.5-12.6-10.7-18.9-16c-0.6-0.5-0.8-1-0.8-1.7c0.2-2.9,0.2-5.7,0.3-8.6
		c0-1.5,0-1.6,1.5-1.3c7.5,1.2,15.1,1.1,22.7,1.9c2.3,0.2,3.9-0.8,5-2.8c0.3-0.6,0.6-1.3,0.8-2c1-3.7,0.4-7.3-1.3-10.6
		c-5.3-9.9-10.8-19.7-18.2-28.2c-3.4-3.9-6.8-7.9-11.2-10.8c-6-4-12.3-7.2-18.9-9.9c-11.7-4.9-23.6-9.1-36-12.2
		c-5.4-1.3-10.7-3-16.3-3.2c-7.3-0.2-14.4,0.6-21.5,2c-5.8,1.2-11.6,2.5-17.1,4.8c-9,3.9-16.7,9.5-23.1,17
		c-5.5,6.5-10.6,13.2-13.9,21.1c-3,7-4.2,14.4-4.7,22c-0.1,2.1-0.3,4.3,0.6,6.3c0.4,0.9,0.3,1.7-0.2,2.5c-0.2,0.4-0.4,0.8-0.6,1.2
		c-3.1,6.9-6.3,13.9-9.3,20.8c-0.8,1.9-1.7,3.8-1.8,5.9c-0.1,1.6-0.1,3.1-0.7,4.7c-0.6,1.6-0.2,3.4-0.1,5.1
		c0.6,6.2,6.3,12.7,12.4,14.1c7.1,1.6,13.9,0.8,20.4-2.2c1-0.5,1.3-0.4,1.5,0.8c1.1,6,2.9,11.8,3.8,17.8c0.4,2.4,2.7,3.3,4.7,2
		c1.1-0.7,2.1-1.5,3-2.3c6-5.3,12.4-9.9,19.3-13.9c0.6-0.3,1.2-0.8,1.9-1c0.3,2.4,0.4,4.8,0.4,7.2c-0.1,3.3-0.3,6.6-0.3,9.9
		c0.1,8.2-1.7,16.2-3.1,24.2c-0.1,0.7-0.4,0.9-1.1,1c-1.2,0.2-2.3,0.5-3.4,1c-4.5,2-5.9,6-3.7,10.4c1.1,2.1,2.5,3.9,4.3,5.4
		c0.6,0.5,0.3,1.1,0.2,1.6c-0.1,0.7-0.6,0.5-1,0.5c-2.7,0.2-5.4,0.5-7.9,1.8c-2.9,1.6-4,4.3-3.2,7.5c0.8,3.1,2.8,5.4,5.2,7.4
		c1.3,1.1,1.7,2.1,1,3.6c-0.3,0.6-0.5,1-1.3,1.1c-1.6,0.1-3.2,0.4-4.6,1.1c-1.9,0.9-3.3,2.2-3.6,4.3c-0.4,2.6-0.1,5.1,1.4,7.4
		c0.4,0.6,0.9,1.1,1.1,1.9c-3.4,1.7-6.8,3.2-10.4,3.9c-3.7,0.7-7.5,1.1-11.3,1.6c-6.3,0.8-12.5,1.6-18.8,2.3
		c-6.2,0.7-12.4,1.2-18.6,1.7c-4,0.3-6.7,2.5-8.4,5.7c-3.8,7.3-7.5,14.7-11.2,22.1c-0.4,0.8-0.7,1.6-0.9,2.5
		c-0.6,2.1,0.4,3.7,2.5,4.2c1,0.2,2,0.2,3,0.3c6.4,0.1,12.8,0,19.2,0.4c6.1,0.4,12.2,0.8,18.3,1.5c3.6,0.4,7.1,1,10.7,1
		C377,276.8,377.9,276.3,378.8,276.6z M12.2,97C8.8,97,5.4,97,2,97c-1.8,0-1.5-0.2-1.5,1.5c0,38.6,0,77.1,0,115.7
		c0,1.8-0.2,1.6,1.6,1.6c131.3,0,262.6,0,393.9,0c1.4,0,2.5-0.1,3.5-1.2c1.4-1.5,3.4-2,5.6-2.6c-1.1-0.9-1.8-1.8-2.5-2.7
		c-2.1-2.6-3.4-5.4-3.2-8.8c0.3-4.3,2.8-7,6.6-8.6c1.2-0.5,2.4-0.8,3.6-1.2c-0.9-1.3-1.8-2.5-2.4-3.9c-2.5-5.7-0.4-11.3,5.2-13.9
		c0.8-0.4,1.7-0.7,2.6-1c0.4-0.1,0.7-0.3,0.8-0.8c0.7-4.3,1.5-8.6,2.1-13c0.6-4,0.5-8.1,0.6-12.2c0.1-2.7,0-5.4,0-8.1
		c-0.3-0.1-0.4,0.1-0.6,0.3c-3.8,2.2-7.4,4.7-10.8,7.5c-2.8,2.3-5.4,4.8-8.4,6.7c-3.8,2.4-8.7,0.3-9.4-4.2c-0.8-4.8-2.1-9.4-3-14.2
		c-0.2-0.9-0.5-0.9-1.2-0.7c-4.9,1.5-9.9,2.4-15,1.7c-4.2-0.6-8.2-1.5-11.4-4.4c-6.4-5.7-9.3-12.6-6.8-21.2c0-0.1,0.1-0.3,0-0.5
		c-0.3-2.5,0.5-4.7,1.4-7c0.6-1.6,1.3-3.2,2.1-5c-3.2,0-6.2,0-9.2,0c0-0.2,0-0.2,0-0.2c0.5-0.2,1-0.4,1.4-0.6
		c4.2-1.8,7.1-4.8,8.6-9.1c1-2.7,1.3-5.5,1.3-8.4c0-10.6,0-21.3,0-31.9c0-2-0.1-4.1-0.3-6.1c-0.9-8.8-6.2-15.4-14.4-17.9
		c-4-1.2-8.2-1.4-12.3-1.4c-11.3-0.1-22.6-0.1-33.9,0c-5.8,0-11.5,0.7-16.9,2.9c-5.4,2.1-9,5.9-9.8,11.7c-1.1,7.2-1.2,14.4,0,21.6
		c0.9,6,4.6,9.9,10.5,11.6c2.9,0.8,5.8,1.5,8.8,1.8c10.3,1.2,20.7,1.5,31.1,0.5c5.5-0.5,10.8-1.7,14.9-5.9c0,0,0.1,0,0.2,0
		c0,3.4,0.2,6.9-0.1,10.3c-0.3,3.8-2.2,5.5-6.1,5.8c-0.5,0-1,0-1.4,0c-7.3,0-14.6,0-21.8,0c-3.6,0-7.2,0-10.8,0
		c-2.4,0-3.8-1.2-4.5-3.5c-0.2-0.6-0.4-0.8-1-0.8c-6.6,0-13.3,0-19.9,0c-0.6,0-0.8,0.1-0.8,0.8c0,2.3,0,4.6,0.1,7
		c0.1,5.3,2.8,9,7.5,11.3c0.4,0.2,0.9,0.3,1.2,0.7c-11.1,0-22.1,0-33.1,0c0.2-0.3,0.5-0.4,0.7-0.5c5.3-1.9,8.5-5.7,9.9-11.1
		c0.8-3.2,0.9-6.5,0.9-9.8c0-9.5,0-19,0-28.5c0-2.4-0.1-4.8-0.4-7.2c-1.1-8.6-6.6-15-15-17.2c-3.9-1-7.8-1.2-11.8-1.2
		c-11.2-0.1-22.4-0.1-33.6,0c-5.4,0-10.7,0.6-15.8,2.4c-6.8,2.3-10.8,6.8-11.5,14.1c-0.5,5.7-0.6,11.4-0.1,17.1
		c0.3,3.1,1,6.1,2.9,8.8c2.3,3.4,5.8,4.9,9.6,5.8c5.5,1.4,11.2,2,16.8,2.2c8.3,0.3,16.5,0.5,24.7-0.8c4.3-0.7,8.4-2.1,11.5-5.3
		c0.1-0.1,0.2-0.2,0.5,0c-0.1,3.5,0.2,7-0.1,10.5c-0.2,3-2,4.8-5,5.2c-0.8,0.1-1.6,0.2-2.4,0.2c-9.7,0-19.3,0-29,0
		c-1.2,0-2.5,0-3.7,0c-1.9,0-4.3-1.3-4.5-3.6c-0.1-0.7-0.4-0.8-1-0.8c-6.6,0-13.2,0-19.8,0c-0.8,0-0.9,0.3-0.9,1c0,1.9,0,3.8,0,5.6
		c-0.1,6.1,2.7,10.3,8.3,12.7c0.2,0.1,0.4,0.1,0.4,0.4c-0.4,0.2-0.8,0.1-1.3,0.1c-6.4,0-12.8,0-19.2,0c-1.6,0-1.6,0-1.6-1.6
		c0-24.2,0-48.4,0-72.5c0-0.7,0.2-1.3-1-1.3c-11.7,0-23.3,0-35,0c-0.5,0-0.9,0.2-1.3,0.5c-8.3,7.3-16.7,14.7-25,22
		c-0.5,0.5-0.6,0.7-0.1,1.3c4,4.6,8,9.2,12,13.9c0.6,0.7,0.9,0.7,1.6,0.1c7.9-7,15.8-14,23.7-20.9c0.3-0.3,0.5-0.7,1.1-0.7
		c0,0.1,0.1,0.2,0.1,0.4c0,19.3,0,38.6,0,57.9c0,1-0.4,1-1.2,1c-17,0-34.1,0-51.1,0c-0.3,0-0.7,0.1-1-0.1c0.1-0.1,0.1-0.2,0.1-0.2
		c0.3-0.1,0.5-0.2,0.8-0.3c6.2-2.2,9.9-6.6,11-13c1.3-7.1,1.1-14.3-0.2-21.4c-1.2-6.7-5.3-11-11.8-13c-4.5-1.4-9.2-1.9-13.9-2.2
		c-7.7-0.4-15.4-0.5-23.1-0.3c-3.6,0.1-7.2,0.5-10.6,1.5c-2.4,0.7-4.5,1.7-6.5,3.6c0-3.9,0.1-7.6,0-11.2c0-1.2,0.3-1.5,1.5-1.5
		c20.1,0,40.1,0,60.2,0c1.1,0,1.3-0.3,1.3-1.3c-0.1-4.9,0-9.8,0-14.7c0-0.9-0.2-1.2-1.2-1.2c-27,0-54,0-81.1,0
		c-0.9,0-1.1,0.2-1.1,1.1c0,14.5,0,29.1,0,43.6c0,0.8,0.2,1.1,1,1.1c6.1,0,12.2,0,18.2,0c1,0,1.2-0.3,1.2-1.2c0-1.9,0.8-3,2.7-3.3
		c0.7-0.1,1.3-0.2,2-0.2c11,0,22.1,0,33.1,0c3.7,0,6.3,2.3,6.5,5.6c0.1,2.8,0.1,5.6,0,8.4c-0.1,2.5-1.5,4.1-3.8,5
		c-1.3,0.5-2.6,0.7-4,0.7c-10,0-19.9,0-29.9,0c-1.2,0-2.5,0-3.7-0.3c-2.7-0.5-4.1-2-4.3-4.8c-0.1-0.8-0.1-1.5,0-2.3
		c0-0.6-0.1-0.9-0.8-0.9c-6.4,0-12.8,0-19.2,0c-0.6,0-0.9,0.1-0.9,0.8c0.1,2.5,0,5,0.1,7.4c0.2,3.7,1.5,7,4.3,9.6
		C7,93.9,9.4,95.6,12.2,97z"/>
	<path class="st1" d="M12.2,97c-2.7-1.4-5.1-3.1-7.3-5.1c-2.8-2.6-4.1-5.8-4.3-9.6c-0.1-2.5,0-5-0.1-7.4c0-0.7,0.3-0.8,0.9-0.8
		c6.4,0,12.8,0,19.2,0c0.7,0,0.9,0.3,0.8,0.9c0,0.8,0,1.5,0,2.3c0.2,2.8,1.6,4.3,4.3,4.8c1.2,0.2,2.5,0.3,3.7,0.3
		c10,0,19.9,0,29.9,0c1.4,0,2.7-0.2,4-0.7c2.4-0.8,3.7-2.5,3.8-5c0.1-2.8,0.1-5.6,0-8.4c-0.2-3.2-2.8-5.5-6.5-5.6
		c-11-0.1-22.1,0-33.1,0c-0.7,0-1.4,0.1-2,0.2c-1.9,0.4-2.8,1.4-2.7,3.3c0,0.9-0.1,1.2-1.2,1.2c-6.1-0.1-12.2,0-18.2,0
		c-0.9,0-1-0.2-1-1.1c0-14.5,0-29.1,0-43.6c0-0.9,0.2-1.1,1.1-1.1c27,0,54,0,81.1,0c1,0,1.2,0.3,1.2,1.2c0,4.9,0,9.8,0,14.7
		c0,1-0.2,1.3-1.3,1.3c-20.1,0-40.1,0-60.2,0c-1.2,0-1.5,0.3-1.5,1.5c0.1,3.6,0,7.2,0,11.2c2-1.9,4.1-2.9,6.5-3.6
		c3.5-1,7-1.4,10.6-1.5c7.7-0.2,15.4-0.1,23.1,0.3c4.7,0.3,9.4,0.8,13.9,2.2c6.5,2,10.6,6.3,11.8,13c1.3,7.1,1.5,14.3,0.2,21.4
		c-1.2,6.4-4.8,10.8-11,13c-0.3,0.1-0.5,0.2-0.8,0.3c0,0,0,0.1-0.1,0.2c0.3,0.2,0.7,0.1,1,0.1c17,0,34.1,0,51.1,0c0.7,0,1.2,0,1.2-1
		c0-19.3,0-38.6,0-57.9c0-0.1,0-0.2-0.1-0.4c-0.5,0-0.8,0.4-1.1,0.7c-7.9,7-15.8,13.9-23.7,20.9c-0.7,0.6-1.1,0.6-1.6-0.1
		c-4-4.7-8-9.3-12-13.9c-0.5-0.6-0.4-0.9,0.1-1.3c8.4-7.3,16.7-14.6,25-22c0.4-0.3,0.8-0.5,1.3-0.5c11.7,0,23.3,0,35,0
		c1.1,0,1,0.6,1,1.3c0,24.2,0,48.4,0,72.5c0,1.6,0,1.6,1.6,1.6c6.4,0,12.8,0,19.2,0c0.4,0,0.9,0.1,1.3-0.1c0-0.3-0.3-0.3-0.4-0.4
		c-5.6-2.4-8.4-6.6-8.3-12.7c0-1.9,0-3.8,0-5.6c0-0.7,0.1-1,0.9-1c6.6,0,13.2,0,19.8,0c0.6,0,1,0.1,1,0.8c0.2,2.2,2.6,3.6,4.5,3.6
		c1.2,0,2.5,0,3.7,0c9.7,0,19.3,0,29,0c0.8,0,1.6-0.1,2.4-0.2c3-0.5,4.7-2.3,5-5.2c0.3-3.5,0.1-7,0.1-10.5c-0.2-0.2-0.4-0.1-0.5,0
		c-3.1,3.3-7.2,4.6-11.5,5.3c-8.2,1.3-16.5,1.1-24.7,0.8c-5.7-0.2-11.3-0.8-16.8-2.2c-3.8-1-7.3-2.5-9.6-5.8
		c-1.8-2.6-2.6-5.7-2.9-8.8c-0.5-5.7-0.4-11.4,0.1-17.1c0.7-7.3,4.7-11.8,11.5-14.1c5.1-1.7,10.4-2.3,15.8-2.4c11.2,0,22.4,0,33.6,0
		c4,0,7.9,0.2,11.8,1.2c8.3,2.3,13.9,8.7,15,17.2c0.3,2.4,0.4,4.8,0.4,7.2c0,9.5,0,19,0,28.5c0,3.3-0.1,6.5-0.9,9.8
		c-1.4,5.4-4.6,9.2-9.9,11.1c-0.2,0.1-0.5,0.2-0.7,0.5c11,0,22,0,33.1,0c-0.3-0.4-0.8-0.5-1.2-0.7c-4.7-2.3-7.4-5.9-7.5-11.3
		c-0.1-2.3,0-4.6-0.1-7c0-0.7,0.2-0.8,0.8-0.8c6.6,0,13.3,0,19.9,0c0.7,0,0.9,0.3,1,0.8c0.6,2.3,2,3.5,4.5,3.5c3.6,0.1,7.2,0,10.8,0
		c7.3,0,14.6,0,21.8,0c0.5,0,1,0,1.4,0c3.8-0.3,5.8-1.9,6.1-5.8c0.2-3.4,0.1-6.8,0.1-10.3c-0.1,0-0.2,0-0.2,0
		c-4.1,4.2-9.4,5.4-14.9,5.9c-10.4,1-20.7,0.7-31.1-0.5c-3-0.4-5.9-1-8.8-1.8c-5.9-1.7-9.6-5.6-10.5-11.6c-1.1-7.2-1-14.4,0-21.6
		c0.9-5.8,4.4-9.6,9.8-11.7c5.4-2.2,11.1-2.8,16.9-2.9c11.3-0.1,22.6,0,33.9,0c4.1,0,8.3,0.2,12.3,1.4c8.2,2.5,13.5,9.1,14.4,17.9
		c0.2,2,0.3,4.1,0.3,6.1c0,10.6,0,21.3,0,31.9c0,2.8-0.4,5.7-1.3,8.4c-1.5,4.3-4.4,7.3-8.6,9.1c-0.5,0.2-1,0.4-1.4,0.6
		c0,0,0,0.1,0,0.2c3,0,6.1,0,9.2,0c-0.7,1.8-1.5,3.3-2.1,5c-0.8,2.2-1.7,4.5-1.4,7c0,0.2,0,0.3,0,0.5c-2.5,8.6,0.4,15.5,6.8,21.2
		c3.2,2.9,7.3,3.9,11.4,4.4c5.1,0.7,10.1-0.2,15-1.7c0.8-0.2,1.1-0.2,1.2,0.7c0.9,4.7,2.3,9.4,3,14.2c0.7,4.5,5.5,6.6,9.4,4.2
		c3.1-1.9,5.6-4.4,8.4-6.7c3.4-2.8,7-5.3,10.8-7.5c0.2-0.1,0.4-0.3,0.6-0.3c0,2.7,0.1,5.4,0,8.1c-0.2,4.1-0.1,8.2-0.6,12.2
		c-0.6,4.3-1.4,8.7-2.1,13c-0.1,0.5-0.4,0.6-0.8,0.8c-0.9,0.3-1.7,0.6-2.6,1c-5.6,2.6-7.7,8.2-5.2,13.9c0.6,1.4,1.5,2.6,2.4,3.9
		c-1.3,0.4-2.5,0.7-3.6,1.2c-3.8,1.6-6.3,4.3-6.6,8.6c-0.2,3.3,1.1,6.2,3.2,8.8c0.7,0.9,1.5,1.8,2.5,2.7c-2.2,0.5-4.2,1.1-5.6,2.6
		c-1.1,1.1-2.2,1.2-3.5,1.2c-131.3,0-262.6,0-393.9,0c-1.8,0-1.6,0.3-1.6-1.6c0-38.6,0-77.1,0-115.7C0.5,96.8,0.2,97,2,97
		C5.4,97,8.8,97,12.2,97z M185.8,133.2c4.5-3.1,4.9-3.9,4.9-9.3c0,0,0-0.1,0-0.1c0-4.7-3.1-8.6-7.7-9.6c-2-0.4-4.1-0.7-6.2-0.7
		c-12,0-24.1,0-36.1-0.1c-1,0-0.9,0.5-0.9,1.2c0,12.6,0,25.2,0,37.8c0,1,0.2,1.2,1.2,1.2c12.8,0,25.7,0,38.5,0c2,0,4.1-0.2,6-0.8
		c3.4-1,5.6-3.1,6.5-6.6c0.4-1.5,0.3-3.1,0.3-4.6c-0.1-3-1.4-5.4-3.9-7C187.6,134,186.8,133.6,185.8,133.2z M228.7,153.6
		C228.7,153.6,228.7,153.6,228.7,153.6c4.9,0.1,9.7,0.1,14.6,0c7.5,0,11.7-3.4,12.9-10.8c1-6.2,0.8-12.4,0.1-18.6
		c-0.4-3.7-2.4-6.6-5.7-8.6c-2.5-1.5-5.4-2.1-8.3-2.1c-10.4-0.1-20.9-0.1-31.3,0c-3.6,0-6.9,1.1-9.1,4.2c-1.5,2-2.1,4.4-2.4,6.9
		c-0.5,4.6-0.2,9.3-0.2,13.9c0,2.1,0.2,4.1,0.7,6.2c0.5,2,1.3,4,3,5.3c3,2.3,6.3,3.6,10.1,3.6C218.4,153.6,223.6,153.6,228.7,153.6z
		 M104.7,153.6C104.7,153.6,104.7,153.6,104.7,153.6c4.8,0.1,9.6,0.1,14.4,0.1c1.5,0,3-0.1,4.4-0.4c5.4-1.4,8-5.1,8.8-10.3
		c0.9-6.1,0.7-12.2,0.2-18.3c-0.3-3.5-2.1-6.4-5-8.5c-2.9-2-6.2-2.6-9.6-2.6c-9.7-0.1-19.5,0-29.2-0.1c-1.7,0-3.4,0.1-5.1,0.6
		c-4.5,1.2-7.3,4.8-7.9,10.2c-0.5,4.7-0.2,9.3-0.3,14c0,1.9,0.2,3.7,0.5,5.6c0.5,2.4,1.3,4.7,3.4,6.3c2.9,2.2,6.2,3.4,9.9,3.5
		C94.3,153.6,99.5,153.6,104.7,153.6z M61,137.6c0.8-0.3,1.5-0.5,2.2-0.8c3-1.1,4.8-3.2,4.8-6.6c0-2.4,0.1-4.9,0-7.3
		c-0.1-2.5-1.1-4.5-2.8-6.3c-2.5-2.6-5.6-3.2-8.9-3.2c-12.8-0.1-25.6,0-38.4-0.1c-0.8,0-0.9,0.2-0.9,0.9c0,12.7,0,25.5,0,38.2
		c0,0.7,0.1,1,0.9,1c3.6,0,7.1,0,10.7,0.1c0.8,0,1-0.3,1-1c0-2.8,0-5.6,0-8.4c0-1,0.3-1.2,1.2-1.2c6.6,0,13.3,0,19.9,0
		c3.2,0,4.6,1.4,4.6,4.6c0,1.7,0,3.4,0,5c0,0.6,0,0.9,0.8,0.9c3.8,0,7.5,0,11.3,0c0.6,0,0.7-0.2,0.7-0.8c0-2.6,0-5.2,0-7.8
		c-0.1-2.9-1.5-4.9-4-6.2C63,138.4,62.1,138,61,137.6z M302.2,191c-0.4-0.1-0.5-0.4-0.7-0.6c-5.6-7.3-11.2-14.7-16.7-22
		c-0.4-0.5-0.7-1-1.5-1c-5,0-10,0-15,0c-0.7,0-0.9,0.2-0.9,0.9c0,10,0,20,0,30c0,0.7,0.2,1,0.9,0.9c2.8,0,5.5-0.1,8.3,0
		c1,0,1.3-0.2,1.3-1.2c0-6.7,0-13.4,0-20.1c0-0.4-0.1-0.8,0.2-1.3c0.3,0.4,0.5,0.6,0.7,0.9c5.3,7,10.6,13.9,15.9,20.9
		c0.4,0.5,0.8,0.9,1.5,0.9c5.1,0,10.2,0,15.4,0c0.8,0,1-0.2,1-1c0-10,0-19.9,0-29.9c0-0.8-0.3-1-1-1c-2.7,0-5.4,0.1-8.2,0
		c-1,0-1.2,0.3-1.2,1.2C302.3,176,302.2,183.5,302.2,191z M33.8,199.2c0.8,0,1.7,0,2.5,0c4.9-0.1,9.9,0.3,14.8-0.3
		c5.8-0.7,8.7-3.6,9.1-9.3c0.3-3.7,0.2-7.4,0.1-11.1c-0.2-5.5-3.1-9.1-8.1-10.4c-1.5-0.4-3.1-0.6-4.6-0.6c-9.8,0-19.5,0-29.3,0
		c-0.8,0-1,0.3-1,1c0,9.9,0,19.8,0,29.7c0,0.8,0.2,1.1,1.1,1.1C23.6,199.2,28.7,199.2,33.8,199.2z M89.2,199.1
		C89.2,199.1,89.2,199.2,89.2,199.1c4,0.1,8.1,0.1,12.1,0c5.2,0,8.5-2.6,9.6-7.8c1-5.1,0.9-10.2,0.3-15.3c-0.7-5-3.9-7.9-8.9-8.5
		c-1.4-0.2-2.8-0.2-4.2-0.2c-7.6,0-15.1-0.1-22.7,0.1c-5.2,0.1-8.2,2.5-8.9,7.6c-0.9,5.7-0.8,11.4,0.1,17.1c0.3,1.6,0.9,3.1,2.3,4.2
		c2.2,1.7,4.7,2.8,7.6,2.8C80.7,199.2,84.9,199.1,89.2,199.1z M287.8,113.4c-7.9,0-15.8,0-23.7,0c-0.9,0-1.2,0.2-1.1,1.1
		c0.1,2.7,0.1,5.4,0,8c0,0.9,0.3,1.1,1.2,1.1c5.3,0,10.6,0,15.8,0c1.1,0,1.3,0.3,1.3,1.3c0,9.2,0,18.3,0,27.5c0,0.9,0.2,1.2,1.2,1.2
		c3.8-0.1,7.6-0.1,11.4,0c1,0,1.3-0.2,1.3-1.2c0-9.2,0-18.3,0-27.5c0-1,0.2-1.3,1.2-1.3c5.1,0.1,10.2,0,15.3,0
		c0.9,0,1.2-0.2,1.2-1.1c-0.1-2.7-0.1-5.4,0-8c0-0.9-0.3-1.1-1.1-1.1C303.6,113.4,295.7,113.4,287.8,113.4z M199.8,183.2
		c0,5,0,9.9,0,14.9c0,0.8,0.1,1.1,1,1.1c3-0.1,6,0,9,0c0.8,0,1.1-0.2,1.1-1.1c0-3.2,0-6.3,0-9.5c0-0.8,0.2-1,1-1c6.5,0,13,0,19.5,0
		c0.8,0,1.1,0.2,1.1,1.1c0,3.2,0,6.3,0,9.5c0,0.8,0.2,1,1,1c3.1,0,6.2,0,9.4,0c0.7,0,0.9-0.2,0.9-1c0-10,0-20,0-30
		c0-0.7-0.2-0.9-0.9-0.9c-3.2,0-6.3,0-9.5,0c-0.8,0-0.9,0.2-0.9,0.9c0,3,0,6,0,9c0,0.9-0.2,1.1-1.1,1.1c-6.5,0-13,0-19.4,0
		c-0.9,0-1.1-0.3-1.1-1.2c0-2.9,0-5.8,0-8.8c0-1-0.3-1.2-1.2-1.2c-2.9,0.1-5.8,0.1-8.6,0c-1,0-1.3,0.2-1.3,1.2
		C199.8,173.5,199.8,178.3,199.8,183.2z M337.3,199.1C337.3,199.1,337.3,199.2,337.3,199.1c1.4,0.1,2.9,0.1,4.3,0.1
		c2.9-0.1,5.8,0.2,8.6-0.3c4.2-0.7,6.7-2.9,7.2-6.6c0.2-2,0.2-4.1-0.1-6.1c-0.6-3.5-2.4-5.3-5.9-5.9c-1.4-0.2-2.8-0.4-4.2-0.4
		c-5.6-0.1-11.2-0.2-16.8-0.3c-1.7,0-2.5-0.8-2.6-2.4c-0.1-1.5,0.9-2.8,2.4-2.8c4.9-0.1,9.8,0,14.6,0c1.3,0,2.1,0.9,2.1,2.2
		c0,0.8,0.3,0.9,1,0.9c1.9,0,3.8,0,5.8,0c2.8,0,2.8,0,2.7-2.8c-0.2-3-1.7-5.1-4.6-6.1c-2.1-0.7-4.3-1.1-6.5-1.2
		c-4.6-0.1-9.1,0-13.7,0c-2.1,0-4.2,0-6.3,0.3c-4,0.5-6.6,2.8-7.1,6.3c-0.2,1.9-0.3,3.8-0.1,5.7c0.4,3.8,2.3,5.9,6,6.6
		c0.9,0.2,1.9,0.3,2.9,0.3c4.4,0.1,8.8,0.1,13.2,0.2c2,0,3.9-0.1,5.9,0.2c1.1,0.2,1.8,0.8,2,1.9c0.4,2.1-0.7,3.4-3,3.4
		c-4.7,0-9.4,0-14.2,0c-2.1,0-2.9-0.8-3-3c0-0.6-0.2-0.7-0.8-0.7c-2.6,0-5.3,0-7.9,0c-0.6,0-0.9,0.1-0.8,0.8c0,1.2,0,2.3,0,3.5
		c0.1,2.7,1.7,4.8,4.3,5.5c1.2,0.3,2.5,0.6,3.8,0.6C330.2,199.1,333.7,199.1,337.3,199.1z M170.8,167.4c-5,0-10.1,0-15.1,0
		c-0.7,0-1,0.1-1,0.9c0,10,0,20,0,30c0,0.7,0.2,1,0.9,0.9c2.8,0,5.7,0,8.5,0c0.7,0,1-0.2,0.9-0.9c0-2.2,0-4.4,0-6.6
		c0-0.7,0.2-0.9,0.9-0.9c1.6,0,3.2,0,4.8,0c5.2,0,10.3,0,15.5-0.1c4.5-0.1,7-2.3,7.7-6.8c0.5-3.2,0.4-6.4,0-9.6
		c-0.5-3.7-2.4-5.8-6-6.6c-1.1-0.3-2.1-0.3-3.2-0.3C180.1,167.4,175.4,167.4,170.8,167.4z M313.1,53.5
		C313.1,53.6,313.1,53.6,313.1,53.5c4.9,0.1,9.8,0.1,14.7,0.1c0.9,0,1.9,0,2.7-0.2c3.9-1.1,5.4-3.4,5.1-7.6
		c-0.3-3.8-2.8-6.4-6.6-6.4c-10.7,0-21.5,0-32.2,0c-3.2,0-5.4,1.9-6,5.1c-0.1,0.7-0.1,1.5-0.1,2.3c0,4.2,2.4,6.8,6.6,6.8
		C302.6,53.6,307.9,53.5,313.1,53.5z M211.6,39.4c-5.4,0-10.7,0-16.1,0c-3,0-5.2,1.7-5.9,4.5c-0.2,0.9-0.2,1.9-0.2,2.9
		c0.1,4.3,2.4,6.8,6.7,6.8c10.3,0.1,20.6,0.1,30.9,0.1c0.2,0,0.5,0,0.7-0.1c4.1-0.3,6.3-2.5,6.6-6.6c0.3-4.6-2.5-7.6-7.2-7.6
		C221.9,39.4,216.8,39.4,211.6,39.4z M133.6,199.2c5.2,0,10.4,0,15.6,0c0.8,0,1-0.2,1-1c-0.1-2-0.1-3.9,0-5.9
		c0.1-1.2-0.2-1.5-1.5-1.5c-6.7,0.1-13.4,0-20.1,0.1c-1,0-1.2-0.3-1.2-1.3c0-7.1,0-14.1,0-21.2c0-0.7-0.1-1-1-1
		c-2.8,0.1-5.5,0.1-8.3,0c-0.9,0-1.1,0.3-1.1,1.1c0,9.9,0,19.7,0,29.6c0,0.9,0.3,1.1,1.1,1.1C123.4,199.2,128.5,199.2,133.6,199.2z
		 M261,183.4c0-5,0-9.9,0-14.9c0-0.9-0.2-1.2-1.1-1.2c-2.8,0.1-5.7,0.1-8.5,0c-0.9,0-1.1,0.3-1.1,1.1c0,9.9,0,19.7,0,29.6
		c0,0.8,0.2,1.1,1,1.1c2.9-0.1,5.8-0.1,8.6,0c0.9,0,1.1-0.3,1-1.1C260.9,193.2,261,188.3,261,183.4z"/>
	<path class="st2" d="M394.1,315.2c1.5,4.7,0.4,9.2-1.2,13.7c-2.9,8-7.2,15.2-12.1,22.1c-5.8,8-11.6,16-18.6,23
		c-3.9,3.9-8,7.5-12,11.3c-6,5.7-12,11.3-17.7,17.2c-1.1,1.1-2.4,2.1-4,2.1c-0.5,0-0.7,0.3-0.9,0.6c-0.5,0.7-0.9,1.4-1.5,2
		c-1.1,1.2-2.8,1.6-4.3,1.1c-1.5-0.6-2.5-1.9-2.5-3.6c0-0.4,0.1-0.8-0.3-1.1c-1.2-1.4-1.3-2.9-0.7-4.6c1.4-4.2,3.2-8.2,4.8-12.2
		c6.1-15.4,12.8-30.6,21.1-45c5.5-9.5,11.5-18.5,18.5-26.9c2.3-2.8,5-5.3,7.7-7.7c1.8-1.5,3.8-2.5,6.2-3c-2.1-2.4-3.5-5-4.8-7.8
		c-1.8-3.9-1.5-6.6,1-9.2c0.4-0.4,0.7-0.9,1.1-1.3c0.6-0.6,0.8-1.2,0.7-2c-0.2-1.7,0.6-2.7,2.4-3c0.4-0.1,0.7-0.1,1.1-0.2
		c0.6-0.2,1-0.5,0.8-1.2c-0.3-1-0.2-2,0.1-2.9c0-0.1,0.1-0.1,0.1-0.2c0,0-0.1,0-0.1,0c0,0.1,0,0.1,0,0.2c-0.9-0.2-1.8,0.2-2.8,0.2
		c-3.6,0-7.2-0.5-10.7-1c-6.1-0.7-12.2-1.1-18.3-1.5c-6.4-0.4-12.8-0.3-19.2-0.4c-1,0-2-0.1-3-0.3c-2.2-0.4-3.2-2-2.5-4.2
		c0.2-0.8,0.6-1.7,0.9-2.5c3.7-7.4,7.3-14.8,11.2-22.1c1.7-3.3,4.4-5.5,8.4-5.7c6.2-0.5,12.4-1,18.6-1.7c6.3-0.7,12.5-1.5,18.8-2.3
		c3.8-0.5,7.5-0.9,11.3-1.6c3.7-0.7,7.1-2.2,10.4-3.9c-0.2-0.8-0.7-1.3-1.1-1.9c-1.5-2.3-1.7-4.8-1.4-7.4c0.3-2.1,1.7-3.4,3.6-4.3
		c1.5-0.7,3-1,4.6-1.1c0.8,0,1-0.4,1.3-1.1c0.7-1.5,0.3-2.5-1-3.6c-2.4-2-4.4-4.3-5.2-7.4c-0.8-3.2,0.4-5.9,3.2-7.5
		c2.4-1.4,5.1-1.6,7.9-1.8c0.4,0,0.9,0.2,1-0.5c0.1-0.6,0.4-1.1-0.2-1.6c-1.7-1.6-3.2-3.4-4.3-5.4c-2.2-4.4-0.8-8.4,3.7-10.4
		c1.1-0.5,2.2-0.9,3.4-1c0.7-0.1,1-0.4,1.1-1c1.4-8,3.1-16,3.1-24.2c0-3.3,0.2-6.6,0.3-9.9c0.1-2.4-0.1-4.8-0.4-7.2
		c-0.8,0.2-1.3,0.7-1.9,1c-6.9,3.9-13.4,8.6-19.3,13.9c-1,0.8-2,1.6-3,2.3c-2.1,1.4-4.3,0.5-4.7-2c-0.9-6-2.7-11.8-3.8-17.8
		c-0.2-1.2-0.5-1.2-1.5-0.8c-6.6,3-13.3,3.8-20.4,2.2c-6.1-1.4-11.7-7.9-12.4-14.1c-0.2-1.7-0.6-3.5,0.1-5.1
		c0.6-1.6,0.6-3.1,0.7-4.7c0.1-2.1,1-4,1.8-5.9c3.1-7,6.2-13.9,9.3-20.8c0.2-0.4,0.4-0.8,0.6-1.2c0.5-0.8,0.6-1.6,0.2-2.5
		c-0.9-2-0.8-4.1-0.6-6.3c0.5-7.6,1.8-15,4.7-22c3.3-7.9,8.4-14.6,13.9-21.1c6.4-7.5,14.1-13.2,23.1-17c5.5-2.4,11.3-3.6,17.1-4.8
		c7.1-1.4,14.3-2.2,21.5-2c5.6,0.2,10.9,1.8,16.3,3.2c12.4,3,24.3,7.3,36,12.2c6.6,2.8,13,6,18.9,9.9c4.4,2.9,7.8,6.9,11.2,10.8
		c7.5,8.5,13,18.3,18.2,28.2c1.7,3.3,2.3,6.9,1.3,10.6c-0.2,0.7-0.5,1.4-0.8,2c-1,2-2.7,3.1-5,2.8c-7.5-0.8-15.2-0.7-22.7-1.9
		c-1.5-0.2-1.5-0.2-1.5,1.3c-0.1,2.9-0.2,5.7-0.3,8.6c0,0.8,0.2,1.2,0.8,1.7c6.3,5.3,12.7,10.5,18.9,16c4.7,4.2,8.5,9.3,11.6,14.9
		c1.3,2.4,1.2,5.3,1.3,8c0.4,7.6-1.5,14.9-3.2,22.2c-0.3,1.4-0.5,2.7-1.4,3.9c-1.7,2.2-4.2,2.3-6.2,0.4
		c-7.7-7.4-15.8-14.4-25.3-19.6c-1.3-0.7-2.7-1.5-4-2.2c-0.6-0.4-0.9-0.4-1.1,0.4c-3,10.1-7.9,19.5-12.8,28.8
		c-5.2,9.8-10.6,19.5-16.5,28.9c-0.5,0.8-0.5,1.2,0.2,1.9c1.9,2,3.5,4.1,4,6.9c0.5,2.7-0.4,4.8-2.5,6.4c-2.6,2-5.7,2.4-8.8,2.6
		c-0.9,0.1-1.8,0.1-2.6,0c-0.5,0-0.8,0.2-1.1,0.6c-1.3,1.7-1.3,1.7,0.1,3.3c1.6,1.8,3,3.6,3.6,6c0.9,3.2-0.2,6-3.1,7.7
		c-3.1,1.8-6.4,1.5-9.7,1.3c-1-0.1-1.9-0.2-2.9-0.3c-0.6-0.1-0.9,0.2-1.1,0.6c-0.9,1.3-1.8,2.6-2.8,3.9c-0.4,0.6-0.4,0.9,0,1.5
		c1.7,2.2,2.7,4.6,2.6,7.4c-0.1,3.2-1.5,5.2-4.5,6.4c-1.5,0.6-3.1,0.5-4.8,0.9c1,2,1.6,4.1,2.9,5.9c2.6,3.9,5.4,7.6,8.2,11.4
		c3.5,4.9,6.3,10.3,9.4,15.6c5.1,8.7,10,17.5,14.8,26.4c1.5,2.8,1.8,5.8,1.6,8.8c-0.4,6.2-3.5,11.4-7,16.2c-1.8,2.5-3.8,4.8-5.8,7.2
		c-1.5,1.8-3.5,2.2-5.6,1.2c-1.3-0.6-2.3-1.5-3.2-2.5c-7.3-8.4-15-16.4-22.5-24.5c-5.5-6-10.9-12.1-17.1-17.5c-2.1-1.8-3.1-4-3-6.9
		c0.2-3.9,0-7.8,0.1-11.7c0-0.9-0.4-1-1.1-1.1c-1-0.2-0.6,0.6-0.8,1c-0.5,1.7-0.4,3.3,0.3,5c1.1,2.7,0.5,4-2.1,5.2
		c-0.8,0.4-0.8,1-0.5,1.7c0.3,0.8,0.5,1.6,0.6,2.4c0,1.3-0.6,2.2-1.7,2.9c-1.1,0.7-1.6,1.8-1.3,3c0.5,1.9,0.4,3.5-1.7,4.4
		c-0.4,0.2-0.4,0.6-0.5,0.9c-0.6,1.5-1.1,3-1.7,4.5c-0.4,1.2-1.2,2-2.3,2.6c-3.8,2.2-7.8,2.3-12,1.5c-0.4-0.1-0.8-0.1-1.2-0.2
		c-0.1,0-0.2,0-0.3-0.1C394,315.1,394,315.2,394.1,315.2z M369.2,270.4c0.5,0,0.9,0.1,1.4,0.1c1.8,0.3,3.5,0.5,5.3,0.5
		c2.5,0.4,4.8-0.5,7.1-1c0.4-0.1,1.6,0.1,1.1-1.2c-0.1-0.2,0.3-0.4,0.6-0.5c0.7-0.5,1.4-1,2-1.5c1.7-1.3,3.3-2.9,5.3-3.6
		c1.6-0.6,2-1.7,2.4-3.1c0.4-1.7,0.4-1.7-1.3-1.3c-0.1,0-0.1-0.1-0.2-0.1c-0.8-3.7-0.6-7.3,0.3-11c0.6-2.6,1.5-5,2.6-7.4
		c-0.4-0.2-0.8-0.1-1.1,0c-4.1,0.9-8.2,1.7-12.3,2.4c-11.5,1.9-23.1,2.9-34.7,4c-1.8,0.2-3.7-0.1-5.3,1.2c-1,0.9-2,1.8-2.8,2.9
		c-3,4.5-5.8,9.2-8.4,13.9c-1.1,2-0.4,2.9,1.8,2.9c0.7,0,1.4,0,2.1,0c4.2,0.5,8.3,0.5,12.5,0.7c4.2,0.2,8.3,0.7,12.5,1.1
		c2.9,0.3,5.8,0.7,8.7,0.8c0.1,0,0.1,0.1,0.2,0.1C369,270.5,369.1,270.5,369.2,270.4z M442.2,230.9c5,3.4,9.8,7.1,12.4,12.9
		c0.1-0.6,0-1-0.2-1.5c-0.7-2.1-2-3.8-3.4-5.4c-0.8-0.9-1.6-1.7-2.4-2.6c0.2-0.2,0.3-0.3,0.5-0.5c3.5-4.9,7.1-9.8,10.5-14.9
		c0.5-0.8,0.6-1.2-0.3-1.7c-4.3-2.7-8.7-5.1-13.4-7.2c-1.4-0.6-2.8-1.4-4.3-1.7c-0.1-0.1-0.2-0.2-0.3-0.2
		c-7.1-2.9-14.5-5.2-22.1-6.4c-0.6-0.1-0.8,0.1-1,0.7c-0.3,1.3-0.6,2.6-1,3.8c-0.3,0.3-0.3,0.6-0.3,1l0,0c-1.3,3.5-2.2,7.1-3.3,10.6
		c-1.8,0-3.6-0.4-5.4-0.2c-1.7,0.1-3.3,0.4-4.8,1.3c-1.3,0.8-1.9,1.9-1.7,3.3c0.9-1.8,2.3-2.5,4.1-2.9c3.9-0.9,7.8-0.2,11.6,0.7
		c1.4,0.3,2.7,0.6,4,1.2c-3.1-0.4-6.2-0.8-9.4-0.4c6.1,1.3,12.2,2.3,17.9,4.8c5.7,2.4,10.6,6.3,15.7,9.8c-1-1.6-2.5-2.7-3.8-4.1
		C442,231.1,442.1,231,442.2,230.9z M432.4,301.6c0.1,0.4,0.4,0.6,0.6,0.8c4,4.1,8.1,8,12.2,12c4.9,4.7,9.7,9.4,14.6,14.2
		c0.4,0.4,0.8,0.8,1.2,1.2c1.9,1.8,3.7,3.6,5.7,5.6c0.5-2.5,0.9-4.7,1.5-7c0.9-3.8,1.5-7.7,3.2-11.3c1.2-2.4,2.7-4.6,4.2-6.8
		c0.5-0.7,0.7-1.3,0.2-2.2c-5.2-8.2-10.2-16.4-15.5-24.5c-6.1-9.3-13.2-18-19.2-27.3c-1.2-1.8-2.9-1.9-4.7-0.6
		c-1.5,1.2-2.8,2.6-4.3,3.9c-3,2.7-5.1,5.7-5,10.1c0.2,6.5,0.1,13.1,0,19.7c-0.1,4.2,1.5,7.6,4.1,10.7
		C431.5,300.6,431.9,301.2,432.4,301.6z M454.9,190.4c-1.5-0.8-3.2-1.3-4.8-1.9c-8.6-3.1-17.3-5.6-26.4-6.3c-1-0.1-1.4,0.2-1.6,1.2
		c-0.7,3.6-1.5,7.1-2.2,10.7c-0.2,1-0.6,1.4-1.6,1.1c-0.7-0.2-1.5-0.1-2.3-0.2c-3.1,0-6.2,0-9,1.5c-1.5,0.8-2.5,1.9-2.4,4.1
		c1-2.3,2.7-3.1,4.7-3.7c1.4-0.4,2.8-0.6,4.3-0.6c6.3-0.2,12.4,1,18.4,2.6c0,0.3-0.3,0.2-0.5,0.3c-3.7-0.7-7.4-0.7-11.2-0.3
		c2.2,0.5,4.5,0.8,6.7,1.2c7.4,1.3,14.6,3,21.2,6.8c4.4,2.5,8.6,5.4,12.8,8.2c0.4,0.3,0.8,0.8,1.4,0.8c0,0.1,0.1,0.1,0.1,0.2
		c0,0,0-0.1,0-0.1c0-0.1-0.1-0.1-0.2,0c0.1-0.5-0.3-0.7-0.6-0.9c-2.2-2.3-4.7-4.4-7.2-6.4c0.4-0.3,0.8,0,1.1,0.2
		c6.3,3.8,12.6,7.6,16.2,14.7c-0.2-2-1.1-3.5-2.2-4.9c-1.7-2.3-4-4-6.1-5.9c0.7-1,1.4-2.1,2.1-3.1c2-3.1,4.1-6.2,5.8-9.4
		c0.3-0.5,0.5-0.9-0.1-1.3C466.2,195.4,460.7,192.5,454.9,190.4z M402.3,266.2c-0.5-0.2-1.1-0.3-1.6-0.5c-0.9-0.5-1.6-0.2-2.2,0.6
		c-0.8,1.1-1.8,2.1-2.7,3.2c-0.6,0.7-1.7,1.4-1.5,2.1c0.1,0.6,1.4,0.9,2.2,1.4c0.1,0,0.2,0,0.2,0c0.7,0.5,1.3,1,2.2,1.7
		c-1.2-0.2-1.9-0.8-2.9-0.7c-1.5-0.4-3.1-0.5-4.5,0.4c-1.2,0.7-2.2,1.8-3.3,2.7c-0.5,0.4-0.3,0.6,0.2,0.9c1.2,0.6,2.3,1.3,3.5,2
		c0.5,0.3,0.9,0.7,1.4,1c0,0.1-0.1,0.1-0.1,0.2c-0.5-0.2-1-0.3-1.5-0.5c-0.9-0.4-1.8-0.5-2.8-0.6c-3.4-0.5-5.5,0.6-7.2,3.7
		c2.2,0.5,4.3,1.2,6.3,2c0.7,0.5,1.6,0.6,2.2,1.4c-1.1,0.2-1.9-0.4-2.8-0.4c-1.4-0.6-2.9-0.5-4.3-0.8c-2.4-0.4-3.8,0.9-5.3,2.7
		c1.8-0.1,3.4,0.2,5,0.7c0.9,0.3,1.7,0.7,2.6,0.8c0.3,0.2,0.5,0.3,0.8,0.5c3.1,1.4,6.2,3,9,4.9c0.6,0.4,1.3,0.8,1.6,1.5
		c-0.8-0.3-1.6-0.7-2.3-1.2c-3.3-2-6.7-3.6-10.4-4.7c-2.9-0.8-5.7-1-8.6,0.1c-1.4,0.5-1.9,1.6-2.1,2.9c-0.1,0.8,0,1.7,0.3,2.5
		c1.1,2.8,3,4.8,5.2,6.7c4.6,3.9,9.6,7.2,15.5,8.7c2.9,0.7,5.8,0.9,8.7-0.2c1.6-0.6,2.3-1.7,2.2-3.4c0-1.1-0.4-2-0.9-2.9
		c-0.9-1.7-2-3.2-3.4-4.6c-0.2-0.3-0.7-0.4-0.6-0.9c0.8,0,1.4,0.6,2,0.9c0.5,0.3,0.8,0.3,1-0.2c0.4-1,0.9-2,1.4-2.9
		c0.2-0.3,0.2-0.6-0.1-0.8c-1.5-1.3-2.9-2.8-4.6-3.8c-0.1-0.4-0.1-0.6,0.3-0.7c1.8,0.5,3.3,1.5,4.8,2.6c0.5,0.3,0.8,0.5,1-0.2
		c0.4-1.1,0.9-2.1,1.4-3.1c0.3-0.5,0.1-0.9-0.3-1.2c-1.4-1.2-2.7-2.4-4.3-3.4c-0.4-0.3-0.8-0.6-1.2-0.9c0.6-0.4,1-0.1,1.5,0
		c1.9,0.8,3.5,2,5.2,3.3c0.7-1.8,1.4-3.6,2.1-5.3c0.1-0.3,0.1-0.6-0.2-0.9c-1.3-1.4-2.4-2.8-4-3.9c-0.4-0.5-1.2-0.6-1.5-1.3
		c0.2,0,0.3-0.1,0.4,0c0.5,0.2,1,0.4,1.5,0.6c1.3,0.9,2.8,1.6,4,2.6c0.5,0.5,0.7,0,0.8-0.4c0.6-2,1.3-4,1.9-6c0.1-0.5,0.3-1.1,0-1.5
		c-0.9-1.1-1.8-2.2-3.1-2.8C408.2,268.2,405.3,267.1,402.3,266.2z M484.7,86.7c-1.1,1-1.3,3.9-0.4,5.7c0.6,1.6,1.1,3.1,1.5,4.8
		c1.2,5.9,2.4,11.9,4,17.7c1,3.6,3.1,6.3,6.7,7.5c4.7,1.6,9.1,3.8,13.6,6c8.9,4.4,17.5,9.3,25,15.9c2.4,2.1,4.9,4.1,7.5,6.1
		c2.9-9.3,3.5-18.4-0.9-27.3c-1,3.6-1,7.3-0.8,11c0.2,4,1,7.9,1.5,11.8c0.1,1,0.5,2.1,0.1,3.3c-0.4-0.4-0.5-0.8-0.7-1.2
		c-1.2-3.6-2.3-7.1-3-10.8c-1.1-6.1-1.7-12.3-1.7-18.6c0-0.5,0.1-1-0.3-1.3c-2-1.7-3.6-3.7-5.5-5.5c-5.1-4.8-10.3-9.4-15.8-13.7
		c-6.2-4.8-12.5-9.3-19.2-13.2c-1.7-1-3.3-1.5-5.3-1.1c-0.5,0.1-1,0.1-1.4,0.1C487.3,83.7,485.8,84.9,484.7,86.7z M489.1,125
		c-2.3-2.2-3.6-4.7-3.4-7.9c0.2-2.9,0-5.9,0.1-8.8c-0.1-2.3-0.3-4.5-0.6-6.8c-0.3-2-0.4-4-1.5-5.7c-1.2-2.3-2.5-4.6-3.5-7
		c-1.1-2.4-1.2-4.6,0.2-6.9c0.3-0.3,0.5-0.6,0.8-0.9c2.7-3.8,8.2-4.6,12.1-2.7c4,1.9,7.8,4.1,11.5,6.4c1.8,1.1,3.5,2.3,5.3,3.5
		c0.1-3.8-0.2-7.5-0.5-11.1c-0.4-4.7-1-9.5-2.5-14c-2.9-8.2-6.4-16.1-10.7-23.6c-4.4-7.8-10.4-14-18.2-18.5
		c-5.9-3.4-12.2-5.7-18.7-7.5c-5.7-1.6-11.4-3-17.4-2.9c-3.3,0.1-6.6,0.4-9.9,0.9c-8.1,1.3-16,3.3-23.5,6.9
		c-7.3,3.5-13.9,7.9-19,14.3c-7.8,9.6-13.4,20.3-15.5,32.6c-0.5,3.2-1.3,6.3-1.1,9.6c0.1,1.3,0.7,2.3,2,2.7c0.6,0.2,1.1,0.4,1.7,0.5
		c7.4,1.9,14.8,1.7,22.2,0.1c7.7-1.7,15.1-4.4,22.6-6.9c0.5-0.2,1-0.5,1.7-0.3c-0.3,0.8-0.9,1.1-1.5,1.4c-2.7,1.3-5.4,2.6-8.1,4
		c-7.8,3.9-15.9,6.8-24.5,8.5c-3.1,0.6-6.3,1.4-9.6,0.9c-1.4-0.2-2.8-0.5-4.2-0.9c-1.2-0.3-2,0-2.6,1.1c-0.7,1.4-1.5,2.7-2.4,4
		c-3.6,5.7-6.5,11.8-8.8,18.2c-0.7,1.9-0.4,2.7,1.2,3.8c1.7,1.1,3.5,1.8,5.4,2c1.7,0.2,3.3,0.5,5,0.6c5.1,0.3,10-0.5,14.3-3.4
		c4.7-3.2,9.3-6.7,13.9-10c8.2-6.1,17.2-10.6,27-13.6c2.9-0.9,5.8-1,8.7-0.2c0.6,0.2,1.1,0.4,1.4,1.3c-2.4-0.7-4.7-0.6-6.8,0
		c-5.1,1.6-10,3.6-14.5,6.5c-7.1,4.6-13.9,9.8-21.2,14.2c-3.4,2.1-6.6,4.5-10.4,6c-4.9,1.9-9.9,3.3-15.3,3.2c-2.9,0-5.8,0.3-8.4-1.3
		c-0.5-0.3-0.7,0-0.7,0.5c-0.1,1.2,0,2.4,0.6,3.5c1.8,3.6,5.1,5.1,8.8,5.2c6,0.2,11.8-1.3,17.3-3.7c7.9-3.4,15-8.1,22.4-12.5
		c5.1-3.1,10.4-5.9,16.1-7.9c0.5-0.2,1-0.3,1.5-0.5c0.3-0.1,0.7-0.2,0.9,0.1c0.2,0.3,0,0.6-0.2,0.9c-0.3,0.5-0.8,0.8-1.2,1.1
		c-1.2,0.9-2.6,1.7-3.7,2.9c-0.2,0.2-0.5,0.5-0.3,0.8c0.2,0.3,0.5,0.1,0.8,0c3.4-1.5,6.7-3.1,10.3-4.2c0.3,0,0.6,0,0.9-0.1
		c5.4-1.1,10.8-2.2,16.2-2.9c0.8-0.1,1.6-0.2,2.4,0c0.6,0.2,1,0.6,1.1,1.3c0,0.7-0.5,0.9-1,1c-5.6,1.6-10.9,4-16.1,6.8
		c-1.8,0.9-2.9,2.2-3.7,4c-3.5,7.9-5.2,16.3-5.7,24.9c-0.3,4.2-0.5,8.4-1.1,12.5c-1,7-2.2,14-3.4,21c-0.2,1.1,0,2.4-0.7,3.1
		c-0.7,0.7-2.1,0.2-3.2,0.4c-2.5,0.3-5.1,0.7-7.1,2.4c-1.2,1-1.7,2-1.6,3.5c0.9-2.2,2.7-3.2,4.7-3.8c1.6-0.5,3.3-0.8,5.1-0.8
		c5.3-0.3,10.5,0.4,15.7,1.5c-0.2,0.5-0.7,0.1-1,0.3c-3.6-0.3-7.3-0.1-10.9,0.5c2.2,0.3,4.3,0.6,6.5,0.8c10.7,0.8,20.7,3.8,29.9,9.2
		c2.8,1.7,5.8,3.2,8.7,4.8c0.1,0,0.2,0.1,0.3,0.1c0-0.1,0-0.2-0.1-0.3c-2.4-2.4-5.3-4.3-8-6.5c3.9,1.8,7.6,3.8,11.1,6.3
		c3.9,2.8,7.6,5.8,9.5,10.7c-0.1-2-0.8-3.4-1.8-4.8c-1.6-2.3-3.8-4.1-5.9-5.9c0-0.4,0.2-0.7,0.4-1.1c3.1-5.4,6.2-10.7,9.2-16.1
		c3.6-6.5,6.5-13.3,9.9-19.9c4-7.6,6.7-15.7,8.9-23.9c0.2-0.6,0.4-1.1-0.5-1.5c-2.7-1.1-5.4-2.5-8.3-3.2
		C493,127.3,490.8,126.7,489.1,125z M323.1,405.1c2-2.4,3.6-5.2,5.5-7.8c-0.1,0.6-0.3,1.2-0.4,1.8c-0.1,0.7-0.7,1.6,0,2
		c0.7,0.4,1.2-0.5,1.7-1c5.5-5.5,11.1-10.8,16.7-16.2c4.7-4.5,9.8-8.7,14.3-13.5c8.1-8.8,15.3-18.3,21.7-28.4
		c3.8-5.9,7-12.2,8.2-19.2c0.9-5.1,0-7.1-4-9.1c-1.7-0.9-3-2-4.4-3.3c-3-2.7-5.7-2.8-9-0.4c-2.8,2.1-5.2,4.5-7.4,7.1
		c-7.1,8.4-13.2,17.6-18.7,27.1c-7.5,12.9-13.6,26.5-19.1,40.4c-2,5.1-4.3,10-6.1,15.2c-0.2,0.5-0.5,1-0.3,1.7
		c1.3-0.8,2.2-1.9,3.6-2.9C324.6,400.9,323.5,402.9,323.1,405.1z M422.6,275.7c0.1-0.4,0.2-0.7,0.3-1c0.9-4.6,2-9.1,3.4-13.6
		c0.7-2.3,1.4-4.6,3.1-6.4c2.3-2.6,4.8-5.1,7.8-6.8c2.6-1.5,4.3-3.6,5.9-5.9c0.5-0.7,0.9-1.4,1.5-2c0.6-0.7,0.5-1.1-0.2-1.7
		c-6.9-5.1-14.4-8.9-22.3-11.9c-2.8-1-5.7-1.9-8.6-2.5c-1.1-0.3-1.8-0.2-2.1,1.2c-0.2,1.2-0.7,2.4-1.1,3.7c-2.3,7.1-5,14-8.4,20.7
		c-1.7,3.3-3.3,6.6-5,9.9c-0.5,0.9-0.2,1.2,0.8,1.4c1.5,0.2,3,0.6,4.4,1c5.4,1.3,10.5,3.2,14.5,7.2
		C418.6,271.1,420.5,273.4,422.6,275.7z M489.5,25.7c-0.1,0.4,0.1,0.5,0.3,0.7c2.3,2.4,4.5,5,6.6,7.6c3.9,4.9,7.4,9.9,9.8,15.7
		c3,7.4,6.1,14.8,9.1,22.3c0.2,0.6,0.4,1.1,1.3,1.2c5.2,0.6,10.3,1.3,15.4,1.9c1.8,0.2,3.7,0.2,5.5-0.2c1.8-0.4,2.5-1.2,2.5-3.1
		c0-2.5-0.7-4.9-1.9-7c-6.2-10.4-13.1-20.1-22.8-27.7c-6.5-5.1-13.7-9-21.8-10.8C492.2,26,490.8,25.6,489.5,25.7z M423.4,122.1
		c0.1-3.3-1.1-6.2-2.2-9.1c-0.2-0.5-0.5-0.6-1-0.4c-8.4,2.3-16,6.5-23.6,10.6c-1.1,0.6-1.5,1.6-1.3,2.9c0.5,4.3,1.1,8.5,1.8,12.8
		c0.1,0.5-0.1,1.3,0.5,1.5c0.7,0.3,1-0.5,1.5-0.8c3.5-3,7-6.1,11-8.4c3.9-2.2,7.9-4.4,11.8-6.5C423,124.1,423.8,123.4,423.4,122.1z
		 M478.4,316.1c-4.7,3.3-11.2,17.4-9.7,21.4C474.2,331.3,478.4,324.7,478.4,316.1z M466.8,228.5c1.2-0.1,1.7-0.5,1.5-1.6
		C467.8,227.4,467.4,227.9,466.8,228.5z"/>
	<path class="st3" d="M185.8,133.2c0.9,0.5,1.8,0.9,2.6,1.4c2.5,1.7,3.8,4,3.9,7c0,1.6,0.1,3.1-0.3,4.6c-0.9,3.4-3.1,5.6-6.5,6.6
		c-2,0.6-4,0.8-6,0.8c-12.8,0-25.7,0-38.5,0c-1,0-1.2-0.2-1.2-1.2c0-12.6,0-25.2,0-37.8c0-0.7-0.1-1.2,0.9-1.2c12,0,24.1,0,36.1,0.1
		c2.1,0,4.1,0.3,6.2,0.7c4.5,1,7.7,4.9,7.7,9.6c0,0,0,0.1,0,0.1C190.7,129.2,190.3,130,185.8,133.2z M165.3,144.2
		c3.7,0,7.4,0,11.1,0c1.1,0,2.1-0.2,3.1-0.8c0.8-0.4,1.1-1,1.1-1.9c0-2.7-1.1-4.1-3.8-4.1c-7.7-0.1-15.5,0-23.2,0
		c-0.6,0-0.8,0.2-0.8,0.8c0,1.7,0.1,3.4,0,5c0,0.8,0.2,1,1,1C157.6,144.2,161.4,144.2,165.3,144.2z M164.6,122.8
		c-3.6,0-7.2,0-10.8,0c-0.9,0-1.2,0.3-1.1,1.1c0.1,1.5,0.1,3,0,4.5c0,0.9,0.2,1.1,1.1,1.1c7,0,14,0,21.1,0c0.8,0,1.6-0.1,2.3-0.4
		c1.1-0.5,1.7-1.3,1.7-2.5c0.1-2.5-1.1-3.8-3.5-3.8C171.8,122.7,168.2,122.8,164.6,122.8z"/>
	<path class="st3" d="M228.7,153.6c-5.2,0-10.4,0-15.6,0c-3.8,0-7.1-1.3-10.1-3.6c-1.7-1.3-2.5-3.3-3-5.3c-0.5-2-0.7-4.1-0.7-6.2
		c0-4.6-0.3-9.3,0.2-13.9c0.3-2.5,0.9-4.9,2.4-6.9c2.3-3,5.6-4.1,9.1-4.2c10.4-0.1,20.9-0.1,31.3,0c2.9,0,5.7,0.6,8.3,2.1
		c3.2,2,5.3,4.8,5.7,8.6c0.7,6.2,0.9,12.4-0.1,18.6c-1.2,7.4-5.4,10.8-12.9,10.8C238.5,153.6,233.6,153.6,228.7,153.6
		C228.7,153.6,228.7,153.6,228.7,153.6z M226.9,123.3c-2.9,0.1-6.5-0.3-10,0.2c-2.8,0.3-4.3,1.9-4.4,4.7c-0.1,3.6-0.1,7.3,0,10.9
		c0.1,2,1.1,3.4,3.1,4c1.3,0.4,2.6,0.6,3.9,0.6c4.5,0,8.9,0,13.4,0c1.6,0,3.1,0,4.7-0.1c3.3-0.2,5.2-2,5.2-4.9c0.1-3.5,0.1-7,0-10.5
		c0-2.5-1.6-4.2-4-4.7c-0.7-0.1-1.5-0.2-2.3-0.2C233.5,123.3,230.6,123.3,226.9,123.3z"/>
	<path class="st3" d="M104.7,153.6c-5.2,0-10.4,0-15.6,0c-3.7,0-6.9-1.3-9.9-3.5c-2.1-1.6-2.9-3.9-3.4-6.3c-0.4-1.8-0.6-3.7-0.5-5.6
		c0-4.7-0.3-9.3,0.3-14c0.6-5.4,3.3-8.9,7.9-10.2c1.7-0.5,3.4-0.6,5.1-0.6c9.7,0,19.5,0,29.2,0.1c3.4,0,6.7,0.6,9.6,2.6
		c3,2.1,4.7,4.9,5,8.5c0.5,6.1,0.7,12.2-0.2,18.3c-0.8,5.2-3.4,9-8.8,10.3c-1.4,0.4-2.9,0.4-4.4,0.4
		C114.2,153.6,109.4,153.6,104.7,153.6C104.7,153.6,104.7,153.6,104.7,153.6z M103.6,143.7C103.6,143.7,103.6,143.7,103.6,143.7
		c3.2-0.1,6.5,0,9.7-0.1c3.4-0.1,5.3-2,5.4-5c0.1-3.5,0.1-6.9,0-10.4c0-2.3-1.4-4-3.5-4.6c-0.8-0.2-1.7-0.3-2.6-0.3
		c-6,0-12.1,0-18.1,0c-0.6,0-1.2,0.1-1.8,0.2c-2.6,0.4-4.2,2-4.3,4.6c-0.2,3.7-0.2,7.4,0,11.1c0.1,1.9,1,3.2,2.9,3.8
		c1.3,0.4,2.6,0.7,4,0.7C98,143.7,100.8,143.7,103.6,143.7z"/>
	<path class="st3" d="M61,137.6c1.1,0.4,2,0.8,2.9,1.2c2.6,1.2,4,3.3,4,6.2c0.1,2.6,0,5.2,0,7.8c0,0.6-0.1,0.8-0.7,0.8
		c-3.8,0-7.5,0-11.3,0c-0.7,0-0.8-0.3-0.8-0.9c0-1.7,0-3.4,0-5c0-3.2-1.4-4.6-4.6-4.6c-6.6,0-13.3,0-19.9,0c-0.9,0-1.2,0.2-1.2,1.2
		c0.1,2.8,0,5.6,0,8.4c0,0.7-0.1,1-1,1c-3.6-0.1-7.1-0.1-10.7-0.1c-0.8,0-0.9-0.3-0.9-1c0-12.7,0-25.5,0-38.2c0-0.7,0.2-0.9,0.9-0.9
		c12.8,0,25.6,0,38.4,0.1c3.3,0,6.4,0.6,8.9,3.2c1.7,1.8,2.7,3.8,2.8,6.3c0.1,2.4,0,4.9,0,7.3c0,3.3-1.8,5.4-4.8,6.6
		C62.5,137.1,61.8,137.3,61,137.6z M41.1,124c-3.5,0-7,0-10.5,0c-0.8,0-1,0.2-1,1c0,2.4,0.1,4.7,0,7.1c0,0.9,0.2,1.2,1.2,1.2
		c3.8-0.1,7.7,0,11.5,0c3.2,0,6.3,0,9.5-0.1c2.2-0.1,3.6-1.7,3.6-3.8c0-0.6,0-1.2,0-1.8c0-1.6-0.8-2.6-2.3-3.2
		c-0.8-0.3-1.6-0.3-2.5-0.3C47.4,124,44.2,124,41.1,124z"/>
	<path class="st0" d="M302.2,191c0-7.5,0-15,0-22.4c0-1,0.2-1.3,1.2-1.2c2.7,0.1,5.4,0,8.2,0c0.7,0,1,0.1,1,1c0,10,0,19.9,0,29.9
		c0,0.8-0.2,1-1,1c-5.1,0-10.2,0-15.4,0c-0.8,0-1.1-0.4-1.5-0.9c-5.3-7-10.6-13.9-15.9-20.9c-0.2-0.3-0.4-0.6-0.7-0.9
		c-0.3,0.5-0.2,0.9-0.2,1.3c0,6.7,0,13.4,0,20.1c0,1-0.3,1.3-1.3,1.2c-2.8-0.1-5.5,0-8.3,0c-0.7,0-0.9-0.2-0.9-0.9c0-10,0-20,0-30
		c0-0.7,0.1-0.9,0.9-0.9c5,0,10,0,15,0c0.8,0,1.1,0.5,1.5,1c5.6,7.3,11.2,14.7,16.7,22C301.7,190.6,301.8,190.9,302.2,191z"/>
	<path class="st3" d="M33.8,199.2c-5.1,0-10.2,0-15.3,0c-0.8,0-1.1-0.2-1.1-1.1c0-9.9,0-19.8,0-29.7c0-0.8,0.2-1,1-1
		c9.8,0,19.5,0,29.3,0c1.6,0,3.1,0.2,4.6,0.6c5,1.2,7.9,4.9,8.1,10.4c0.1,3.7,0.2,7.4-0.1,11.1c-0.4,5.8-3.3,8.7-9.1,9.3
		c-4.9,0.6-9.9,0.2-14.8,0.3C35.5,199.2,34.7,199.2,33.8,199.2z M37.3,175.9c-2.8,0-5.7,0-8.5,0c-0.8,0-1,0.2-1,1
		c0,4.3,0,8.6,0,12.9c0,0.8,0.2,1,1,1c4.2,0,8.3,0,12.5,0c1.6,0,3.1,0.1,4.7-0.1c2.6-0.2,3.9-1.6,4-4.3c0-2,0-4.1,0-6.1
		c0-2.9-1.6-4.4-4.5-4.4C42.8,175.8,40.1,175.9,37.3,175.9z"/>
	<path class="st3" d="M89.2,199.1c-4.2,0-8.5,0-12.7,0c-2.9,0-5.4-1.1-7.6-2.8c-1.4-1.1-2.1-2.6-2.3-4.2c-0.9-5.7-1-11.4-0.1-17.1
		c0.8-5.1,3.8-7.5,8.9-7.6c7.6-0.1,15.1,0,22.7-0.1c1.4,0,2.8,0.1,4.2,0.2c5,0.6,8.3,3.6,8.9,8.5c0.7,5.1,0.8,10.2-0.3,15.3
		c-1.1,5.1-4.4,7.7-9.6,7.8C97.3,199.2,93.2,199.2,89.2,199.1C89.2,199.2,89.2,199.1,89.2,199.1z M80.9,175.2
		c-3.5,0.3-4.6,1.5-4.6,5c0,2.2,0,4.4,0,6.6c0,0.7,0,1.3,0.2,2c0.8,2.1,2.7,2.4,4.5,2.5c4.9,0.1,9.9,0.2,14.8,0
		c2.8-0.1,4.6-1.3,4.5-4.7c-0.1-2.4,0-4.9,0-7.3c0-1.2-0.4-2.1-1.3-2.9c-1-1-2.3-1-3.5-1.1c-0.1,0-0.1-0.1-0.2-0.1
		c-4.8,0-9.5,0-14.3,0C81,175.1,80.9,175.2,80.9,175.2z"/>
	<path class="st0" d="M287.8,113.4c7.9,0,15.8,0,23.7,0c0.9,0,1.2,0.2,1.1,1.1c-0.1,2.7-0.1,5.4,0,8c0,0.9-0.3,1.1-1.2,1.1
		c-5.1,0-10.2,0-15.3,0c-1,0-1.2,0.3-1.2,1.3c0,9.2,0,18.3,0,27.5c0,1-0.3,1.2-1.3,1.2c-3.8-0.1-7.6-0.1-11.4,0
		c-0.9,0-1.2-0.2-1.2-1.2c0-9.2,0-18.3,0-27.5c0-1-0.2-1.4-1.3-1.3c-5.3,0.1-10.6,0-15.8,0c-0.9,0-1.2-0.1-1.2-1.1
		c0.1-2.7,0.1-5.4,0-8c0-0.9,0.3-1.1,1.1-1.1C271.9,113.4,279.8,113.4,287.8,113.4z"/>
	<path class="st3" d="M199.8,183.2c0-4.9,0-9.8,0-14.6c0-1,0.3-1.2,1.3-1.2c2.9,0.1,5.8,0.1,8.6,0c0.9,0,1.2,0.2,1.2,1.2
		c-0.1,2.9,0,5.8,0,8.8c0,0.9,0.2,1.2,1.1,1.2c6.5,0,13,0,19.4,0c0.9,0,1.1-0.2,1.1-1.1c-0.1-3,0-6,0-9c0-0.7,0.2-1,0.9-0.9
		c3.2,0,6.3,0,9.5,0c0.7,0,0.9,0.2,0.9,0.9c0,10,0,20,0,30c0,0.7-0.2,1-0.9,1c-3.1,0-6.2,0-9.4,0c-0.8,0-1-0.3-1-1
		c0-3.2,0-6.3,0-9.5c0-0.9-0.3-1.1-1.1-1.1c-6.5,0-13,0-19.5,0c-0.8,0-1,0.2-1,1c0,3.2,0,6.3,0,9.5c0,0.8-0.2,1.1-1.1,1.1
		c-3,0-6-0.1-9,0c-0.9,0-1-0.3-1-1.1C199.8,193.1,199.8,188.2,199.8,183.2z"/>
	<path class="st3" d="M337.3,199.1c-3.6,0-7.1,0-10.7,0c-1.3,0-2.5-0.2-3.8-0.6c-2.6-0.7-4.2-2.8-4.3-5.5c0-1.2,0-2.3,0-3.5
		c0-0.7,0.2-0.8,0.8-0.8c2.6,0,5.3,0,7.9,0c0.6,0,0.7,0.2,0.8,0.7c0.1,2.2,0.9,2.9,3,3c4.7,0,9.4,0,14.2,0c2.3,0,3.4-1.3,3-3.4
		c-0.2-1.1-0.9-1.7-2-1.9c-1.9-0.3-3.9-0.2-5.9-0.2c-4.4-0.1-8.8-0.1-13.2-0.2c-1,0-1.9-0.1-2.9-0.3c-3.7-0.7-5.6-2.8-6-6.6
		c-0.2-1.9-0.1-3.8,0.1-5.7c0.5-3.6,3.1-5.8,7.1-6.3c2.1-0.3,4.2-0.3,6.3-0.3c4.6,0,9.1,0,13.7,0c2.2,0,4.4,0.4,6.5,1.2
		c2.8,1,4.4,3.1,4.6,6.1c0.1,2.8,0.1,2.8-2.7,2.8c-1.9,0-3.8,0-5.8,0c-0.7,0-1-0.1-1-0.9c0-1.3-0.8-2.2-2.1-2.2
		c-4.9,0-9.8-0.1-14.6,0c-1.5,0-2.5,1.3-2.4,2.8c0.1,1.6,0.9,2.3,2.6,2.4c5.6,0.1,11.2,0.2,16.8,0.3c1.4,0,2.8,0.2,4.2,0.4
		c3.4,0.6,5.3,2.4,5.9,5.9c0.4,2,0.4,4.1,0.1,6.1c-0.4,3.7-2.9,5.9-7.2,6.6c-2.9,0.5-5.7,0.2-8.6,0.3
		C340.2,199.2,338.7,199.2,337.3,199.1C337.3,199.2,337.3,199.1,337.3,199.1z"/>
	<path class="st0" d="M170.8,167.4c4.6,0,9.3,0,13.9,0c1.1,0,2.2,0.1,3.2,0.3c3.5,0.9,5.5,2.9,6,6.6c0.4,3.2,0.5,6.4,0,9.6
		c-0.7,4.5-3.1,6.7-7.7,6.8c-5.2,0.1-10.3,0.1-15.5,0.1c-1.6,0-3.2,0-4.8,0c-0.7,0-0.9,0.2-0.9,0.9c0,2.2,0,4.4,0,6.6
		c0,0.7-0.2,0.9-0.9,0.9c-2.8,0-5.7,0-8.5,0c-0.8,0-0.9-0.2-0.9-0.9c0-10,0-20,0-30c0-0.8,0.3-0.9,1-0.9
		C160.7,167.4,165.8,167.4,170.8,167.4z M173.2,183c2.5,0,5,0,7.4,0c2.3-0.1,3.1-1,3.1-3.3c0-0.4,0-0.8,0-1.2c0-2.3-0.7-3.1-3-3.2
		c-5-0.3-10,0-15-0.1c-0.7,0-0.9,0.2-0.9,0.9c0,2,0,4,0,6c0,0.7,0.2,0.9,1,0.9C168.4,183,170.8,183,173.2,183z"/>
	<path class="st0" d="M313.1,53.5c-5.2,0-10.5,0.1-15.7,0c-4.2-0.1-6.6-2.6-6.6-6.8c0-0.8,0-1.5,0.1-2.3c0.5-3.2,2.7-5.1,6-5.1
		c10.7,0,21.5,0,32.2,0c3.7,0,6.3,2.6,6.6,6.4c0.3,4.2-1.2,6.5-5.1,7.6c-0.9,0.2-1.8,0.2-2.7,0.2C322.9,53.6,318,53.6,313.1,53.5
		C313.1,53.6,313.1,53.6,313.1,53.5z"/>
	<path class="st0" d="M211.6,39.4c5.2,0,10.4,0,15.6,0c4.7,0,7.5,3,7.2,7.6c-0.2,4.1-2.4,6.3-6.6,6.6c-0.2,0-0.5,0.1-0.7,0.1
		c-10.3,0-20.6,0-30.9-0.1c-4.3,0-6.7-2.5-6.7-6.8c0-1,0-1.9,0.2-2.9c0.7-2.7,2.9-4.5,5.9-4.5C200.9,39.3,206.2,39.4,211.6,39.4z"/>
	<path class="st3" d="M133.6,199.2c-5.1,0-10.2,0-15.3,0c-0.9,0-1.1-0.2-1.1-1.1c0-9.9,0-19.7,0-29.6c0-0.8,0.2-1.1,1.1-1.1
		c2.8,0.1,5.5,0.1,8.3,0c0.8,0,1,0.3,1,1c0,7.1,0,14.1,0,21.2c0,1,0.2,1.3,1.2,1.3c6.7,0,13.4,0,20.1-0.1c1.3,0,1.5,0.4,1.5,1.5
		c-0.1,2-0.1,3.9,0,5.9c0,0.8-0.2,1-1,1C144,199.2,138.8,199.2,133.6,199.2z"/>
	<path class="st3" d="M261,183.4c0,4.9,0,9.8,0,14.7c0,0.8-0.2,1.1-1,1.1c-2.9-0.1-5.8-0.1-8.6,0c-0.9,0-1-0.3-1-1.1
		c0-9.9,0-19.7,0-29.6c0-0.9,0.2-1.2,1.1-1.1c2.8,0.1,5.7,0.1,8.5,0c0.9,0,1.1,0.3,1.1,1.2C260.9,173.5,261,178.4,261,183.4z"/>
	<path class="st4" d="M434.5,103.6c-3.5,1.2-6.9,2.8-10.3,4.2c-0.3,0.1-0.6,0.3-0.8,0c-0.2-0.3,0.1-0.6,0.3-0.8
		c1.1-1.1,2.5-1.9,3.7-2.9c0.4-0.3,0.9-0.6,1.2-1.1c0.2-0.3,0.4-0.6,0.2-0.9c-0.2-0.3-0.6-0.2-0.9-0.1c-0.5,0.1-1,0.3-1.5,0.5
		c-5.7,2-10.9,4.9-16.1,7.9c-7.3,4.4-14.5,9.1-22.4,12.5c-5.5,2.4-11.3,4-17.3,3.7c-3.7-0.1-7-1.5-8.8-5.2c-0.6-1.1-0.6-2.3-0.6-3.5
		c0-0.5,0.2-0.8,0.7-0.5c2.6,1.7,5.5,1.3,8.4,1.3c5.3,0,10.4-1.3,15.3-3.2c3.7-1.5,7-3.9,10.4-6c7.3-4.5,14-9.6,21.2-14.2
		c4.5-2.9,9.4-4.9,14.5-6.5c2.2-0.7,4.5-0.7,6.8,0c-0.2-0.8-0.7-1.1-1.4-1.3c-2.9-0.8-5.8-0.7-8.7,0.2c-9.8,3-18.8,7.6-27,13.6
		c-4.6,3.4-9.1,6.9-13.9,10c-4.3,2.9-9.2,3.7-14.3,3.4c-1.7-0.1-3.3-0.4-5-0.6c-2-0.2-3.8-1-5.4-2c-1.7-1.1-1.9-1.9-1.2-3.8
		c2.3-6.4,5.2-12.5,8.8-18.2c0.8-1.3,1.6-2.7,2.4-4c0.6-1.1,1.4-1.4,2.6-1.1c1.4,0.4,2.8,0.6,4.2,0.9c3.3,0.5,6.5-0.3,9.6-0.9
		c8.5-1.7,16.7-4.6,24.5-8.5c2.7-1.3,5.4-2.6,8.1-4c0.6-0.3,1.2-0.6,1.5-1.4c-0.7-0.3-1.2,0.1-1.7,0.3c-7.5,2.4-14.9,5.1-22.6,6.9
		c-7.4,1.7-14.8,1.8-22.2-0.1c-0.6-0.1-1.1-0.4-1.7-0.5c-1.3-0.4-1.9-1.4-2-2.7c-0.2-3.3,0.6-6.4,1.1-9.6c2-12.4,7.7-23,15.5-32.6
		c5.1-6.4,11.7-10.8,19-14.3c7.4-3.6,15.4-5.5,23.5-6.9c3.3-0.5,6.6-0.9,9.9-0.9c6-0.1,11.7,1.2,17.4,2.9c6.5,1.8,12.8,4.2,18.7,7.5
		c7.8,4.4,13.8,10.7,18.2,18.5c4.3,7.5,7.9,15.4,10.7,23.6c1.6,4.5,2.1,9.2,2.5,14c0.3,3.7,0.6,7.3,0.5,11.1
		c-1.8-1.2-3.6-2.4-5.3-3.5c-3.7-2.4-7.5-4.5-11.5-6.4c-3.9-1.9-9.4-1.1-12.1,2.7c-0.2,0.3-0.5,0.6-0.8,0.9
		c-1.8-0.8-3.6-1.5-5.4-2.3c-5.5-2.5-11-2.7-16.6-0.6c-4.3,1.6-7.9,4.5-11.1,7.8c-3.7,3.8-7.2,7.8-10.3,12.1
		C435.9,100.3,434.7,101.7,434.5,103.6z M455,48.7c-0.1-0.1-0.1-0.2-0.2-0.3c-0.7,0.2-1.4,0.3-2.1,0.5c-3.2,1.1-6.4,2-9.7,2.7
		c-3,0.7-5.6,1.9-7.4,4.6c-2.8,4.1-5,8.4-7.5,12.7c-0.1,0.2-0.3,0.4,0,0.6c0.1,0.1,0.4,0,0.6,0c0.4-0.1,0.6-0.3,0.9-0.5
		c1-0.7,2-1.1,3.2-0.6c0.9,0.4,2,0.5,2.9,0.3c2.9-0.7,5.7-1.5,8-3.3c2.4-1.9,4.8-4,4.5-7.3c-0.2-2.9,0.7-4.9,3.2-6.3
		C452.8,51,453.9,49.9,455,48.7z M402.7,25.5c-1.5,2.2-1,3.8,1.4,4.2c3.1,0.6,5.7-0.7,8.2-2.3c1.2-0.8,2.3-1.7,2.9-3.1
		c0.4-0.9,0.7-1.7,0-2.6c-0.7-0.9-1.6-1.1-2.8-1.1c1.7,1,1.9,1.9,0.8,3.4c-2,2.7-4.8,4-8.2,4C403.4,28.1,402.8,27.5,402.7,25.5z"/>
	<path class="st0" d="M434.5,103.6c0.3-1.9,1.5-3.3,2.5-4.7c3.1-4.3,6.5-8.4,10.3-12.1c3.2-3.2,6.7-6.2,11.1-7.8
		c5.6-2.1,11.2-1.9,16.6,0.6c1.8,0.8,3.6,1.5,5.4,2.3c-1.4,2.3-1.3,4.5-0.2,6.9c1.1,2.4,2.4,4.7,3.5,7c-0.8,0.2-1.7-0.4-2.4,0.4
		c-0.7,0.8-1.2,1.8-1.5,2.9c-0.4,1.8,0,3.6,0.4,5.3c0.8,3.1,1.7,3.8,4.8,3.8c0.2,0,0.5,0,0.7,0c0,3,0.1,5.9-0.1,8.8
		c-0.2,3.3,1.2,5.8,3.4,7.9c0,0.8,0.1,1.6-0.3,2.4c-4.8,9.9-9.4,20-14.6,29.7c-4.7,8.8-9.4,17.5-14.8,25.9c-0.5,0.8-0.4,1.1,0.5,1.5
		c5.5,2.5,10.8,5.3,15.6,9.1c2.2,1.7,4.3,3.5,5.9,5.9c0.9,1.4,1.7,2.8,1.8,4.8c-1.9-4.9-5.6-7.9-9.5-10.7c-3.5-2.5-7.2-4.6-11.1-6.3
		c2.7,2.2,5.5,4.1,8,6.5c-0.1,0.1-0.1,0.1-0.2,0.2c-2.9-1.6-5.8-3.1-8.7-4.8c-9.2-5.4-19.3-8.4-29.9-9.2c-2.2-0.2-4.3-0.4-6.5-0.8
		c3.6-0.7,7.2-0.9,10.9-0.5c1.2,0.2,2.4,0.5,3.6,0.1c-0.9-0.2-1.8-0.3-2.6-0.5c-5.2-1-10.4-1.7-15.7-1.5c-1.7,0.1-3.4,0.3-5.1,0.8
		c-2,0.6-3.8,1.6-4.7,3.8c-0.1-1.5,0.4-2.5,1.6-3.5c2.1-1.7,4.6-2.1,7.1-2.4c1.1-0.1,2.5,0.4,3.2-0.4c0.6-0.7,0.5-2,0.7-3.1
		c1.1-7,2.4-14,3.4-21c0.6-4.1,0.9-8.3,1.1-12.5c0.6-8.6,2.2-17,5.7-24.9c0.8-1.8,1.9-3.1,3.7-4c5.2-2.7,10.4-5.2,16.1-6.8
		c0.5-0.1,1-0.4,1-1c0-0.7-0.5-1.1-1.1-1.3c-0.8-0.2-1.6-0.1-2.4,0c-5.5,0.7-10.8,1.8-16.2,2.9C435.1,103.5,434.8,103.6,434.5,103.6
		z"/>
	<path class="st5" d="M323.1,405.1c0.4-2.2,1.5-4.2,2.3-6.5c-1.4,1-2.3,2.2-3.6,2.9c-0.2-0.7,0.1-1.2,0.3-1.7
		c1.8-5.2,4.1-10.1,6.1-15.2c5.6-13.8,11.7-27.4,19.1-40.4c5.5-9.5,11.5-18.7,18.7-27.1c2.2-2.6,4.7-5,7.4-7.1
		c3.2-2.4,5.9-2.3,9,0.4c1.4,1.2,2.8,2.4,4.4,3.3c4,2.1,5,4,4,9.1c-1.3,7-4.5,13.3-8.2,19.2c-6.4,10.1-13.6,19.6-21.7,28.4
		c-4.5,4.8-9.5,9-14.3,13.5c-5.6,5.4-11.2,10.7-16.7,16.2c-0.5,0.5-1,1.4-1.7,1c-0.7-0.4-0.1-1.3,0-2c0.1-0.6,0.3-1.2,0.4-1.8
		C326.7,399.9,325.1,402.7,323.1,405.1z M349.5,364.7c0,0,0.1,0.1,0.1,0.1c0.2-0.2,0.4-0.3,0.6-0.5c5.9-6.2,11.8-12.4,17.6-18.6
		c3.7-3.9,7.3-7.8,9.7-12.7c1.8-3.7,3.3-7.5,4.5-11.5c0.2-0.8,0.4-1.6,0.4-2.4c0-1.9-1.1-2.7-2.9-2.2c-1.2,0.3-2.2,1-3.2,1.8
		c-4,3-7.1,6.8-9.6,11.1c-4.7,7.8-8.4,16.1-12.3,24.3C352.8,357.6,351.2,361.2,349.5,364.7z"/>
	<path class="st4" d="M431.2,300.1c-2.6-3.1-4.1-6.5-4.1-10.7c0.1-6.6,0.2-13.1,0-19.7c-0.1-4.4,2-7.4,5-10.1
		c1.4-1.3,2.7-2.7,4.3-3.9c1.7-1.3,3.5-1.2,4.7,0.6c6,9.4,13.1,18,19.2,27.3c5.3,8.1,10.3,16.3,15.5,24.5c0.5,0.9,0.3,1.5-0.2,2.2
		c-1.5,2.2-3,4.4-4.2,6.8c-1.7,3.6-2.3,7.5-3.2,11.3c-0.5,2.2-1,4.5-1.5,7c-2-1.9-3.9-3.8-5.7-5.6c0.1-0.2,0.3-0.3,0.3-0.5
		c0.1-2.7,0.5-5.5-1.2-8c-3.2-4.8-6.9-9-11.1-13c-3.1-3-6.2-6.1-9.3-9.2c-1.3-1.3-2.6-1.8-4.4-0.9
		C434.1,299,432.6,299.5,431.2,300.1z"/>
	<path class="st4" d="M484.7,86.7c1.1-1.8,2.5-3.1,4.8-3c0.5,0,1,0,1.4-0.1c1.9-0.4,3.6,0.1,5.3,1.1c6.7,3.9,13.1,8.4,19.2,13.2
		c5.5,4.3,10.7,9,15.8,13.7c1.9,1.8,3.6,3.8,5.5,5.5c0.4,0.4,0.3,0.9,0.3,1.3c0,6.2,0.6,12.4,1.7,18.6c0.7,3.7,1.8,7.3,3,10.8
		c0.1,0.4,0.2,0.8,0.7,1.2c0.4-1.2,0-2.3-0.1-3.3c-0.5-3.9-1.4-7.9-1.5-11.8c-0.1-3.7-0.1-7.4,0.8-11c4.4,8.9,3.8,18,0.9,27.3
		c-2.5-2.1-5.1-4-7.5-6.1c-7.5-6.6-16.1-11.5-25-15.9c-4.4-2.2-8.8-4.4-13.6-6c-3.7-1.2-5.7-3.8-6.7-7.5c-1.6-5.8-2.8-11.8-4-17.7
		c-0.3-1.6-0.9-3.2-1.5-4.8c3.9,1.1,7.7,2.3,11.4,3.9c4.7,2,9.2,4.4,13.7,6.9c0.6,0.3,1.3,0.6,2,0.5c0.8-0.1,1-0.5,0.7-1.1
		c-0.2-0.6-0.7-1.1-1.1-1.5c-2.2-2.1-4.8-3.7-7.4-5.2c-3.5-2.1-7-4.5-10.8-6.1C490.2,88.6,487.4,87.7,484.7,86.7z"/>
	<path class="st4" d="M422.6,275.7c-2.1-2.3-4-4.7-6.1-6.8c-4-4-9.1-5.9-14.5-7.2c-1.5-0.4-2.9-0.7-4.4-1c-1-0.2-1.2-0.4-0.8-1.4
		c1.7-3.3,3.3-6.6,5-9.9c3.3-6.7,6.1-13.6,8.4-20.7c0.4-1.2,0.9-2.4,1.1-3.7c0.3-1.4,1-1.4,2.1-1.2c2.9,0.6,5.8,1.5,8.6,2.5
		c8,2.9,15.5,6.8,22.3,11.9c0.8,0.6,0.9,0.9,0.2,1.7c-0.6,0.6-1,1.3-1.5,2c-1.6,2.3-3.3,4.4-5.9,5.9c-3,1.7-5.5,4.2-7.8,6.8
		c-1.7,1.8-2.3,4.2-3.1,6.4c-1.4,4.4-2.5,9-3.4,13.6C422.8,275,422.7,275.3,422.6,275.7z"/>
	<path class="st4" d="M475.4,193.6c-4.8-3.7-10.1-6.6-15.6-9.1c-0.9-0.4-1-0.7-0.5-1.5c5.4-8.4,10.1-17.1,14.8-25.9
		c5.2-9.7,9.8-19.8,14.6-29.7c0.4-0.8,0.4-1.6,0.3-2.4c1.7,1.7,3.8,2.4,6.1,2.9c2.9,0.7,5.5,2,8.3,3.2c0.8,0.3,0.6,0.9,0.5,1.5
		c-2.3,8.2-5,16.3-8.9,23.9c-3.4,6.6-6.3,13.4-9.9,19.9c-3,5.4-6.1,10.8-9.2,16.1C475.7,192.8,475.4,193.1,475.4,193.6z"/>
	<path class="st4" d="M375.9,271c-1.8,0-3.5-0.2-5.3-0.5c-0.1-1.2-0.2-2.4-0.4-3.7c-0.5-3.1-1.2-3.8-4.4-4.2
		c-1.8-0.2-3.5-0.5-5.3-0.8c-6.5-1.1-13.1-1.4-19.7-1.6c-1.1,0-2.1,0.2-2.9,1c-2.1,1.8-3.5,4.2-5,6.5c-2.2,0-2.8-1-1.8-2.9
		c2.6-4.8,5.4-9.4,8.4-13.9c0.8-1.1,1.8-2.1,2.8-2.9c1.5-1.3,3.5-1.1,5.3-1.2c11.6-1.2,23.2-2.1,34.7-4c4.1-0.7,8.2-1.5,12.3-2.4
		c0.3-0.1,0.7-0.2,1.1,0c-1.1,2.4-2,4.9-2.6,7.4c-0.9,3.6-1,7.3-0.3,11c-1.1,0-1.6,0.9-2.4,1.4c-2.9,1.7-6,3.4-8.6,5.6
		C379.8,267.3,377.7,269,375.9,271z"/>
	<path class="st4" d="M489.5,25.7c1.4-0.1,2.7,0.3,4,0.6c8.1,1.8,15.3,5.7,21.8,10.8c9.6,7.6,16.6,17.3,22.8,27.7
		c1.3,2.1,1.9,4.5,1.9,7c0,1.9-0.6,2.7-2.5,3.1c-1.8,0.4-3.7,0.4-5.5,0.2c-5.2-0.6-10.3-1.3-15.4-1.9c-0.8-0.1-1-0.6-1.3-1.2
		c-3-7.4-6.1-14.8-9.1-22.3c-2.4-5.8-6-10.8-9.8-15.7c-2.1-2.6-4.3-5.2-6.6-7.6C489.6,26.2,489.4,26.1,489.5,25.7z"/>
	<path class="st3" d="M396.1,273.9c0.9-0.1,1.7,0.5,2.9,0.7c-0.9-0.7-1.5-1.2-2.2-1.7c0.2-0.2,0.4-0.3,0.5-0.5
		c1.7-2.1,3.4-4.2,5.1-6.3c3,0.9,5.8,2,8.3,4.1c-0.4,0.1-0.5,0.4-0.6,0.7c-1,2.5-2,5-3,7.5c-0.5-0.2-1-0.4-1.5-0.6
		c-0.1,0-0.2,0-0.4,0c0.3,0.7,1.1,0.8,1.5,1.3c-0.6,2.3-1.7,4.3-2.7,6.5c-0.1,0.2-0.3,0.2-0.5,0.3c-0.5,0-0.9-0.3-1.5,0
		c0.4,0.3,0.8,0.6,1.2,0.9c-0.6,1.9-1.8,3.6-2.7,5.4c-0.4,0.1-0.5,0.4-0.3,0.7c-0.7,1.3-1.4,2.7-2.2,3.9c-0.3,0.5-0.1,0.8,0.3,1.1
		c0.7,0.6,1.4,1.2,2,1.8c0.1,0.1,0.2,0.1,0.3,0l0,0c-0.1,0.5,0.4,0.6,0.6,0.9c1.4,1.4,2.5,2.9,3.4,4.6c0.5,0.9,0.9,1.9,0.9,2.9
		c0.1,1.8-0.6,2.8-2.2,3.4c-2.9,1.1-5.8,0.9-8.7,0.2c-5.9-1.5-10.9-4.8-15.5-8.7c-2.2-1.9-4.2-3.9-5.2-6.7c-0.3-0.8-0.4-1.6-0.3-2.5
		c0.1-1.4,0.7-2.4,2.1-2.9c2.9-1.1,5.7-0.9,8.6-0.1c3.7,1.1,7.2,2.7,10.4,4.7c0.7,0.4,1.5,0.9,2.3,1.2c-0.4-0.7-1-1.1-1.6-1.5
		c-2.8-1.9-5.9-3.5-9-4.9c-0.3-0.1-0.5-0.3-0.8-0.5c0.8-1,1.5-2.2,2-3.4c0.9,0,1.8,0.6,2.8,0.4c-0.6-0.7-1.5-0.9-2.2-1.4
		c0.9-1.5,1.8-3,2.7-4.4c0.2-0.4,0.5-0.6,0.9-0.7c0.5,0.2,1,0.3,1.5,0.5c0-0.1,0.1-0.1,0.1-0.2c-0.5-0.3-0.9-0.7-1.4-1
		c0-0.5,0.3-0.8,0.6-1.2C393.7,277.1,394.9,275.5,396.1,273.9z M400.7,302.6c-4.5-4.9-9.9-8.3-16.2-10.2c-2.3-0.7-4.6-1.2-6.9-0.7
		c-2.4,0.5-3.3,2-2.7,4.4c0.4,1.3,1,2.4,1.8,3.5c2.6,3.5,6,6.1,9.9,8.2c0.5,0.2,0.9,0.6,1.5,0.6c-0.8-1.3-1.6-2.4-2.4-3.7
		c-0.7-1.1-1.3-2.2-1.6-3.5c-0.2-1,0-1.6,1.2-1.8c2.1-0.3,4.1-0.2,6.2,0.2C394.6,300.3,397.7,301.4,400.7,302.6z"/>
	<path class="st3" d="M462.5,215.9c-0.6,0-1-0.5-1.4-0.8c-4.2-2.9-8.4-5.7-12.8-8.2c-6.6-3.8-13.8-5.5-21.2-6.8
		c-2.2-0.4-4.5-0.7-6.7-1.2c3.7-0.4,7.5-0.4,11.2,0.3c0.9,0.3,1.8,0.5,2.7,0.3c-0.7-0.3-1.4-0.7-2.2-0.7c-6-1.6-12.1-2.9-18.4-2.6
		c-1.4,0.1-2.9,0.2-4.3,0.6c-2,0.6-3.7,1.4-4.7,3.7c-0.1-2.1,1-3.3,2.4-4.1c2.8-1.5,5.9-1.6,9-1.5c0.8,0,1.5,0,2.3,0.2
		c1.1,0.2,1.4-0.1,1.6-1.1c0.7-3.6,1.5-7.1,2.2-10.7c0.2-1,0.5-1.3,1.6-1.2c9.1,0.8,17.9,3.2,26.4,6.3c1.6,0.6,3.2,1.1,4.8,1.9
		c-2.6,4-5.1,8.1-8.2,11.7c-0.4,0.5-0.3,0.7,0.3,0.9c1.8,0.8,3.6,1.7,5.4,2.6c4,2,7.7,4.4,11.3,6.9c2.1,1.9,4.4,3.6,6.1,5.9
		c1,1.4,2,2.9,2.2,4.9c-3.6-7.1-9.9-10.9-16.2-14.7c-0.3-0.2-0.7-0.4-1.1-0.2c2.5,2,5,4.1,7.2,6.4
		C462.1,215.2,462.6,215.4,462.5,215.9L462.5,215.9z"/>
	<path class="st4" d="M441.4,208.4c1.6,0.3,2.9,1.1,4.3,1.7c4.6,2.1,9.1,4.4,13.4,7.2c0.9,0.6,0.8,0.9,0.3,1.7
		c-3.3,5.1-6.9,10-10.5,14.9c-0.1,0.2-0.3,0.3-0.5,0.5c-0.2-0.1-0.4-0.1-0.5-0.3c-6.2-5.5-13.4-9.4-21-12.5c-4.3-1.8-8.8-3-13.4-3.8
		c1.1-3.5,2-7.1,3.3-10.6c0.1,0.8-0.2,1.6-0.3,2.3c-0.6,2.9,0.6,5.3,3.3,6.6c2.3,1.1,4.7,1.8,7.1,2.5c2.2,0.6,4.1,0.2,5.9-1.1
		c1.9-1.4,3.8-2.9,5.3-4.8C439.3,211.4,440.7,210.1,441.4,208.4z"/>
	<path class="st4" d="M423.4,122.1c0.4,1.3-0.4,2-1.6,2.6c-4,2.1-7.9,4.3-11.8,6.5c-4,2.3-7.5,5.4-11,8.4c-0.4,0.4-0.8,1.1-1.5,0.8
		c-0.6-0.2-0.4-1-0.5-1.5c-0.6-4.3-1.2-8.5-1.8-12.8c-0.2-1.3,0.2-2.3,1.3-2.9c7.6-4.2,15.2-8.3,23.6-10.6c0.5-0.1,0.8-0.1,1,0.4
		C422.3,116,423.5,118.8,423.4,122.1z"/>
	<path class="st4" d="M463.6,212.5c-3.6-2.5-7.3-5-11.3-6.9c-1.8-0.9-3.6-1.8-5.4-2.6c-0.5-0.2-0.7-0.5-0.3-0.9
		c3.1-3.6,5.7-7.7,8.2-11.7c5.8,2.2,11.3,5,16.5,8.4c0.7,0.4,0.4,0.8,0.1,1.3c-1.8,3.3-3.8,6.4-5.8,9.4
		C465,210.5,464.3,211.5,463.6,212.5z"/>
	<path class="st3" d="M441.4,208.4c-0.8,1.7-2.1,2.9-3.3,4.3c-1.5,1.8-3.4,3.3-5.3,4.8c-1.7,1.3-3.7,1.8-5.9,1.1
		c-2.4-0.7-4.8-1.4-7.1-2.5c-2.7-1.3-3.8-3.6-3.3-6.6c0.1-0.8,0.5-1.5,0.3-2.3c0,0,0,0,0,0c0.4-0.2,0.3-0.6,0.3-1
		c0.3-1.3,0.7-2.5,1-3.8c0.1-0.6,0.3-0.8,1-0.7c7.6,1.3,15,3.5,22.1,6.4C441.3,208.2,441.4,208.3,441.4,208.4z"/>
	<path class="st4" d="M368.7,270.3c-2.9-0.1-5.8-0.5-8.7-0.8c-4.2-0.4-8.3-0.9-12.5-1.1c-4.2-0.2-8.3-0.3-12.5-0.7
		c0.7-1.4,1.9-2.5,2.7-3.8c0.9-1.5,2.2-2.1,4-1.9c5.9,0.4,11.8,0.6,17.6,1.5c2.5,0.4,5.1,0.6,7.6,1.3c1,0.3,1.4,0.8,1.5,1.8
		C368.6,267.7,368.8,269,368.7,270.3z"/>
	<path class="st4" d="M459.9,328.6c-4.9-4.7-9.7-9.5-14.6-14.2c-4.1-3.9-8.2-7.9-12.2-12c-0.2-0.3-0.6-0.5-0.6-0.8
		c1.2-0.7,2.5-1,3.7-1.6c1.1-0.6,1.9-0.3,2.7,0.6c1.5,1.6,3.1,3.3,4.7,4.8c4.3,4.2,8.6,8.4,12.4,13.1
		C458.4,321.5,460.2,324.6,459.9,328.6z"/>
	<path class="st3" d="M484.7,86.7c2.7,1,5.4,1.9,8.1,3c3.9,1.6,7.3,3.9,10.8,6.1c2.6,1.6,5.2,3.1,7.4,5.2c0.5,0.4,0.9,0.9,1.1,1.5
		c0.2,0.7,0,1.1-0.7,1.1c-0.8,0.1-1.4-0.2-2-0.5c-4.5-2.4-9-4.8-13.7-6.9c-3.7-1.6-7.6-2.8-11.4-3.9
		C483.4,90.6,483.6,87.7,484.7,86.7z"/>
	<path class="st3" d="M413.6,217.8c4.6,0.8,9.1,2.1,13.4,3.8c7.6,3.1,14.8,7,21,12.5c0.1,0.1,0.3,0.2,0.5,0.3
		c0.8,0.9,1.6,1.7,2.4,2.6c1.5,1.6,2.7,3.3,3.4,5.4c0.2,0.5,0.3,0.9,0.2,1.5c-2.6-5.8-7.4-9.5-12.4-12.9c-0.2-0.2-0.5-0.3-0.7-0.1
		c-0.1,0.1,0.3,0.2,0.4,0.3c1.3,1.4,2.7,2.5,3.8,4.1c-5.1-3.5-10-7.3-15.7-9.8c-5.7-2.4-11.9-3.5-17.9-4.8c3.2-0.4,6.3,0,9.4,0.4
		c-1.3-0.7-2.6-0.9-4-1.2c-3.8-0.8-7.7-1.5-11.6-0.7c-1.7,0.4-3.2,1.1-4.1,2.9c-0.2-1.4,0.4-2.4,1.7-3.3c1.5-0.9,3.1-1.1,4.8-1.3
		C410,217.4,411.8,217.8,413.6,217.8z"/>
	<path class="st3" d="M459.9,328.6c0.4-4-1.5-7.1-3.9-10.1c-3.8-4.7-8.1-8.9-12.4-13.1c-1.6-1.6-3.1-3.2-4.7-4.8
		c-0.8-0.9-1.6-1.2-2.7-0.6c-1.2,0.6-2.5,0.9-3.7,1.6c-0.6-0.4-0.9-1-1.2-1.5c1.4-0.6,2.9-1.1,4.3-1.8c1.8-0.9,3.1-0.4,4.4,0.9
		c3.1,3.1,6.1,6.2,9.3,9.2c4.1,4,7.9,8.2,11.1,13c1.6,2.5,1.3,5.3,1.2,8c0,0.2-0.2,0.3-0.3,0.5C460.7,329.4,460.3,329,459.9,328.6z"
		/>
	<path class="st3" d="M368.7,270.3c0.1-1.3-0.2-2.5-0.3-3.8c-0.1-0.9-0.5-1.5-1.5-1.8c-2.5-0.7-5.1-0.9-7.6-1.3
		c-5.8-0.9-11.7-1.1-17.6-1.5c-1.7-0.1-3,0.5-4,1.9c-0.8,1.3-2,2.3-2.7,3.8c-0.7,0-1.4,0-2.1,0c1.4-2.3,2.9-4.6,5-6.5
		c0.8-0.7,1.8-1,2.9-1c6.6,0.2,13.2,0.5,19.7,1.6c1.8,0.3,3.5,0.5,5.3,0.8c3.2,0.4,3.9,1.1,4.4,4.2c0.2,1.2,0.3,2.4,0.4,3.7
		c-0.5,0-0.9-0.1-1.4-0.1c-0.1,0-0.2,0-0.3-0.1C368.9,270.3,368.8,270.3,368.7,270.3z"/>
	<path class="st4" d="M478.4,316.1c-0.1,8.6-4.3,15.2-9.7,21.4C467.2,333.5,473.7,319.3,478.4,316.1z"/>
	<path class="st3" d="M375.9,271c1.8-2,3.9-3.7,6-5.5c2.6-2.3,5.6-3.9,8.6-5.6c0.8-0.5,1.4-1.3,2.4-1.4c0.1,0,0.1,0.1,0.2,0.1
		c1.7-0.3,1.6-0.3,1.3,1.3c-0.3,1.4-0.7,2.5-2.4,3.1c-2,0.8-3.6,2.4-5.3,3.6c-0.7,0.5-1.4,1-2,1.5c-0.2,0.2-0.7,0.3-0.6,0.5
		c0.6,1.3-0.6,1.1-1.1,1.2C380.7,270.6,378.4,271.4,375.9,271z"/>
	<path class="st4" d="M485.7,108.2c-0.2,0-0.5,0-0.7,0c-3.1,0-4-0.8-4.8-3.8c-0.4-1.7-0.9-3.5-0.4-5.3c0.3-1.1,0.8-2.1,1.5-2.9
		c0.7-0.8,1.6-0.2,2.4-0.4c1,1.8,1.2,3.8,1.5,5.7C485.5,103.7,485.6,105.9,485.7,108.2z"/>
	<path class="st4" d="M407.1,278.4c1-2.5,2-5,3-7.5c0.1-0.3,0.2-0.6,0.6-0.7c1.3,0.7,2.2,1.7,3.1,2.8c0.3,0.4,0.2,1,0,1.5
		c-0.6,2-1.2,4-1.9,6c-0.1,0.4-0.2,0.8-0.8,0.4C409.9,280,408.4,279.4,407.1,278.4z"/>
	<path class="st4" d="M403.5,285.9c0.2-0.1,0.4-0.1,0.5-0.3c0.9-2.1,2-4.2,2.7-6.5c1.6,1,2.7,2.5,4,3.9c0.2,0.3,0.3,0.5,0.2,0.9
		c-0.7,1.7-1.4,3.5-2.1,5.3C407,287.9,405.4,286.7,403.5,285.9z"/>
	<path class="st4" d="M391.7,280.6c-0.4,0-0.7,0.3-0.9,0.7c-0.9,1.5-1.8,3-2.7,4.4c-2-0.9-4.1-1.6-6.3-2c1.7-3.1,3.8-4.2,7.2-3.7
		C389.9,280.1,390.9,280.2,391.7,280.6z"/>
	<path class="st4" d="M400.3,299.8c-0.7-0.6-1.3-1.2-2-1.8c-0.4-0.3-0.6-0.5-0.3-1.1c0.8-1.3,1.5-2.6,2.2-3.9c1.7,1,3.1,2.5,4.6,3.8
		c0.3,0.3,0.3,0.5,0.1,0.8c-0.5,1-1,1.9-1.4,2.9c-0.3,0.6-0.5,0.5-1,0.2c-0.6-0.4-1.2-1-2-0.9c0,0,0,0,0,0c0-0.1-0.1-0.1-0.1-0.2
		C400.5,299.7,400.4,299.8,400.3,299.8z"/>
	<path class="st4" d="M400.6,292.3c0.9-1.8,2-3.5,2.7-5.4c1.5,1,2.9,2.3,4.3,3.4c0.4,0.3,0.6,0.7,0.3,1.2c-0.5,1-1,2.1-1.4,3.1
		c-0.3,0.7-0.5,0.6-1,0.2C403.9,293.8,402.4,292.8,400.6,292.3z"/>
	<path class="st4" d="M402.3,266.2c-1.7,2.1-3.4,4.2-5.1,6.3c-0.1,0.2-0.3,0.3-0.5,0.5c-0.1,0-0.2,0-0.2,0c-0.8-0.4-2.1-0.8-2.2-1.4
		c-0.2-0.7,1-1.4,1.5-2.1c0.9-1.1,1.8-2.1,2.7-3.2c0.6-0.8,1.3-1,2.2-0.6C401.3,265.9,401.8,266,402.3,266.2z"/>
	<path class="st4" d="M387.4,286.6c-0.6,1.2-1.2,2.4-2,3.4c-0.9-0.1-1.7-0.5-2.6-0.8c-1.6-0.5-3.1-0.8-5-0.7
		c1.5-1.8,2.9-3.1,5.3-2.7C384.6,286.1,386.1,286.1,387.4,286.6z"/>
	<path class="st4" d="M396.1,273.9c-1.2,1.6-2.4,3.2-3.5,4.8c-0.3,0.4-0.6,0.7-0.6,1.2c-1.2-0.7-2.3-1.4-3.5-2
		c-0.5-0.3-0.7-0.4-0.2-0.9c1.1-0.9,2.1-2,3.3-2.7C392.9,273.4,394.5,273.5,396.1,273.9z"/>
	<path class="st3" d="M466.8,228.5c0.6-0.6,1-1.1,1.5-1.6C468.6,228.1,468,228.4,466.8,228.5z"/>
	<path class="st4" d="M437.1,178.2c0.9,0.2,1.8,0.3,2.6,0.5c-1.2,0.4-2.4,0-3.6-0.1C436.4,178.4,436.9,178.8,437.1,178.2z"/>
	<path class="st4" d="M432,198.9c0.8,0,1.5,0.4,2.2,0.7c-0.9,0.1-1.8-0.1-2.7-0.3C431.7,199.1,432,199.2,432,198.9z"/>
	<path class="st4" d="M417.2,206.3c0,0.3,0.1,0.7-0.3,1C416.9,206.9,416.9,206.5,417.2,206.3z"/>
	<path class="st0" d="M470.6,193.7c0,0.1,0,0.2,0.1,0.3c-0.1,0-0.2-0.1-0.3-0.1C470.4,193.8,470.5,193.8,470.6,193.7z"/>
	<path class="st0" d="M394.1,315.2c0-0.1-0.1-0.2-0.1-0.3c0.1,0,0.2,0,0.3,0.1C394.2,315.1,394.1,315.2,394.1,315.2z"/>
	<path class="st3" d="M462.5,215.9c0.1-0.1,0.1-0.1,0.2,0c0,0,0,0.1,0,0.1C462.6,216,462.5,215.9,462.5,215.9
		C462.5,215.9,462.5,215.9,462.5,215.9z"/>
	<path class="st0" d="M378.8,276.6c0-0.1,0-0.1,0-0.2c0,0,0.1,0,0.1,0C378.9,276.4,378.8,276.5,378.8,276.6
		C378.8,276.5,378.8,276.6,378.8,276.6z"/>
	<path class="st4" d="M368.9,270.3c0.1,0,0.2,0,0.3,0.1C369.1,270.5,369,270.5,368.9,270.3z"/>
	<path class="st1" d="M165.3,144.2c-3.8,0-7.7,0-11.5,0c-0.8,0-1-0.2-1-1c0.1-1.7,0-3.4,0-5c0-0.6,0.2-0.8,0.8-0.8
		c7.7,0,15.5,0,23.2,0c2.8,0,3.9,1.3,3.8,4.1c0,0.9-0.4,1.5-1.1,1.9c-1,0.6-2,0.8-3.1,0.8C172.7,144.2,169,144.2,165.3,144.2z"/>
	<path class="st1" d="M164.6,122.8c3.6,0,7.2,0,10.8,0c2.5,0,3.6,1.4,3.5,3.8c0,1.2-0.6,2-1.7,2.5c-0.7,0.3-1.5,0.4-2.3,0.4
		c-7,0-14,0-21.1,0c-0.9,0-1.1-0.3-1.1-1.1c0.1-1.5,0.1-3,0-4.5c0-0.9,0.2-1.2,1.1-1.1C157.5,122.8,161,122.8,164.6,122.8z"/>
	<path class="st1" d="M226.9,123.3c3.7,0,6.6,0,9.6,0c0.8,0,1.5,0.1,2.3,0.2c2.4,0.4,4,2.2,4,4.7c0,3.5,0.1,7,0,10.5
		c-0.1,2.9-1.9,4.7-5.2,4.9c-1.5,0.1-3.1,0.1-4.7,0.1c-4.5,0-8.9,0-13.4,0c-1.3,0-2.6-0.2-3.9-0.6c-2-0.6-3.1-2-3.1-4
		c-0.1-3.6-0.1-7.3,0-10.9c0.1-2.8,1.6-4.4,4.4-4.7C220.4,123.1,224,123.5,226.9,123.3z"/>
	<path class="st1" d="M103.6,143.7c-2.8,0-5.6,0-8.4,0c-1.4,0-2.7-0.2-4-0.7c-1.9-0.6-2.8-2-2.9-3.8c-0.2-3.7-0.2-7.4,0-11.1
		c0.1-2.6,1.7-4.2,4.3-4.6c0.6-0.1,1.2-0.2,1.8-0.2c6,0,12.1,0,18.1,0c0.9,0,1.8,0.1,2.6,0.3c2.1,0.5,3.5,2.2,3.5,4.6
		c0.1,3.5,0.1,6.9,0,10.4c-0.1,3.1-1.9,4.9-5.4,5C110.1,143.8,106.8,143.7,103.6,143.7C103.6,143.7,103.6,143.7,103.6,143.7z"/>
	<path class="st1" d="M41.1,124c3.2,0,6.3,0,9.5,0c0.8,0,1.7,0,2.5,0.3c1.5,0.6,2.2,1.6,2.3,3.2c0,0.6,0,1.2,0,1.8
		c0,2.2-1.4,3.7-3.6,3.8c-3.2,0.1-6.3,0.1-9.5,0.1c-3.8,0-7.7,0-11.5,0c-1,0-1.2-0.3-1.2-1.2c0.1-2.4,0.1-4.7,0-7.1c0-0.8,0.2-1,1-1
		C34,124,37.5,124,41.1,124z"/>
	<path class="st1" d="M37.3,175.9c2.7,0,5.4,0,8.2,0c2.9,0,4.4,1.5,4.5,4.4c0,2,0,4.1,0,6.1c0,2.6-1.3,4.1-4,4.3
		c-1.5,0.1-3.1,0.1-4.7,0.1c-4.2,0-8.3,0-12.5,0c-0.8,0-1-0.2-1-1c0-4.3,0-8.6,0-12.9c0-0.8,0.2-1,1-1
		C31.7,175.9,34.5,175.9,37.3,175.9z"/>
	<path class="st1" d="M95.5,175.2c1.3,0.1,2.5,0.1,3.5,1.1c0.9,0.8,1.3,1.8,1.3,2.9c0,2.4-0.1,4.9,0,7.3c0.1,3.4-1.6,4.6-4.5,4.7
		c-4.9,0.2-9.9,0.1-14.8,0c-1.8,0-3.7-0.4-4.5-2.5c-0.2-0.7-0.2-1.3-0.2-2c0-2.2,0-4.4,0-6.6c0-3.5,1.1-4.7,4.6-5
		C85.7,175.3,90.6,175.4,95.5,175.2z"/>
	<path class="st4" d="M95.5,175.2c-4.9,0.1-9.8,0.1-14.7,0c0.1,0,0.1-0.1,0.2-0.1c4.8,0,9.5,0,14.3,0
		C95.4,175.1,95.4,175.2,95.5,175.2z"/>
	<path class="st2" d="M173.2,183c-2.4,0-4.9,0-7.3,0c-0.7,0-1-0.2-1-0.9c0-2,0-4,0-6c0-0.7,0.2-0.9,0.9-0.9c5,0.1,10-0.1,15,0.1
		c2.3,0.1,3,0.9,3,3.2c0,0.4,0,0.8,0,1.2c0,2.3-0.9,3.2-3.1,3.3C178.2,183,175.7,183,173.2,183z"/>
	<path class="st2" d="M455,48.7c-1,1.2-2.2,2.3-3.5,3c-2.5,1.5-3.4,3.4-3.2,6.3c0.2,3.4-2.2,5.5-4.5,7.3c-2.3,1.8-5.2,2.7-8,3.3
		c-1,0.2-2,0-2.9-0.3c-1.3-0.5-2.3,0-3.2,0.6c-0.3,0.2-0.5,0.5-0.9,0.5c-0.2,0-0.4,0.1-0.6,0c-0.3-0.2-0.1-0.4,0-0.6
		c2.4-4.3,4.7-8.6,7.5-12.7c1.8-2.7,4.5-3.9,7.4-4.6c3.3-0.7,6.5-1.7,9.7-2.7c0.7-0.2,1.4-0.4,2.1-0.5
		C454.8,48.5,454.9,48.6,455,48.7z M441.7,59.1c0-0.2-0.1-0.7-0.2-1.1c-0.1-0.4-0.2-0.7-0.6-0.8c-0.4-0.1-0.6,0.3-0.8,0.6
		c-0.9,1.1-1.8,2.1-2.7,3.2c-0.7,0.9-1.4,1.7-2.1,2.6c-0.6,0.7-0.3,1.2,0.5,1.3c0.5,0.1,1,0.1,1.4,0.1
		C439.8,64.8,441.7,62.4,441.7,59.1z M443,62c2.1-1,3.2-3.5,2.7-6.4c-0.2-1.4-0.7-1.7-2-0.9c-1.1,0.7-1.3,1.3-0.7,2.4
		c0.5,1,0.6,1.9,0.4,3C443.3,60.7,443,61.3,443,62z"/>
	<path class="st3" d="M402.7,25.5c0.1,1.9,0.7,2.6,2.5,2.6c3.4,0,6.1-1.3,8.2-4c1.1-1.5,0.8-2.4-0.8-3.4c1.2,0,2.1,0.3,2.8,1.1
		c0.7,0.9,0.4,1.7,0,2.6c-0.6,1.3-1.7,2.3-2.9,3.1c-2.5,1.6-5.1,2.9-8.2,2.3C401.8,29.3,401.2,27.7,402.7,25.5z"/>
	<path class="st3" d="M349.5,364.7c1.6-3.5,3.2-7.1,4.9-10.6c3.9-8.2,7.6-16.5,12.3-24.3c2.5-4.3,5.6-8,9.6-11.1
		c1-0.8,2-1.4,3.2-1.8c1.8-0.5,2.9,0.3,2.9,2.2c0,0.8-0.1,1.6-0.4,2.4c-1.2,3.9-2.7,7.8-4.5,11.5c-2.4,4.9-6.1,8.8-9.7,12.7
		c-5.9,6.2-11.8,12.4-17.6,18.6c-0.2,0.2-0.4,0.3-0.6,0.5C349.6,364.7,349.6,364.7,349.5,364.7z"/>
	<path class="st2" d="M400.7,302.6c-3.1-1.2-6.1-2.3-9.3-2.9c-2.1-0.4-4.1-0.5-6.2-0.2c-1.1,0.2-1.4,0.8-1.2,1.8
		c0.3,1.3,0.9,2.4,1.6,3.5c0.8,1.2,1.6,2.4,2.4,3.7c-0.6,0-1-0.4-1.5-0.6c-3.8-2.1-7.3-4.7-9.9-8.2c-0.8-1.1-1.4-2.2-1.8-3.5
		c-0.6-2.4,0.3-3.9,2.7-4.4c2.4-0.5,4.7,0,6.9,0.7C390.9,294.3,396.3,297.7,400.7,302.6z"/>
	<path class="st2" d="M400.3,299.8c0.1-0.1,0.1-0.1,0.2-0.2c0,0.1,0.1,0.1,0.1,0.2C400.5,300,400.4,300,400.3,299.8z"/>
	<path class="st2" d="M441.9,231.1c-0.1-0.1-0.5-0.2-0.4-0.3c0.1-0.2,0.5-0.2,0.7,0.1C442.1,231,442,231.1,441.9,231.1z"/>
	<path class="st3" d="M441.7,59.1c0,3.3-1.8,5.7-4.4,5.9c-0.5,0-1,0-1.4-0.1c-0.8-0.2-1.1-0.6-0.5-1.3c0.7-0.9,1.4-1.8,2.1-2.6
		c0.9-1.1,1.8-2.1,2.7-3.2c0.2-0.3,0.4-0.7,0.8-0.6c0.4,0.1,0.5,0.5,0.6,0.8C441.5,58.4,441.6,58.9,441.7,59.1z"/>
	<path class="st5" d="M443,62c0-0.7,0.3-1.3,0.5-2c0.2-1.1,0.1-2.1-0.4-3c-0.7-1.1-0.5-1.8,0.7-2.4c1.3-0.7,1.8-0.5,2,0.9
		C446.2,58.5,445.1,61,443,62z"/>
</g>
</svg>
