<?xml version="1.0" encoding="utf-8"?>
<!-- Generator: Adobe Illustrator 26.0.2, SVG Export Plug-In . SVG Version: 6.00 Build 0)  -->
<svg version="1.1" id="Layer_1" xmlns="http://www.w3.org/2000/svg" xmlns:xlink="http://www.w3.org/1999/xlink" x="0px" y="0px"
	 viewBox="0 0 2250 1000" style="enable-background:new 0 0 2250 1000;" xml:space="preserve">
<style type="text/css">
	.st0{fill:#FEFEFE;}
	.st1{fill:#2980B8;}
	.st2{fill:#FE9933;}
	.st3{fill:#EC1F24;}
	.st4{fill:#75B74B;}
</style>
<g>
	<path class="st0" d="M1125,0.1c373.5,0,746.9,0,1120.4-0.1c3.7,0,4.6,0.8,4.6,4.6c-0.1,330.3-0.1,660.5,0,990.8
		c0,3.7-0.8,4.6-4.6,4.6c-746.9-0.1-1493.9-0.1-2240.8,0c-3.7,0-4.6-0.8-4.6-4.6C0.1,665.1,0.1,334.9,0,4.6C0,0.8,0.8,0,4.6,0
		C378.1,0.1,751.5,0.1,1125,0.1z M428.1,250c-0.4-1.6-0.9-3.2-1.1-4.8c-4.2-32.2-19.9-57.8-45.8-76.6
		c-24.5-17.8-52.7-25.9-82.8-27.1c-30.7-1.3-60.3,4.3-89,15c-4.2,1.6-4.9,2.9-2.6,7c21.6,38.9,47.5,74.6,76.4,108.4
		c22.4,26.3,50.4,39.5,84.7,40.1c-1.4,1.6-2.7,3.4-4.2,4.9c-25.8,26.7-51.7,53.4-77.5,80.1c-5.9,6.1-11.8,12.4-18.4,19.3
		c3,0,4.8,0,6.6,0c47.7,0,95.3,0.1,143-0.1c4.2,0,5.7,0.8,5.7,5.4c-0.2,61.8-0.2,123.6,0,185.4c0,4.2-1.2,5.2-5.3,5.2
		c-49.8-0.1-99.6-0.1-149.5-0.1c-7.2,0-6.4,1-6.4-6.4c0-116,0-231.9,0-347.9c0-1.2-0.1-2.3,0-3.5c0.4-3.2-0.7-4.4-4.1-4.3
		c-8.3,0.2-16.7,0-25,0.1c-13.6,0.1-27.3-0.7-40.9,1.2c-63.7,9-113.5,66-113.6,130.5c-0.1,88.1,0,176.3-0.1,264.4
		c0,8.5,0.9,17,2.4,25.3c9.7,53.2,62.6,107.2,131,106.7c87.1-0.7,174.3-0.2,261.4-0.2c7.7,0,15.3-0.6,22.9-1.8
		c61.4-9.9,110-65.5,110.2-127.6c0.4-90,0.1-179.9,0.1-269.9c0-7.7-1-15.3-2.4-22.8c-10.1-53-62.6-106.8-130.1-105.8
		C458.5,250.2,443.3,250,428.1,250z M1974,612c-2.8,0-4.6,0-6.5,0c-47.2,0-94.3-0.1-141.5,0.1c-4.1,0-5.3-0.8-5.3-5.1
		c0.2-62,0.2-124,0-185.9c0-4.3,1.3-5.1,5.3-5.1c50.2,0.1,100.3,0.2,150.5,0c5,0,6.3,1.2,6.3,6.2c-0.2,116.8-0.1,233.6-0.2,350.4
		c0,4.3,0.9,5.5,5.4,5.5c57.3-0.2,114.6-0.2,172,0c4.6,0,5.7-1.2,5.7-5.8c-0.1-129.1-0.1-258.2-0.1-387.4c0-9-0.5-18-2.2-26.8
		c-12.2-63.2-66.1-107.9-130.4-108c-88-0.1-176,0-263.9,0c-8.9,0-17.6,0.8-26.3,2.7C1681.2,266,1638,319.2,1638,382.1
		c-0.1,88,0,175.9-0.1,263.9c0,6.4,0.4,12.7,1.3,18.9c8.9,64,64.8,112.8,129.4,113c36.5,0.1,73,0,109.5,0.1c3.7,0,5.5-1.2,7.3-4.4
		c27.4-50.2,55-100.4,82.6-150.6C1969.9,619.6,1971.7,616.1,1974,612z M1159.9,612c-2.4,0-4.2,0-5.9,0c-94,0-188,0-281.9,0.1
		c-4.1,0-5.2-0.9-5.2-5.1c0.2-61.8,0.2-123.6,0-185.4c0-4.8,1.4-5.6,5.8-5.6c94,0.1,188,0.1,281.9,0.2c4.7,0,5.6-1.4,5.6-5.8
		c-0.1-51.7-0.1-103.3,0-155c0-4.2-0.7-5.5-5.3-5.5c-113,0.2-226,0.1-338.9,0.1c-9,0-18,0.7-26.8,2.6
		c-61.8,13.2-105,66.5-105.1,129.7c-0.1,87.8,0,175.6,0,263.4c0,8.7,0.8,17.3,2.3,25.8c9.5,53.2,60.1,106.9,129.5,106.5
		c83-0.4,166-0.1,249,0c3.7,0,5.5-1.1,7.2-4.3c28.3-52.2,56.7-104.3,85.1-156.5C1158.1,615.7,1158.8,614.1,1159.9,612z M1435.9,597
		c0-58.8,0-117.6-0.1-176.4c0-3.7,0.8-4.7,4.6-4.6c28.3,0.2,56.7,0,85,0.2c3.5,0,4.4-0.9,4.4-4.4c-0.1-52.5-0.1-105,0-157.4
		c0-3.6-1-4.4-4.4-4.3c-34,0.1-68,0.1-102,0c-2.6,0-4.3,0.8-6,2.7c-53.8,55.5-107.6,111-161.5,166.5c-2.1,2.2-3,4.3-3,7.4
		c0.1,115.5,0.1,230.9,0,346.4c0,4.1,0.8,5.2,5.1,5.2c57.7-0.2,115.3-0.2,173,0c4.1,0,5.2-0.9,5.2-5.1
		C1435.9,714.3,1435.9,655.7,1435.9,597z"/>
	<path class="st1" d="M1974,612c-2.3,4.2-4.1,7.6-6,11.1c-27.5,50.2-55.1,100.3-82.6,150.6c-1.7,3.2-3.6,4.4-7.3,4.4
		c-36.5-0.2-73,0-109.5-0.1c-64.7-0.2-120.6-49-129.4-113c-0.9-6.3-1.3-12.6-1.3-18.9c0-88,0-175.9,0.1-263.9
		c0.1-62.9,43.2-116.1,104.8-129.4c8.6-1.9,17.4-2.7,26.3-2.7c88,0,176-0.1,263.9,0c64.3,0.1,118.1,44.8,130.4,108
		c1.7,8.9,2.2,17.9,2.2,26.8c0,129.1,0,258.2,0.1,387.4c0,4.5-1.1,5.8-5.7,5.8c-57.3-0.2-114.6-0.2-172,0c-4.5,0-5.4-1.2-5.4-5.5
		c0.1-116.8,0.1-233.6,0.2-350.4c0-5.1-1.2-6.3-6.3-6.2c-50.2,0.2-100.3,0.2-150.5,0c-4,0-5.3,0.7-5.3,5.1c0.2,62,0.2,124,0,185.9
		c0,4.3,1.2,5.1,5.3,5.1c47.2-0.1,94.3-0.1,141.5-0.1C1969.4,612,1971.2,612,1974,612z"/>
	<path class="st2" d="M428.1,250c15.2,0,30.3,0.3,45.5,0.1c67.5-1,120,52.9,130.1,105.8c1.4,7.5,2.4,15.1,2.4,22.8
		c0,90,0.3,179.9-0.1,269.9c-0.3,62.1-48.9,117.6-110.2,127.6c-7.6,1.2-15.2,1.8-22.9,1.8c-87.1,0-174.3-0.6-261.4,0.2
		c-68.4,0.6-121.2-53.5-131-106.7c-1.5-8.4-2.4-16.8-2.4-25.3c0-88.1-0.1-176.3,0.1-264.4c0.1-64.4,49.9-121.5,113.6-130.5
		c13.6-1.9,27.3-1,40.9-1.2c8.3-0.1,16.7,0.2,25-0.1c3.4-0.1,4.5,1.1,4.1,4.3c-0.1,1.1,0,2.3,0,3.5c0,116,0,231.9,0,347.9
		c0,7.3-0.8,6.4,6.4,6.4c49.8,0,99.6,0,149.5,0.1c4.1,0,5.3-1,5.3-5.2c-0.1-61.8-0.2-123.6,0-185.4c0-4.6-1.5-5.4-5.7-5.4
		c-47.7,0.1-95.3,0.1-143,0.1c-1.8,0-3.6,0-6.6,0c6.6-6.9,12.5-13.1,18.4-19.3c25.8-26.7,51.7-53.4,77.5-80.1
		c1.5-1.5,2.8-3.3,4.2-4.9c10.3-10.4,20.9-20.5,30.5-31.6c3.6-3,6.9-6.3,9.8-10C415.4,264.1,421.1,256.3,428.1,250z"/>
	<path class="st3" d="M1159.9,612c-1.1,2.1-1.9,3.7-2.7,5.3c-28.4,52.1-56.8,104.3-85.1,156.5c-1.7,3.2-3.6,4.3-7.2,4.3
		c-83-0.1-166-0.4-249,0c-69.4,0.4-120-53.4-129.5-106.5c-1.5-8.5-2.4-17.1-2.3-25.8c0-87.8,0-175.6,0-263.4
		c0.1-63.2,43.3-116.5,105.1-129.7c8.8-1.9,17.8-2.6,26.8-2.6c113,0,226,0,338.9-0.1c4.6,0,5.3,1.3,5.3,5.5
		c-0.1,51.7-0.1,103.3,0,155c0,4.4-0.8,5.8-5.6,5.8c-94-0.2-188-0.1-281.9-0.2c-4.3,0-5.8,0.8-5.8,5.6c0.2,61.8,0.2,123.6,0,185.4
		c0,4.2,1.1,5.1,5.2,5.1c94-0.1,188-0.1,281.9-0.1C1155.8,612,1157.6,612,1159.9,612z"/>
	<path d="M1435.9,597c0,58.6-0.1,117.3,0.1,175.9c0,4.2-1,5.1-5.2,5.1c-57.7-0.1-115.3-0.2-173,0c-4.2,0-5.1-1.1-5.1-5.2
		c0.1-115.5,0.1-230.9,0-346.4c0-3.1,0.9-5.2,3-7.4c53.9-55.4,107.7-110.9,161.5-166.5c1.7-1.8,3.4-2.7,6-2.7c34,0.1,68,0.1,102,0
		c3.4,0,4.4,0.8,4.4,4.3c-0.1,52.5-0.1,105,0,157.4c0,3.5-0.9,4.4-4.4,4.4c-28.3-0.1-56.7,0-85-0.2c-3.8,0-4.6,1-4.6,4.6
		C1436,479.4,1435.9,538.2,1435.9,597z"/>
	<path class="st4" d="M398.3,280.2c-9.5,11.1-20.1,21.3-30.5,31.6c-34.3-0.6-62.2-13.8-84.7-40.1c-28.8-33.8-54.8-69.5-76.4-108.4
		c-2.3-4.1-1.6-5.4,2.6-7c28.7-10.7,58.3-16.3,89-15c30.1,1.2,58.4,9.3,82.8,27.1c25.9,18.9,41.6,44.5,45.8,76.6
		c0.2,1.6,0.7,3.2,1.1,4.8c-7.1,6.4-12.8,14.1-20.1,20.2c-13.6-15.8-27.6-31.1-43.3-44.8c-32.9-28.9-70.9-47.6-113.6-57.3
		c-1.3-0.3-2.7-1-4.1-0.1C307.8,191.7,360.5,225.9,398.3,280.2z"/>
	<path class="st0" d="M398.3,280.2c-37.7-54.3-90.5-88.5-151.2-112.2c1.5-0.8,2.8-0.2,4.1,0.1c42.6,9.6,80.7,28.3,113.6,57.3
		c15.7,13.8,29.7,29.1,43.3,44.8C405.1,273.9,401.9,277.2,398.3,280.2z"/>
</g>
</svg>
