<svg id="Layer_1" data-name="Layer 1" xmlns="http://www.w3.org/2000/svg" viewBox="0 0 781.65 329.2"><defs><style>.cls-1{fill:#0f1130;}.cls-2{fill:#c64d27;}.cls-3{fill:#1c75bc;}.cls-4{fill:#1576bc;}.cls-5{fill:#8dc63f;}</style></defs><rect class="cls-1" x="314.75" y="57.27" width="5.29" height="214.65"/><path class="cls-1" d="M229.42,148.81c11.22-2.65,22.38,1.17,33.11,4.05,26.81,7.51,54.44,12.21,80.74,21.48-16,4.8-32.48,7.73-48.36,12.83a47.36,47.36,0,0,1,12.53,33.61c-14.84-3.36-29.45-9.1-44.89-8.6-9,.07-16.33,5.81-24.59,8.43-8.39-3.4-16.51-8.44-25.79-8.69-15.64-.34-30.51,5.06-45.4,9A56.4,56.4,0,0,1,173,195.14c1.11-3.07,3.76-6,3-9.46-9.39-3.5-19.4-5-29-7.6,1.11,27.79,1.94,55.6,1.64,83.42-3.13.21-6.26.41-9.36.64.7-28.27,3.64-56.4,4.66-84.64-5.36-1.74-10.71-3.5-16-5.55C161.84,164.59,195.63,156.65,229.42,148.81Z" transform="translate(-109.17 -147.92)"/><path class="cls-2" d="M153.61,419.61a139.34,139.34,0,0,1-26.73-57c-6.84-29.1-2.93-60.19,9.31-87.34a7,7,0,0,0-2.92-9h0a7,7,0,0,0-9.72,3c-15.7,30.69-18.83,67.6-8,100.41,9.75,30.11,31,56.19,58,72.5C166.91,434.63,159.61,427.67,153.61,419.61Z" transform="translate(-109.17 -147.92)"/><path class="cls-3" d="M377.8,271.63c-13.75-29.43-38.06-53.53-67.2-67.74,1.46,7.38,2.27,14.94,4.36,22.2,5.82,5.93,13,10.55,18.47,16.89,23.43,24.49,37.43,58,37.63,92-.28,21.55-5.19,43.14-15.45,62.17-15.63,29.68-42.69,53.35-74.49,64.17-22.35,7.36-46.65,8.62-69.73,4.52-15.84-2.81-30.44-9.3-44.2-17.53C158,442.33,148.7,436,141.9,427.33c-.58.59,10.33,14.13,17.29,19.27,33.79,26.13,79.53,36.8,121.23,26.83,30.88-7.14,59.4-24.6,79.19-49.45C394.2,382.29,401.33,320.34,377.8,271.63Z" transform="translate(-109.17 -147.92)"/><path class="cls-4" d="M137.94,425.07" transform="translate(-109.17 -147.92)"/><circle class="cls-2" cx="133.22" cy="157.54" r="12.22"/><polygon class="cls-3" points="140.37 100.79 143.59 110.7 154 110.7 145.57 116.82 148.79 126.73 140.37 120.6 131.94 126.73 135.16 116.82 126.73 110.7 137.15 110.7 140.37 100.79"/><polygon class="cls-5" points="130.81 80.78 132.54 86.08 138.11 86.08 133.6 89.35 135.32 94.66 130.81 91.38 126.3 94.66 128.03 89.35 123.52 86.08 129.09 86.08 130.81 80.78"/><polygon class="cls-2" points="157.63 88.48 159.28 93.54 164.59 93.54 160.29 96.66 161.93 101.71 157.63 98.59 153.33 101.71 154.98 96.66 150.68 93.54 155.99 93.54 157.63 88.48"/><path class="cls-3" d="M489.29,332.25c-16.29-14.29-20.61-32.91-20.61-49,0-11.3,3.49-30.92,19.44-45.54,12-11,27.76-17.62,52.52-17.62a165.24,165.24,0,0,1,24.1,1.66c6.32.83,11.64,2.33,16.63,2.83,1.82.16,2.49,1,2.49,2,0,1.33-.5,3.33-.83,9.14-.33,5.49-.17,14.63-.5,17.95-.17,2.5-.5,3.83-2,3.83-1.33,0-1.66-1.33-1.66-3.66a23.67,23.67,0,0,0-6.48-15.29c-5.49-5.82-18.45-10.31-33.74-10.31-14.46,0-23.94,3.66-31.25,10.31-12.13,11.14-15.29,26.93-15.29,43.05,0,39.55,30.08,59.17,52.36,59.17,14.79,0,23.76-1.66,30.41-9.31a27.63,27.63,0,0,0,5.65-11c.5-2.66.84-3.32,2.17-3.32,1.16,0,1.49,1.16,1.49,2.49,0,2-2,16.45-3.66,22.11-.83,2.82-1.49,3.65-4.32,4.82-6.65,2.65-19.28,3.82-29.91,3.82C523.52,350.37,504.41,345.38,489.29,332.25Z" transform="translate(-109.17 -147.92)"/><path class="cls-3" d="M638.87,332.25c-16.29-14.29-20.61-32.91-20.61-49,0-11.3,3.49-30.92,19.44-45.54,12-11,27.76-17.62,52.53-17.62a165.45,165.45,0,0,1,24.1,1.66c6.31.83,11.63,2.33,16.62,2.83,1.83.16,2.49,1,2.49,2,0,1.33-.5,3.33-.83,9.14-.33,5.49-.16,14.63-.5,17.95-.16,2.5-.5,3.83-2,3.83-1.33,0-1.67-1.33-1.67-3.66A23.67,23.67,0,0,0,722,238.51c-5.48-5.82-18.45-10.31-33.74-10.31-14.46,0-23.93,3.66-31.24,10.31-12.14,11.14-15.3,26.93-15.3,43.05,0,39.55,30.09,59.17,52.36,59.17,14.79,0,23.77-1.66,30.42-9.31a27.9,27.9,0,0,0,5.65-11c.5-2.66.83-3.32,2.16-3.32,1.16,0,1.49,1.16,1.49,2.49,0,2-2,16.45-3.65,22.11-.83,2.82-1.5,3.65-4.32,4.82-6.65,2.65-19.28,3.82-29.92,3.82C673.11,350.37,654,345.38,638.87,332.25Z" transform="translate(-109.17 -147.92)"/><path class="cls-3" d="M797.59,305.66c-.83,0-1.16.33-1.49,1.33l-9,22.77a32.22,32.22,0,0,0-2.49,10.14c0,3,1.5,5.15,6.65,5.15h2.49c2,0,2.5.33,2.5,1.33,0,1.33-1,1.66-2.83,1.66-5.32,0-12.46-.5-17.62-.5-1.83,0-11,.5-19.61.5-2.16,0-3.16-.33-3.16-1.66,0-1,.67-1.33,2-1.33,1.5,0,3.83-.17,5.16-.33,7.64-1,10.8-6.65,14.13-15l41.72-103c2-4.82,3-6.65,4.65-6.65,1.49,0,2.49,1.5,4.15,5.32,4,9.14,30.59,75.62,41.22,100.89,6.32,15,11.14,17.28,14.63,18.11a36.39,36.39,0,0,0,7,.67c1.33,0,2.16.17,2.16,1.33,0,1.33-1.49,1.66-7.65,1.66-6,0-18.11,0-31.41-.33-3-.17-5-.17-5-1.33,0-1,.66-1.33,2.32-1.5a2.7,2.7,0,0,0,1.5-3.82l-13.3-34.24a1.59,1.59,0,0,0-1.66-1.16Zm33.91-8.31c.83,0,1-.5.83-1l-15-40.89c-.16-.66-.33-1.49-.83-1.49s-.83.83-1,1.49l-15.29,40.72c-.16.67,0,1.17.67,1.17Z" transform="translate(-109.17 -147.92)"/><path class="cls-1" d="M471.7,380.33a9.38,9.38,0,0,1-.16-13.47c1.7-1.56,3.95-2.51,7.48-2.51a23.59,23.59,0,0,1,3.43.24c.9.12,1.66.33,2.37.4.26,0,.35.14.35.28s-.07.48-.12,1.31,0,2.08-.07,2.55-.07.55-.28.55-.24-.19-.24-.52a3.35,3.35,0,0,0-.92-2.18c-.78-.83-2.63-1.47-4.81-1.47a6.16,6.16,0,0,0-4.45,1.47c-1.73,1.58-2.18,3.83-2.18,6.13,0,5.64,4.29,8.43,7.46,8.43,2.11,0,3.39-.24,4.33-1.33a3.91,3.91,0,0,0,.81-1.56c.07-.38.12-.47.31-.47s.21.16.21.35a21.77,21.77,0,0,1-.52,3.15.85.85,0,0,1-.62.69,13.63,13.63,0,0,1-4.26.54C476.58,382.91,473.86,382.2,471.7,380.33Z" transform="translate(-109.17 -147.92)"/><path class="cls-1" d="M487.54,375c0-3.44,2.42-7.89,8.74-7.89,5.25,0,8.52,2.92,8.52,7.53s-3.36,8.24-8.73,8.24C490,382.84,487.54,378.53,487.54,375Zm14.16.38c0-4.46-2.67-7.2-6-7.2-2.32,0-5,1.23-5,6.2,0,4.15,2.37,7.41,6.3,7.41C498.39,381.75,501.7,381.07,501.7,375.34Z" transform="translate(-109.17 -147.92)"/><path class="cls-1" d="M511.48,376.73c0,2.58,0,3.86.45,4.24s1.16.43,2.77.43c1.11,0,1.92,0,2.44-.57a2.45,2.45,0,0,0,.52-1.21c0-.19.07-.31.24-.31s.19.22.19.45a16.07,16.07,0,0,1-.31,2.32c-.14.45-.24.55-1.33.55-1.49,0-2.7,0-3.74-.07s-1.92-.05-2.77-.05l-1.18,0c-.5,0-1,.05-1.45.05-.26,0-.4-.07-.4-.21s.07-.21.33-.21a2.92,2.92,0,0,0,.74-.08c.42-.09.54-.47.61-1.06.1-.85.1-2.44.1-4.29v-3.55c0-3.05,0-3.62,0-4.26s-.23-.9-.9-1.09a2.58,2.58,0,0,0-.68-.07q-.36,0-.36-.21c0-.15.14-.19.45-.19,1,0,2.3,0,2.87,0s2.2,0,3,0c.31,0,.45,0,.45.19s-.12.21-.38.21a4.4,4.4,0,0,0-.8.07c-.57.1-.74.38-.78,1.09s0,1.21,0,4.26Z" transform="translate(-109.17 -147.92)"/><path class="cls-1" d="M524.55,376.73c0,2.58,0,3.86.45,4.24s1.16.43,2.77.43c1.11,0,1.92,0,2.44-.57a2.45,2.45,0,0,0,.52-1.21c0-.19.07-.31.24-.31s.19.22.19.45a16.07,16.07,0,0,1-.31,2.32c-.14.45-.24.55-1.33.55-1.49,0-2.7,0-3.74-.07s-1.92-.05-2.77-.05l-1.18,0c-.5,0-1,.05-1.45.05-.26,0-.4-.07-.4-.21s.07-.21.33-.21a2.92,2.92,0,0,0,.74-.08c.42-.09.54-.47.61-1.06.1-.85.1-2.44.1-4.29v-3.55c0-3.05,0-3.62,0-4.26s-.23-.9-.9-1.09a2.58,2.58,0,0,0-.68-.07q-.36,0-.36-.21c0-.15.14-.19.45-.19,1,0,2.3,0,2.87,0s2.2,0,3,0c.31,0,.45,0,.45.19s-.12.21-.38.21a4.4,4.4,0,0,0-.8.07c-.57.1-.74.38-.78,1.09s-.05,1.21-.05,4.26Z" transform="translate(-109.17 -147.92)"/><path class="cls-1" d="M534.83,373.18c0-3.05,0-3.62,0-4.26s-.23-.9-.9-1.09a3.65,3.65,0,0,0-.83-.07c-.21,0-.35-.07-.35-.21s.17-.19.47-.19c1.09,0,2.42,0,3,0s5.28,0,5.68,0,.71-.09.88-.11a1.73,1.73,0,0,1,.33-.1c.12,0,.14.1.14.19a8.26,8.26,0,0,0-.16,1.3c0,.22-.08,1.09-.12,1.33s-.07.33-.24.33-.17-.09-.17-.26a1.82,1.82,0,0,0-.14-.73c-.16-.36-.33-.64-1.37-.74-.36-.05-2.84-.09-3.27-.09-.09,0-.14.07-.14.19v5c0,.12,0,.21.14.21.48,0,3.17,0,3.65-.05a1.57,1.57,0,0,0,1-.3c.17-.15.24-.26.33-.26s.17.09.17.21,0,.45-.17,1.47c0,.4-.09,1.2-.09,1.35s0,.45-.21.45-.19-.07-.19-.17,0-.47-.07-.73c-.12-.41-.38-.71-1.16-.78-.38-.05-2.75-.1-3.27-.1-.1,0-.12.1-.12.21v1.61c0,.69,0,2.4,0,3,0,1.37.69,1.68,2.82,1.68a5.76,5.76,0,0,0,2-.26c.52-.24.76-.67.9-1.49.05-.22.1-.31.24-.31s.19.26.19.47a13.46,13.46,0,0,1-.29,2.23c-.14.52-.33.52-1.11.52-1.56,0-2.82,0-3.83-.07s-1.8-.05-2.42-.05l-1.18,0c-.5,0-1,.05-1.45.05-.26,0-.4-.07-.4-.21s.07-.21.33-.21a2.92,2.92,0,0,0,.74-.08c.42-.09.54-.47.61-1.06.1-.85.1-2.44.1-4.29Z" transform="translate(-109.17 -147.92)"/><path class="cls-1" d="M561.18,381.23c0,.55,0,.57-.26.71a12.51,12.51,0,0,1-5.09.9c-5.11,0-9.64-2.32-9.64-7.88a7.44,7.44,0,0,1,3.65-6.58,10.45,10.45,0,0,1,5.61-1.31,24.33,24.33,0,0,1,3.69.33,15.9,15.9,0,0,0,1.66.22c.24,0,.28.09.28.23a28,28,0,0,0-.14,3.32c0,.31-.12.45-.28.45s-.19-.1-.21-.26a2.73,2.73,0,0,0-.71-1.66,6.47,6.47,0,0,0-4.53-1.54,5.84,5.84,0,0,0-4,1.19c-1.16.94-1.92,2.43-1.92,4.9,0,4.33,2.79,7.48,7.24,7.48a3.44,3.44,0,0,0,1.47-.21.68.68,0,0,0,.41-.71V379c0-1,0-1.75,0-2.37s-.23-.9-.9-1.09a3.54,3.54,0,0,0-.8-.07c-.19,0-.33-.09-.33-.21s.16-.19.45-.19c1.08,0,2.58.05,3.19.05s1.75-.05,2.44-.05c.28,0,.43,0,.43.19a.24.24,0,0,1-.26.21,2.59,2.59,0,0,0-.57.07c-.57.1-.78.38-.81,1.09s0,1.42,0,2.42Z" transform="translate(-109.17 -147.92)"/><path class="cls-1" d="M567,373.18c0-3.05,0-3.62,0-4.26s-.23-.9-.9-1.09a3.65,3.65,0,0,0-.83-.07c-.21,0-.35-.07-.35-.21s.17-.19.47-.19c1.09,0,2.42,0,3,0s5.28,0,5.68,0,.71-.09.88-.11a1.54,1.54,0,0,1,.33-.1c.12,0,.14.1.14.19a8.92,8.92,0,0,0-.17,1.3c0,.22-.07,1.09-.11,1.33s-.08.33-.24.33-.17-.09-.17-.26a1.82,1.82,0,0,0-.14-.73c-.16-.36-.33-.64-1.37-.74-.36-.05-2.84-.09-3.27-.09-.09,0-.14.07-.14.19v5c0,.12,0,.21.14.21.48,0,3.17,0,3.65-.05a1.59,1.59,0,0,0,1-.3c.17-.15.24-.26.33-.26s.17.09.17.21-.05.45-.17,1.47c0,.4-.09,1.2-.09,1.35s0,.45-.22.45-.18-.07-.18-.17,0-.47-.08-.73c-.11-.41-.37-.71-1.16-.78-.37-.05-2.74-.1-3.26-.1-.1,0-.12.1-.12.21v1.61c0,.69,0,2.4,0,3,.05,1.37.69,1.68,2.82,1.68a5.76,5.76,0,0,0,2-.26c.52-.24.76-.67.9-1.49,0-.22.1-.31.24-.31s.19.26.19.47a13.46,13.46,0,0,1-.29,2.23c-.14.52-.33.52-1.11.52-1.56,0-2.82,0-3.83-.07s-1.8-.05-2.42-.05l-1.18,0c-.5,0-1,.05-1.45.05-.26,0-.4-.07-.4-.21s.07-.21.33-.21a2.92,2.92,0,0,0,.74-.08c.42-.09.54-.47.61-1.06.1-.85.1-2.44.1-4.29Z" transform="translate(-109.17 -147.92)"/><path class="cls-1" d="M588.65,377.49c-.12,0-.15,0-.19.14l-1.12,2.73a3.61,3.61,0,0,0-.3,1.23c0,.35.19.57.82.57h.31c.26,0,.31.09.31.21s-.12.21-.33.21c-.69,0-1.66-.07-2.32-.07-.21,0-1.33.07-2.42.07-.26,0-.37-.05-.37-.21a.2.2,0,0,1,.23-.21l.62,0c.94-.14,1.3-.76,1.73-1.77l5.44-12.58c.24-.56.4-.8.62-.8s.4.19.61.64c.5,1.11,4,9.25,5.31,12.31.8,1.82,1.39,2.08,1.77,2.15a4.9,4.9,0,0,0,.78.08c.19,0,.29.07.29.21s-.12.21-.9.21-2.25,0-4-.05c-.38,0-.62,0-.62-.16s.05-.19.26-.21a.33.33,0,0,0,.19-.45l-1.61-4.08a.2.2,0,0,0-.21-.14Zm4.45-1.11c.09,0,.12-.05.09-.12l-2-5c0-.08-.05-.19-.1-.19s-.09.11-.12.19l-2,5c0,.09,0,.14.07.14Z" transform="translate(-109.17 -147.92)"/><path class="cls-1" d="M604,379.83c0,1.57.31,2,.71,2.18a3.53,3.53,0,0,0,1.09.15c.24,0,.36.09.36.21s-.19.21-.48.21c-1.35,0-2.32-.07-2.69-.07-.19,0-1.19.07-2.25.07-.29,0-.48,0-.48-.21s.15-.21.33-.21a4.32,4.32,0,0,0,.95-.1c.55-.14.62-.69.64-2.44l.19-11.93c0-.4.14-.69.35-.69s.55.31.9.67,3.39,3.45,6.42,6.41c1.42,1.4,4.19,4.24,4.5,4.52h.09l-.21-9c0-1.23-.21-1.58-.71-1.77a3.44,3.44,0,0,0-1.09-.12c-.26,0-.33-.09-.33-.21s.21-.19.52-.19c1.09,0,2.2,0,2.65,0,.24,0,1,0,2,0,.28,0,.47,0,.47.19s-.12.21-.35.21a2.12,2.12,0,0,0-.64.07c-.57.17-.74.52-.76,1.66L616,382.18c0,.45-.16.64-.33.64a1.25,1.25,0,0,1-.85-.43c-1.3-1.21-3.91-3.69-6.09-5.8s-4.47-4.62-4.87-5h-.07Z" transform="translate(-109.17 -147.92)"/><path class="cls-1" d="M622.63,373.18c0-3.05,0-3.62,0-4.26s-.23-.9-.9-1.09a3.65,3.65,0,0,0-.83-.07c-.21,0-.35-.07-.35-.21s.16-.19.47-.19c1.09,0,2.42,0,3,0s2.13,0,3.38,0c2.61,0,6.11,0,8.38,2.29a7,7,0,0,1,2,5.12,7.82,7.82,0,0,1-2.27,5.61c-1,.95-3.15,2.37-7,2.37-.75,0-1.65-.07-2.48-.12s-1.59-.12-2.11-.12l-1.18,0c-.5,0-1,.05-1.45.05-.26,0-.4-.07-.4-.21s.07-.21.33-.21a2.92,2.92,0,0,0,.74-.08c.42-.09.54-.47.61-1.06.1-.85.1-2.44.1-4.29Zm2.79,2.23c0,2.13,0,3.67.05,4.07a3.7,3.7,0,0,0,.23,1.42c.26.38,1.09.81,2.73.81a6.56,6.56,0,0,0,4.54-1.38c1.35-1.11,1.78-2.91,1.78-5a6.55,6.55,0,0,0-1.94-5A8.39,8.39,0,0,0,627,368.4a4.67,4.67,0,0,0-1.28.14.35.35,0,0,0-.26.4c0,.69,0,2.35,0,3.93Z" transform="translate(-109.17 -147.92)"/><path class="cls-1" d="M650.23,380.33a9.38,9.38,0,0,1-.16-13.47c1.7-1.56,3.95-2.51,7.48-2.51a23.59,23.59,0,0,1,3.43.24c.9.12,1.66.33,2.37.4.26,0,.35.14.35.28s-.07.48-.11,1.31,0,2.08-.07,2.55-.08.55-.29.55-.24-.19-.24-.52a3.35,3.35,0,0,0-.92-2.18,7,7,0,0,0-4.8-1.47,6.16,6.16,0,0,0-4.45,1.47c-1.73,1.58-2.18,3.83-2.18,6.13,0,5.64,4.28,8.43,7.45,8.43,2.11,0,3.39-.24,4.34-1.33a3.87,3.87,0,0,0,.8-1.56c.07-.38.12-.47.31-.47s.21.16.21.35a21.77,21.77,0,0,1-.52,3.15.85.85,0,0,1-.61.69,13.74,13.74,0,0,1-4.27.54C655.11,382.91,652.39,382.2,650.23,380.33Z" transform="translate(-109.17 -147.92)"/><path class="cls-1" d="M670,377.49c-.12,0-.14,0-.19.14l-1.11,2.73a3.45,3.45,0,0,0-.31,1.23c0,.35.19.57.83.57h.3c.27,0,.31.09.31.21s-.12.21-.33.21c-.69,0-1.66-.07-2.32-.07-.21,0-1.33.07-2.41.07-.26,0-.38-.05-.38-.21a.2.2,0,0,1,.23-.21l.62,0c.95-.14,1.3-.76,1.73-1.77l5.44-12.58c.24-.56.41-.8.62-.8s.4.19.61.64c.5,1.11,4,9.25,5.31,12.31.8,1.82,1.4,2.08,1.77,2.15a4.91,4.91,0,0,0,.79.08c.18,0,.28.07.28.21s-.12.21-.9.21-2.25,0-4-.05c-.38,0-.62,0-.62-.16s0-.19.26-.21a.31.31,0,0,0,.19-.45l-1.61-4.08a.19.19,0,0,0-.21-.14Zm4.45-1.11c.09,0,.12-.05.09-.12l-2-5c0-.08,0-.19-.1-.19s-.09.11-.11.19l-2,5c0,.09,0,.14.07.14Z" transform="translate(-109.17 -147.92)"/><path class="cls-1" d="M684,373.18c0-3.05,0-3.62,0-4.26s-.24-.9-.9-1.09a3.71,3.71,0,0,0-.83-.07c-.21,0-.35-.07-.35-.21s.16-.19.47-.19c1.09,0,2.41,0,2.84,0l3.24,0a7.34,7.34,0,0,1,4,.85A3.52,3.52,0,0,1,693.9,371c0,1.49-.86,2.82-2.89,4.45,1.84,2.27,3.31,4.1,4.57,5.35a3.92,3.92,0,0,0,2.22,1.33,1.88,1.88,0,0,0,.5.05.23.23,0,0,1,.26.21c0,.16-.14.21-.4.21h-2a4.54,4.54,0,0,1-2.27-.4,9.46,9.46,0,0,1-2.84-3c-.83-1.09-1.71-2.44-2-2.75a.48.48,0,0,0-.38-.14l-1.87-.05a.15.15,0,0,0-.16.17v.28c0,1.87,0,3.44.11,4.29.07.59.17,1,.81,1.06a7.59,7.59,0,0,0,1,.08.24.24,0,0,1,.26.21c0,.14-.17.21-.43.21-1.21,0-2.94-.07-3.24-.07s-1.73.07-2.56.07c-.26,0-.4-.07-.4-.21s.07-.21.33-.21a2.84,2.84,0,0,0,.73-.08c.43-.09.55-.47.62-1.06.09-.85.09-2.44.09-4.29Zm2.66,1.56c0,.22,0,.29.18.36a5.83,5.83,0,0,0,1.59.19,2.11,2.11,0,0,0,1.47-.33,3.41,3.41,0,0,0,1.35-3c0-2.84-1.94-3.57-3.17-3.57a7.38,7.38,0,0,0-1.24.07c-.14,0-.18.12-.18.28Z" transform="translate(-109.17 -147.92)"/><path class="cls-1" d="M700.27,373.18c0-3.05,0-3.62,0-4.26s-.23-.9-.9-1.09a3.65,3.65,0,0,0-.83-.07c-.21,0-.35-.07-.35-.21s.16-.19.47-.19c1.09,0,2.42,0,3,0s5.28,0,5.68,0,.71-.09.88-.11a1.54,1.54,0,0,1,.33-.1c.12,0,.14.1.14.19a8.92,8.92,0,0,0-.17,1.3c0,.22-.07,1.09-.11,1.33s-.08.33-.24.33-.17-.09-.17-.26a1.82,1.82,0,0,0-.14-.73c-.16-.36-.33-.64-1.37-.74-.36-.05-2.84-.09-3.27-.09-.09,0-.14.07-.14.19v5c0,.12,0,.21.14.21.48,0,3.17,0,3.65-.05a1.59,1.59,0,0,0,1-.3c.17-.15.24-.26.33-.26s.17.09.17.21-.05.45-.17,1.47c0,.4-.09,1.2-.09,1.35s0,.45-.22.45-.18-.07-.18-.17,0-.47-.08-.73c-.11-.41-.37-.71-1.16-.78-.37-.05-2.74-.1-3.26-.1-.1,0-.12.1-.12.21v1.61c0,.69,0,2.4,0,3,.05,1.37.69,1.68,2.82,1.68a5.76,5.76,0,0,0,2-.26c.52-.24.76-.67.9-1.49,0-.22.1-.31.24-.31s.19.26.19.47a13.46,13.46,0,0,1-.29,2.23c-.14.52-.33.52-1.11.52-1.56,0-2.82,0-3.83-.07s-1.8-.05-2.42-.05l-1.18,0c-.5,0-1,.05-1.45.05-.26,0-.4-.07-.4-.21s.07-.21.33-.21a2.92,2.92,0,0,0,.74-.08c.42-.09.54-.47.61-1.06.1-.85.1-2.44.1-4.29Z" transform="translate(-109.17 -147.92)"/><path class="cls-1" d="M713.43,373.18c0-3.05,0-3.62,0-4.26s-.24-.9-.9-1.09a3.71,3.71,0,0,0-.83-.07c-.21,0-.36-.07-.36-.21s.17-.19.48-.19c1.09,0,2.41,0,3,0s5.28,0,5.69,0,.71-.09.87-.11a2,2,0,0,1,.33-.1c.12,0,.15.1.15.19a8.92,8.92,0,0,0-.17,1.3c0,.22-.07,1.09-.12,1.33s-.07.33-.23.33-.17-.09-.17-.26a1.82,1.82,0,0,0-.14-.73c-.17-.36-.33-.64-1.38-.74-.35-.05-2.84-.09-3.26-.09-.1,0-.15.07-.15.19v5c0,.12,0,.21.15.21.47,0,3.17,0,3.64-.05a1.62,1.62,0,0,0,1-.3c.16-.15.23-.26.33-.26a.19.19,0,0,1,.17.21c0,.12,0,.45-.17,1.47-.05.4-.1,1.2-.1,1.35s0,.45-.21.45-.19-.07-.19-.17a7.13,7.13,0,0,0-.07-.73c-.12-.41-.38-.71-1.16-.78-.38-.05-2.75-.1-3.27-.1-.09,0-.12.1-.12.21v1.61c0,.69,0,2.4,0,3,0,1.37.69,1.68,2.82,1.68a5.81,5.81,0,0,0,2-.26c.52-.24.76-.67.9-1.49,0-.22.09-.31.23-.31s.19.26.19.47a13.46,13.46,0,0,1-.28,2.23c-.14.52-.33.52-1.11.52-1.57,0-2.82,0-3.84-.07s-1.8-.05-2.41-.05l-1.19,0c-.49,0-1,.05-1.44.05-.26,0-.4-.07-.4-.21s.07-.21.33-.21a2.89,2.89,0,0,0,.73-.08c.43-.09.55-.47.62-1.06.09-.85.09-2.44.09-4.29Z" transform="translate(-109.17 -147.92)"/><path class="cls-1" d="M726.6,373.18c0-3.05,0-3.62,0-4.26s-.23-.9-.9-1.09a3.65,3.65,0,0,0-.83-.07c-.21,0-.35-.07-.35-.21s.17-.19.47-.19c1.09,0,2.42,0,2.84,0l3.25,0a7.32,7.32,0,0,1,4,.85,3.52,3.52,0,0,1,1.47,2.77c0,1.49-.85,2.82-2.89,4.45,1.85,2.27,3.32,4.1,4.57,5.35a3.9,3.9,0,0,0,2.23,1.33,1.81,1.81,0,0,0,.49.05.23.23,0,0,1,.26.21c0,.16-.14.21-.4.21h-2a4.54,4.54,0,0,1-2.27-.4,9.46,9.46,0,0,1-2.84-3c-.83-1.09-1.71-2.44-2-2.75a.47.47,0,0,0-.38-.14l-1.87-.05a.15.15,0,0,0-.16.17v.28c0,1.87,0,3.44.12,4.29.07.59.16,1,.8,1.06a7.59,7.59,0,0,0,1,.08.23.23,0,0,1,.26.21c0,.14-.17.21-.43.21-1.2,0-2.93-.07-3.24-.07s-1.73.07-2.56.07c-.26,0-.4-.07-.4-.21s.07-.21.33-.21a2.92,2.92,0,0,0,.74-.08c.42-.09.54-.47.61-1.06.1-.85.1-2.44.1-4.29Zm2.65,1.56c0,.22,0,.29.19.36a5.75,5.75,0,0,0,1.58.19,2.09,2.09,0,0,0,1.47-.33,3.41,3.41,0,0,0,1.35-3c0-2.84-1.94-3.57-3.17-3.57a7.24,7.24,0,0,0-1.23.07.25.25,0,0,0-.19.28Z" transform="translate(-109.17 -147.92)"/><path class="cls-1" d="M751.36,376.54c-.12,0-.16,0-.21.19L749.87,380a4.46,4.46,0,0,0-.35,1.44c0,.43.21.74.94.74h.36c.28,0,.35,0,.35.18s-.14.24-.4.24c-.76,0-1.77-.07-2.51-.07-.26,0-1.56.07-2.79.07-.31,0-.45-.05-.45-.24s.09-.18.28-.18.55,0,.74-.05c1.08-.14,1.53-.95,2-2.13L754,365.3c.29-.69.43-.95.66-.95s.36.21.6.76c.56,1.3,4.35,10.77,5.87,14.37.9,2.13,1.58,2.46,2.08,2.58a5.36,5.36,0,0,0,1,.1c.19,0,.3,0,.3.18s-.21.24-1.09.24-2.58,0-4.47-.05c-.43,0-.71,0-.71-.19s.09-.18.33-.21a.38.38,0,0,0,.21-.54l-1.89-4.88a.23.23,0,0,0-.24-.17Zm4.83-1.18c.12,0,.15-.07.12-.14l-2.13-5.83c0-.09,0-.21-.12-.21s-.12.12-.14.21l-2.18,5.8c0,.1,0,.17.1.17Z" transform="translate(-109.17 -147.92)"/><path class="cls-1" d="M766.52,373.18c0-3.05,0-3.62,0-4.26s-.23-.9-.9-1.09a3.65,3.65,0,0,0-.83-.07c-.21,0-.35-.07-.35-.21s.17-.19.47-.19c1.09,0,2.42,0,3,0s2.13,0,3.39,0c2.6,0,6.1,0,8.38,2.29a7.09,7.09,0,0,1,2,5.12,7.82,7.82,0,0,1-2.27,5.61c-1,.95-3.15,2.37-7,2.37-.76,0-1.66-.07-2.49-.12s-1.59-.12-2.11-.12l-1.18,0c-.5,0-1,.05-1.45.05-.26,0-.4-.07-.4-.21s.07-.21.33-.21a2.92,2.92,0,0,0,.74-.08c.42-.09.54-.47.61-1.06.1-.85.1-2.44.1-4.29Zm2.79,2.23c0,2.13,0,3.67.05,4.07a3.7,3.7,0,0,0,.23,1.42c.27.38,1.09.81,2.73.81a6.56,6.56,0,0,0,4.54-1.38c1.35-1.11,1.78-2.91,1.78-5a6.55,6.55,0,0,0-1.94-5,8.39,8.39,0,0,0-5.83-1.92,4.67,4.67,0,0,0-1.28.14.36.36,0,0,0-.26.4c0,.69,0,2.35,0,3.93Z" transform="translate(-109.17 -147.92)"/><path class="cls-1" d="M784.23,369.32c-.47-1.11-.78-1.3-1.54-1.49a3.73,3.73,0,0,0-.8-.07c-.19,0-.24-.09-.24-.21s.21-.19.52-.19c1.11,0,2.3,0,3,0,.52,0,1.61,0,2.65,0,.26,0,.5,0,.5.19s-.14.21-.33.21a1.55,1.55,0,0,0-.81.14.44.44,0,0,0-.21.4,5.93,5.93,0,0,0,.47,1.52l3.51,9h.07c.9-2.08,3.57-8.57,4.07-9.9a2.54,2.54,0,0,0,.19-.73c0-.21-.09-.28-.28-.36a3.25,3.25,0,0,0-.83-.09c-.19,0-.36-.07-.36-.21s.19-.19.59-.19c1.05,0,2,0,2.23,0s1.32,0,2,0c.26,0,.43,0,.43.19s-.12.21-.33.21a1.68,1.68,0,0,0-1,.24c-.26.19-.54.49-1.09,1.77-.83,1.9-1.37,3-2.51,5.45-1.32,2.93-2.29,5.14-2.77,6.15s-.71,1.47-1,1.47-.45-.26-.85-1.21Z" transform="translate(-109.17 -147.92)"/><path class="cls-1" d="M800.88,377.49c-.12,0-.15,0-.19.14l-1.12,2.73a3.61,3.61,0,0,0-.3,1.23c0,.35.19.57.82.57h.31c.26,0,.31.09.31.21s-.12.21-.33.21c-.69,0-1.66-.07-2.32-.07-.21,0-1.33.07-2.42.07-.26,0-.38-.05-.38-.21s.08-.21.24-.21l.62,0c.94-.14,1.3-.76,1.73-1.77l5.44-12.58c.24-.56.4-.8.62-.8s.4.19.61.64c.5,1.11,4,9.25,5.3,12.31.81,1.82,1.4,2.08,1.78,2.15a4.79,4.79,0,0,0,.78.08c.19,0,.28.07.28.21s-.11.21-.89.21-2.25,0-4-.05c-.37,0-.61,0-.61-.16s.05-.19.26-.21a.33.33,0,0,0,.19-.45L806,377.63a.2.2,0,0,0-.21-.14Zm4.45-1.11c.09,0,.11-.05.09-.12l-2-5c0-.08-.05-.19-.1-.19s-.09.11-.12.19l-2,5c-.05.09,0,.14.07.14Z" transform="translate(-109.17 -147.92)"/><path class="cls-1" d="M816.24,379.83c0,1.57.31,2,.71,2.18a3.53,3.53,0,0,0,1.09.15c.24,0,.36.09.36.21s-.19.21-.48.21c-1.35,0-2.32-.07-2.7-.07-.18,0-1.18.07-2.24.07-.29,0-.48,0-.48-.21s.14-.21.33-.21a4.32,4.32,0,0,0,.95-.1c.55-.14.62-.69.64-2.44l.19-11.93c0-.4.14-.69.35-.69s.55.31.9.67,3.39,3.45,6.42,6.41c1.42,1.4,4.19,4.24,4.5,4.52h.09l-.21-9c0-1.23-.21-1.58-.71-1.77a3.47,3.47,0,0,0-1.09-.12c-.26,0-.33-.09-.33-.21s.21-.19.52-.19c1.09,0,2.2,0,2.65,0,.24,0,1,0,2,0,.28,0,.47,0,.47.19s-.12.21-.36.21a2.09,2.09,0,0,0-.63.07c-.57.17-.74.52-.76,1.66l-.24,12.69c0,.45-.16.64-.33.64a1.23,1.23,0,0,1-.85-.43c-1.3-1.21-3.91-3.69-6.09-5.8s-4.47-4.62-4.87-5H816Z" transform="translate(-109.17 -147.92)"/><path class="cls-1" d="M837.62,368.59l-3.1.07c-1.21,0-1.7.17-2,.61a2.69,2.69,0,0,0-.36.69c0,.17-.09.26-.23.26s-.19-.12-.19-.33.4-2.27.45-2.44.12-.38.24-.38.37.17.89.24a20,20,0,0,0,2.09.09h8.45a9.07,9.07,0,0,0,1.42-.09c.33-.05.5-.09.57-.09s.17.11.17.42,0,1.92,0,2.44c0,.21-.07.33-.19.33s-.21-.09-.24-.4l0-.21c0-.53-.59-1.14-2.46-1.16l-2.63-.05v8.14c0,1.85,0,3.44.12,4.31.07.57.19.95.8,1a7.48,7.48,0,0,0,1.07.08c.23,0,.33.11.33.21s-.17.21-.4.21c-1.38,0-2.77-.07-3.37-.07s-1.89.07-2.72.07c-.26,0-.4-.07-.4-.21s.07-.21.33-.21a2.68,2.68,0,0,0,.73-.08c.43-.09.55-.47.62-1.06.09-.85.09-2.44.09-4.29Z" transform="translate(-109.17 -147.92)"/><path class="cls-1" d="M849.32,377.49c-.12,0-.14,0-.19.14L848,380.36a3.68,3.68,0,0,0-.31,1.23c0,.35.19.57.83.57h.31c.26,0,.31.09.31.21s-.12.21-.34.21c-.68,0-1.65-.07-2.32-.07-.21,0-1.32.07-2.41.07-.26,0-.38-.05-.38-.21s.07-.21.24-.21l.61,0c1-.14,1.3-.76,1.73-1.77l5.45-12.58c.23-.56.4-.8.61-.8s.4.19.62.64c.49,1.11,4,9.25,5.3,12.31.8,1.82,1.4,2.08,1.77,2.15a4.91,4.91,0,0,0,.79.08c.18,0,.28.07.28.21s-.12.21-.9.21-2.25,0-4-.05c-.38,0-.62,0-.62-.16s0-.19.26-.21a.31.31,0,0,0,.19-.45l-1.61-4.08a.18.18,0,0,0-.21-.14Zm4.45-1.11c.1,0,.12-.05.1-.12l-2-5c0-.08,0-.19-.09-.19s-.1.11-.12.19l-2,5c0,.09,0,.14.07.14Z" transform="translate(-109.17 -147.92)"/><path class="cls-1" d="M876.1,381.23c0,.55,0,.57-.26.71a12.51,12.51,0,0,1-5.09.9c-5.11,0-9.64-2.32-9.64-7.88a7.44,7.44,0,0,1,3.65-6.58,10.45,10.45,0,0,1,5.61-1.31,24.33,24.33,0,0,1,3.69.33,15.9,15.9,0,0,0,1.66.22c.24,0,.28.09.28.23a28,28,0,0,0-.14,3.32c0,.31-.12.45-.28.45s-.19-.1-.22-.26a2.62,2.62,0,0,0-.71-1.66,6.42,6.42,0,0,0-4.52-1.54,5.84,5.84,0,0,0-4,1.19c-1.16.94-1.92,2.43-1.92,4.9,0,4.33,2.79,7.48,7.24,7.48a3.44,3.44,0,0,0,1.47-.21.67.67,0,0,0,.4-.71V379c0-1,0-1.75,0-2.37s-.24-.9-.9-1.09a3.54,3.54,0,0,0-.8-.07c-.19,0-.33-.09-.33-.21s.16-.19.45-.19c1.08,0,2.58.05,3.19.05s1.75-.05,2.44-.05c.28,0,.43,0,.43.19a.24.24,0,0,1-.27.21,2.58,2.58,0,0,0-.56.07c-.57.1-.78.38-.81,1.09s0,1.42,0,2.42Z" transform="translate(-109.17 -147.92)"/><path class="cls-1" d="M881.93,373.18c0-3.05,0-3.62,0-4.26s-.23-.9-.9-1.09a3.65,3.65,0,0,0-.83-.07c-.21,0-.35-.07-.35-.21s.16-.19.47-.19c1.09,0,2.42,0,3,0s5.28,0,5.68,0,.71-.09.88-.11a1.54,1.54,0,0,1,.33-.1c.12,0,.14.1.14.19a8.92,8.92,0,0,0-.17,1.3c0,.22-.07,1.09-.11,1.33s-.08.33-.24.33-.17-.09-.17-.26a1.82,1.82,0,0,0-.14-.73c-.16-.36-.33-.64-1.37-.74-.36-.05-2.84-.09-3.27-.09-.09,0-.14.07-.14.19v5c0,.12,0,.21.14.21.47,0,3.17,0,3.65-.05a1.59,1.59,0,0,0,1-.3c.17-.15.24-.26.33-.26s.17.09.17.21,0,.45-.17,1.47c0,.4-.09,1.2-.09,1.35s0,.45-.22.45-.18-.07-.18-.17,0-.47-.08-.73c-.11-.41-.37-.71-1.16-.78-.37-.05-2.74-.1-3.26-.1-.1,0-.12.1-.12.21v1.61c0,.69,0,2.4,0,3,0,1.37.69,1.68,2.82,1.68a5.76,5.76,0,0,0,2-.26c.52-.24.76-.67.9-1.49.05-.22.1-.31.24-.31s.19.26.19.47a13.46,13.46,0,0,1-.29,2.23c-.14.52-.33.52-1.11.52-1.56,0-2.82,0-3.83-.07s-1.8-.05-2.42-.05l-1.18,0c-.5,0-1,.05-1.45.05-.26,0-.4-.07-.4-.21s.07-.21.33-.21a2.92,2.92,0,0,0,.74-.08c.42-.09.54-.47.61-1.06.1-.85.1-2.44.1-4.29Z" transform="translate(-109.17 -147.92)"/><path class="cls-5" d="M146.72,326.81c-9-35.45,6.68-73.94,34.16-97C176.3,247.34,167.6,264.4,169.09,283a10.7,10.7,0,0,0,10.41,10c17.79-.34,34.1-8.31,51.19-12.18-16.88,11.84-35.27,23.95-44.41,43.21-2,5-4.78,10.35-4.19,15.77,7.78,14.54,20.94,25,33.87,34.8C203,371.28,192,363.39,181.53,355.48c2.87,13.46,8.46,26.08,13.78,38.7C169.17,381.38,153.87,354,146.72,326.81Z" transform="translate(-109.17 -147.92)"/><circle class="cls-5" cx="80.21" cy="125.7" r="12.22"/><path class="cls-5" d="M187.4,229.42l.17,3.58a.71.71,0,0,0-.21,0l-23.13,1.45a1.46,1.46,0,0,1-1.49-.89,1.86,1.86,0,0,1,.09-1.89,1.48,1.48,0,0,1,1.23-.72l6.11-.39,17-1.07A2.23,2.23,0,0,0,187.4,229.42Z" transform="translate(-109.17 -147.92)"/><path class="cls-5" d="M195.45,238.17l-4.93.29c0-.39-.07-.77-.07-1.16a.67.67,0,0,1,.17-.36c.29-.35.6-.68.89-1a.76.76,0,0,0,.12-.19,2.17,2.17,0,0,0-.39-2.24,1.37,1.37,0,0,0-1-.33l-1,.07-.22-4a2.71,2.71,0,0,0,.29,0l2.08-.11c.36,0,.5-.18.49-.56a9.13,9.13,0,0,0-.95-3.51c-.52-1.09-1-2.2-1.49-3.3a.87.87,0,0,0,0-.12c.3.27.64.55.95.85.8.76,1.59,1.53,2.38,2.3a8.11,8.11,0,0,1,2.15,3.7.5.5,0,0,1,0,.12c.08,1.43.16,2.85.24,4.23a5,5,0,0,0-.77.34,1.28,1.28,0,0,0-.6,1.14c0,.24,0,.48,0,.72a1.45,1.45,0,0,0,.49.91c.27.25.54.5.83.74a.66.66,0,0,1,.26.54C195.4,237.53,195.43,237.85,195.45,238.17Z" transform="translate(-109.17 -147.92)"/><path class="cls-3" d="M286.07,287.08a3.57,3.57,0,1,0,1.7,4.76A3.61,3.61,0,0,0,286.07,287.08Zm0,4a1.75,1.75,0,1,1-.76-2.35A1.74,1.74,0,0,1,286.09,291.1Z" transform="translate(-109.17 -147.92)"/><path class="cls-3" d="M292.82,270.49c-7.23-15.28-6.4-32.65-10.5-48.76-1.38,6.8-1.22,13.75-1.59,20.65-.73,15.58-1.49,31.2-1.39,46.8a5.26,5.26,0,0,1,6.21-4.06c.45.09.6,0,.77-.4.73-1.53,2-4.43,2.72-5.94a9.7,9.7,0,0,1,5.78-4.92A14.78,14.78,0,0,1,292.82,270.49Z" transform="translate(-109.17 -147.92)"/><path class="cls-3" d="M310.87,308.85c-2-6.48,1.11-14.6,7.86-16.79,13.8-5.4,28,1.61,42,2.66-5-4.63-10.52-9-17-11.36-11.72-4.6-24.51-1.12-36.66-2.95a9.39,9.39,0,0,1-.15,5.76,35.42,35.42,0,0,1-1.54,3.38c-.51,1.08-1.54,3.54-2.07,4.6-.12.25-.13.39.12.57a9.87,9.87,0,0,1,3.41,5.57,1,1,0,0,1,0,.58,2.31,2.31,0,0,0,0,1.4,18.24,18.24,0,0,1-1.67,10.81,9.82,9.82,0,0,1-1,1.49,4.21,4.21,0,0,1-4.22,1.63c-.55-.08-1.11-.19-1.66-.3a2.59,2.59,0,0,0-1.63,0,1.28,1.28,0,0,1-1.6-.83,1.41,1.41,0,0,1,2.36-1.45,1.68,1.68,0,0,0,.68.43,13.45,13.45,0,0,0,1.4.31c2.14.38,3-.08,4.06-2a15.42,15.42,0,0,0,1.64-6.89c0-.9-.06-1.81-.12-2.72a1.65,1.65,0,0,0-.53-1.32c-.19-.16-.22-.51-.33-.76a19.79,19.79,0,0,0-1.19-2.55,4.33,4.33,0,0,0-4.42-2.06,22.94,22.94,0,0,0-2.69.66c-.22.06-.47.2-.67.14a1.52,1.52,0,0,0-1.29.34,16.4,16.4,0,0,0-6.78,7.23,8.82,8.82,0,0,0-.41,1.12,2.42,2.42,0,0,0,.6,2.48c.64.64,1.34,1.23,2,1.82a.79.79,0,0,0,.46.12,1.39,1.39,0,0,1,1.39,1.28,1.4,1.4,0,0,1-2.76.46A1.71,1.71,0,0,0,288,311c-.55-.52-1.15-1-1.7-1.52a4.4,4.4,0,0,1-1.07-5.05,16.92,16.92,0,0,1,6.31-7.84c.49-.36,1-.67,1.54-1s.93-.43,1.16-1a1,1,0,0,1,.52-.36,9.81,9.81,0,0,1,6.49-.66.42.42,0,0,0,.38-.14c1.08-2.24,2.78-5.81,3.65-8.13a7.13,7.13,0,0,0-.23-5.31,18.92,18.92,0,0,1-8.86-4.72,8.05,8.05,0,0,0-4.7,2.93,6.87,6.87,0,0,0-.7,1.08c-.83,1.64-2.12,4.68-2.93,6.33-.05.1-.09.21-.14.34a5.32,5.32,0,0,1,1.6,6.7,5.32,5.32,0,0,1-9.92-1.18c.11,8.59.48,17.17,1.28,25.73,2.17,23.61,7.71,47.34,19.45,68.12,8.77,13.45,19.13,26.13,32,35.84C320,396.78,304.86,372.81,302,345.08c14.83.17,29.1,4.66,43.53,7.68C329.85,342.26,315.36,327.78,310.87,308.85Z" transform="translate(-109.17 -147.92)"/><circle class="cls-3" cx="199.51" cy="112.13" r="13.46"/><path class="cls-2" d="M271.56,263.05c-3.61,14.71-3.57,30.28-9.37,44.46-2.31,5.83-5.56,12.19-11.94,14.29l-.36.11,3.43,1.24-.06,1.18c0,.85-.06,1.7-.1,2.64-1.11.23-2.2.48-3.31.65a1.17,1.17,0,0,1-.8-.42c-.27-.33-.52-.67-.82-1L247,324.56c.06-.17,1.08-1.48,1.72-2.28-12.12,3.55-25-1.47-37.31,1.23-7.79,1.52-13.15,6.32-18.89,11.57,12-1.23,22.7-4.71,34.8-2.91,7.1,1.35,14.63,7.89,12.65,15.83-2.83,19.41-18.47,33.28-33.68,43.95,13.51-.86,26.78-4,40.33-4.55-3.25,27.9-12.86,42.4-26,66.39,26.73-18.12,37.47-38.75,44.69-70C274.87,344.34,273.1,303.29,271.56,263.05Zm-11.43,91.39c-1.45,2.11-3,4.19-4.68,6.42-1.56-1.58-3.1-3.06-4.64-4.59a1.63,1.63,0,0,1-.22-1.09,126.57,126.57,0,0,0-.55-24.29c-.07-.51-.08-1.39.14-1.47a13.23,13.23,0,0,1,3-.58c.13,0,.4.51.53.81A92.63,92.63,0,0,1,258,342.09a87.51,87.51,0,0,1,2.37,11.18A1.84,1.84,0,0,1,260.13,354.44Z" transform="translate(-109.17 -147.92)"/></svg>