<?xml version="1.0" encoding="utf-8"?>
<!-- Generator: Adobe Illustrator 26.0.2, SVG Export Plug-In . SVG Version: 6.00 Build 0)  -->
<svg version="1.1" id="Layer_1" xmlns="http://www.w3.org/2000/svg" xmlns:xlink="http://www.w3.org/1999/xlink" x="0px" y="0px"
	 viewBox="0 0 720 283.4" style="enable-background:new 0 0 720 283.4;" xml:space="preserve">
<style type="text/css">
	.st0{fill:#FFDA00;}
	.st1{fill-rule:evenodd;clip-rule:evenodd;fill:none;stroke:#FFDA00;stroke-width:1.8115;stroke-miterlimit:10;}
	.st2{fill:#084CA1;}
</style>
<g>
	<g>
		<path class="st0" d="M77.5,46.5c10.7,2.6,100.2,47.1,106.9,58.9c2.6,5,0.2,14.4,4.4,39.3c36.9,0,33.6,4.6,54.6,32.7
			c-15.9,0-29.5,3.5-61.1,8.7c-2.4,15.5-21.2,16.4-39.3,21.8c-9.4,3.1-64.6,25.1-76.4,26.2c4.8-12.2,42.3-46.7,56.7-52.4
			c-41-61.8-53-33.2-96-50.2c8.3-50.4,44.7,0,104.8,0C145.8,86.9,58.5,78.4,77.5,46.5z"/>
		<line class="st1" x1="37.1" y1="163.3" x2="299" y2="91.3"/>
		<line class="st1" x1="228.6" y1="37.2" x2="228.6" y2="234.9"/>
		<line class="st1" x1="37.1" y1="220.1" x2="288.1" y2="73.8"/>
		<line class="st1" x1="102.6" y1="36.7" x2="331.8" y2="174.2"/>
		<line class="st1" x1="242.3" y1="45.5" x2="198.7" y2="232.7"/>
		<line class="st1" x1="148.5" y1="30.2" x2="331.8" y2="220.1"/>
		<line class="st1" x1="210" y1="39.3" x2="262.4" y2="233.6"/>
		<line class="st1" x1="21.9" y1="110.9" x2="319.8" y2="110.9"/>
		<line class="st1" x1="65.5" y1="67.3" x2="327.4" y2="137.1"/>
		<path class="st0" d="M225.9,82.1c15.7,0,28.4,12.7,28.4,28.4c0,15.7-12.7,28.4-28.4,28.4c-15.7,0-28.4-12.7-28.4-28.4
			C197.6,94.8,210.3,82.1,225.9,82.1z"/>
		<line class="st1" x1="107" y1="233.2" x2="277.2" y2="58.5"/>
		<line class="st1" x1="184.9" y1="31.7" x2="300.6" y2="232.5"/>
		<line class="st1" x1="257.6" y1="54.2" x2="153.3" y2="232.7"/>
	</g>
	<g>
		<path class="st2" d="M195.1,152.7c-3.6,1.6-7.7,2.5-12.4,2.5c-4.3,0-8.2-0.7-11.8-2.1c-3.6-1.4-6.7-3.4-9.4-6
			c-2.6-2.6-4.7-5.6-6.2-9.2c-1.5-3.6-2.3-7.5-2.3-11.8c0-4.4,0.8-8.4,2.3-12c1.5-3.6,3.6-6.6,6.3-9.2c2.7-2.5,5.9-4.5,9.5-5.8
			c3.6-1.3,7.6-2,11.8-2c3.9,0,7.7,0.7,11.5,2.1c3.8,1.4,6.8,3.4,9.2,6l-9,9c-1.2-1.7-2.9-3-4.9-3.8c-2-0.8-4.1-1.2-6.2-1.2
			c-2.3,0-4.5,0.4-6.4,1.3c-1.9,0.9-3.6,2-5,3.5c-1.4,1.5-2.5,3.3-3.3,5.3c-0.8,2.1-1.2,4.3-1.2,6.7c0,2.5,0.4,4.8,1.2,6.9
			c0.8,2.1,1.9,3.9,3.2,5.3c1.4,1.5,3,2.6,4.9,3.5c1.9,0.8,4,1.2,6.3,1.2c2.6,0,5-0.5,6.9-1.6c2-1,3.6-2.4,4.8-4.1l9.3,8.7
			C201.7,148.9,198.7,151.1,195.1,152.7z"/>
		<path class="st2" d="M250.8,153.7l-4.3-10.8h-21.3l-4,10.8h-14.5l23.1-55.1h12.9l22.9,55.1H250.8z M236,113.3l-7,18.9h13.9
			L236,113.3z"/>
		<path class="st2" d="M316.5,115.6c0,3.2-0.6,5.9-1.8,8.1c-1.2,2.2-2.8,4-4.8,5.3c-2,1.4-4.4,2.3-7,3c-2.6,0.6-5.4,0.9-8.3,0.9H288
			v20.8h-13.3V98.6h20.3c3,0,5.8,0.3,8.5,0.9c2.6,0.6,4.9,1.6,6.9,2.9c1.9,1.3,3.5,3.1,4.6,5.2C316,109.7,316.5,112.4,316.5,115.6z
			 M303.2,115.6c0-1.3-0.3-2.4-0.8-3.2c-0.5-0.8-1.2-1.5-2.1-1.9c-0.9-0.5-1.9-0.8-3-0.9c-1.1-0.2-2.3-0.2-3.5-0.2H288v13h5.6
			c1.2,0,2.4-0.1,3.6-0.3c1.1-0.2,2.2-0.6,3.1-1.1c0.9-0.5,1.6-1.2,2.1-2.1C302.9,118,303.2,116.9,303.2,115.6z"/>
		<path class="st2" d="M329.1,153.7V98.6h13.4v55.1H329.1z"/>
		<path class="st2" d="M387.5,112.9c-1.1-1.5-2.6-2.6-4.5-3.5c-1.8-0.9-3.6-1.3-5.3-1.3c-0.9,0-1.8,0.1-2.7,0.2
			c-0.9,0.2-1.7,0.5-2.5,0.9c-0.7,0.4-1.3,1-1.8,1.7c-0.5,0.7-0.7,1.6-0.7,2.7c0,0.9,0.2,1.7,0.6,2.3c0.4,0.6,1,1.2,1.7,1.6
			c0.8,0.5,1.6,0.9,2.7,1.3s2.2,0.8,3.5,1.2c1.9,0.6,3.8,1.3,5.8,2.1c2,0.8,3.9,1.8,5.5,3c1.7,1.2,3,2.8,4.1,4.6
			c1.1,1.8,1.6,4.1,1.6,6.9c0,3.2-0.6,5.9-1.8,8.2c-1.2,2.3-2.7,4.2-4.7,5.7c-2,1.5-4.2,2.6-6.8,3.3c-2.5,0.7-5.2,1.1-7.9,1.1
			c-3.9,0-7.8-0.7-11.5-2.1c-3.7-1.4-6.8-3.3-9.2-5.9l8.7-8.9c1.3,1.7,3.1,3,5.3,4.2c2.2,1.1,4.4,1.7,6.6,1.7c1,0,1.9-0.1,2.9-0.3
			c0.9-0.2,1.8-0.5,2.5-1c0.7-0.5,1.3-1.1,1.7-1.9c0.4-0.8,0.6-1.7,0.6-2.8c0-1-0.3-1.9-0.8-2.6c-0.5-0.7-1.3-1.4-2.2-2
			c-1-0.6-2.2-1.1-3.6-1.6c-1.4-0.5-3-1-4.9-1.6c-1.8-0.6-3.5-1.2-5.2-2c-1.7-0.8-3.2-1.8-4.5-3c-1.3-1.2-2.4-2.7-3.2-4.4
			c-0.8-1.7-1.2-3.9-1.2-6.3c0-3.1,0.6-5.7,1.9-7.9c1.2-2.2,2.9-4,4.9-5.4c2-1.4,4.3-2.4,6.9-3.1c2.5-0.6,5.1-1,7.7-1
			c3.1,0,6.3,0.6,9.5,1.7c3.2,1.1,6.1,2.8,8.5,5.1L387.5,112.9z"/>
		<path class="st2" d="M431.5,109.9v43.8h-13.3v-43.8h-15.6V98.6h44.5v11.4H431.5z"/>
		<path class="st2" d="M487.2,153.7l-12-21.9h-4.5v21.9h-13V98.6h21c2.6,0,5.2,0.3,7.8,0.8c2.5,0.5,4.8,1.5,6.8,2.8
			c2,1.3,3.6,3,4.8,5.1c1.2,2.1,1.8,4.8,1.8,7.9c0,3.7-1,6.9-3,9.4c-2,2.5-4.8,4.4-8.4,5.5l14.4,23.6H487.2z M486.6,115.5
			c0-1.3-0.3-2.3-0.8-3.2c-0.5-0.8-1.3-1.4-2.1-1.9c-0.9-0.4-1.8-0.7-2.9-0.9c-1.1-0.2-2.1-0.2-3.1-0.2h-7.1v12.9h6.3
			c1.1,0,2.2-0.1,3.4-0.3s2.2-0.5,3.1-1c0.9-0.5,1.7-1.1,2.3-2C486.3,118,486.6,116.9,486.6,115.5z"/>
		<path class="st2" d="M551.2,153.7l-4.3-10.8h-21.3l-4,10.8H507l23.1-55.1h12.9l22.9,55.1H551.2z M536.4,113.3l-7,18.9h13.9
			L536.4,113.3z"/>
		<path class="st2" d="M610.2,153.7L588,117.7h-0.2l0.3,36.1h-12.9V98.6h15.2l22.1,36h0.2l-0.3-36h12.9v55.1H610.2z"/>
		<path class="st2" d="M698.7,125.9c0,4.4-0.8,8.3-2.3,12c-1.5,3.6-3.6,6.7-6.3,9.3c-2.7,2.6-5.9,4.6-9.5,6c-3.7,1.4-7.7,2.1-12,2.1
			c-4.3,0-8.3-0.7-12-2.1c-3.7-1.4-6.8-3.4-9.5-6c-2.7-2.6-4.8-5.7-6.3-9.3c-1.5-3.6-2.3-7.6-2.3-12c0-4.4,0.8-8.4,2.3-12
			c1.5-3.6,3.6-6.6,6.3-9.1c2.7-2.5,5.8-4.4,9.5-5.8c3.7-1.3,7.6-2,12-2c4.3,0,8.3,0.7,12,2c3.7,1.3,6.9,3.3,9.5,5.8
			c2.7,2.5,4.8,5.5,6.3,9.1C697.9,117.5,698.7,121.5,698.7,125.9z M684.4,125.9c0-2.4-0.4-4.6-1.2-6.7c-0.8-2.1-1.9-3.9-3.2-5.3
			c-1.4-1.5-3-2.6-5-3.5c-1.9-0.9-4.1-1.3-6.4-1.3s-4.5,0.4-6.4,1.3c-1.9,0.9-3.6,2-5,3.5c-1.4,1.5-2.5,3.3-3.2,5.3
			c-0.8,2.1-1.1,4.3-1.1,6.7c0,2.5,0.4,4.8,1.2,6.9c0.8,2.1,1.9,3.9,3.2,5.4c1.4,1.5,3,2.7,4.9,3.5c1.9,0.9,4.1,1.3,6.4,1.3
			s4.5-0.4,6.4-1.3c1.9-0.9,3.6-2,5-3.5c1.4-1.5,2.5-3.3,3.3-5.4C684,130.7,684.4,128.4,684.4,125.9z"/>
		<path class="st2" d="M162.8,187c-1.9,0-3.5-0.3-4.7-1c-1.2-0.7-2.2-1.5-2.9-2.5c-0.7-1-1.2-2.1-1.5-3.3c-0.3-1.2-0.4-2.3-0.4-3.4
			v-16.1h2.6v15.8c0,1,0.1,2,0.4,3c0.2,1,0.6,1.8,1.2,2.6c0.5,0.8,1.3,1.4,2.2,1.8c0.9,0.5,2,0.7,3.3,0.7c1.3,0,2.4-0.2,3.3-0.7
			c0.9-0.5,1.6-1.1,2.2-1.8c0.5-0.8,0.9-1.6,1.2-2.6c0.2-1,0.4-2,0.4-3v-15.8h2.6v16.1c0,1.1-0.1,2.2-0.4,3.4
			c-0.3,1.2-0.8,2.3-1.5,3.3c-0.7,1-1.7,1.9-3,2.5C166.2,186.6,164.7,187,162.8,187z"/>
		<path class="st2" d="M200.5,182.5L200.5,182.5l0.1-21.8h2.6v25.7h-3.3L185,164.3h-0.1v22.1h-2.6v-25.7h3.3L200.5,182.5z"/>
		<path class="st2" d="M215.8,186.3h-2.6v-25.7h2.6V186.3z"/>
		<path class="st2" d="M228.5,186.3h-2.6v-25.7h15.5v2.3h-12.9v8.9h12v2.3h-12V186.3z"/>
		<path class="st2" d="M252.1,186.3h-2.6v-25.7h2.6V186.3z"/>
		<path class="st2" d="M264.8,184h13.7v2.3h-16.3v-25.7h15.9v2.3h-13.3v8.8h12.4v2.3h-12.4V184z"/>
		<path class="st2" d="M286.9,160.7h8.5c1.6,0,3.2,0.3,4.8,0.8c1.6,0.5,3.1,1.3,4.3,2.4c1.3,1.1,2.3,2.4,3.1,4
			c0.8,1.6,1.2,3.5,1.2,5.6c0,2.1-0.4,4-1.2,5.6c-0.8,1.6-1.8,2.9-3.1,4c-1.3,1.1-2.7,1.9-4.3,2.4c-1.6,0.5-3.2,0.8-4.8,0.8h-8.5
			V160.7z M289.5,184h5.2c1.9,0,3.6-0.3,5.1-0.9c1.4-0.6,2.6-1.4,3.6-2.4c0.9-1,1.6-2.1,2.1-3.4c0.5-1.3,0.7-2.5,0.7-3.9
			c0-1.3-0.2-2.6-0.7-3.9c-0.5-1.3-1.2-2.4-2.1-3.4c-0.9-1-2.1-1.8-3.6-2.4c-1.4-0.6-3.1-0.9-5.1-0.9h-5.2V184z"/>
		<path class="st2" d="M342.4,164.8c-0.6-0.8-1.3-1.4-2.1-1.9c-0.9-0.5-1.9-0.7-3.2-0.7c-0.6,0-1.3,0.1-1.9,0.3
			c-0.7,0.2-1.2,0.5-1.8,0.9c-0.5,0.4-1,0.9-1.3,1.5c-0.3,0.6-0.5,1.3-0.5,2.1c0,0.8,0.2,1.5,0.5,2c0.3,0.5,0.7,1,1.2,1.4
			c0.5,0.4,1.1,0.7,1.8,0.9c0.7,0.2,1.4,0.5,2.1,0.7c0.9,0.3,1.8,0.6,2.7,0.9c0.9,0.3,1.7,0.8,2.4,1.3c0.7,0.5,1.3,1.2,1.8,2.1
			c0.5,0.8,0.7,1.9,0.7,3.2c0,1.3-0.2,2.4-0.7,3.3c-0.5,0.9-1.1,1.7-1.9,2.3c-0.8,0.6-1.7,1.1-2.7,1.3c-1,0.3-2,0.4-3,0.4
			c-0.8,0-1.5-0.1-2.3-0.2c-0.8-0.2-1.5-0.4-2.2-0.7c-0.7-0.3-1.4-0.7-2-1.2c-0.6-0.5-1.1-1-1.6-1.7l2.2-1.7
			c0.6,0.9,1.3,1.7,2.3,2.3c1,0.6,2.2,0.9,3.5,0.9c0.7,0,1.3-0.1,2-0.3c0.7-0.2,1.3-0.5,1.8-0.9c0.5-0.4,1-0.9,1.3-1.6
			c0.4-0.6,0.5-1.3,0.5-2.2c0-0.9-0.2-1.6-0.5-2.2c-0.4-0.6-0.8-1.1-1.4-1.5c-0.6-0.4-1.2-0.7-2-1c-0.7-0.3-1.5-0.5-2.4-0.8
			c-0.8-0.3-1.7-0.6-2.5-0.9c-0.8-0.3-1.6-0.8-2.2-1.3c-0.7-0.5-1.2-1.2-1.6-2c-0.4-0.8-0.6-1.8-0.6-2.9c0-1.2,0.2-2.3,0.7-3.2
			c0.5-0.9,1.1-1.6,1.9-2.2c0.8-0.6,1.7-1,2.6-1.3c1-0.3,1.9-0.4,2.9-0.4c1.7,0,3.2,0.3,4.5,0.9c1.2,0.6,2.2,1.3,2.8,2.2
			L342.4,164.8z"/>
		<path class="st2" d="M375.2,182.2c-0.4,0.7-1,1.3-1.6,1.8c-0.6,0.6-1.3,1.1-2.1,1.5c-0.8,0.4-1.7,0.8-2.7,1c-1,0.3-2,0.4-3.2,0.4
			c-1.9,0-3.7-0.3-5.4-1c-1.6-0.7-3.1-1.6-4.2-2.8c-1.2-1.2-2.1-2.6-2.8-4.3c-0.7-1.6-1-3.4-1-5.4c0-2,0.3-3.8,1-5.4
			c0.7-1.6,1.6-3.1,2.8-4.3c1.2-1.2,2.6-2.1,4.2-2.8c1.6-0.7,3.4-1,5.3-1c0.9,0,1.9,0.1,2.8,0.3c0.9,0.2,1.8,0.5,2.6,0.8
			c0.8,0.4,1.5,0.8,2.2,1.3c0.7,0.5,1.2,1.1,1.6,1.7l-2.2,1.6c-0.3-0.4-0.6-0.8-1.1-1.2c-0.4-0.4-1-0.8-1.6-1.1
			c-0.6-0.3-1.3-0.6-2-0.8c-0.7-0.2-1.5-0.3-2.3-0.3c-1.7,0-3.2,0.3-4.5,0.9c-1.3,0.6-2.4,1.4-3.4,2.4c-0.9,1-1.6,2.2-2.1,3.6
			c-0.5,1.3-0.7,2.8-0.7,4.3c0,1.5,0.2,2.9,0.7,4.3c0.5,1.3,1.2,2.5,2.1,3.6c0.9,1,2,1.8,3.4,2.4c1.3,0.6,2.8,0.9,4.4,0.9
			c1.5,0,2.9-0.3,4.2-0.9c1.3-0.6,2.4-1.6,3.3-2.9L375.2,182.2z"/>
		<path class="st2" d="M383,160.7h2.6v11.1h14v-11.1h2.6v25.7h-2.6v-12.1h-14v12.1H383V160.7z"/>
		<path class="st2" d="M437.6,173.5c0,2-0.3,3.8-1,5.4c-0.7,1.6-1.6,3.1-2.8,4.3c-1.2,1.2-2.6,2.1-4.2,2.8c-1.6,0.7-3.4,1-5.3,1
			c-1.9,0-3.7-0.3-5.3-1c-1.6-0.7-3-1.6-4.2-2.8c-1.2-1.2-2.1-2.6-2.8-4.3c-0.7-1.6-1-3.4-1-5.4c0-2,0.3-3.8,1-5.4
			c0.7-1.6,1.6-3.1,2.8-4.3c1.2-1.2,2.6-2.1,4.2-2.8c1.6-0.7,3.4-1,5.3-1c1.9,0,3.7,0.3,5.3,1c1.6,0.7,3,1.6,4.2,2.8
			c1.2,1.2,2.1,2.6,2.8,4.3C437.3,169.7,437.6,171.5,437.6,173.5z M434.8,173.5c0-1.5-0.2-2.9-0.7-4.3c-0.5-1.4-1.2-2.5-2.1-3.6
			c-0.9-1-2-1.8-3.4-2.4c-1.3-0.6-2.8-0.9-4.4-0.9c-1.6,0-3.1,0.3-4.4,0.9c-1.3,0.6-2.4,1.4-3.4,2.4c-0.9,1-1.6,2.2-2.1,3.6
			c-0.5,1.3-0.7,2.8-0.7,4.3c0,1.5,0.2,2.9,0.7,4.3c0.5,1.4,1.2,2.5,2.1,3.5c0.9,1,2,1.8,3.4,2.4c1.3,0.6,2.8,0.9,4.4,0.9
			c1.6,0,3.1-0.3,4.4-0.9c1.3-0.6,2.4-1.4,3.4-2.4c0.9-1,1.6-2.2,2.1-3.5C434.6,176.4,434.8,175,434.8,173.5z"/>
		<path class="st2" d="M471.7,173.5c0,2-0.3,3.8-1,5.4c-0.7,1.6-1.6,3.1-2.8,4.3c-1.2,1.2-2.6,2.1-4.2,2.8c-1.6,0.7-3.4,1-5.3,1
			c-1.9,0-3.7-0.3-5.3-1c-1.6-0.7-3-1.6-4.2-2.8c-1.2-1.2-2.1-2.6-2.8-4.3c-0.7-1.6-1-3.4-1-5.4c0-2,0.3-3.8,1-5.4
			c0.7-1.6,1.6-3.1,2.8-4.3c1.2-1.2,2.6-2.1,4.2-2.8c1.6-0.7,3.4-1,5.3-1c1.9,0,3.7,0.3,5.3,1c1.6,0.7,3,1.6,4.2,2.8
			c1.2,1.2,2.1,2.6,2.8,4.3C471.3,169.7,471.7,171.5,471.7,173.5z M468.9,173.5c0-1.5-0.2-2.9-0.7-4.3c-0.5-1.4-1.2-2.5-2.1-3.6
			c-0.9-1-2-1.8-3.4-2.4c-1.3-0.6-2.8-0.9-4.4-0.9c-1.6,0-3.1,0.3-4.4,0.9c-1.3,0.6-2.4,1.4-3.4,2.4c-0.9,1-1.6,2.2-2.1,3.6
			c-0.5,1.3-0.7,2.8-0.7,4.3c0,1.5,0.2,2.9,0.7,4.3c0.5,1.4,1.2,2.5,2.1,3.5c0.9,1,2,1.8,3.4,2.4c1.3,0.6,2.8,0.9,4.4,0.9
			c1.6,0,3.1-0.3,4.4-0.9c1.3-0.6,2.4-1.4,3.4-2.4c0.9-1,1.6-2.2,2.1-3.5C468.7,176.4,468.9,175,468.9,173.5z"/>
		<path class="st2" d="M483,184h12v2.3h-14.6v-25.7h2.6V184z"/>
		<path class="st2" d="M513.5,160.7h8.5c1.6,0,3.2,0.3,4.8,0.8c1.6,0.5,3.1,1.3,4.3,2.4c1.3,1.1,2.3,2.4,3.1,4
			c0.8,1.6,1.2,3.5,1.2,5.6c0,2.1-0.4,4-1.2,5.6c-0.8,1.6-1.8,2.9-3.1,4c-1.3,1.1-2.7,1.9-4.3,2.4c-1.6,0.5-3.2,0.8-4.8,0.8h-8.5
			V160.7z M516.1,184h5.2c1.9,0,3.6-0.3,5.1-0.9c1.4-0.6,2.6-1.4,3.6-2.4c0.9-1,1.6-2.1,2.1-3.4c0.5-1.3,0.7-2.5,0.7-3.9
			c0-1.3-0.2-2.6-0.7-3.9c-0.5-1.3-1.2-2.4-2.1-3.4c-0.9-1-2.1-1.8-3.6-2.4c-1.4-0.6-3.1-0.9-5.1-0.9h-5.2V184z"/>
		<path class="st2" d="M546.8,186.3h-2.6v-25.7h2.6V186.3z"/>
		<path class="st2" d="M569.3,164.8c-0.6-0.8-1.3-1.4-2.1-1.9c-0.9-0.5-1.9-0.7-3.2-0.7c-0.6,0-1.3,0.1-1.9,0.3
			c-0.7,0.2-1.2,0.5-1.8,0.9c-0.5,0.4-1,0.9-1.3,1.5c-0.3,0.6-0.5,1.3-0.5,2.1c0,0.8,0.2,1.5,0.5,2c0.3,0.5,0.7,1,1.2,1.4
			c0.5,0.4,1.1,0.7,1.8,0.9c0.7,0.2,1.4,0.5,2.1,0.7c0.9,0.3,1.8,0.6,2.7,0.9c0.9,0.3,1.7,0.8,2.4,1.3c0.7,0.5,1.3,1.2,1.8,2.1
			c0.5,0.8,0.7,1.9,0.7,3.2c0,1.3-0.2,2.4-0.7,3.3c-0.5,0.9-1.1,1.7-1.9,2.3c-0.8,0.6-1.7,1.1-2.7,1.3c-1,0.3-2,0.4-3,0.4
			c-0.8,0-1.5-0.1-2.3-0.2c-0.8-0.2-1.5-0.4-2.2-0.7c-0.7-0.3-1.4-0.7-2-1.2c-0.6-0.5-1.1-1-1.6-1.7l2.2-1.7
			c0.6,0.9,1.3,1.7,2.3,2.3c1,0.6,2.2,0.9,3.5,0.9c0.7,0,1.3-0.1,2-0.3c0.7-0.2,1.3-0.5,1.8-0.9c0.5-0.4,1-0.9,1.3-1.6
			c0.4-0.6,0.5-1.3,0.5-2.2c0-0.9-0.2-1.6-0.5-2.2c-0.4-0.6-0.8-1.1-1.4-1.5c-0.6-0.4-1.2-0.7-2-1c-0.7-0.3-1.5-0.5-2.4-0.8
			c-0.8-0.3-1.7-0.6-2.5-0.9c-0.8-0.3-1.6-0.8-2.2-1.3c-0.7-0.5-1.2-1.2-1.6-2c-0.4-0.8-0.6-1.8-0.6-2.9c0-1.2,0.2-2.3,0.7-3.2
			c0.5-0.9,1.1-1.6,1.9-2.2c0.8-0.6,1.7-1,2.6-1.3c1-0.3,1.9-0.4,2.9-0.4c1.7,0,3.2,0.3,4.5,0.9c1.2,0.6,2.2,1.3,2.8,2.2
			L569.3,164.8z"/>
		<path class="st2" d="M588.2,186.3h-2.6V163H577v-2.3h19.8v2.3h-8.6V186.3z"/>
		<path class="st2" d="M606.5,186.3h-2.6v-25.7h7.5c1.3,0,2.4,0.1,3.5,0.4c1.1,0.2,2,0.6,2.8,1.2c0.8,0.5,1.4,1.2,1.8,2.1
			c0.4,0.9,0.7,1.9,0.7,3.2c0,0.9-0.2,1.8-0.5,2.6s-0.8,1.4-1.4,2c-0.6,0.6-1.3,1-2.1,1.4c-0.8,0.3-1.7,0.6-2.6,0.7l7.5,12.2h-3.2
			l-7.1-12h-4.3V186.3z M606.5,172.1h4.5c2.1,0,3.7-0.4,4.9-1.1c1.1-0.8,1.7-1.9,1.7-3.4c0-0.8-0.2-1.6-0.5-2.1
			c-0.3-0.6-0.7-1.1-1.3-1.4c-0.6-0.4-1.2-0.6-2-0.8c-0.8-0.2-1.7-0.3-2.6-0.3h-4.6V172.1z"/>
		<path class="st2" d="M631.4,186.3h-2.6v-25.7h2.6V186.3z"/>
		<path class="st2" d="M663.1,182.2c-0.4,0.7-1,1.3-1.6,1.8c-0.6,0.6-1.3,1.1-2.1,1.5c-0.8,0.4-1.7,0.8-2.7,1c-1,0.3-2,0.4-3.2,0.4
			c-1.9,0-3.7-0.3-5.4-1c-1.6-0.7-3.1-1.6-4.2-2.8c-1.2-1.2-2.1-2.6-2.8-4.3c-0.7-1.6-1-3.4-1-5.4c0-2,0.3-3.8,1-5.4
			c0.7-1.6,1.6-3.1,2.8-4.3c1.2-1.2,2.6-2.1,4.2-2.8c1.6-0.7,3.4-1,5.3-1c0.9,0,1.9,0.1,2.8,0.3c0.9,0.2,1.8,0.5,2.6,0.8
			c0.8,0.4,1.5,0.8,2.2,1.3c0.7,0.5,1.2,1.1,1.6,1.7l-2.2,1.6c-0.3-0.4-0.6-0.8-1.1-1.2c-0.4-0.4-1-0.8-1.6-1.1
			c-0.6-0.3-1.3-0.6-2-0.8c-0.7-0.2-1.5-0.3-2.3-0.3c-1.7,0-3.2,0.3-4.5,0.9c-1.3,0.6-2.4,1.4-3.4,2.4c-0.9,1-1.6,2.2-2.1,3.6
			c-0.5,1.3-0.7,2.8-0.7,4.3c0,1.5,0.2,2.9,0.7,4.3c0.5,1.3,1.2,2.5,2.1,3.6c0.9,1,2,1.8,3.4,2.4c1.3,0.6,2.8,0.9,4.4,0.9
			c1.5,0,2.9-0.3,4.2-0.9c1.3-0.6,2.4-1.6,3.3-2.9L663.1,182.2z"/>
		<path class="st2" d="M678.9,186.3h-2.6V163h-8.6v-2.3h19.8v2.3h-8.6V186.3z"/>
	</g>
</g>
</svg>
