<?xml version="1.0" encoding="utf-8"?>
<!-- Generator: Adobe Illustrator 26.0.2, SVG Export Plug-In . SVG Version: 6.00 Build 0)  -->
<svg version="1.1" id="Layer_1" xmlns="http://www.w3.org/2000/svg" xmlns:xlink="http://www.w3.org/1999/xlink" x="0px" y="0px"
	 viewBox="0 0 488.6 170.4" style="enable-background:new 0 0 488.6 170.4;" xml:space="preserve">
<style type="text/css">
	.st0{fill:#FDFDFD;}
	.st1{fill:#040404;}
	.st2{fill:#BC1F2E;}
</style>
<g>
	<g>
		<path class="st0" d="M294.6,170.4c-97.8,0-195.5,0-293.3,0c-0.9,0-1.3-0.1-1.3-1.2c0-56,0-112,0-168.1C0,0.1,0.3,0,1.2,0
			c162.1,0,324.2,0,486.3,0c0.9,0,1.2,0.1,1.2,1.1c0,56.1,0,112.1,0,168.2c0,0.9-0.3,1.1-1.1,1.1c-63.6,0-127.2,0-190.8,0
			c0.7-0.3,1.5-0.6,1.2-1.6c-0.2-1-1-1.1-1.8-1.1c-1.8-0.1-3.6-0.3-5.4-1c-6.4-2.4-10.4-7.3-13.4-13.2c-0.3-0.5,0-0.7,0.4-0.8
			c1.6-0.7,3.1-1.5,4.4-2.6c4.6-4,5.1-10.1,1-14.3c-3.4-3.4-7.6-4.3-12.2-3.9c-0.9,0.1-1.1,0.3-1.1,1.2c0,10.2,0,20.4,0,30.7
			c0,1,0.2,1.7,1.3,1.7c1,0,1.2-0.8,1.2-1.7c0-2.8,0-5.7,0-8.5c0-0.7,0.1-1.1,0.9-1.2c0.7-0.1,1.4-0.5,1.8,0.6
			c0.5,1.3,1.3,2.5,2,3.7c3.2,5.1,7.4,9.2,13.3,11.1C291.7,169.7,293.2,170,294.6,170.4z M425.7,109.8c2.1,2.8,4.9,4.6,8.1,5.6
			c7.6,2.6,15.3,2.4,22.6-0.6c15.3-6.4,25.2-17.9,30.6-33.4c0.6-1.7,1-3.5,1.3-5.3c0.3-2.5-0.9-4.5-3-5.2c-2.1-0.7-4.4,0.3-5.6,2.4
			c-0.3,0.4-0.5,0.9-0.6,1.4c-3.1,11-9.6,19.6-18.5,26.5c-4,3.1-8.5,4.9-13.7,4.3c-4.7-0.6-7.1-3.9-6.1-8.5c0.2-0.8,0.4-1.5,0.6-2.3
			c1.7-7.6,5.2-14.1,10.8-19.5c2-1.9,4-3.8,6.3-5.3c2.6-1.7,4.7-0.8,5.3,2.2c0.1,0.4,0.1,0.7,0.2,1.1c0.3,1.3,0.9,2.3,2,3
			c2.2,1.5,5.6,1.4,7.8-0.1c0.9-0.6,1.5-1.5,1.5-2.6c0.3-3.5-0.2-6.9-2.3-9.8c-4-5.6-9.8-7.2-16.2-7c-4.6,0.1-8.8,1.7-12.6,4.3
			c-11.6,8.1-18.5,19.3-21.7,32.9c-0.3,1.1-0.1,2.4-0.6,3.4c-0.9,1.8-2.3,3.4-3.7,5c-0.2-0.5,0-0.9,0.1-1.3c2-7.6,4-15.2,6-22.9
			c1-3.7,2.2-7.4,2-11.4c-0.1-2.5-0.8-4.8-2.5-6.7c-3.1-3.3-9.4-3.3-12.3-1.9c-1.1,0.5-1.7,1.4-1.6,2.7c0,0.3,0,0.6-0.1,0.9
			c-0.7,4.4-1.9,8.7-2.9,13.1c-0.8,3.3-1.4,6.6-3.2,9.6c-1.4,2.4-2.6,4.8-3.9,7.2c-2,3.7-4.6,6.8-7.7,9.5c-1,0.8-2,1.6-3.1,2.3
			c-0.7,0.4-0.9,0.1-0.8-0.5c0.1-0.6,0.2-1.1,0.3-1.6c0.8-2.7,1.7-5.5,2.5-8.2c3.9-14.2,7.7-28.3,11.5-42.5c0.3-1.1,0.8-1.5,1.9-1.4
			c1.5,0,2.8,0.4,4.2,1c1.1,0.5,1.7,0.3,2.2-0.9c0.4-0.9,0.8-1.8,1.2-2.7c0.3,0.8,0.3,1.5,0.4,2.2c0.5,5.1,4.2,8.3,9.1,7.9
			c2-0.2,3.7-0.9,5.2-2.2c4.8-4.1,6.4-9.4,5.5-15.4c-1-6-6.7-8.9-12-6.3c-3.1,1.6-5.2,4.2-6.6,7.4c-0.1,0.3-0.1,0.7-0.7,0.9
			c0.4-1.8,0.6-3.5-0.6-4.9c-1.2-1.5-2.9-1.8-4.8-1.9c0.2-1,0.4-2,0.5-3c0.1-1,0.1-2,0-3c-0.3-3.8-2.6-6.8-6.2-8
			c-2.6-0.9-5.2-0.9-7.9-0.5c-1.1,0.2-1.6,0.7-1.9,1.8c-1.1,4.1-2.2,8.2-3.3,12.3c-0.2,0.8-0.6,1-1.3,1c-1.7-0.1-3.4-0.1-5-0.4
			c-0.9-0.1-1.4,0.2-1.8,1c-0.9,2.3-1.3,4.6-1,7c0.4,2.9,1.6,5.2,4.5,6.2c0.7,0.3,0.4,0.7,0.3,1.2c-1.1,4.6-2.1,9.2-3.3,13.8
			c-1.6,6.4-2.8,13-6.2,18.9c-3.2,5.6-5.6,11.7-9.4,17c-0.5,0.7-1,1.4-1.5,2c-0.1,0.2-0.3,0.3-0.5,0.2c-0.2-0.1-0.1-0.3,0-0.5
			c0.3-1,0.5-1.9,0.8-2.9c1.9-6.7,3.9-13.4,5.8-20.1c0.7-2.5,1-5.1,0.8-7.7c-0.5-5-3.7-8.9-8.5-9.7c-4.9-0.8-9.4,0.3-13.6,3
			c-0.9,0.6-1.2,0.6-1.5-0.5c-0.5-2.1-1.6-3.9-3.7-4.9c-3.2-1.6-6.6-1.8-10-0.7c-1.6,0.5-2.2,1.5-2.2,3.2c0,0.5,0,1-0.1,1.5
			c-0.6,4.5-2,8.8-3.2,13.1c-0.6,2.2-0.9,4.6-1.9,6.6c-3.6,6.8-8.4,12.8-14.5,17.6c-3.5,2.7-7.3,4.9-11.8,5.5
			c-3.8,0.5-6.3-0.8-7.6-4.1c-0.3-0.7-0.2-1,0.6-1.1c5.4-1.1,10.7-2.6,15.7-4.9c8.8-4.1,15.3-10.2,17.4-20c1.3-6,0-11.2-5-14.9
			c-6.1-4.5-13.1-5.2-20-2.3c-13.9,5.9-22.6,16.4-26.5,31c-0.3,1.3-0.3,2.7-0.9,3.8c-1.6,3.2-3.6,6.2-5.7,9.1
			c-0.1,0.1-0.2,0.4-0.5,0.2c0.1-1.5,0.5-2.9,0.9-4.3c2-6.9,4-13.8,6-20.7c0.8-2.8,0.9-5.7,0.1-8.5c-1.6-5.5-6.3-8.3-12.5-7.7
			c-0.5,0.1-1,0.1-1.7,0.2c1.4-1.2,2.6-2.2,3.7-3.3c7.8-7.7,12.6-17,14.9-27.6c0.7-3.3,1.4-6.7,0.7-10.2c-1.1-5.2-5.1-8.4-10.1-7.8
			c-3.2,0.3-5.9,2-8.1,4.2c-5.2,5.1-9.6,10.9-13.2,17.2c-7.9,13.9-13.2,28.9-17.3,44.2c-0.6,2.4-0.9,5-2,7.2
			c-1.3,2.6-2.7,5.2-4.2,7.8c-2.2,3.8-5.2,7.1-8.8,9.7c-0.6,0.4-1.1,0.9-1.9,0.9c-0.1-0.6-0.1-1.1,0.1-1.7c1-3.3,2-6.6,2.9-10
			c3.7-13.9,7.5-27.8,11.3-41.6c0.3-1,0.7-1.3,1.7-1.3c1.5,0,2.8,0.4,4.2,0.9c1.3,0.5,1.7,0.3,2.4-0.9c1.7-3.1,2-6.4,2.3-9.8
			c0.2-2.4-1.2-4.1-3.6-4.7c-0.7-0.2-1.4-0.2-2.1-0.3c0.2-1.1,0.4-2.1,0.6-3.2c0.7-5.1-1.9-9.4-6.4-10.8c-2.6-0.8-5.2-0.9-7.8-0.4
			c-1,0.2-1.5,0.7-1.8,1.6c-1.1,4.2-2.2,8.3-3.3,12.5c-0.2,0.7-0.4,1-1.2,1c-1.7-0.1-3.4-0.1-5-0.4c-1-0.2-1.6,0.2-1.9,1.1
			c-0.9,2.4-1.2,4.8-0.9,7.3c0.4,2.7,1.6,4.8,4.4,5.8c0.6,0.2,0.6,0.5,0.5,1.1c-1.2,5-2.3,9.9-3.5,14.9c-1.1,4.4-1.8,9-3.5,13.2
			c-3,7.5-6.4,14.9-11.5,21.3c-0.7,0.9-1.3,1.9-2.3,2.7c0.1-0.5,0.1-0.8,0.2-1c1.8-7,3.7-14,5.5-21c0.9-3.6,2.3-7.1,2.7-10.9
			c0.8-8.1-7.2-14-14.8-10.8c-1.2,0.5-2.2,1.3-2.2,2.7c0,1.7-0.3,3.4-0.7,5.1c-1.5,7.2-2.9,14.4-6.6,21c-2.8,5-5.5,10.1-9.2,14.5
			c-0.3,0.3-0.5,0.6-0.8,0.9c-0.1-0.4-0.1-0.6,0-0.8c1.8-5.8,3.6-11.6,5.3-17.5c1.5-5.2,3.5-10.3,4.3-15.8c0.6-3.8-0.6-7-3.6-9.3
			c-3.2-2.4-6.9-3.1-10.7-2c-1.4,0.4-1.9,1.3-1.9,2.7c0,1.4-0.2,2.7-0.5,4c-1.5,6.2-3.6,12.3-5.3,18.5c-1.4,5.2-3.3,10.4-3.5,15.8
			c-0.3,7.4,2.5,14.3,10.1,17.7c2.4,1.1,4.7,1.2,7.1,0c3.4-1.6,5.6-4.4,7.7-7.3c0.6-0.8,1.1-1.6,1.7-2.6c1.6,5,5,8,9.5,10
			c2.4,1.1,4.8,1,7.1-0.4c2.3-1.3,4.2-3.1,5.8-5.1c1-1.3,2-2.6,3-3.9c0.1,0.5,0.2,0.9,0.4,1.4c2.4,7.3,8,10.1,15.1,8.6
			c3.4-0.7,5.8-3,8.3-5.3c0.7-0.7,1.3-1.5,1.9-2.3c0.5,0.9,0.8,1.6,1.2,2.1c3.3,5.3,11.1,6.4,15.7,5.4c0.9-0.2,1.3-1,0.9-1.8
			c-1.2-2-1-4.2-0.9-6.3c0.1-4.1,1.3-7.9,2.2-11.9c1.5-6.9,4.3-13.2,9-18.6c1.3-1.5,2.6-3,4.5-3.8c0.2,0.5,0,0.9-0.1,1.3
			c-0.4,1.5-1,3-1.6,4.5c-2.6,6.2-4.8,12.6-4.6,19.5c0.2,7.1,3.1,12.7,9.7,16.2c3,1.6,5.9,1.4,8.7-0.4c2.6-1.7,4.6-4,6.4-6.6
			c0.6,0.7,1,1.5,1.6,2.1c4,4.5,9.2,6,14.9,6.1c8.2,0.2,15.6-2.2,22.5-6.6c1.9-1.2,3.7-2.6,5.5-4c0.8,5.3,3.6,8.7,8.7,10.2
			c2.1,0.6,4.2,0.4,6.3,0.1c0.9-0.1,1.3-0.8,1.1-1.7c-0.3-1.4-0.2-2.8,0-4.2c1-6.8,2.8-13.3,4.8-19.8c1.8-5.8,4.8-10.8,9.3-14.9
			c0.6-0.6,1.3-1.1,2-1.8c0.1,0.9,0.1,1.6-0.1,2.3c-1,4.2-2.6,8.2-3.8,12.3c-1.5,4.8-2.3,9.7-1.3,14.7c1.2,5.9,4.4,10,9.9,12.5
			c2.4,1.1,4.7,1,7-0.2c2-1,3.6-2.5,5.1-4.2c1.4-1.6,2.6-3.4,3.9-5.2c0.1,0.6,0.2,0.9,0.4,1.3c3.1,10.6,13.8,10.9,19.4,6.8
			c2.6-1.9,4.9-4,7-6.5c0.8-0.9,1.5-1.9,2.4-2.9c1.5,4.7,4.4,8,8.6,10.4c2.9,1.7,5.7,1.6,8.6-0.3
			C422.1,113.7,423.9,111.9,425.7,109.8z M138.9,70.8c0.1-0.5,0.2-0.9,0.4-1.4c2.4-8.5,5.3-16.8,7.9-25.2c2.8-9.1,5.9-18.1,8-27.4
			c0.4-1.6,0.3-3.1-0.5-4.5c-1.9-3.6-4-7-6.9-9.9c-1.8-1.7-3.9-2.5-6.2-2c-4.9,1-9.9,1.8-14.7,3.2c-9.5,2.8-19,6-28.8,7.9
			c-4.2,0.8-8.5,1.5-12.8,0.9c-3.2-0.4-5.7-1.6-6.9-4.9c-0.3-0.9-1-1.7-1.7-2.4C74.9,3.5,73,3.8,72,6c-0.7,1.4-0.8,2.9-1,4.4
			c-1,7.5,3,14.7,9.9,17.7c5.3,2.3,10.7,2.2,16.2,1.1c5.3-1.1,10.1-3.6,14.8-6.3c0.3-0.2,0.7-0.6,1.2-0.4c-0.2,0.6-0.6,1-0.9,1.4
			c-4.4,5.9-9,11.7-13.2,17.8c-8,11.7-15.7,23.5-23.7,35c-0.4,0.6-0.9,1-1.7,1.1c-1.3,0.2-2.5,0.5-3.7,0.9c-1.7,0.4-3.3,1.1-4.3,2.6
			c-1.4,2.2-2.7,4.6-3.4,7.2c-0.3,1-0.3,2.2,0.5,3.1c0.7,0.7,0.3,1-0.2,1.5c-5,4.8-10.3,9.2-16.2,12.8c-4.8,2.9-9.7,5.4-15.5,6
			c-5,0.5-8.7-2-9.4-6.7c-0.3-1.7-0.2-3.3,0.1-5c0.2-1.1,0.2-2.2,0.8-3.2c2.8-4.2,6.2-7.6,10.7-9.9c1.2-0.6,2.3-1.5,3.2-2.5
			c1-1.1,1.6-2.3,1-3.8c-0.7-1.5-2-2.1-3.6-2.1c-1.9-0.1-3.7,0.5-5.5,1C15.7,83.3,6.6,90.4,2.1,102.6c-1.6,4.4-2.5,8.8-1.2,13.5
			c1.9,6.7,6.5,11,12.6,13.8c9.4,4.4,19.1,4.2,28.7,0.6c11.1-4.1,20.3-11,28.6-19.2c6.5-6.4,12.4-13.5,17.9-20.7
			c1.7-2.1,3.4-3.7,6.2-3.7c0.5,0,1-0.2,1.5-0.3c6.5-1.2,13-2.1,19.5-3c0.8-0.1,1,0,0.8,0.8c-0.4,1.6-0.7,3.2-1,4.8
			c-2.4,12.2-4.3,24.5-3.7,37c0.2,5.7,0.9,11.4,2.7,16.8c2.3,6.6,6,12.1,12.3,15.6c4.1,2.3,8.5,3,13.1,3.1c2.3,0,4.2-0.9,5.5-2.8
			c1.5-2.1,1.1-4.2-1-5.7c-0.8-0.5-1.6-0.9-2.5-1.2c-3.9-1.4-6.8-3.9-8.7-7.6c-1.3-2.6-2.2-5.4-2.8-8.2c-1.7-8.3-1.3-16.6-0.4-24.9
			c1.1-9.7,3.2-19.3,5.4-28.9c0.2-0.9,0.6-1.3,1.5-1.3c1.8-0.1,3.6-0.5,5.4-1c2.6-0.8,4.8-2.1,6-4.7c1.3-3,0.1-4.9-3.1-5
			c-1.4-0.1-2.7-0.1-4.1,0.1C140.7,70.7,139.8,70.7,138.9,70.8z M446.4,147c0,6.4,1.4,10.5,4.3,14c5.3,6.4,14.3,6.7,19.9,0.7
			c6.6-7.1,6.6-19,0-26.1c-5.2-5.6-13.4-5.7-18.8-0.4C448,138.8,446.4,143.4,446.4,147z M231.2,148.3c0,5,0,10,0,15
			c0,1.2,0.5,1.7,1.4,1.6c1-0.1,1.2-0.8,1.2-1.6c0-4.4,0-8.9,0-13.3c0-0.8,0.1-1.1,1-1.1c3.5,0.1,7,0.1,10.6,0c1,0,1.3,0.2,1.3,1.2
			c-0.1,4.4,0,8.8,0,13.2c0,0.7,0.1,1.4,0.9,1.6c1,0.3,1.7-0.4,1.7-1.6c0-10,0-20,0-29.9c0-0.9-0.2-1.7-1.3-1.7
			c-1.1,0-1.3,0.8-1.3,1.8c0,4,0,7.9,0,11.9c0,0.9-0.2,1.1-1.1,1c-3.2,0-6.4,0-9.6,0c-2.2,0-2.2,0-2.2-2.2c0-3.6,0-7.3,0-10.9
			c0-1.1-0.7-1.8-1.6-1.5c-0.9,0.2-1,0.9-1,1.7C231.2,138.3,231.2,143.3,231.2,148.3z M403.5,148.2c0-5.1,0-10.1,0-15.2
			c0-0.7-0.2-1.2-0.8-1.4c-0.6-0.2-1.1,0-1.5,0.5c-0.3,0.4-0.2,0.8-0.2,1.3c0,4,0,7.9,0,11.9c0,0.8-0.2,1-1,1c-3.6,0-7.2,0-10.8,0
			c-0.8,0-1-0.3-1-1c0-3.8,0-7.7,0-11.5c0-0.4,0-0.7,0-1.1c-0.1-0.7-0.5-1.1-1.2-1.1c-0.7,0-1.1,0.3-1.3,1c-0.1,0.3-0.1,0.7-0.1,1.1
			c0,9.7,0,19.5,0,29.2c0,0.4,0,0.8,0.1,1.2c0.2,0.6,0.7,0.8,1.3,0.8c0.6,0,1-0.3,1.1-0.9c0.1-0.4,0.1-0.8,0.1-1.2
			c0-4.2,0-8.4,0-12.6c0-1,0.2-1.4,1.3-1.4c3.4,0.1,6.7,0.1,10.1,0c1,0,1.4,0.2,1.3,1.3c-0.1,4.4,0,8.7,0,13.1
			c0,0.9,0.2,1.7,1.3,1.7c1.1,0,1.2-0.7,1.2-1.6C403.5,158.2,403.5,153.2,403.5,148.2z M380.3,136c-0.1,0.1-0.2,0.1-0.3,0.2
			c-0.2-0.3-0.5-0.5-0.7-0.8c-5.2-4.9-12.2-4.5-16.9,0.8c-4.8,5.5-5.9,15.1-2.4,21.6c2.9,5.3,7.9,8.1,13.5,7.3
			c4-0.5,6.9-2.8,9.4-5.9c0.5-0.6,0.6-1.3-0.1-1.9c-0.7-0.6-1.4-0.3-2,0.3c-0.3,0.3-0.5,0.6-0.8,0.9c-5.7,6.2-14.5,5-17.9-2.6
			c-2.8-6.2-2.2-12.3,2-17.7c3.6-4.6,9.4-4.8,13.7-0.9c0.9,0.8,1.7,1.7,2.4,2.7c0.4,0.6,1,1,1.7,0.7c0.7-0.2,0.9-0.8,0.9-1.5
			c0-2,0-4,0-6c0-0.8-0.3-1.3-1.2-1.4c-0.9-0.1-1.3,0.5-1.4,1.3C380.3,134.2,380.3,135.1,380.3,136z M340.9,165.4
			c1.1,0,1.6-0.8,1.2-2c-3-10.2-5.9-20.3-8.9-30.5c-0.2-0.7-0.5-1.4-1.3-1.5c-0.9-0.1-1.3,0.6-1.6,1.4c-3.4,10.2-6.7,20.3-10.1,30.5
			c-0.3,0.9-0.3,1.6,0.7,1.9c1,0.3,1.4-0.3,1.7-1.2c0.9-2.7,1.9-5.3,2.8-8c0.2-0.6,0.5-0.8,1.1-0.8c3.2,0,6.4,0,9.6,0
			c0.7,0,1,0.2,1.1,0.9c0.7,2.7,1.6,5.3,2.3,8C339.8,164.8,340.1,165.3,340.9,165.4z M204.6,155.3c1.4,0,2.9,0.1,4.3,0
			c1.1-0.1,1.5,0.2,1.8,1.3c0.6,2.6,1.5,5.1,2.2,7.7c0.3,0.9,0.8,1.3,1.7,1c0.9-0.2,1-0.9,0.8-1.7c0-0.2-0.1-0.3-0.1-0.5
			c-2.1-7.3-4.3-14.6-6.4-21.9c-0.8-2.9-1.7-5.8-2.6-8.7c-0.2-0.6-0.6-1.1-1.2-1.1c-0.7,0-1.2,0.4-1.4,1.1c-0.1,0.3-0.2,0.5-0.3,0.8
			c-2.2,6.8-4.5,13.5-6.7,20.3c-1.1,3.2-2.1,6.4-3.2,9.6c-0.2,0.6-0.4,1.2,0.1,1.7c0.7,0.8,1.9,0.5,2.3-0.7c0.9-2.7,1.9-5.3,2.8-8
			c0.2-0.7,0.5-0.9,1.3-0.9C201.5,155.3,203,155.3,204.6,155.3z M253,148.2c0,4.8,0,9.6,0,14.4c0,1.5,0.4,1.9,1.8,1.9c4,0,8,0,12,0
			c0.9,0,1.7-0.3,1.7-1.4c0-1-0.8-1.2-1.7-1.2c-3.4,0-6.8,0-10.2,0c-0.8,0-1-0.2-1-1c0-3.6,0-7.3,0-10.9c0-0.8,0.2-1,1-1
			c2.7,0.1,5.4,0,8,0c0.9,0,1.9,0.1,2-1.2c0.1-1-0.5-1.3-2.1-1.3c-2.6,0-5.3,0-7.9,0c-0.9,0-1.1-0.3-1-1.1c0-3.2,0-6.5,0-9.7
			c0-0.8,0.2-1.1,1.1-1.1c3.1,0.1,6.2,0,9.2,0c1,0,1.7-0.2,1.8-1.3c0-1.1-0.8-1.3-1.7-1.3c-3.7,0-7.4,0-11,0c-1.5,0-1.8,0.3-1.8,1.8
			C253,138.7,253,143.5,253,148.2z M176.4,148.2c0,4.8,0,9.7,0,14.5c0,1.4,0.4,1.8,1.8,1.8c4,0,8,0,12,0c0.9,0,1.7-0.2,1.7-1.3
			c0-1.1-0.8-1.2-1.7-1.2c-3.4,0-6.8,0-10.2,0c-0.9,0-1.1-0.3-1.1-1.1c0-3.6,0.1-7.1,0-10.7c0-1,0.4-1.2,1.2-1.1c2.8,0,5.6,0,8.4,0
			c0.9,0,1.5-0.4,1.4-1.3c0-1-0.7-1.2-1.6-1.2c-2.8,0-5.6,0-8.4,0c-0.8,0-1.1-0.2-1.1-1.1c0.1-3.2,0.1-6.5,0-9.7
			c0-1,0.3-1.1,1.2-1.1c3,0,6.1,0,9.1,0c0.9,0,1.7-0.1,1.8-1.3c0.1-0.9-0.5-1.3-1.8-1.3c-3.6,0-7.2,0-10.8,0c-1.7,0-2,0.3-2,2
			C176.4,138.9,176.4,143.5,176.4,148.2z M441.2,136.2c-0.6-0.7-1-1.1-1.4-1.4c-5-4.7-11.7-4.6-16.6,0.3c-2.5,2.6-4,5.7-4.6,9.2
			c-1.1,5.6-0.6,11,3.1,15.7c6,7.8,16,6.9,21.9-0.8c0.4-0.6,0.5-1.2-0.1-1.7c-0.6-0.5-1.2-0.3-1.7,0.2c-0.5,0.6-1.1,1.2-1.6,1.7
			c-5.1,4.8-12.4,4.5-16.5-0.8c-4.4-5.7-4.1-15.7,0.7-21.2c4.1-4.7,10.1-4.9,14.5-0.5c0.7,0.7,1.4,1.5,2,2.4
			c0.4,0.6,0.9,1.1,1.7,0.9c0.8-0.2,0.9-1,0.9-1.8c0-1.9,0-3.8,0-5.6c0-0.8-0.2-1.5-1.2-1.5c-0.9,0-1.1,0.7-1.1,1.5
			C441.2,133.8,441.2,134.8,441.2,136.2z M303.7,148.4c0,5.1,0,10.2,0,15.3c0,1.3,0.4,1.9,1.3,1.9c1.2-0.1,1.3-0.9,1.3-1.9
			c0-2.8,0-5.6,0-8.4c0-0.7,0.1-1,0.9-1.1c2.7-0.2,5.3-0.7,7.7-2.1c4-2.2,5.4-5.8,5.4-10.2c-0.1-3.9-2-6.5-5.3-8.3
			c-3.3-1.7-6.9-2-10.6-1.7c-0.8,0.1-0.6,0.6-0.6,1C303.7,138.1,303.7,143.3,303.7,148.4z M348.7,149.8c0,4.6,0,9.2,0,13.8
			c0,0.9,0.2,1.6,1.3,1.6c1,0,1.4-0.7,1.4-1.6c0-1,0-1.9,0-2.9c0-8.2,0-16.4,0-24.5c0-0.9,0.2-1.1,1.1-1.1c1.2,0.1,2.5,0,3.7,0
			c1,0,1.7-0.3,1.7-1.4c0-1.1-0.7-1.2-1.6-1.2c-4.1,0-8.1,0-12.2,0c-0.9,0-1.6,0.2-1.6,1.3c0,1,0.7,1.4,1.6,1.4c1.2,0,2.4,0.1,3.6,0
			c0.9-0.1,1.2,0.2,1.1,1.1C348.7,140.7,348.7,145.3,348.7,149.8z M220,149.9c0,4.6,0,9.3,0,13.9c0,0.7,0.2,1.3,1,1.4
			c0.7,0.1,1.3-0.1,1.5-0.8c0.1-0.4,0.1-0.8,0.1-1.2c0-9,0-18,0-27c0-0.8,0.2-1.1,1-1.1c1.3,0.1,2.6,0,3.8,0c1,0,1.7-0.3,1.7-1.4
			c0-1.1-0.7-1.2-1.6-1.2c-4.1,0-8.1,0-12.2,0c-0.9,0-1.6,0.2-1.6,1.3c0,1,0.7,1.4,1.6,1.4c1.2,0,2.5,0.1,3.7,0c0.9-0.1,1,0.2,1,1
			C220,140.7,220,145.3,220,149.9z M162,148.2c0,4.8,0,9.6,0,14.4c0,1.6,0.5,2,2.1,2.1c2.7,0,5.4,0,8.1,0c1.4,0,1.9-0.4,1.9-1.4
			c0-1.3-0.9-1.3-1.9-1.3c-2.2,0-4.4-0.1-6.6,0c-0.9,0-1.1-0.3-1.1-1.1c0-8.9,0-17.8,0-26.7c0-0.4,0-0.9-0.1-1.3
			c-0.1-0.6-0.6-0.9-1.2-0.9c-0.6,0-1.1,0.3-1.2,0.9c-0.1,0.4-0.1,0.9-0.1,1.3C162,138.9,162,143.5,162,148.2z M479.1,116.7
			c-0.5-1.3-0.9-2.3-1.2-3.3c-0.2-0.9-0.9-0.6-1.4-0.7c-0.7,0-0.6,0.5-0.6,0.9c-0.1,1.4-0.2,2.9-0.3,4.3c0,0.4-0.1,0.7,0.4,0.7
			c0.5,0,0.8,0,0.8-0.7c0-0.8,0-1.7,0.3-2.7c0.4,1,0.6,1.8,0.9,2.6c0.1,0.4,0.2,0.8,0.9,0.8c0.6,0,0.7-0.3,0.9-0.7
			c0.3-0.8,0.4-1.7,1.1-2.5c0.1,1,0.2,1.8,0.2,2.5c0,0.7,0.4,0.7,0.9,0.7c0.7,0,0.6-0.4,0.5-0.8c-0.1-1.3-0.2-2.7-0.4-4
			c-0.1-0.4,0.3-1.1-0.6-1.1c-0.7,0-1.2,0.1-1.4,0.9C479.9,114.6,479.5,115.5,479.1,116.7z M472.5,112.8c-0.5,0-1,0-1.6,0
			c-0.4,0-1-0.2-1,0.6c0,0.8,0.6,0.5,1,0.5c0.7,0,0.9,0.2,0.9,0.9c-0.1,1.1,0,2.2,0,3.2c0,0.6,0.2,0.7,0.7,0.7
			c0.6,0,0.7-0.3,0.7-0.8c0-1,0.1-1.9,0-2.9c-0.1-0.9,0.2-1.3,1.2-1.2c0.3,0,0.7,0.2,0.6-0.4c0-0.4-0.1-0.8-0.7-0.7
			C473.7,112.8,473.1,112.8,472.5,112.8z M476.9,164c0-1-0.6-1.7-1.7-1.8c-1,0-1.8,0.6-1.8,1.6c-0.1,1,0.7,1.8,1.7,1.8
			C476.1,165.6,476.8,165,476.9,164z"/>
		<path class="st1" d="M294.6,170.4c-1.4-0.4-2.8-0.6-4.2-1.1c-5.9-1.9-10-6-13.3-11.1c-0.7-1.2-1.5-2.4-2-3.7
			c-0.4-1.1-1.1-0.7-1.8-0.6c-0.8,0.1-0.9,0.5-0.9,1.2c0,2.8,0,5.7,0,8.5c0,0.9-0.2,1.7-1.2,1.7c-1.1,0-1.3-0.7-1.3-1.7
			c0-10.2,0-20.4,0-30.7c0-0.9,0.3-1.1,1.1-1.2c4.6-0.4,8.9,0.4,12.2,3.9c4.1,4.2,3.7,10.4-1,14.3c-1.3,1.1-2.8,2-4.4,2.6
			c-0.4,0.2-0.7,0.3-0.4,0.8c3,5.9,6.9,10.8,13.4,13.2c1.7,0.6,3.5,0.9,5.4,1c0.9,0,1.6,0.1,1.8,1.1c0.2,1.1-0.5,1.3-1.2,1.6
			C296,170.4,295.3,170.4,294.6,170.4z M272.4,142.8c0,2.6,0,5.2,0,7.8c0,0.6,0,0.9,0.8,0.7c2.7-0.6,5.3-1.6,7.4-3.5
			c3.8-3.3,3.8-8.1,0.1-11c-2.2-1.8-4.8-2.4-7.6-2.6c-0.7-0.1-0.7,0.3-0.7,0.8C272.4,137.6,272.4,140.2,272.4,142.8z"/>
		<path class="st1" d="M425.7,109.8c-1.7,2-3.5,3.9-5.7,5.3c-2.8,1.8-5.6,1.9-8.6,0.3c-4.1-2.3-7.1-5.6-8.6-10.4
			c-0.9,1-1.6,2-2.4,2.9c-2.1,2.5-4.4,4.6-7,6.5c-5.6,4.1-16.3,3.8-19.4-6.8c-0.1-0.4-0.2-0.8-0.4-1.3c-1.3,1.8-2.5,3.6-3.9,5.2
			c-1.5,1.7-3.1,3.1-5.1,4.2c-2.3,1.2-4.6,1.3-7,0.2c-5.5-2.4-8.7-6.6-9.9-12.5c-1-5.1-0.2-9.9,1.3-14.7c1.3-4.1,2.9-8.1,3.8-12.3
			c0.2-0.7,0.2-1.4,0.1-2.3c-0.8,0.7-1.4,1.2-2,1.8c-4.5,4.1-7.5,9.1-9.3,14.9c-2,6.5-3.8,13.1-4.8,19.8c-0.2,1.4-0.3,2.8,0,4.2
			c0.2,0.9-0.2,1.5-1.1,1.7c-2.1,0.2-4.2,0.5-6.3-0.1c-5.1-1.5-7.9-4.9-8.7-10.2c-1.8,1.4-3.6,2.8-5.5,4c-6.8,4.4-14.3,6.8-22.5,6.6
			c-5.8-0.1-10.9-1.7-14.9-6.1c-0.6-0.7-1.1-1.4-1.6-2.1c-1.8,2.6-3.7,4.9-6.4,6.6c-2.8,1.8-5.7,2-8.7,0.4c-6.5-3.4-9.5-9-9.7-16.2
			c-0.2-6.9,2-13.3,4.6-19.5c0.6-1.5,1.2-2.9,1.6-4.5c0.1-0.4,0.2-0.8,0.1-1.3c-1.9,0.8-3.2,2.4-4.5,3.8c-4.7,5.3-7.5,11.7-9,18.6
			c-0.9,3.9-2,7.8-2.2,11.9c-0.1,2.1-0.3,4.3,0.9,6.3c0.4,0.7,0.1,1.6-0.9,1.8c-4.7,0.9-12.4-0.1-15.7-5.4c-0.4-0.6-0.7-1.2-1.2-2.1
			c-0.7,0.8-1.2,1.6-1.9,2.3c-2.4,2.3-4.9,4.6-8.3,5.3c-7.2,1.5-12.7-1.3-15.1-8.6c-0.1-0.4-0.2-0.8-0.4-1.4c-1,1.3-2,2.7-3,3.9
			c-1.6,2.1-3.5,3.8-5.8,5.1c-2.3,1.3-4.7,1.4-7.1,0.4c-4.5-2-7.8-5-9.5-10c-0.7,1-1.2,1.8-1.7,2.6c-2.1,2.9-4.4,5.7-7.7,7.3
			c-2.4,1.1-4.7,1.1-7.1,0c-7.6-3.5-10.4-10.3-10.1-17.7c0.2-5.5,2.1-10.6,3.5-15.8c1.7-6.2,3.8-12.3,5.3-18.5
			c0.3-1.3,0.5-2.7,0.5-4c0-1.4,0.5-2.3,1.9-2.7c3.9-1.1,7.5-0.5,10.7,2c3.1,2.3,4.2,5.5,3.6,9.3c-0.8,5.4-2.8,10.5-4.3,15.8
			c-1.7,5.8-3.5,11.7-5.3,17.5c-0.1,0.2-0.1,0.5,0,0.8c0.3-0.3,0.5-0.6,0.8-0.9c3.7-4.4,6.4-9.5,9.2-14.5c3.7-6.6,5.1-13.8,6.6-21
			c0.4-1.7,0.7-3.3,0.7-5.1c0-1.4,1-2.2,2.2-2.7c7.6-3.2,15.6,2.7,14.8,10.8c-0.4,3.8-1.8,7.3-2.7,10.9c-1.8,7-3.7,14-5.5,21
			c-0.1,0.3-0.1,0.5-0.2,1c1-0.9,1.6-1.8,2.3-2.7c5.1-6.4,8.5-13.8,11.5-21.3c1.7-4.2,2.4-8.7,3.5-13.2c1.2-4.9,2.3-9.9,3.5-14.9
			c0.1-0.5,0.2-0.9-0.5-1.1c-2.7-0.9-4-3.1-4.4-5.8c-0.4-2.5-0.1-4.9,0.9-7.3c0.4-0.9,1-1.3,1.9-1.1c1.7,0.3,3.3,0.3,5,0.4
			c0.8,0,1-0.3,1.2-1c1.1-4.2,2.3-8.3,3.3-12.5c0.3-1,0.7-1.5,1.8-1.6c2.6-0.5,5.2-0.4,7.8,0.4c4.6,1.4,7.2,5.7,6.4,10.8
			c-0.2,1.1-0.4,2.1-0.6,3.2c0.7,0.1,1.4,0.2,2.1,0.3c2.4,0.6,3.7,2.2,3.6,4.7c-0.2,3.4-0.5,6.7-2.3,9.8c-0.7,1.2-1.1,1.5-2.4,0.9
			c-1.3-0.6-2.7-0.9-4.2-0.9c-1,0-1.4,0.3-1.7,1.3c-3.8,13.8-7.6,27.7-11.3,41.6c-0.9,3.3-2,6.6-2.9,10c-0.2,0.5-0.2,1.1-0.1,1.7
			c0.8,0,1.3-0.5,1.9-0.9c3.6-2.6,6.6-5.8,8.8-9.7c1.5-2.5,2.9-5.1,4.2-7.8c1.2-2.3,1.4-4.8,2-7.2c4.1-15.4,9.3-30.4,17.3-44.2
			c3.6-6.3,8-12.1,13.2-17.2c2.3-2.2,4.9-3.9,8.1-4.2c5-0.5,9,2.6,10.1,7.8c0.7,3.5,0,6.8-0.7,10.2c-2.4,10.6-7.1,19.9-14.9,27.6
			c-1.1,1.1-2.3,2.1-3.7,3.3c0.7-0.1,1.2-0.1,1.7-0.2c6.2-0.7,10.9,2.2,12.5,7.7c0.8,2.8,0.7,5.7-0.1,8.5c-1.9,6.9-4,13.8-6,20.7
			c-0.4,1.4-0.8,2.8-0.9,4.3c0.3,0.2,0.4-0.1,0.5-0.2c2.1-2.9,4-5.9,5.7-9.1c0.6-1.2,0.5-2.6,0.9-3.8c3.8-14.6,12.6-25.1,26.5-31
			c6.9-2.9,13.9-2.2,20,2.3c5.1,3.7,6.3,8.9,5,14.9c-2.2,9.9-8.6,16-17.4,20c-5,2.3-10.3,3.9-15.7,4.9c-0.9,0.2-0.9,0.4-0.6,1.1
			c1.3,3.3,3.8,4.6,7.6,4.1c4.5-0.6,8.3-2.8,11.8-5.5c6.1-4.8,10.9-10.8,14.5-17.6c1.1-2,1.3-4.4,1.9-6.6c1.2-4.3,2.5-8.6,3.2-13.1
			c0.1-0.5,0.1-1,0.1-1.5c0-1.6,0.6-2.7,2.2-3.2c3.4-1.1,6.8-0.9,10,0.7c2,1,3.1,2.8,3.7,4.9c0.3,1.2,0.6,1.1,1.5,0.5
			c4.1-2.7,8.7-3.8,13.6-3c4.7,0.8,7.9,4.7,8.5,9.7c0.3,2.6-0.1,5.2-0.8,7.7c-1.9,6.7-3.9,13.4-5.8,20.1c-0.3,1-0.5,1.9-0.8,2.9
			c-0.1,0.2-0.2,0.4,0,0.5c0.2,0.1,0.4,0,0.5-0.2c0.5-0.7,1-1.3,1.5-2c3.8-5.3,6.2-11.4,9.4-17c3.3-5.9,4.6-12.4,6.2-18.9
			c1.1-4.6,2.2-9.2,3.3-13.8c0.1-0.4,0.4-0.9-0.3-1.2c-2.9-1-4.2-3.3-4.5-6.2c-0.3-2.4,0.1-4.8,1-7c0.3-0.8,0.9-1.2,1.8-1
			c1.7,0.3,3.3,0.3,5,0.4c0.7,0,1.1-0.1,1.3-1c1.1-4.1,2.2-8.2,3.3-12.3c0.3-1.1,0.8-1.6,1.9-1.8c2.7-0.4,5.3-0.4,7.9,0.5
			c3.7,1.2,6,4.1,6.2,8c0.1,1,0,2,0,3c-0.1,1-0.3,2-0.5,3c1.8,0.1,3.6,0.4,4.8,1.9c1.1,1.4,1,3.1,0.6,4.9c0.7-0.2,0.6-0.6,0.7-0.9
			c1.4-3.2,3.5-5.8,6.6-7.4c5.2-2.7,11,0.2,12,6.3c1,6-0.7,11.3-5.5,15.4c-1.5,1.3-3.2,2-5.2,2.2c-4.9,0.4-8.7-2.8-9.1-7.9
			c-0.1-0.7-0.1-1.5-0.4-2.2c-0.4,0.9-0.8,1.8-1.2,2.7c-0.5,1.1-1.1,1.3-2.2,0.9c-1.3-0.6-2.7-0.9-4.2-1c-1.1,0-1.6,0.3-1.9,1.4
			c-3.8,14.2-7.7,28.4-11.5,42.5c-0.8,2.8-1.7,5.5-2.5,8.2c-0.2,0.5-0.3,1.1-0.3,1.6c-0.1,0.7,0.1,0.9,0.8,0.5
			c1.1-0.6,2.1-1.4,3.1-2.3c3.1-2.7,5.7-5.9,7.7-9.5c1.3-2.4,2.5-4.9,3.9-7.2c1.7-3,2.4-6.3,3.2-9.6c1-4.3,2.2-8.7,2.9-13.1
			c0.1-0.3,0.1-0.6,0.1-0.9c-0.1-1.3,0.5-2.2,1.6-2.7c2.9-1.4,9.2-1.4,12.3,1.9c1.8,1.9,2.4,4.2,2.5,6.7c0.2,3.9-1.1,7.6-2,11.4
			c-2,7.6-4,15.3-6,22.9c-0.1,0.4-0.2,0.7-0.1,1.3c1.4-1.6,2.8-3.2,3.7-5c0.5-1,0.3-2.3,0.6-3.4c3.2-13.6,10.1-24.8,21.7-32.9
			c3.8-2.6,8-4.2,12.6-4.3c6.4-0.2,12.2,1.4,16.2,7c2.1,2.9,2.5,6.3,2.3,9.8c-0.1,1.1-0.7,1.9-1.5,2.6c-2.2,1.5-5.6,1.6-7.8,0.1
			c-1.1-0.7-1.7-1.8-2-3c-0.1-0.4-0.1-0.7-0.2-1.1c-0.6-3-2.7-3.9-5.3-2.2c-2.3,1.5-4.3,3.4-6.3,5.3c-5.6,5.4-9.1,11.9-10.8,19.5
			c-0.2,0.8-0.4,1.5-0.6,2.3c-1,4.6,1.4,8,6.1,8.5c5.2,0.6,9.7-1.2,13.7-4.3c8.9-6.9,15.4-15.5,18.5-26.5c0.1-0.5,0.3-1,0.6-1.4
			c1.2-2.1,3.5-3.1,5.6-2.4c2.2,0.7,3.3,2.7,3,5.2c-0.2,1.8-0.6,3.6-1.3,5.3c-5.5,15.5-15.4,27-30.6,33.4c-7.3,3.1-15,3.2-22.6,0.6
			C430.5,114.4,427.8,112.6,425.7,109.8z M239.4,110.1c-0.1-5,1.2-9.4,2.2-13.9c1.7-7.9,4.9-15,10.5-21c1.2-1.3,2.5-2.5,4.2-3.4
			c2.4-1.3,4.3-0.1,4.3,2.6c0,2-0.8,3.8-1.6,5.6c-2.3,5.6-4.5,11.3-4.8,17.4c-0.3,6.6,1.7,12.1,7.8,15.5c2.3,1.3,4.4,1.3,6.6-0.1
			c2.8-1.8,4.7-4.4,6.4-7.2c0.4-0.6,0.7-1.3,1.6-1.2c0.8,0.1,1.1,0.7,1.4,1.4c1.9,4,5,6.4,9.2,7.5c6.7,1.7,13.3,0.7,19.7-1.8
			c5.4-2.1,10.1-5.5,14.4-9.4c0.6-0.5,1.2-0.9,1.9-0.5c0.7,0.4,0.7,1,0.6,1.8c-0.2,1.3-0.3,2.6,0,3.9c1.1,4.2,5.3,7.1,9.6,6.6
			c0.6-0.1,0.8-0.3,0.8-0.8c0-1,0-1.9,0.1-2.9c0.9-6.4,2.7-12.5,4.4-18.7c2.1-7.5,5.8-13.8,11.8-18.9c0.7-0.6,1.4-1.2,2.3-1.5
			c1.4-0.5,2.5,0.1,2.8,1.5c0.4,1.7,0.2,3.3-0.2,5c-0.9,3.6-2.2,7-3.3,10.5c-1.4,4.4-2.6,8.8-1.9,13.5c0.8,5.4,3.4,9.4,8.4,11.6
			c1.7,0.8,3.3,0.8,4.9-0.1c1.5-0.9,2.8-1.9,4-3.2c2.2-2.5,4.1-5.3,5.7-8.3c0.4-0.7,0.9-1.1,1.7-0.9c0.8,0.2,1,0.9,1,1.6
			c0,1.3,0.2,2.6,0.5,3.8c1.1,3.9,3.1,7,7.5,7.8c3.4,0.6,6.4-0.4,9-2.5c3.6-2.9,6.6-6.3,9.1-10.1c0.4-0.7,0.8-1.3,1.8-1.1
			c0.9,0.2,1,1,1.1,1.7c0.8,5.1,3.5,8.7,7.9,11.2c1.9,1.1,3.7,1,5.5-0.2c2.5-1.6,4.4-3.7,6.1-6c0.9-1.2,1.9-1.2,2.6,0.1
			c1.6,2.7,3.9,4.5,6.7,5.6c7.5,2.9,15.1,2.7,22.4-0.6c14.3-6.4,23.6-17.5,28.6-32.3c0.5-1.4,0.8-2.8,0.9-4.3c0.1-0.9-0.3-1.7-1.2-2
			c-0.9-0.3-1.5,0.1-2.1,0.7c-0.4,0.5-0.6,1-0.8,1.6c-3.6,12.2-10.8,21.7-21.2,28.8c-4.6,3.2-9.7,4.4-15.2,3.2
			c-3.5-0.7-6.8-3.4-7.2-7.8c-0.2-2.4,0.5-4.6,1-6.9c2.5-10.9,9-19,17.8-25.4c1.6-1.2,3.4-1.7,5.4-1.2c2.6,0.7,3.7,2.6,4.2,5.1
			c0.4,2.4,2.4,3.5,4.7,2.7c0.7-0.2,1.5-0.5,1.5-1.5c0.1-2.6-0.1-5.2-1.6-7.5c-3.3-4.9-8.4-6.2-13.8-6.1c-4.2,0.1-8.1,1.5-11.6,4
			c-10.9,7.7-17.4,18.2-20.4,31.1c-0.5,2.2-0.4,4.5-2.1,6.3c-1.1,1.2-2,2.6-3,3.9c-0.4,0.6-0.9,1.1-1.6,1.4c-1.3,0.7-2.5,0.2-3-1.3
			c-0.4-1.3-0.1-2.6,0.2-3.9c2-7.9,4.2-15.9,6.2-23.8c0.9-3.4,2.1-6.8,1.8-10.4c-0.2-2.5-1.1-4.7-3.6-5.8c-2.2-0.9-4.4-0.9-6.7-0.4
			c-0.4,0.1-0.7,0.3-0.7,0.8c-0.4,3.6-1.3,7.1-2.2,10.6c-1.3,5.3-2.2,10.8-5.2,15.6c-1,1.6-1.9,3.3-2.8,5c-2.5,4.7-5.8,8.8-10.1,12
			c-1.1,0.9-2.3,1.7-3.8,2c-1.4,0.3-2.6-0.4-3-1.8c-0.2-0.8-0.3-1.6-0.1-2.5c0.3-1.9,1-3.7,1.6-5.5c2.8-9.3,5.1-18.8,7.7-28.1
			c1.9-6.9,3.8-13.7,5.7-20.6c0.2-0.7,0.5-1.3,1.3-1.3c2-0.2,4.1-0.3,6,0.4c0.7,0.3,0.9,0,1.2-0.6c1.2-2.3,1-4.9,1.3-7.4
			c0.1-0.9-0.5-1.4-1.2-1.7c-0.9-0.3-1.9-0.3-2.8-0.3c-1.7,0-2.2-0.6-1.8-2.3c0.3-1.1,0.6-2.2,0.7-3.4c0.6-4.4-0.8-7.9-5.8-8.8
			c-1.1-0.2-2.3-0.2-3.5-0.2c-1.2,0-1.6,0.5-1.9,1.6c-1.1,4.2-2.2,8.3-3.3,12.5c-0.2,0.9-0.7,1.3-1.6,1.3c-1.1,0-2.2-0.1-3.2-0.1
			c-1.1,0-2.5-0.7-3.2,0.2c-0.7,0.8-0.6,2.2-0.6,3.4c0,0.3,0,0.6,0,0.8c0.3,2.8,1.5,4.3,4,4.6c1.3,0.2,1.7,0.7,1.3,2
			c-1.7,7.2-3.3,14.3-5.1,21.5c-0.8,3.4-1.5,6.8-3.1,10c-1.7,3.2-3.3,6.5-4.9,9.7c-2.3,4.5-4.6,9-7.7,13.1c-0.9,1.2-1.8,2.3-3,3.2
			c-0.7,0.5-1.4,0.7-2.1,0.3c-0.7-0.4-1-1-0.9-1.8c0-0.6,0-1.3,0.1-1.9c0.6-4.2,2-8.3,3.2-12.4c1.1-4,2.4-8,3.5-12
			c0.6-2.3,1.1-4.6,0.9-7.1c-0.4-4-3.2-7.2-6.7-7.6c-5.2-0.5-9.7,1.1-13.6,4.4c-0.5,0.4-0.9,0.8-1.6,0.6c-0.6-0.2-0.9-0.7-0.9-1.4
			c0-0.4-0.1-0.9-0.2-1.3c-0.6-3.6-2-5.1-5.3-5.8c-1.4-0.3-2.8-0.2-4.2,0c-1.1,0.1-1.8,0.5-1.6,1.8c0.1,0.3,0,0.6-0.1,0.9
			c-0.8,5.3-2.4,10.5-3.8,15.7c-0.5,1.8-0.7,3.6-1.6,5.2c-3.2,5.9-7.2,11.3-12.3,15.8c-4.6,4.2-9.7,7.5-16,8.5
			c-5.6,0.9-10.3-2.4-11-8c-0.2-1.5,0.1-2,1.5-2.2c5.6-1,11-2.5,16.2-4.8c8.6-3.8,14.9-9.6,16.7-19.3c0.8-4.2-0.1-8-3.4-10.7
			c-5.5-4.5-11.8-5.2-18.1-2.6C289.2,66.1,281,76,277.3,89.5c-0.4,1.5-0.3,3.2-1.1,4.6c-1.8,3.5-3.9,6.8-6.3,10
			c-0.5,0.7-1,1.3-1.7,1.8c-1.4,0.9-2.8,0.4-3.2-1.2c-0.3-1-0.2-2,0-3c1-5.4,3-10.5,4.3-15.8c1-4.1,2.9-8.1,3.2-12.4
			c0.4-5.1-2.2-9.8-8.5-9.8c-4.4,0-8.2,1.6-11.7,4.2c-0.3,0.2-0.6,0.5-1,0.7c-0.5,0.3-1,0.2-1.4-0.2c-0.4-0.4-0.6-0.8-0.3-1.4
			c0.4-0.9,0.7-1.8,1.1-2.7c0.2-0.6,0.7-1,1.3-1.3c4.1-1.6,7.6-4.1,10.6-7.2c7.5-7.5,12-16.6,14.1-26.9c0.6-2.7,1.1-5.5,0.5-8.3
			c-1-4.5-4.7-6.6-9.1-5.1c-1.8,0.6-3.3,1.7-4.7,3.1c-5.4,5.3-9.8,11.3-13.5,17.9c-7.5,13.6-12.5,28.1-16.4,43
			c-0.8,3-1.2,6.1-2.9,8.8c-1,1.6-1.8,3.2-2.7,4.8c-2.6,4.7-6,8.7-10.4,11.9c-0.9,0.7-1.9,1.2-3,1.4c-1.3,0.2-2.4-0.3-2.8-1.6
			c-0.4-1-0.3-2-0.1-3.1c0.4-2.4,1.4-4.6,2-6.9c3.2-11.7,6.4-23.5,9.6-35.3c1-3.8,2.1-7.6,3.2-11.4c0.2-0.7,0.3-1.5,1.3-1.6
			c2-0.2,4.1-0.4,6,0.3c0.8,0.3,1,0,1.3-0.6c1.2-2.3,0.9-4.8,1.3-7.2c0.1-0.9-0.4-1.5-1.3-1.8c-1-0.4-2.1-0.2-3.1-0.3
			c-1.4,0-1.9-0.5-1.6-1.9c0.3-1.4,0.7-2.8,0.9-4.2c0.5-3.5-0.8-7.4-5.5-8.3c-1.4-0.3-2.8-0.3-4.2-0.3c-0.9,0-1.2,0.4-1.4,1.2
			c-1.1,4.2-2.3,8.5-3.4,12.7c-0.2,0.9-0.8,1.4-1.8,1.4c-1.8-0.1-3.7-0.1-5.5-0.2c-0.6,0-0.9,0.1-1,0.7c-0.4,1.7-0.5,3.5-0.1,5.2
			c0.4,1.8,1.6,2.9,3.4,3.2c1.7,0.3,2,0.7,1.5,2.4c-1.3,5.3-2.4,10.6-3.8,15.9c-1.5,5.8-2.4,11.7-5,17.2
			c-3.3,7.2-6.8,14.4-11.9,20.5c-0.9,1.1-1.8,2.1-2.9,3c-0.7,0.5-1.4,0.8-2.2,0.4c-0.9-0.5-1-1.3-1-2.2c0-0.7,0.2-1.4,0.3-2.1
			c1.5-6.9,3.6-13.6,5.3-20.5c1-4.1,2.5-8.1,3.1-12.3c0.3-2.7-0.1-5.2-2.4-7c-2.6-2-5.4-2.3-8.5-1.4c-0.4,0.1-0.7,0.3-0.7,0.8
			c0,2-0.5,4-0.9,6c-1.5,6.8-2.8,13.5-6.2,19.7c-3.2,5.8-6.2,11.5-10.5,16.5c-0.8,0.9-1.6,1.9-2.8,2.4c-1.4,0.6-2.5-0.1-2.6-1.6
			c-0.1-1.5,0.2-2.9,0.6-4.2c1.5-5.1,3.1-10.1,4.6-15.2c1.6-5.3,3.4-10.5,4.6-15.8c1-4.5-0.3-7.5-4.1-9.3c-1.8-0.9-3.7-1-5.6-0.8
			c-0.7,0.1-1.1,0.4-1.1,1.2c0,1.6-0.3,3.1-0.7,4.6c-2.2,7.6-4.4,15.2-6.5,22.9c-1.1,4.2-2.5,8.4-2,12.9c0.6,5.9,3.3,10.3,8.9,12.7
			c1.3,0.5,2.5,0.6,3.8,0.1c2.4-0.9,4.1-2.7,5.7-4.6c1.8-2.2,3.2-4.5,4.6-7c0.3-0.6,0.7-1.2,1.5-1.1c0.9,0.1,1.1,0.8,1.2,1.5
			c0,0.2,0,0.3,0.1,0.5c0.8,3.6,2.4,6.7,5.6,8.9c4.6,3,6.9,2.8,10.9-1c2.6-2.6,4.5-5.6,6.3-8.7c0.4-0.7,0.8-1.4,1.8-1.1
			c0.9,0.2,1.1,1,1.1,1.8c0,1.2,0.2,2.5,0.5,3.7c1,3.3,2.6,6.3,6.2,7.3c3.5,1,6.7,0.5,9.6-1.8c2.6-1.9,4.8-4.2,6.8-6.7
			c0.5-0.7,1-1.3,2-0.9c0.9,0.3,0.8,1.1,0.8,1.8c-0.1,1.6,0.4,3,1.5,4.2c2.7,3,6.2,3.7,10,3.7c0.6,0,0.5-0.4,0.4-0.8
			C239.3,112.1,239.4,110.9,239.4,110.1z M414.9,46.7c-0.1,0.4,0,1.1,0.1,1.7c0.2,2.3,1,4.3,3.2,5.3c2.2,1,4.3,0.5,6.2-0.8
			c4.3-2.9,6-9.2,5-13.5c-1.1-4.5-5.2-6.1-9-3.5C416.8,38.5,415.2,42.1,414.9,46.7z M412.2,46.1c0,0.1-0.1,0.2,0,0.2
			c0,0.1,0.1,0.1,0.1,0c0,0,0-0.1,0-0.1C412.3,46.2,412.2,46.2,412.2,46.1z M267.7,102.7C267.6,102.7,267.6,102.6,267.7,102.7
			c-0.1-0.1-0.1,0-0.1,0C267.5,102.7,267.6,102.7,267.7,102.7C267.6,102.7,267.6,102.7,267.7,102.7z"/>
		<path class="st1" d="M138.9,70.8c0.9-0.1,1.8,0,2.6-0.2c1.4-0.2,2.7-0.2,4.1-0.1c3.2,0.1,4.4,2.1,3.1,5c-1.1,2.7-3.4,3.9-6,4.7
			c-1.8,0.5-3.6,0.9-5.4,1c-0.9,0.1-1.3,0.4-1.5,1.3c-2.3,9.5-4.3,19.1-5.4,28.9c-1,8.3-1.4,16.6,0.4,24.9c0.6,2.9,1.4,5.6,2.8,8.2
			c1.9,3.7,4.8,6.2,8.7,7.6c0.9,0.3,1.7,0.7,2.5,1.2c2.1,1.5,2.5,3.6,1,5.7c-1.4,1.9-3.3,2.8-5.5,2.8c-4.6,0-9.1-0.8-13.1-3.1
			c-6.3-3.5-10-9-12.3-15.6c-1.8-5.5-2.5-11.1-2.7-16.8c-0.5-12.5,1.4-24.8,3.7-37c0.3-1.6,0.6-3.2,1-4.8c0.2-0.8,0-1-0.8-0.8
			c-6.5,0.9-13,1.8-19.5,3c-0.5,0.1-1,0.3-1.5,0.3c-2.8,0-4.5,1.5-6.2,3.7c-5.6,7.2-11.4,14.3-17.9,20.7
			c-8.3,8.2-17.6,15.1-28.6,19.2c-9.6,3.6-19.3,3.8-28.7-0.6c-6.1-2.8-10.7-7.1-12.6-13.8c-1.3-4.6-0.4-9.1,1.2-13.5
			c4.5-12.2,13.6-19.4,25.8-23.1c1.8-0.5,3.6-1.1,5.5-1c1.6,0.1,2.9,0.6,3.6,2.1c0.7,1.5,0,2.7-1,3.8c-0.9,1-2,1.8-3.2,2.5
			c-4.4,2.3-7.9,5.8-10.7,9.9c-0.6,1-0.6,2.1-0.8,3.2c-0.3,1.7-0.3,3.4-0.1,5c0.7,4.7,4.4,7.2,9.4,6.7c5.7-0.6,10.7-3.1,15.5-6
			c5.9-3.6,11.2-8,16.2-12.8c0.5-0.5,0.8-0.8,0.2-1.5c-0.8-0.8-0.8-2-0.5-3.1c0.8-2.6,2-5,3.4-7.2c1-1.5,2.6-2.2,4.3-2.6
			c1.2-0.3,2.5-0.6,3.7-0.9c0.8-0.1,1.2-0.5,1.7-1.1c8.1-11.6,15.8-23.4,23.7-35c4.2-6.1,8.8-11.9,13.2-17.8
			c0.3-0.4,0.8-0.8,0.9-1.4c-0.5-0.2-0.8,0.2-1.2,0.4c-4.7,2.7-9.4,5.2-14.8,6.3c-5.5,1.2-10.9,1.2-16.2-1.1
			c-6.9-3-10.9-10.2-9.9-17.7c0.2-1.5,0.3-3,1-4.4c1.1-2.1,2.9-2.4,4.7-0.8c0.7,0.7,1.4,1.5,1.7,2.4c1.1,3.3,3.7,4.5,6.9,4.9
			c4.3,0.6,8.6,0,12.8-0.9c9.8-1.9,19.3-5.1,28.8-7.9c4.8-1.4,9.8-2.2,14.7-3.2c2.4-0.5,4.5,0.3,6.2,2c2.9,2.8,5,6.3,6.9,9.9
			c0.7,1.4,0.8,2.9,0.5,4.5c-2,9.3-5.1,18.3-8,27.4c-2.6,8.4-5.6,16.7-7.9,25.2C139.1,69.8,139,70.2,138.9,70.8z M114.6,122
			c0,3.6,0.1,7.1,0.6,10.6c0.6,5.1,1.7,10,4.2,14.6c4.9,9.1,13,12.2,21.2,11.9c1.2,0,2.1-0.6,2.8-1.5c0.8-1,0.7-1.4-0.3-2.1
			c-0.6-0.4-1.3-0.7-1.9-0.9c-4.9-1.7-8.3-5.1-10.4-9.8c-2.7-5.9-3.6-12.2-3.7-18.6c-0.2-7.1,0.5-14.1,1.6-21.1
			c1.3-8.4,3.1-16.7,5.1-24.9c0.2-0.9,0.7-1.3,1.8-1.4c2.5-0.2,5-0.5,7.4-1.4c1.3-0.5,2.5-1.2,3.2-2.5c0.7-1.4,0.5-1.8-1-1.8
			c-2.4,0.1-4.9,0.3-7.3,0.4c-1.7,0.1-2.1-0.6-1.7-2.2c3.2-12.1,7.6-23.9,11.2-35.9c2-6.5,4.1-12.9,5.4-19.6
			c0.1-0.7,0.1-1.3-0.2-1.8c-1.7-3.6-3.8-6.9-6.7-9.7c-1-1-2.3-1.4-3.6-1.1c-4.4,0.9-8.9,1.6-13.2,2.8c-8.7,2.5-17.3,5.3-26.1,7.4
			c-5.9,1.4-11.8,2.6-17.9,1.8c-4.2-0.5-7.5-2.2-9-6.4c-0.2-0.5-0.5-0.9-0.8-1.3c-0.4-0.6-0.7-0.5-0.9,0.2c-0.3,1-0.4,1.9-0.6,2.9
			c-0.6,5.2,1,9.6,5.1,13c4.5,3.7,9.8,4,15.2,3.4c5-0.6,9.5-2.6,13.9-5c3.2-1.8,6.4-3.7,9.7-5.2c0.7-0.3,1.3-0.4,1.8,0.2
			c0.5,0.6,0.3,1.3-0.1,1.9c-0.6,0.8-1.2,1.6-1.8,2.4c-5.4,7.2-11,14.2-16,21.5c-8.2,11.9-16.1,24.1-24.4,36
			c-0.6,0.9-1.3,1.4-2.4,1.6c-1.2,0.2-2.4,0.5-3.6,0.8c-1.2,0.3-2.4,0.5-3.2,1.6c-1.4,2-2.4,4.2-3.2,6.5c-0.1,0.4-0.2,1,0.5,1
			c0.8,0,1.5,0,1.8,0.9c0.3,0.9-0.4,1.5-0.9,2.1c-2.8,3-5.7,5.7-8.9,8.2c-5.6,4.5-11.5,8.6-18.3,11.3c-3.7,1.5-7.5,2.4-11.6,1.9
			c-4.2-0.6-7.4-3.4-8.4-7.4c-0.6-2.2-0.5-4.5-0.2-6.8c0.2-1.9,0.5-3.7,1.7-5.4c3-4.3,6.8-7.8,11.4-10.2c0.9-0.5,1.7-1.1,2.4-2
			c0.6-0.8,0.4-1.2-0.6-1.3c-1.2-0.1-2.3,0.2-3.4,0.5c-13,3.5-22.3,11-26.3,24.3c-2.1,6.9-0.4,12.8,4.9,17.5
			c6.6,5.9,14.6,7.4,23.1,6.7c5.5-0.4,10.5-2.4,15.3-4.8c8.4-4.2,15.6-9.9,22.2-16.5c6.9-6.8,12.9-14.4,18.9-22
			c0.9-1.1,1.7-2,3.3-2.2c5.7-0.8,11.4-1.9,17.1-2.8c3.2-0.5,6.4-0.9,9.6-1.2c1.4-0.2,1.9,0.5,1.6,1.9c-0.8,4-1.7,8-2.4,12.1
			C115.8,103.7,114.6,112.8,114.6,122z"/>
		<path class="st1" d="M446.4,147c0.1-3.6,1.6-8.1,5.3-11.8c5.4-5.3,13.6-5.2,18.8,0.4c6.6,7.1,6.6,19,0,26.1
			c-5.6,6-14.6,5.7-19.9-0.7C447.8,157.5,446.4,153.3,446.4,147z M472.8,147.2c0-2.3-1-5.7-3.2-8.7c-4.1-5.5-11-6.3-15.9-1.9
			c-6.4,5.9-6.6,17.4-0.4,23.5c4.5,4.5,11,4.3,15.4-0.4C471.6,156.6,472.8,152.8,472.8,147.2z"/>
		<path class="st1" d="M231.2,148.3c0-5,0-10,0-15c0-0.8,0.1-1.4,1-1.7c0.9-0.3,1.6,0.4,1.6,1.5c0,3.6,0,7.3,0,10.9
			c0,2.2,0,2.2,2.2,2.2c3.2,0,6.4,0,9.6,0c0.8,0,1.1-0.2,1.1-1c0-4,0-7.9,0-11.9c0-0.9,0.1-1.8,1.3-1.8c1.1,0,1.3,0.8,1.3,1.7
			c0,10,0,20,0,29.9c0,1.2-0.7,1.8-1.7,1.6c-0.8-0.2-0.9-0.8-0.9-1.6c0-4.4,0-8.8,0-13.2c0-1-0.3-1.3-1.3-1.2c-3.5,0.1-7,0.1-10.6,0
			c-0.9,0-1,0.4-1,1.1c0,4.4,0,8.9,0,13.3c0,0.9-0.2,1.5-1.2,1.6c-0.9,0.1-1.4-0.5-1.4-1.6C231.2,158.3,231.2,153.3,231.2,148.3z"/>
		<path class="st1" d="M403.5,148.2c0,5,0,10,0,15c0,0.9-0.1,1.6-1.2,1.6c-1.1,0-1.4-0.7-1.3-1.7c0-4.4,0-8.7,0-13.1
			c0-1.1-0.3-1.3-1.3-1.3c-3.4,0.1-6.7,0.1-10.1,0c-1.2,0-1.4,0.4-1.3,1.4c0.1,4.2,0,8.4,0,12.6c0,0.4,0,0.8-0.1,1.2
			c-0.1,0.6-0.5,0.9-1.1,0.9c-0.6,0-1.1-0.2-1.3-0.8c-0.1-0.4-0.1-0.8-0.1-1.2c0-9.7,0-19.5,0-29.2c0-0.4,0-0.7,0.1-1.1
			c0.1-0.7,0.6-1,1.3-1c0.7,0,1.1,0.4,1.2,1.1c0.1,0.4,0,0.7,0,1.1c0,3.8,0,7.7,0,11.5c0,0.8,0.2,1,1,1c3.6,0,7.2,0,10.8,0
			c0.8,0,1-0.2,1-1c0-4,0-7.9,0-11.9c0-0.4,0-0.9,0.2-1.3c0.4-0.5,0.9-0.7,1.5-0.5c0.7,0.2,0.9,0.7,0.8,1.4
			C403.5,138.1,403.5,143.2,403.5,148.2z"/>
		<path class="st1" d="M380.3,136c0-0.9,0-1.8,0-2.7c0-0.8,0.5-1.4,1.4-1.3c0.8,0.1,1.2,0.6,1.2,1.4c0,2,0,4,0,6
			c0,0.7-0.2,1.3-0.9,1.5c-0.7,0.3-1.3-0.1-1.7-0.7c-0.7-1-1.5-1.9-2.4-2.7c-4.2-4-10.1-3.7-13.7,0.9c-4.2,5.4-4.8,11.5-2,17.7
			c3.4,7.6,12.2,8.7,17.9,2.6c0.3-0.3,0.5-0.6,0.8-0.9c0.6-0.7,1.2-0.9,2-0.3c0.7,0.6,0.6,1.3,0.1,1.9c-2.4,3-5.4,5.3-9.4,5.9
			c-5.6,0.8-10.6-2-13.5-7.3c-3.5-6.4-2.4-16.1,2.4-21.6c4.7-5.4,11.7-5.7,16.9-0.8c0.2,0.2,0.5,0.5,0.7,0.8
			C380.2,136.1,380.2,136.1,380.3,136z"/>
		<path class="st1" d="M340.9,165.4c-0.8,0-1.1-0.5-1.3-1.2c-0.8-2.7-1.6-5.3-2.3-8c-0.2-0.6-0.4-0.9-1.1-0.9c-3.2,0-6.4,0-9.6,0
			c-0.6,0-0.9,0.2-1.1,0.8c-0.9,2.7-1.9,5.3-2.8,8c-0.3,0.9-0.7,1.5-1.7,1.2c-1-0.3-1-1.1-0.7-1.9c3.4-10.2,6.7-20.3,10.1-30.5
			c0.3-0.8,0.6-1.5,1.6-1.4c0.8,0,1.1,0.7,1.3,1.5c3,10.2,5.9,20.3,8.9,30.5C342.5,164.6,342,165.4,340.9,165.4z M326.7,152.6
			c3.2,0,6.3,0,9.5,0c-1.5-5.3-3-10.5-4.5-16C330,142.1,328.3,147.3,326.7,152.6z"/>
		<path class="st1" d="M204.6,155.3c-1.6,0-3.1,0-4.7,0c-0.7,0-1,0.2-1.3,0.9c-0.9,2.7-1.8,5.3-2.8,8c-0.4,1.2-1.6,1.5-2.3,0.7
			c-0.5-0.5-0.3-1.1-0.1-1.7c1.1-3.2,2.1-6.4,3.2-9.6c2.2-6.8,4.5-13.5,6.7-20.3c0.1-0.3,0.2-0.5,0.3-0.8c0.2-0.7,0.7-1.1,1.4-1.1
			c0.7,0,1,0.5,1.2,1.1c0.9,2.9,1.7,5.8,2.6,8.7c2.1,7.3,4.3,14.6,6.4,21.9c0,0.2,0.1,0.3,0.1,0.5c0.2,0.8,0,1.5-0.8,1.7
			c-0.9,0.3-1.5-0.2-1.7-1c-0.7-2.6-1.6-5.1-2.2-7.7c-0.3-1.1-0.7-1.4-1.8-1.3C207.5,155.4,206,155.3,204.6,155.3z M209.5,152.7
			c-1.5-5.3-3-10.5-4.5-16.1c-0.4,1.1-0.6,1.9-0.8,2.7c-1.3,4.1-2.6,8.3-3.9,12.4c-0.1,0.3-0.7,1,0.3,1
			C203.5,152.7,206.4,152.7,209.5,152.7z"/>
		<path class="st1" d="M253,148.2c0-4.8,0-9.5,0-14.3c0-1.5,0.3-1.8,1.8-1.8c3.7,0,7.4,0,11,0c0.9,0,1.8,0.2,1.7,1.3
			c0,1.1-0.8,1.3-1.8,1.3c-3.1,0-6.2,0-9.2,0c-0.8,0-1.1,0.2-1.1,1.1c0,3.2,0,6.5,0,9.7c0,0.8,0.2,1.1,1,1.1c2.6-0.1,5.3,0,7.9,0
			c1.5,0,2.1,0.4,2.1,1.3c-0.1,1.3-1.1,1.3-2,1.2c-2.7,0-5.4,0-8,0c-0.8,0-1,0.3-1,1c0,3.6,0,7.3,0,10.9c0,0.8,0.3,1,1,1
			c3.4,0,6.8,0,10.2,0c0.9,0,1.7,0.2,1.7,1.2c0,1.1-0.8,1.4-1.7,1.4c-4,0-8,0-12,0c-1.4,0-1.8-0.4-1.8-1.9
			C253,157.8,253,153,253,148.2z"/>
		<path class="st1" d="M176.4,148.2c0-4.7,0-9.3,0-14c0-1.8,0.3-2,2-2c3.6,0,7.2,0,10.8,0c1.3,0,1.9,0.4,1.8,1.3
			c-0.1,1.1-0.9,1.3-1.8,1.3c-3,0-6.1,0-9.1,0c-0.8,0-1.2,0.1-1.2,1.1c0.1,3.2,0.1,6.5,0,9.7c0,0.9,0.3,1.1,1.1,1.1
			c2.8,0,5.6,0,8.4,0c0.9,0,1.5,0.2,1.6,1.2c0,0.9-0.5,1.4-1.4,1.3c-2.8,0-5.6,0-8.4,0c-0.9,0-1.3,0.1-1.2,1.1
			c0.1,3.6,0.1,7.1,0,10.7c0,0.8,0.2,1.1,1.1,1.1c3.4,0,6.8,0,10.2,0c0.9,0,1.7,0.1,1.7,1.2c0,1.1-0.8,1.3-1.7,1.3c-4,0-8,0-12,0
			c-1.4,0-1.8-0.4-1.8-1.8C176.4,157.9,176.4,153,176.4,148.2z"/>
		<path class="st1" d="M441.2,136.2c0-1.4,0-2.4,0-3.4c0-0.8,0.2-1.5,1.1-1.5c0.9,0,1.2,0.7,1.2,1.5c0,1.9,0,3.8,0,5.6
			c0,0.7-0.1,1.5-0.9,1.8c-0.8,0.2-1.3-0.3-1.7-0.9c-0.6-0.8-1.3-1.6-2-2.4c-4.4-4.4-10.4-4.2-14.5,0.5c-4.8,5.4-5.1,15.5-0.7,21.2
			c4.1,5.3,11.5,5.7,16.5,0.8c0.6-0.5,1.1-1.2,1.6-1.7c0.5-0.5,1.1-0.7,1.7-0.2c0.6,0.5,0.6,1.1,0.1,1.7c-6,7.8-15.9,8.6-21.9,0.8
			c-3.6-4.7-4.1-10.1-3.1-15.7c0.7-3.5,2.1-6.6,4.6-9.2c4.8-4.9,11.6-5,16.6-0.3C440.3,135.1,440.6,135.5,441.2,136.2z"/>
		<path class="st1" d="M303.7,148.4c0-5.1,0-10.3,0-15.4c0-0.4-0.2-0.9,0.6-1c3.7-0.3,7.3,0,10.6,1.7c3.3,1.7,5.3,4.4,5.3,8.3
			c0.1,4.4-1.4,8-5.4,10.2c-2.4,1.3-5,1.9-7.7,2.1c-0.8,0.1-0.9,0.4-0.9,1.1c0,2.8,0,5.6,0,8.4c0,1-0.1,1.8-1.3,1.9
			c-0.9,0.1-1.3-0.6-1.3-1.9C303.7,158.6,303.7,153.5,303.7,148.4z M306.3,143c0,2.6,0,5.3,0,7.9c0,0.4-0.1,0.9,0.7,0.8
			c2.3-0.3,4.6-0.7,6.7-1.9c4.6-2.7,5.5-9.2,1.6-12.6c-2.4-2.1-5.3-2.7-8.4-2.7c-0.7,0-0.6,0.5-0.6,0.9
			C306.3,137.9,306.3,140.4,306.3,143z"/>
		<path class="st1" d="M348.7,149.8c0-4.5,0-9.1,0-13.6c0-0.9-0.3-1.2-1.1-1.1c-1.2,0.1-2.4,0-3.6,0c-0.9,0-1.6-0.3-1.6-1.4
			c0-1.1,0.7-1.3,1.6-1.3c4.1,0,8.1,0,12.2,0c0.9,0,1.7,0.1,1.6,1.2c0,1.1-0.7,1.4-1.7,1.4c-1.2,0-2.5,0.1-3.7,0
			c-0.9-0.1-1.1,0.2-1.1,1.1c0,8.2,0,16.4,0,24.5c0,1,0,1.9,0,2.9c0,0.9-0.4,1.6-1.4,1.6c-1.1,0-1.3-0.7-1.3-1.6
			C348.7,159,348.7,154.4,348.7,149.8z"/>
		<path class="st1" d="M220,149.9c0-4.6,0-9.2,0-13.8c0-0.8-0.2-1.1-1-1c-1.2,0.1-2.5,0-3.7,0c-0.9,0-1.6-0.4-1.6-1.4
			c0-1,0.7-1.3,1.6-1.3c4.1,0,8.1,0,12.2,0c0.9,0,1.6,0.1,1.6,1.2c0,1.1-0.7,1.4-1.7,1.4c-1.3,0-2.6,0.1-3.8,0c-0.9-0.1-1,0.2-1,1.1
			c0,9,0,18,0,27c0,0.4,0,0.8-0.1,1.2c-0.2,0.7-0.8,0.9-1.5,0.8c-0.8-0.1-1-0.7-1-1.4C220,159.2,220,154.5,220,149.9z"/>
		<path class="st1" d="M162,148.2c0-4.7,0-9.3,0-14c0-0.4,0-0.9,0.1-1.3c0.1-0.6,0.6-0.9,1.2-0.9c0.6,0,1.1,0.3,1.2,0.9
			c0.1,0.4,0.1,0.9,0.1,1.3c0,8.9,0,17.8,0,26.7c0,0.9,0.2,1.2,1.1,1.1c2.2-0.1,4.4,0,6.6,0c0.9,0,1.8,0,1.9,1.3
			c0,1-0.5,1.4-1.9,1.4c-2.7,0-5.4,0-8.1,0c-1.6,0-2.1-0.4-2.1-2.1C162,157.8,162,153,162,148.2z"/>
		<path class="st1" d="M479.1,116.7c0.4-1.2,0.8-2.1,1.1-3.1c0.2-0.8,0.7-0.9,1.4-0.9c0.9,0,0.6,0.7,0.6,1.1c0.2,1.3,0.3,2.7,0.4,4
			c0,0.4,0.1,0.8-0.5,0.8c-0.5,0-0.9,0-0.9-0.7c0-0.8-0.1-1.6-0.2-2.5c-0.6,0.8-0.7,1.7-1.1,2.5c-0.2,0.4-0.3,0.7-0.9,0.7
			c-0.6,0-0.7-0.4-0.9-0.8c-0.3-0.8-0.6-1.6-0.9-2.6c-0.3,1-0.3,1.9-0.3,2.7c0,0.7-0.3,0.7-0.8,0.7c-0.6,0-0.5-0.4-0.4-0.7
			c0.1-1.4,0.2-2.9,0.3-4.3c0-0.4-0.1-0.9,0.6-0.9c0.6,0,1.2-0.2,1.4,0.7C478.2,114.5,478.6,115.4,479.1,116.7z"/>
		<path class="st1" d="M472.5,112.8c0.6,0,1.2,0,1.8,0c0.6-0.1,0.6,0.3,0.7,0.7c0.1,0.6-0.4,0.4-0.6,0.4c-1-0.1-1.2,0.3-1.2,1.2
			c0.1,0.9,0,1.9,0,2.9c0,0.5-0.1,0.8-0.7,0.8c-0.6,0-0.8-0.2-0.7-0.7c0-1.1,0-2.2,0-3.2c0-0.7-0.2-0.9-0.9-0.9
			c-0.4,0-0.9,0.3-1-0.5c0-0.8,0.5-0.6,1-0.6C471.5,112.7,472,112.8,472.5,112.8z"/>
		<path class="st1" d="M476.9,164c0,1-0.7,1.7-1.8,1.7c-1,0-1.8-0.8-1.7-1.8c0.1-1,0.8-1.6,1.8-1.6
			C476.2,162.2,476.9,162.9,476.9,164z"/>
		<path class="st0" d="M272.4,142.8c0-2.6,0-5.2,0-7.8c0-0.5,0-0.8,0.7-0.8c2.7,0.2,5.4,0.8,7.6,2.6c3.7,2.9,3.7,7.7-0.1,11
			c-2.1,1.9-4.6,2.9-7.4,3.5c-0.8,0.2-0.8-0.2-0.8-0.7C272.4,147.9,272.4,145.4,272.4,142.8z"/>
		<path class="st2" d="M239.4,110.1c0,0.9-0.1,2.1,0.2,3.2c0.1,0.3,0.1,0.8-0.4,0.8c-3.8,0-7.3-0.8-10-3.7c-1.1-1.2-1.6-2.6-1.5-4.2
			c0-0.7,0.1-1.5-0.8-1.8c-0.9-0.3-1.5,0.3-2,0.9c-2,2.5-4.3,4.7-6.8,6.7c-2.9,2.2-6.2,2.7-9.6,1.8c-3.6-1-5.2-4-6.2-7.3
			c-0.4-1.2-0.5-2.4-0.5-3.7c0-0.8-0.2-1.6-1.1-1.8c-0.9-0.2-1.4,0.4-1.8,1.1c-1.8,3.1-3.7,6.1-6.3,8.7c-3.9,3.9-6.3,4.1-10.9,1
			c-3.2-2.1-4.8-5.2-5.6-8.9c0-0.2,0-0.3-0.1-0.5c-0.1-0.8-0.4-1.4-1.2-1.5c-0.8-0.1-1.2,0.5-1.5,1.1c-1.3,2.5-2.8,4.8-4.6,7
			c-1.6,1.9-3.3,3.7-5.7,4.6c-1.3,0.5-2.6,0.4-3.8-0.1c-5.6-2.4-8.3-6.8-8.9-12.7c-0.5-4.5,0.9-8.7,2-12.9
			c2.1-7.6,4.3-15.2,6.5-22.9c0.4-1.5,0.7-3,0.7-4.6c0-0.8,0.4-1.2,1.1-1.2c1.9-0.1,3.8,0,5.6,0.8c3.8,1.8,5.1,4.7,4.1,9.3
			c-1.2,5.4-3,10.6-4.6,15.8c-1.5,5.1-3.1,10.1-4.6,15.2c-0.4,1.4-0.7,2.8-0.6,4.2c0.1,1.5,1.3,2.2,2.6,1.6c1.2-0.5,2-1.5,2.8-2.4
			c4.3-5,7.4-10.8,10.5-16.5c3.4-6.2,4.7-13,6.2-19.7c0.4-2,1-4,0.9-6c0-0.5,0.3-0.7,0.7-0.8c3.1-0.9,5.9-0.5,8.5,1.4
			c2.3,1.8,2.7,4.3,2.4,7c-0.5,4.2-2.1,8.2-3.1,12.3c-1.7,6.8-3.8,13.6-5.3,20.5c-0.2,0.7-0.3,1.4-0.3,2.1c-0.1,0.9,0.1,1.7,1,2.2
			c0.8,0.4,1.6,0.1,2.2-0.4c1.1-0.9,2-1.9,2.9-3c5.1-6.2,8.6-13.3,11.9-20.5c2.5-5.5,3.5-11.4,5-17.2c1.4-5.3,2.5-10.6,3.8-15.9
			c0.4-1.7,0.2-2.1-1.5-2.4c-1.9-0.3-3-1.4-3.4-3.2c-0.4-1.7-0.3-3.5,0.1-5.2c0.1-0.6,0.4-0.7,1-0.7c1.8,0.1,3.7,0.1,5.5,0.2
			c1,0,1.5-0.5,1.8-1.4c1.1-4.2,2.3-8.5,3.4-12.7c0.2-0.8,0.5-1.2,1.4-1.2c1.4,0,2.8,0,4.2,0.3c4.7,0.9,6,4.7,5.5,8.3
			c-0.2,1.4-0.6,2.8-0.9,4.2c-0.3,1.4,0.2,1.9,1.6,1.9c1,0,2.1-0.1,3.1,0.3c0.9,0.3,1.4,0.9,1.3,1.8c-0.4,2.4-0.1,5-1.3,7.2
			c-0.3,0.6-0.6,0.9-1.3,0.6c-2-0.7-4-0.5-6-0.3c-1,0.1-1.1,0.9-1.3,1.6c-1.1,3.8-2.1,7.6-3.2,11.4c-3.2,11.7-6.4,23.5-9.6,35.3
			c-0.6,2.3-1.6,4.5-2,6.9c-0.2,1-0.2,2.1,0.1,3.1c0.5,1.3,1.5,1.8,2.8,1.6c1.1-0.2,2.1-0.8,3-1.4c4.4-3.2,7.8-7.2,10.4-11.9
			c0.9-1.6,1.7-3.3,2.7-4.8c1.7-2.7,2.1-5.8,2.9-8.8c3.9-14.9,8.9-29.4,16.4-43c3.7-6.6,8.1-12.6,13.5-17.9c1.3-1.3,2.9-2.4,4.7-3.1
			c4.4-1.5,8,0.6,9.1,5.1c0.6,2.8,0.1,5.6-0.5,8.3c-2.1,10.3-6.7,19.4-14.1,26.9c-3.1,3.1-6.5,5.6-10.6,7.2
			c-0.6,0.3-1.1,0.6-1.3,1.3c-0.3,0.9-0.7,1.8-1.1,2.7c-0.2,0.6-0.1,1,0.3,1.4c0.4,0.4,0.9,0.5,1.4,0.2c0.3-0.2,0.7-0.5,1-0.7
			c3.5-2.6,7.3-4.2,11.7-4.2c6.2,0,8.8,4.7,8.5,9.8c-0.3,4.3-2.1,8.2-3.2,12.4c-1.3,5.3-3.3,10.4-4.3,15.8c-0.2,1-0.3,2,0,3
			c0.4,1.6,1.8,2.2,3.2,1.2c0.7-0.5,1.2-1.1,1.7-1.8c2.4-3.2,4.5-6.5,6.3-10c0.7-1.4,0.7-3.1,1.1-4.6c3.7-13.6,11.9-23.4,24.8-28.9
			c6.3-2.7,12.7-1.9,18.1,2.6c3.3,2.7,4.2,6.5,3.4,10.7c-1.8,9.7-8.1,15.5-16.7,19.3c-5.2,2.3-10.6,3.8-16.2,4.8
			c-1.3,0.2-1.7,0.8-1.5,2.2c0.8,5.6,5.5,8.8,11,8c6.4-1,11.4-4.4,16-8.5c5-4.5,9-9.9,12.3-15.8c0.9-1.6,1.1-3.5,1.6-5.2
			c1.4-5.2,3-10.3,3.8-15.7c0-0.3,0.2-0.6,0.1-0.9c-0.3-1.3,0.5-1.7,1.6-1.8c1.4-0.2,2.8-0.2,4.2,0c3.3,0.6,4.7,2.2,5.3,5.8
			c0.1,0.4,0.2,0.9,0.2,1.3c0,0.7,0.3,1.2,0.9,1.4c0.7,0.2,1.1-0.2,1.6-0.6c3.9-3.3,8.4-4.9,13.6-4.4c3.6,0.4,6.4,3.6,6.7,7.6
			c0.2,2.4-0.2,4.8-0.9,7.1c-1.1,4-2.4,8-3.5,12c-1.1,4.1-2.6,8.1-3.2,12.4c-0.1,0.6-0.1,1.3-0.1,1.9c0,0.8,0.2,1.5,0.9,1.8
			c0.7,0.4,1.5,0.2,2.1-0.3c1.2-0.9,2.1-2.1,3-3.2c3.1-4,5.4-8.5,7.7-13.1c1.6-3.2,3.2-6.5,4.9-9.7c1.6-3.2,2.3-6.6,3.1-10
			c1.8-7.1,3.4-14.3,5.1-21.5c0.3-1.3,0-1.8-1.3-2c-2.5-0.4-3.7-1.8-4-4.6c0-0.3,0-0.6,0-0.8c-0.1-1.2-0.1-2.5,0.6-3.4
			c0.7-0.9,2.1-0.2,3.2-0.2c1.1,0,2.2,0,3.2,0.1c0.9,0,1.4-0.4,1.6-1.3c1.1-4.2,2.3-8.3,3.3-12.5c0.3-1.1,0.7-1.6,1.9-1.6
			c1.2,0,2.3,0,3.5,0.2c5,0.9,6.4,4.5,5.8,8.8c-0.2,1.1-0.5,2.3-0.7,3.4c-0.4,1.7,0,2.3,1.8,2.3c1,0,1.9-0.1,2.8,0.3
			c0.8,0.3,1.3,0.8,1.2,1.7c-0.3,2.5,0,5-1.3,7.4c-0.3,0.6-0.5,0.9-1.2,0.6c-2-0.7-4-0.5-6-0.4c-0.8,0.1-1.1,0.6-1.3,1.3
			c-1.9,6.9-3.8,13.7-5.7,20.6c-2.6,9.4-4.9,18.8-7.7,28.1c-0.6,1.8-1.3,3.6-1.6,5.5c-0.1,0.9-0.1,1.7,0.1,2.5c0.3,1.3,1.6,2,3,1.8
			c1.5-0.3,2.6-1.2,3.8-2c4.3-3.3,7.5-7.3,10.1-12c0.9-1.7,1.7-3.4,2.8-5c3-4.8,3.9-10.2,5.2-15.6c0.9-3.5,1.7-7,2.2-10.6
			c0.1-0.5,0.3-0.7,0.7-0.8c2.3-0.5,4.5-0.5,6.7,0.4c2.5,1.1,3.4,3.2,3.6,5.8c0.3,3.6-0.9,7-1.8,10.4c-2.1,7.9-4.2,15.9-6.2,23.8
			c-0.3,1.3-0.6,2.6-0.2,3.9c0.4,1.5,1.6,2,3,1.3c0.6-0.3,1.1-0.9,1.6-1.4c1-1.3,1.9-2.7,3-3.9c1.7-1.8,1.6-4.1,2.1-6.3
			c3-12.8,9.6-23.4,20.4-31.1c3.5-2.5,7.4-3.9,11.6-4c5.4-0.1,10.5,1.2,13.8,6.1c1.5,2.3,1.8,4.8,1.6,7.5c-0.1,0.9-0.8,1.2-1.5,1.5
			c-2.3,0.8-4.2-0.4-4.7-2.7c-0.5-2.5-1.6-4.4-4.2-5.1c-2-0.5-3.8,0-5.4,1.2c-8.9,6.4-15.3,14.5-17.8,25.4c-0.5,2.3-1.2,4.5-1,6.9
			c0.3,4.4,3.6,7,7.2,7.8c5.5,1.2,10.7-0.1,15.2-3.2c10.4-7.2,17.6-16.6,21.2-28.8c0.2-0.6,0.4-1.1,0.8-1.6c0.6-0.6,1.3-1,2.1-0.7
			c0.9,0.3,1.2,1.1,1.2,2c-0.1,1.5-0.4,2.9-0.9,4.3c-5,14.8-14.2,25.9-28.6,32.3c-7.2,3.2-14.8,3.5-22.4,0.6
			c-2.8-1.1-5.1-2.9-6.7-5.6c-0.7-1.3-1.7-1.3-2.6-0.1c-1.7,2.3-3.6,4.4-6.1,6c-1.8,1.2-3.6,1.2-5.5,0.2c-4.4-2.5-7.2-6.1-7.9-11.2
			c-0.1-0.7-0.2-1.5-1.1-1.7c-0.9-0.2-1.4,0.4-1.8,1.1c-2.5,3.8-5.5,7.3-9.1,10.1c-2.7,2.1-5.6,3.1-9,2.5c-4.4-0.8-6.4-3.9-7.5-7.8
			c-0.3-1.2-0.5-2.5-0.5-3.8c0-0.7-0.2-1.4-1-1.6c-0.9-0.2-1.3,0.2-1.7,0.9c-1.6,2.9-3.5,5.7-5.7,8.3c-1.1,1.3-2.5,2.4-4,3.2
			c-1.6,0.9-3.2,0.9-4.9,0.1c-5.1-2.3-7.6-6.3-8.4-11.6c-0.7-4.7,0.5-9.1,1.9-13.5c1.1-3.5,2.4-6.9,3.3-10.5c0.4-1.6,0.6-3.3,0.2-5
			c-0.4-1.4-1.4-2-2.8-1.5c-0.9,0.3-1.6,0.9-2.3,1.5c-5.9,5-9.7,11.4-11.8,18.9c-1.7,6.2-3.5,12.3-4.4,18.7c-0.1,1-0.1,1.9-0.1,2.9
			c0,0.5-0.2,0.8-0.8,0.8c-4.3,0.5-8.5-2.4-9.6-6.6c-0.3-1.3-0.3-2.6,0-3.9c0.1-0.8,0.1-1.4-0.6-1.8c-0.7-0.4-1.3-0.1-1.9,0.5
			c-4.3,3.9-9,7.2-14.4,9.4c-6.4,2.5-12.9,3.5-19.7,1.8c-4.2-1.1-7.4-3.5-9.2-7.5c-0.3-0.6-0.5-1.3-1.4-1.4
			c-0.9-0.1-1.2,0.6-1.6,1.2c-1.7,2.7-3.6,5.4-6.4,7.2c-2.2,1.5-4.3,1.5-6.6,0.1c-6-3.5-8.1-8.9-7.8-15.5c0.3-6.2,2.5-11.8,4.8-17.4
			c0.7-1.8,1.6-3.6,1.6-5.6c0-2.7-1.9-3.8-4.3-2.6c-1.6,0.8-2.9,2.1-4.2,3.4c-5.6,5.9-8.8,13.1-10.5,21
			C240.6,100.7,239.3,105.1,239.4,110.1z M317.9,73.8c0.1-5.5-2.7-8-6.9-7.2c-1.3,0.2-2.4,0.9-3.5,1.5c-8.5,5.3-13.7,13-16.5,22.5
			c-0.4,1.5,0.5,2.4,1.9,2c1.5-0.4,3.1-0.7,4.6-1.2c5.1-1.5,10.1-3.4,14.3-7C315.2,81.4,317.6,77.7,317.9,73.8z M273,28
			c0-1.1-0.2-1.8-0.9-2.1c-0.8-0.4-1.3,0-1.8,0.5c-0.4,0.3-0.7,0.7-1,1.2c-1.6,2.5-3.2,5-4.8,7.5c-3.8,6-7.2,12.1-10,18.6
			c-0.3,0.7-0.4,1.4,0.3,1.8c0.6,0.4,1.3,0.3,1.9-0.2c0.9-0.8,1.8-1.5,2.6-2.3c6.1-6.2,10.1-13.6,12.8-21.8
			C272.4,30,272.9,28.8,273,28z"/>
		<path class="st2" d="M414.9,46.7c0.3-4.5,1.8-8.2,5.5-10.7c3.8-2.6,8-1.1,9,3.5c1,4.3-0.7,10.6-5,13.5c-1.9,1.3-4.1,1.8-6.2,0.8
			c-2.2-1-3-3-3.2-5.3C414.9,47.7,414.8,47.1,414.9,46.7z"/>
		<path class="st0" d="M412.2,46.1c0,0,0.1,0.1,0.1,0.1c0,0,0,0.1,0,0.1c0,0.1-0.1,0.1-0.1,0C412.1,46.3,412.2,46.2,412.2,46.1z"/>
		<path class="st0" d="M267.7,102.7C267.6,102.7,267.6,102.7,267.7,102.7c-0.1,0-0.1,0-0.1,0C267.5,102.6,267.6,102.6,267.7,102.7
			C267.6,102.6,267.6,102.7,267.7,102.7z"/>
		<path class="st2" d="M114.6,122c0-9.2,1.2-18.3,2.9-27.3c0.7-4,1.6-8,2.4-12.1c0.3-1.4-0.2-2-1.6-1.9c-3.2,0.3-6.4,0.8-9.6,1.2
			c-5.7,0.9-11.4,1.9-17.1,2.8C90,85,89.1,85.8,88.2,87c-6,7.6-12,15.1-18.9,22c-6.6,6.6-13.8,12.3-22.2,16.5
			c-4.9,2.4-9.9,4.4-15.3,4.8c-8.5,0.7-16.5-0.8-23.1-6.7c-5.3-4.7-7-10.6-4.9-17.5c4-13.3,13.3-20.8,26.3-24.3
			c1.1-0.3,2.2-0.6,3.4-0.5c1,0.1,1.2,0.5,0.6,1.3c-0.6,0.8-1.5,1.5-2.4,2c-4.6,2.5-8.3,6-11.4,10.2c-1.2,1.7-1.5,3.5-1.7,5.4
			c-0.3,2.3-0.3,4.5,0.2,6.8c1,4.1,4.3,6.8,8.4,7.4c4.1,0.6,7.8-0.4,11.6-1.9c6.8-2.7,12.7-6.7,18.3-11.3c3.1-2.5,6.1-5.2,8.9-8.2
			c0.5-0.6,1.2-1.1,0.9-2.1c-0.3-0.8-1-0.9-1.8-0.9c-0.7,0-0.7-0.6-0.5-1c0.8-2.3,1.8-4.5,3.2-6.5c0.7-1,2-1.3,3.2-1.6
			c1.2-0.3,2.4-0.6,3.6-0.8c1.1-0.2,1.8-0.7,2.4-1.6c8.2-11.9,16.2-24,24.4-36c5.1-7.4,10.7-14.4,16-21.5c0.6-0.8,1.2-1.6,1.8-2.4
			c0.5-0.6,0.6-1.2,0.1-1.9c-0.5-0.6-1.2-0.5-1.8-0.2c-3.3,1.6-6.5,3.5-9.7,5.2c-4.4,2.4-8.9,4.4-13.9,5c-5.4,0.6-10.8,0.3-15.2-3.4
			c-4.1-3.4-5.7-7.8-5.1-13c0.1-1,0.2-2,0.6-2.9c0.2-0.7,0.5-0.8,0.9-0.2c0.3,0.4,0.7,0.8,0.8,1.3c1.5,4.2,4.9,5.9,9,6.4
			c6.1,0.8,12-0.4,17.9-1.8c8.8-2,17.4-4.9,26.1-7.4c4.3-1.3,8.8-1.9,13.2-2.8c1.4-0.3,2.6,0.1,3.6,1.1c2.9,2.8,5,6.1,6.7,9.7
			c0.3,0.6,0.3,1.2,0.2,1.8c-1.3,6.6-3.4,13.1-5.4,19.6c-3.7,12-8,23.8-11.2,35.9c-0.4,1.6,0,2.3,1.7,2.2c2.4-0.1,4.9-0.3,7.3-0.4
			c1.6,0,1.7,0.3,1,1.8c-0.7,1.3-1.9,2-3.2,2.5c-2.4,0.9-4.9,1.2-7.4,1.4c-1,0.1-1.5,0.5-1.8,1.4c-2,8.2-3.8,16.5-5.1,24.9
			c-1.1,7-1.8,14-1.6,21.1c0.2,6.4,1.1,12.7,3.7,18.6c2.1,4.7,5.5,8,10.4,9.8c0.7,0.2,1.3,0.5,1.9,0.9c1,0.7,1.1,1.2,0.3,2.1
			c-0.7,0.9-1.6,1.4-2.8,1.5c-8.2,0.3-16.3-2.8-21.2-11.9c-2.5-4.6-3.6-9.5-4.2-14.6C114.7,129.1,114.6,125.6,114.6,122z M99.4,76.3
			c0.6-0.1,1.3-0.2,1.9-0.3c6.3-0.6,12.5-1.2,18.8-1.5c1.2-0.1,1.7-0.6,2-1.7c2-7.8,4.2-15.4,6.6-23.1c2.9-9.1,6-18.2,9.3-27.2
			c0.3-0.8,0.6-1.7-0.4-2.2c-0.9-0.5-1.6,0-2.1,0.8c-0.1,0.2-0.2,0.3-0.4,0.5c-6.9,9.3-13.5,18.8-20.1,28.3
			c-5.5,8-11.2,16-16.9,23.8c-0.4,0.5-0.9,1.1-0.5,1.8C98.2,76.2,98.7,76.3,99.4,76.3z M86.4,78.6c0.5,0,0.8-0.1,1.1-0.4
			c1.8-2,3.6-4.1,5.1-6.3c0.4-0.6,0.4-1.3-0.2-1.8c-0.7-0.6-1.4-0.5-1.9,0.1c-1.8,2.1-3.5,4.2-5.1,6.3c-0.4,0.5-0.3,1,0,1.6
			C85.6,78.4,86,78.7,86.4,78.6z M121.3,32.6c0-0.7-0.3-1.2-0.9-1.4c-0.6-0.2-1.1,0-1.5,0.6c-1.5,2-2.9,4-4.4,6
			c-0.7,0.9-0.7,1.8,0,2.3c0.9,0.6,1.6,0.1,2.2-0.7c1.4-1.9,2.7-3.7,4.1-5.6C121.1,33.5,121.3,33.1,121.3,32.6z M17,118.7
			c0.6,0.1,1-0.3,1.2-0.8c0.3-0.5,0.3-1.1-0.2-1.5c-1.8-1.6-2.9-3.7-3.5-6c-0.2-0.9-0.8-1.4-1.8-1.1c-0.9,0.3-1.2,1-0.9,1.9
			c0.8,2.6,2.1,5,4,6.9C16.1,118.5,16.5,118.7,17,118.7z M40.3,120.8c0.2,0,0.5-0.1,0.8-0.2c2.4-0.6,4.6-1.4,6.9-2.3
			c0.9-0.3,1.3-0.9,1-1.8c-0.4-1-1.2-0.9-2-0.7c-1.3,0.4-2.5,0.9-3.8,1.3c-1.1,0.4-2.2,0.6-3.3,1c-0.8,0.3-1.1,0.8-1,1.7
			C39,120.6,39.5,120.7,40.3,120.8z M81.5,82.2c-0.7,0-1.1,0.4-1.5,0.9c-1.6,1.9-3.1,3.8-4.6,5.8c-0.5,0.6-0.6,1.2,0.1,1.8
			c0.6,0.5,1.3,0.6,1.9-0.1c1.7-2,3.5-4.1,5.2-6.1c0.4-0.5,0.3-1,0-1.6C82.4,82.4,82,82.1,81.5,82.2z M129.7,18.3
			c-0.7,0-1.1,0.3-1.5,0.8c-1.4,1.8-2.8,3.7-4.2,5.5c-0.2,0.2-0.4,0.5-0.5,0.8c-0.3,0.7-0.1,1.3,0.6,1.7c0.7,0.4,1.3,0.2,1.7-0.4
			c1.6-2.1,3.2-4.2,4.8-6.4C131.1,19.5,130.6,18.4,129.7,18.3z M105.7,53.1c0.4,0,0.7,0,1-0.4c1.6-2.2,3.3-4.3,4.9-6.5
			c0.5-0.7,0.4-1.4-0.3-1.9c-0.6-0.5-1.4-0.4-1.8,0.2c-1.7,2.1-3.3,4.3-4.8,6.5C104,52,104.7,53.1,105.7,53.1z M62,107.7
			c0-0.4-0.2-0.9-0.7-1.1c-0.6-0.2-1.1-0.1-1.6,0.4c-1.8,1.8-3.5,3.7-5.7,5.1c-0.7,0.4-0.8,1.2-0.4,1.9c0.5,0.8,1.1,0.7,1.9,0.3
			c2.4-1.4,4.2-3.5,6.1-5.5C61.9,108.5,62,108.2,62,107.7z M66.2,103.2c0.5,0.1,0.8-0.3,1.1-0.7c1.6-1.9,3.1-3.7,4.7-5.6
			c0.6-0.7,0.6-1.4-0.1-2c-0.7-0.5-1.4-0.5-2,0.2c-1.7,2-3.3,4-4.9,6c-0.4,0.4-0.5,0.9-0.2,1.4C65.1,103,65.5,103.1,66.2,103.2z
			 M96.3,66c0.4,0,0.7,0,1-0.4c0.1-0.1,0.2-0.2,0.3-0.4c1.4-1.9,2.9-3.9,4.3-5.8c0.6-0.7,0.8-1.5-0.1-2.2c-0.9-0.6-1.4-0.2-2,0.5
			c-1.5,2-3,4-4.5,6C94.6,64.8,95.2,65.9,96.3,66z M28.6,122.2c1.4,0,2.6,0,3.9-0.2c0.7-0.1,1.2-0.5,1.1-1.3
			c-0.1-0.7-0.5-1.2-1.4-1.2c-2.6,0-5.2,0.1-7.7-0.2c-0.8-0.1-1.3,0.2-1.4,1c-0.1,0.8,0.2,1.2,1,1.4
			C25.6,122.2,27.1,122.3,28.6,122.2z M136.4,8.9c-0.3,0-0.6,0-0.8,0.3c-1,1.2-2,2.4-2.7,3.7c-0.3,0.6-0.1,1.2,0.5,1.5
			c0.6,0.4,1.3,0.3,1.7-0.2c0.9-1.1,1.7-2.2,2.5-3.4C138.1,9.9,137.4,8.8,136.4,8.9z M10.8,101.2c0,0.5,0,0.9,0,1.2
			c0,0.9,0.3,1.5,1.3,1.5c0.9,0,1.4-0.5,1.4-1.4c0.1-1.2,0.2-2.4,0.2-3.6c0-0.8-0.3-1.4-1.1-1.5c-0.9-0.1-1.4,0.3-1.5,1.3
			C10.9,99.6,10.8,100.5,10.8,101.2z"/>
		<path class="st0" d="M472.8,147.2c0,5.6-1.2,9.4-4.1,12.5c-4.3,4.8-10.8,4.9-15.4,0.4c-6.2-6.2-6-17.6,0.4-23.5
			c4.8-4.4,11.8-3.6,15.9,1.9C471.8,141.5,472.9,144.9,472.8,147.2z"/>
		<path class="st0" d="M326.7,152.6c1.6-5.3,3.3-10.5,5-16c1.5,5.5,3,10.7,4.5,16C333,152.6,329.9,152.6,326.7,152.6z"/>
		<path class="st0" d="M209.5,152.7c-3,0-6,0-8.9,0c-1,0-0.4-0.6-0.3-1c1.3-4.1,2.6-8.3,3.9-12.4c0.2-0.8,0.5-1.6,0.8-2.7
			C206.5,142.2,207.9,147.4,209.5,152.7z"/>
		<path class="st0" d="M306.3,143c0-2.6,0-5.1,0-7.7c0-0.4-0.2-0.9,0.6-0.9c3.1,0,6.1,0.6,8.4,2.7c3.8,3.4,3,9.9-1.6,12.6
			c-2.1,1.2-4.4,1.6-6.7,1.9c-0.7,0.1-0.7-0.3-0.7-0.8C306.3,148.2,306.3,145.6,306.3,143z"/>
		<path class="st1" d="M317.9,73.8c-0.2,3.9-2.6,7.6-6.2,10.8c-4.1,3.6-9.1,5.5-14.3,7c-1.5,0.5-3.1,0.8-4.6,1.2
			c-1.3,0.3-2.3-0.5-1.9-2c2.8-9.5,8-17.2,16.5-22.5c1.1-0.7,2.2-1.3,3.5-1.5C315.2,65.8,317.9,68.3,317.9,73.8z M294.2,89.7
			c5.6-1.5,11-3.2,15.4-6.9c2.8-2.3,4.9-5.1,5.5-8.8c0.3-1.6,0.4-3.3-1.1-4.4c-1.5-1.1-3.1-0.4-4.5,0.4
			C302,74.7,296.8,81.1,294.2,89.7z"/>
		<path class="st1" d="M273,28c-0.1,0.9-0.6,2-1,3.2c-2.7,8.2-6.7,15.6-12.8,21.8c-0.8,0.8-1.7,1.6-2.6,2.3
			c-0.6,0.5-1.2,0.6-1.9,0.2c-0.7-0.5-0.6-1.1-0.3-1.8c2.7-6.5,6.2-12.7,10-18.6c1.6-2.5,3.2-5,4.8-7.5c0.3-0.4,0.6-0.8,1-1.2
			c0.5-0.5,1.1-0.8,1.8-0.5C272.8,26.2,273,26.8,273,28z M260.5,47.2c1.9-1.5,6.5-9.5,6.6-11.3C264.8,39.5,262.6,43.2,260.5,47.2z"
			/>
		<path class="st1" d="M99.4,76.3c-0.6,0-1.2-0.1-1.5-0.7c-0.4-0.8,0.1-1.3,0.5-1.8c5.8-7.9,11.4-15.8,16.9-23.8
			c6.5-9.6,13.2-19,20.1-28.3c0.1-0.2,0.3-0.3,0.4-0.5c0.5-0.8,1.2-1.3,2.1-0.8c1,0.5,0.7,1.4,0.4,2.2c-3.3,9-6.4,18.1-9.3,27.2
			c-2.5,7.6-4.6,15.3-6.6,23.1c-0.3,1.2-0.8,1.7-2,1.7c-6.3,0.3-12.6,0.9-18.8,1.5C100.6,76.1,100,76.2,99.4,76.3z M102,73
			c0.2,0.3,0.4,0.2,0.6,0.2c5.4-0.5,10.8-1.1,16.2-1.3c0.7,0,0.8-0.3,1-0.9c3.4-13.4,7.7-26.5,12.2-39.5c0.1-0.3,0.3-0.5,0-1
			c-0.3,0.4-0.6,0.7-0.8,1c-7.7,10.5-14.8,21.4-22.4,32C106.6,66.8,104.5,70,102,73c0.1,0,0.1,0.1,0.2,0.2c0,0,0-0.1,0.1-0.1
			C102.1,73.1,102.1,73.1,102,73z M132.4,30.3C132.3,30.3,132.3,30.3,132.4,30.3c-0.1,0-0.1,0-0.1,0
			C132.3,30.3,132.3,30.4,132.4,30.3C132.4,30.4,132.4,30.3,132.4,30.3z"/>
		<path class="st0" d="M86.4,78.6c-0.5,0.1-0.8-0.2-1.1-0.6c-0.3-0.5-0.4-1.1,0-1.6c1.7-2.1,3.4-4.2,5.1-6.3
			c0.5-0.6,1.3-0.7,1.9-0.1c0.6,0.5,0.6,1.2,0.2,1.8c-1.5,2.2-3.3,4.3-5.1,6.3C87.3,78.5,86.9,78.6,86.4,78.6z"/>
		<path class="st0" d="M121.3,32.6c-0.1,0.4-0.2,0.8-0.5,1.2c-1.4,1.8-2.8,3.7-4.1,5.6c-0.6,0.8-1.3,1.3-2.2,0.7
			c-0.7-0.5-0.7-1.4,0-2.3c1.5-2,3-4,4.4-6c0.4-0.6,0.9-0.8,1.5-0.6C121,31.5,121.3,31.9,121.3,32.6z"/>
		<path class="st0" d="M17,118.7c-0.5,0-0.8-0.2-1.1-0.6c-1.9-2-3.2-4.3-4-6.9c-0.3-0.9,0-1.6,0.9-1.9c0.9-0.3,1.5,0.2,1.8,1.1
			c0.6,2.3,1.7,4.3,3.5,6c0.5,0.4,0.5,1,0.2,1.5C18,118.4,17.6,118.8,17,118.7z"/>
		<path class="st0" d="M40.3,120.8c-0.8-0.1-1.3-0.2-1.4-1c-0.1-0.8,0.2-1.4,1-1.7c1.1-0.4,2.2-0.6,3.3-1c1.3-0.4,2.6-0.9,3.8-1.3
			c0.8-0.3,1.6-0.3,2,0.7c0.3,0.9-0.1,1.5-1,1.8c-2.3,0.9-4.5,1.7-6.9,2.3C40.8,120.7,40.5,120.8,40.3,120.8z"/>
		<path class="st0" d="M81.5,82.2c0.5,0,0.8,0.2,1,0.6c0.3,0.5,0.4,1.1,0,1.6c-1.7,2-3.4,4.1-5.2,6.1c-0.6,0.7-1.3,0.6-1.9,0.1
			c-0.7-0.5-0.6-1.2-0.1-1.8c1.5-1.9,3.1-3.8,4.6-5.8C80.4,82.6,80.9,82.2,81.5,82.2z"/>
		<path class="st0" d="M129.7,18.3c1,0.1,1.5,1.2,0.9,2.1c-1.5,2.2-3.1,4.3-4.8,6.4c-0.4,0.6-1,0.8-1.7,0.4c-0.7-0.4-0.9-1-0.6-1.7
			c0.1-0.3,0.3-0.6,0.5-0.8c1.4-1.8,2.8-3.7,4.2-5.5C128.5,18.6,129,18.3,129.7,18.3z"/>
		<path class="st0" d="M105.7,53.1c-1.1,0-1.7-1.1-1.1-2c1.5-2.2,3.2-4.4,4.8-6.5c0.5-0.6,1.2-0.7,1.8-0.2c0.7,0.5,0.8,1.2,0.3,1.9
			c-1.6,2.2-3.3,4.3-4.9,6.5C106.4,53,106.1,53.1,105.7,53.1z"/>
		<path class="st0" d="M62,107.7c0,0.5-0.1,0.8-0.3,1.1c-1.9,2-3.7,4-6.1,5.5c-0.7,0.4-1.4,0.5-1.9-0.3c-0.4-0.7-0.3-1.4,0.4-1.9
			c2.2-1.4,3.9-3.3,5.7-5.1c0.5-0.5,1-0.6,1.6-0.4C61.9,106.9,62.1,107.3,62,107.7z"/>
		<path class="st0" d="M66.2,103.2c-0.6,0-1.1-0.1-1.4-0.6c-0.3-0.5-0.2-1,0.2-1.4c1.6-2,3.3-4,4.9-6c0.6-0.7,1.4-0.7,2-0.2
			c0.7,0.6,0.7,1.2,0.1,2c-1.6,1.8-3.1,3.7-4.7,5.6C67,102.8,66.7,103.2,66.2,103.2z"/>
		<path class="st0" d="M96.3,66c-1.1-0.1-1.7-1.2-1-2.2c1.5-2,3-4,4.5-6c0.5-0.8,1.1-1.1,2-0.5c0.9,0.7,0.7,1.4,0.1,2.2
			c-1.4,2-2.9,3.9-4.3,5.8c-0.1,0.1-0.2,0.3-0.3,0.4C97,66,96.7,66,96.3,66z"/>
		<path class="st0" d="M28.6,122.2c-1.5,0.1-3-0.1-4.5-0.4c-0.8-0.2-1.1-0.6-1-1.4c0.1-0.9,0.6-1.1,1.4-1c2.6,0.4,5.2,0.3,7.7,0.2
			c0.9,0,1.3,0.5,1.4,1.2c0.1,0.8-0.4,1.1-1.1,1.3C31.2,122.2,29.9,122.2,28.6,122.2z"/>
		<path class="st0" d="M136.4,8.9c1.1,0,1.8,1,1.2,2c-0.7,1.2-1.6,2.3-2.5,3.4c-0.5,0.6-1.1,0.6-1.7,0.2c-0.6-0.4-0.8-0.9-0.5-1.5
			c0.7-1.4,1.7-2.6,2.7-3.7C135.8,8.9,136.1,8.8,136.4,8.9z"/>
		<path class="st0" d="M10.8,101.2c0.1-0.7,0.2-1.6,0.3-2.4c0.1-0.9,0.6-1.4,1.5-1.3c0.9,0.1,1.2,0.7,1.1,1.5
			c-0.1,1.2-0.2,2.4-0.2,3.6c-0.1,0.9-0.5,1.5-1.4,1.4c-0.9,0-1.3-0.7-1.3-1.5C10.8,102,10.8,101.7,10.8,101.2z"/>
		<path class="st0" d="M294.2,89.7c2.6-8.6,7.9-15,15.3-19.6c1.4-0.8,3-1.5,4.5-0.4c1.5,1.1,1.4,2.8,1.1,4.4
			c-0.6,3.7-2.7,6.5-5.5,8.8C305.1,86.5,299.8,88.1,294.2,89.7z"/>
		<path class="st0" d="M260.5,47.2c2.1-4,4.3-7.6,6.6-11.3C267,37.7,262.3,45.6,260.5,47.2z"/>
		<path class="st0" d="M102,73c2.5-3,4.6-6.3,6.9-9.4c7.6-10.6,14.8-21.5,22.4-32c0.2-0.3,0.5-0.6,0.8-1c0.2,0.4,0,0.7,0,1
			c-4.5,13-8.8,26.2-12.2,39.5c-0.1,0.6-0.3,0.8-1,0.9c-5.4,0.3-10.8,0.8-16.2,1.3C102.4,73.2,102.2,73.3,102,73L102,73z"/>
		<path class="st0" d="M102,73c0.1,0,0.1,0,0.2,0.1c0,0,0,0.1-0.1,0.1C102.1,73.2,102.1,73.1,102,73C102,73,102,73,102,73z"/>
		<path class="st0" d="M132.4,30.3C132.4,30.3,132.4,30.4,132.4,30.3c0,0.1-0.1,0.1-0.1,0C132.2,30.3,132.3,30.3,132.4,30.3
			C132.3,30.3,132.3,30.3,132.4,30.3z"/>
	</g>
</g>
</svg>
