<?xml version="1.0" encoding="utf-8"?>
<!-- Generator: Adobe Illustrator 26.0.2, SVG Export Plug-In . SVG Version: 6.00 Build 0)  -->
<svg version="1.1" id="Layer_1" xmlns="http://www.w3.org/2000/svg" xmlns:xlink="http://www.w3.org/1999/xlink" x="0px" y="0px"
	 viewBox="0 0 718 260" style="enable-background:new 0 0 718 260;" xml:space="preserve">
<style type="text/css">
	.st0{fill:#99CA3E;}
	.st1{fill:#057568;}
</style>
<g>
	<path class="st0" d="M176.6,166.8c13.5-5.7,19.2-13,26.8-34.6c8.3,33.5-3.6,69.2-43.6,85.7c-12.6,5.2-25.7,7.3-39.3,8.2
		c-13.4,0.9-26.9,0.1-40.3,1.9c-9.1,1.3-18,3.4-25.2,9.6c-0.7,0.6-1.3,1.7-2.5,0.9c-4.2-3.1-9-5.3-12.2-9.6
		c4.3,0.5,8.6,0.2,12.8-0.9c13.3-3.3,22.2-12.4,22.8-23.2c0.5-9-2.2-17-7.8-24c-6.6-8.3-14.1-15.9-20.2-24.6
		c-12.3-17.7-16.3-37.8-17-58.8c0.3-3.5,0.6-6.9,0.9-10.4C35,47.8,63.3,14.2,101.3,4.6c5.5-1.4,11.1-2.6,16.7-3.9c9.7,0,19.3,0,29,0
		c8.8,2.7,18,4.3,26.4,8.2c46.1,20.9,73.9,56,79.3,106.5c7.5,69.6-38.5,129.5-107.7,142.3c-28.6,5.3-61.9-0.9-87.5-16.2
		c2.4-1.2,4.1,0.5,5.9,1.3c65.9,29.7,143.5-0.8,170.1-67.5c28.7-72-14-147.5-82.6-165.8C123.7,2,95.2,13.5,82.6,36.2
		c-8.8,15.7-9.3,32.1-3,49c6.6,17.7,14.9,34.8,21.7,52.4c3.4,8.9,5.7,18,6,27.6c-0.1,6.9-0.7,13.8-3.4,21.5
		c15.3-8.2,31.1-9.5,46.8-11.8C159.6,173.6,168.6,171.6,176.6,166.8z"/>
	<path class="st1" d="M0.1,109.3c2-2.7,1.9-6.1,2.9-9.1c4.4-13,11.9-24,21.7-34.3c1.2,11,1.8,21.7,6.3,31.5c0.7,21,4.7,41.1,17,58.8
		c6.1,8.8,13.6,16.3,20.2,24.6c5.6,7,8.3,15,7.8,24c-0.6,10.8-9.5,19.9-22.8,23.2c-4.2,1.1-8.5,1.4-12.8,0.9
		c5.8-4.1,11.8-8,13.7-15.6c1.4-5.7-0.3-10.8-3.4-15.5c-3.3-5.1-7.7-9.2-12.4-12.9c-18.4-14.5-32.8-31.8-37.7-55.4
		c0-0.1-0.3-0.2-0.4-0.2C0.1,122.6,0.1,116,0.1,109.3z"/>
	<path class="st1" d="M576.5,0.6c-0.2,1.8-0.4,3.6-0.4,5.4c0,32.9-0.1,65.7,0.1,98.6c0,3.9-0.9,5.6-4.9,4.9c-0.5-0.1-1,0-1.5,0
		c-7.9,0-7.9,0-8.5-8.5c-7.6,7.7-16.6,11.1-27,10.3c-10.3-0.8-18.8-5-25.1-13.4c-11.6-15.6-9.6-39.1,4.2-52.4
		c10.7-10.3,32.1-13.4,47.1,0.8c0-15.8,0-30.7,0-45.6C565.9,0.6,571.2,0.6,576.5,0.6z M560.7,74c0-13.6-8.8-23.2-21.3-23.3
		c-12.4-0.1-21.9,10.1-21.8,23.5c0.1,13.1,9.5,23,21.8,23C552,97.2,560.7,87.7,560.7,74z"/>
	<path class="st1" d="M717.4,22.6c-1.4,0.4-1.3,1.8-1.8,2.8c-3.8,7.3-10.7,10.8-18.4,9.3c-7.3-1.4-12.9-7.7-13.6-15.2
		c-0.7-7.7,3.7-14.9,10.8-17.8c0.7-0.3,1.7,0,2-1.1c2.7,0,5.3,0,8,0c6.4,2.3,10.4,6.9,13,13C717.4,16.6,717.4,19.6,717.4,22.6z
		 M709.8,26.5c5.4-6,4.8-14.5-1.3-19.4c-5.5-4.5-13.9-3.4-18.2,2.2c-4.7,6.2-3.5,14.9,2.7,19.4c5.5,4,12.8,3.1,16.4-2.5
		c-3.5,0.9-5.9-0.3-7.6-3.3c-0.6-1.1-1.3-2.7-3-2.1c-1.3,0.5-0.9,2-0.9,3.1c0,1.5-0.3,2.5-2.2,2.5c-2.3,0-2.2-1.4-2.2-2.9
		c0-2.8,0-5.6,0-8.5c0-6.4,0-6.4,6.6-6.1c1,0,2,0,3,0.3c3.5,1,5.4,4.1,3.8,6.8C703.8,21.3,707.3,23.5,709.8,26.5z M702.7,14.9
		c-0.3-1.6-1.3-2.1-2.8-2.1c-1.6,0-1.9,0.9-2,2.2c0,1.4,0.6,2.2,2.1,2.1C701.4,17,702.5,16.5,702.7,14.9z"/>
	<path class="st0" d="M292.4,225.5c0,10.3-0.1,19.8,0.1,29.2c0.1,3.6-1.1,4.4-4.6,4.4c-11.2,0-11.2,0.1-11.2-11.1
		c0-27.1,0.1-54.1-0.1-81.2c0-4.6,1.3-5.6,5.6-5.4c8.2,0.3,8.2,0.1,9.8,8.1c17.5-13,36.9-12.5,49.6,1.4
		c12.6,13.7,12.7,38.3,0.6,52.2C332.2,234.8,310.7,240.7,292.4,225.5z M335.1,197.3c0-15-11.9-25.6-25.4-22.8
		c-8,1.6-13.8,5.9-16,13.9c-2.4,9-2.3,17.9,4.4,25.3c5.8,6.5,15.5,8.4,23.8,5.1C330.1,215.6,335.1,207.3,335.1,197.3z"/>
	<path class="st0" d="M591,202.7c-7.3,0-14.6,0.3-21.9-0.1c-4.9-0.2-4.7,1.7-3.2,5.1c4.7,11,17.6,15.9,30.4,11.7
		c3.3-1.1,6.5-2.6,9.2-4.9c1.9-1.6,3-1.8,4.7,0.4c6.4,8.3,6.2,9.5-3.3,14.7c-24.1,13-52.7,0.6-57.9-25.2c-3.3-16.1,5-33.2,19.6-40.5
		c14.2-7.2,31.5-4.5,41.8,6.6c7.7,8.3,9.2,18.4,7.8,29.3c-0.3,2.6-1.9,3-4.2,3C606.3,202.6,598.6,202.7,591,202.7z M584,190.2
		c4.5,0,9,0,13.4,0c6.1,0,6.7-1,4.2-6.7c-3.1-7.2-10.8-11.4-19.2-10.3c-7.5,1-15.7,7.9-17,14.2c-0.5,2.5,0.7,2.8,2.6,2.8
		C573.4,190.2,578.7,190.2,584,190.2z"/>
	<path class="st1" d="M401,79.3c-7.5,0-15,0.2-22.4-0.1c-4.3-0.2-4.2,1.4-2.9,4.6c4.1,10.3,15.7,15.9,27.7,13.2
		c4.6-1,8.9-2.9,12.4-6c2.2-1.9,3.1-1.2,4.5,0.8c6.3,8.7,6.2,9.3-3.4,14.5c-23.7,12.8-52,0.8-57.6-24.4c-3.6-16,4.1-33.1,18.2-40.7
		c14.3-7.7,31.5-5.8,42,4.9c8.2,8.3,10.4,18.5,8.7,29.8c-0.4,2.7-1.5,3.5-4.2,3.4C416.3,79.1,408.6,79.3,401,79.3z M393.5,66.9
		c5.3,0,10.6-0.1,15.9,0.1c2.9,0.1,4.1-0.8,3.2-3.7c-0.5-1.7-1.1-3.5-2-5.1c-3.5-6.1-11.1-9.5-18.3-8.3c-8.3,1.4-15.5,7.7-17.1,14.7
		c-0.6,2.7,0.9,2.3,2.4,2.3C382.9,67,388.2,66.9,393.5,66.9z"/>
	<path class="st1" d="M639.5,79.3c-7.5,0-15,0.2-22.5-0.1c-3.8-0.1-4.1,1.1-2.9,4.3c4.5,11.7,18.1,17.2,31.3,12.4
		c2.5-0.9,5.2-1.9,7-3.7c4-4,5.7-1.8,7.9,1.7c4.1,6.5,4.3,6.4-2.4,10.7c-23.1,15.1-53.8,3.9-60-21.8c-3.8-15.7,2.8-32.3,16.2-40.7
		c13.2-8.3,30.4-7.5,41.9,2.3c10,8.6,12.5,19.8,10.3,32.5c-0.5,2.8-2.3,2.3-4.1,2.3C654.8,79.3,647.2,79.3,639.5,79.3z M632.4,67
		c4.8,0,9.6,0,14.4,0c5.2,0,5.6-0.6,3.8-5.8c-2.7-7.5-10.4-12.3-18.4-11.5c-8.6,0.8-17.3,8.1-18.5,15.2c-0.4,2.3,0.9,2.1,2.2,2.1
		C621.5,67,626.9,66.9,632.4,67z"/>
	<path class="st0" d="M441.1,226.1c-9.5,7.8-19,10-29.5,7.9c-11.8-2.3-18.2-9.8-18-20.9c0.2-10,7.5-17.4,18.9-19.1
		c7.6-1.2,15.3-0.6,22.9-0.6c3.4,0,4.6-0.9,4.5-4.4c-0.1-11.6-8.6-17.7-20.5-14.5c-4.8,1.3-8.8,3.9-12.1,7.6c-1.7,2-2.8,1.9-4.7,0.1
		c-7.4-7-7.4-8.8,0.9-14.9c11.2-8.2,23.6-9.8,36.4-4.8c10.8,4.2,15.4,13.4,15.7,24.5c0.4,14.1,0,28.2,0.2,42.3
		c0,2.8-0.8,3.9-3.6,3.6c-1.6-0.2-3.4-0.2-5,0C442.6,233.7,440,232.4,441.1,226.1z M426.9,204.9c-3.4,0.4-8-0.7-12.3,1.1
		c-3,1.2-4.9,3.3-5.1,6.7c-0.2,3.2,0.8,5.8,3.6,7.7c9.1,6.1,24.2,0,26.5-10.7c0.6-3.1,0.3-5.2-3.7-4.8
		C433.2,205.1,430.5,204.9,426.9,204.9z"/>
	<path class="st0" d="M487,168.2c7.5-6.2,14.8-8.5,22.9-8.2c14.8,0.5,25.2,10.3,25.6,25.1c0.4,14.8,0.1,29.6,0.1,44.3
		c0,2.4-0.5,3.4-3.2,3.6c-12.4,0.5-12.4,0.6-12.4-11.9c0-10.1,0.1-20.3,0-30.4c-0.1-10.6-6-16.8-15.6-16.6
		c-9.4,0.1-15.7,6.8-15.7,16.9c0,12.6-0.1,25.2,0.1,37.9c0,3.2-0.8,4.2-4.1,4.2c-11.8,0-11.8,0.1-11.8-11.5
		c0-18.4,0.1-36.9-0.1-55.3c0-3.7,0.9-5.3,4.7-4.8c1.5,0.2,3,0.1,4.5,0C485.6,161.3,489.4,161,487,168.2z"/>
	<path class="st0" d="M635.6,195.2c0-5.5-0.1-11,0-16.4c0-2.3-0.3-3.5-3.2-3.7c-9-0.4-8.9-0.5-8.7-9.5c0.1-3,1-4.3,4-4
		c1.3,0.1,2.7-0.1,4,0c3.2,0.4,4-1.1,3.9-4c-0.2-3.8-0.8-7.8,0.1-11.4c1.7-6.5,7.4-1.7,11.2-2.9c2-0.6,4.8-0.9,4.6,3.1
		c-0.2,3.8,0.1,7.6-0.1,11.5c-0.2,3.2,1.1,4,4,3.9c4.7-0.2,9.3,0,14-0.1c2.3-0.1,3.1,0.8,3.2,3.2c0.7,10.5,0.7,10.5-9.8,10.5
		c-11.4,0-11.4,0-11.4,11.3c0,6.8,0,13.6,0,20.4c0,10.1,4.3,14.3,14.4,13.9c9.9-0.3,10.3,0.1,9.3,9.7c-0.2,2.1-1.1,3-3,3.3
		c-6.8,1.3-13.5,1.6-20.2-0.3c-10.4-3-16-10.6-16.3-22.3C635.5,205.8,635.6,200.5,635.6,195.2z"/>
	<path class="st1" d="M274.7,38.3c4.9,0,9.5,0.1,14.1,0c2.9-0.1,3,2.3,3.7,4c6.2,13.9,12.4,27.9,18.9,42.7c4-8.9,7.6-17.2,11.3-25.4
		c2.6-5.9,5.3-11.8,7.8-17.8c1-2.4,2.1-3.8,5-3.5c3,0.3,6,0.2,9,0c3.5-0.2,3.9,0.7,2.4,3.9c-9.2,19.3-18.3,38.6-27.4,58
		c-1.4,3-3,5.9-4.2,9c-0.8,1.9-2.1,2.2-3.9,2.2c-1.9,0-3-0.5-3.8-2.4c-10.7-22.8-21.6-45.5-32.4-68.3
		C275,40.1,274.9,39.5,274.7,38.3z"/>
	<path class="st0" d="M380.6,178.5c0,16.8-0.1,33.5,0.1,50.3c0,3.2-0.8,4.2-4.2,4.2c-11.6,0-11.6,0.2-11.6-11.2
		c0-30.9,0.1-61.7-0.1-92.6c0-4.1,0.9-5.4,5.2-5.3c10.6,0.3,10.6,0,10.6,10.7C380.6,149.3,380.6,163.9,380.6,178.5z"/>
	<path class="st1" d="M464.6,46.2c6.5-6.5,13.7-9.1,22.1-8.7c3,0.1,4.3,1.2,3.8,4.2c0,0.3,0,0.7,0,1c0.1,8.6,0.1,8.6-8.2,9.6
		c-10.9,1.4-17.1,8.3-17.2,19.5c-0.1,11.3-0.1,22.6,0,33.9c0,3-0.7,4-3.9,4c-11.9,0.1-11.9,0.3-11.9-11.8c0-18.3,0.1-36.5-0.1-54.8
		c0-3.5,0.6-5.4,4.5-4.7c0.8,0.1,1.7,0,2.5,0C463.8,38.3,463.8,38.3,464.6,46.2z"/>
	<path class="st1" d="M176.6,166.8c-8,4.8-17,6.8-25.9,8.1c-15.7,2.2-31.5,3.6-46.8,11.8c2.7-7.7,3.3-14.6,3.4-21.5
		c9.5-2.7,19.5-1.4,29.2-2.9c12.5-1.9,24.3-5.1,33.6-14.5c4.4-4.5,7.2-9.9,8.9-15.8c0.3-1,0.7-2.1,1.5-4.2
		C182.4,142,181.1,154.5,176.6,166.8z"/>
</g>
</svg>
